<?xml version="1.0" encoding="UTF-8"?>
<svg width="28px" height="25px" viewBox="0 0 28 25" version="1.1" xmlns="http://www.w3.org/2000/svg" xmlns:xlink="http://www.w3.org/1999/xlink">
    <!-- Generator: Sketch 53.2 (72643) - https://sketchapp.com -->
    <title>Group 4</title>
    <desc>Created with Sketch.</desc>
    <g id="UI-Aplicativo" stroke="none" strokeWidth="1" fill="none" fillRule="evenodd">
        <g id="Mapa" transform="translate(-220.000000, -765.000000)" fill="#EDEDED">
            <g id="Group-5" transform="translate(2.000000, 746.000000)">
                <g id="Group-4" transform="translate(218.000000, 19.000000)">
                    <g id="Group-3" transform="translate(9.000000, 0.000000)">
                        <path d="M8.88888889,6.66666667 C8.27524205,6.66666667 7.77777778,6.39527424 7.77777778,5.30578424 C7.77777778,4.21647243 8.27524205,3.33333333 8.88888889,3.33333333 C9.50253573,3.33333333 10,4.21647243 10,5.30578424 C10,6.39527424 9.50253573,6.66666667 8.88888889,6.66666667" id="Path"></path>
                        <path d="M8.88661842,8.34193292 C8.83927543,9.22715792 8.03638769,9.9501391 7.04766104,9.99742068 C6.67827969,10.0151315 6.33027334,9.94017677 6.02890338,9.79690884 L6.02749016,9.79880643 C5.7291233,9.63260931 5.37723059,9.5363067 4.99989986,9.5363067 C4.65401335,9.5363067 4.32950185,9.6174286 4.04791702,9.75895707 L4.04738706,9.75848267 C3.7193425,9.93195388 3.32982271,10.0220893 2.91468824,9.99536496 C1.97683764,9.93464213 1.21051707,9.26700727 1.12042406,8.42906386 C1.04905626,7.76554044 1.39388285,7.16953954 1.94839652,6.82433658 L1.94645333,6.8210158 C2.35452168,6.59504465 2.66914062,6.10799696 2.81205287,5.81798219 C3.19574311,5.03918028 3.99050481,4.44444444 4.99601349,4.44444444 C6.02607694,4.44444444 6.80935619,5.07586699 7.20223239,5.87649117 C7.33578203,6.14863698 7.65075427,6.59061694 8.02932158,6.80710016 L8.02790835,6.80947214 C8.57164618,7.13743867 8.92053579,7.70418508 8.88661842,8.34193292" id="Path"></path>
                        <path d="M0,5.30578424 C0,4.21647243 0.497643167,3.33333333 1.11122636,3.33333333 C1.72480955,3.33333333 2.22222222,4.21647243 2.22222222,5.30578424 C2.22222222,6.39527424 1.72480955,6.66666667 1.11122636,6.66666667 C0.497643167,6.66666667 0,6.39527424 0,5.30578424 Z" id="Path"></path>
                        <path d="M4.44444444,1.97238862 C4.44444444,3.06186738 3.94697396,3.33333333 3.33333333,3.33333333 C2.71969271,3.33333333 2.22222222,3.06186738 2.22222222,1.97238862 C2.22222222,0.883082008 2.71969271,0 3.33333333,0 C3.94697396,0 4.44444444,0.883082008 4.44444444,1.97238862 Z" id="Path"></path>
                        <path d="M7.77777778,1.97238862 C7.77777778,3.06186738 7.28034923,3.33333333 6.66676034,3.33333333 C6.05317146,3.33333333 5.55555556,3.06186738 5.55555556,1.97238862 C5.55555556,0.883082008 6.05317146,0 6.66676034,0 C7.28034923,0 7.77777778,0.883082008 7.77777778,1.97238862 Z" id="Path"></path>
                    </g>
                    <g id="Group-17" transform="translate(0.000000, 5.000000)">
                        <path d="M15.2864545,15.0307901 C15.2867565,13.8195941 15.2937016,12.6085496 15.2840388,11.3975051 C15.2783016,10.6766921 15.5200212,10.0827519 16.0362231,9.56950763 C17.3577545,8.25505725 18.6546761,6.91592875 19.9679035,5.5933028 C20.6944212,4.86158906 21.5461016,4.80072646 22.1649702,5.41858779 C22.7802153,6.03296692 22.7329584,6.79359796 22.0133859,7.54423664 C21.4379996,8.14423282 20.8506859,8.73287405 20.2594467,9.31727608 C19.9099271,9.66261832 19.7372055,10.0408142 20.1454565,10.423855 C20.5348349,10.7894847 20.9285918,10.642173 21.2722231,10.296528 C22.4619486,9.09941221 23.6462388,7.89654326 24.8486467,6.71214504 C25.11558,6.44916412 25.1454741,6.15590331 25.1441153,5.82025064 C25.1391329,4.4326743 25.1371702,3.04479517 25.1477388,1.65721883 C25.1552878,0.658284987 25.6991192,0.0525356234 26.555329,0.0576832061 C27.4041408,0.0626793893 27.949029,0.676604326 27.9531055,1.67235878 C27.9614094,3.74123282 27.9446506,5.81025827 27.9608055,7.87913232 C27.9663918,8.60706107 27.7205957,9.18782952 27.20228,9.69668321 C25.2421016,11.6196081 23.306231,13.5672112 21.3398624,15.4833232 C21.019331,15.7959631 20.8935643,16.1060293 20.9068506,16.5413028 C20.9313094,17.3478079 20.9092663,18.155827 20.903831,18.9632405 C20.8999055,19.5464313 20.6307075,19.8393893 20.0219545,19.8321221 C18.7389231,19.816528 17.4554388,19.8153168 16.1724075,19.8324249 C15.5096035,19.8412061 15.282378,19.4949555 15.2846427,18.8910229 C15.2896251,17.6042786 15.2861525,16.3175344 15.2864545,15.0307901" id="Fill-1"></path>
                        <path d="M12.8309923,15.0788962 C12.8309923,16.3177457 12.8375558,17.5565953 12.8287028,18.795293 C12.8225973,19.6500384 12.6437058,19.8285785 11.8019085,19.8319186 C10.556537,19.8369286 9.31086014,19.8158257 8.06548859,19.8331331 C7.41586225,19.8422423 7.1307349,19.5405764 7.13378766,18.9196334 C7.13622986,18.4392756 7.07593794,17.948594 7.15317265,17.4803817 C7.34732789,16.3037783 6.83675456,15.5114308 5.99236243,14.7348725 C4.22069587,13.1055425 2.54671747,11.3714568 0.813668259,9.69992082 C0.245855764,9.15245864 -0.00935458302,8.53090839 0.000261596325,7.74433003 C0.0249889147,5.72209034 0.00239852507,3.69924338 0.0104883267,1.67670006 C0.0147621842,0.625499789 0.564563423,-0.00136414904 1.44803082,2.22912952e-06 C2.32142413,0.00136860729 2.84894025,0.63202804 2.85412993,1.7008394 C2.86069336,3.06615483 2.86313556,4.43131844 2.85351938,5.79648204 C2.85122982,6.13701385 2.89106827,6.42456054 3.15864228,6.68599423 C4.373181,7.87292139 5.57047164,9.07745966 6.77203615,10.2774433 C7.12005026,10.6251107 7.51110822,10.7694913 7.9087296,10.4037574 C8.28208158,10.0600374 8.1920253,9.68656068 7.85210099,9.34860981 C7.22323339,8.72311225 6.58658126,8.1045984 5.97374063,7.46376704 C5.28931288,6.74793671 5.25924324,5.99111502 5.85972021,5.38687223 C6.4569918,4.78581766 7.33649061,4.81208249 8.02656596,5.49587885 C9.41251689,6.86924072 10.7760301,8.26507193 12.1560281,9.64450659 C12.6575958,10.1459674 12.8274817,10.7544611 12.8242763,11.4384093 C12.818476,12.6519049 12.8225973,13.8654006 12.8225973,15.0788962 L12.8309923,15.0788962 Z" id="Fill-4"></path>
                    </g>
                </g>
            </g>
        </g>
    </g>
</svg>