<?xml version="1.0" encoding="UTF-8"?>
<svg width="10px" height="6px" viewBox="0 0 10 6" version="1.1" xmlns="http://www.w3.org/2000/svg" xmlns:xlink="http://www.w3.org/1999/xlink">
    <!-- Generator: Sketch 53.2 (72643) - https://sketchapp.com -->
    <title>Group 57</title>
    
    <g id="UI-Aplicativo" stroke="none" stroke-width="1" fill="none" fill-rule="evenodd">
        <g id="Adoçao-e-Apadrinhamento" transform="translate(-110.000000, -175.000000)" fill="#000000" fill-rule="nonzero">
            <g id="Group-7" transform="translate(32.000000, 164.000000)">
                <g id="Group-57" transform="translate(78.000000, 11.000000)">
                    <g id="down">
                        <path d="M10,0.513145522 C10,0.625816759 9.95829651,0.739661654 9.87488953,0.834728009 L5.43216459,5.80869363 C5.32399617,5.92958048 5.16109191,6 4.98776178,6 C4.81573488,6 4.65152739,5.92958048 4.54466219,5.80869363 L0.125395472,0.855853866 C-0.0713928719,0.635206028 -0.0322958499,0.312449883 0.212712155,0.135227417 C0.457720159,-0.0419950484 0.816109528,-0.00678528708 1.01289787,0.213862551 L4.98906501,4.66907102 L8.98738713,0.191563035 C9.18417547,-0.0290848026 9.54256484,-0.064294564 9.78757285,0.112927902 C9.92701889,0.215036209 10,0.362917207 10,0.513145522 Z" id="Shape"></path>
                    </g>
                </g>
            </g>
        </g>
    </g>
</svg>