<?xml version="1.0" encoding="UTF-8"?>
<svg width="15px" height="15px" viewBox="0 0 15 15" version="1.1" xmlns="http://www.w3.org/2000/svg" xmlns:xlink="http://www.w3.org/1999/xlink">
    <!-- Generator: Sketch 53.2 (72643) - https://sketchapp.com -->
    <title>Path</title>
    
    <g id="Symbols" stroke="none" strokeWidth="1" fill="none" fillRule="evenodd">
        <g id="imagepicker/remove/container" transform="translate(-8.000000, -8.000000)" fill="#FFFFFF">
            <g id="imagepicker/remove/">
                <g id="Group-8">
                    <path d="M22.5633762,10.2541077 C22.9152412,9.90153354 22.9208264,9.32717887 22.5773391,8.9660747 L22.5773391,8.9660747 C22.2310593,8.60781387 21.6669583,8.60212719 21.3123008,8.951858 L15.8332603,14.4196007 L10.3542199,8.95470134 C10.0023549,8.60212719 9.43546132,8.60781387 9.0891815,8.96891804 L9.0891815,8.96891804 C8.74290167,9.32717887 8.74848683,9.90437688 9.10314439,10.256951 L14.5570516,15.693417 L9.10314439,21.1327264 C8.75127941,21.4853005 8.74569425,22.0596552 9.0891815,22.4207594 L9.0891815,22.4207594 C9.43546132,22.7790202 9.99956232,22.7847069 10.3542199,22.4349761 L15.8332603,16.9672333 L21.3123008,22.4321327 C21.6641657,22.7847069 22.2310593,22.7790202 22.5773391,22.417916 L22.5773391,22.417916 C22.923619,22.0596552 22.9180338,21.4824572 22.5633762,21.129883 L17.109469,15.693417 L22.5633762,10.2541077 L22.5633762,10.2541077 Z" id="Path"></path>
                </g>
            </g>
        </g>
    </g>
</svg>