<?xml version="1.0" encoding="utf-8"?>
<!-- Generator: Adobe Illustrator 23.0.1, SVG Export Plug-In . SVG Version: 6.00 Build 0)  -->
<svg version="1.1" id="Layer_1" xmlns="http://www.w3.org/2000/svg" xmlns:xlink="http://www.w3.org/1999/xlink" x="0px" y="0px"
	 viewBox="0 0 372.3 332" enable-background="new 0 0 372.3 332" xml:space="preserve">
<g>
	<defs>
		<path id="SVGID_1_" d="M16.25-149.72C35.27-138.74,108.27,13.01,245.36-4.8c137.08-17.81,213.27-142.43,241.89-16.31
			c28.63,126.12,18.54,158.24-37.66,277.54c-56.2,119.3-52.26,24.63-216.15,52.25c-163.89,27.62-237.86,31.28-333.92-7.32
			s-224.69-108.65-182.23-189.52s133.05-310.99,221.53-310.49S16.25-149.72,16.25-149.72z"/>
	</defs>
	<clipPath id="SVGID_2_">
		<use xlink:href="#SVGID_1_"  overflow="visible"/>
	</clipPath>
	<g clip-path="url(#SVGID_2_)" enable-background="new    ">
		<g>
			<defs>
				<rect id="SVGID_3_" x="-341" y="-361.02" width="944" height="904"/>
			</defs>
			<clipPath id="SVGID_4_">
				<use xlink:href="#SVGID_3_"  overflow="visible"/>
			</clipPath>
			<g clip-path="url(#SVGID_4_)">
				<defs>
					<rect id="SVGID_5_" x="-1" y="-2.02" width="375" height="378"/>
				</defs>
				<clipPath id="SVGID_6_">
					<use xlink:href="#SVGID_5_"  overflow="visible"/>
				</clipPath>
				
					<rect x="-179.71" y="-274.01" transform="matrix(0.5 -0.866 0.866 0.5 -13.152 159.1919)" clip-path="url(#SVGID_6_)" fill="#FAFAFA" width="622" height="730"/>
			</g>
			<g clip-path="url(#SVGID_4_)">
				<defs>
					<rect id="SVGID_7_" x="-55" y="-22.37" width="497" height="333"/>
				</defs>
				<clipPath id="SVGID_8_">
					<use xlink:href="#SVGID_7_"  overflow="visible"/>
				</clipPath>
				<g clip-path="url(#SVGID_8_)">
					<defs>
						<rect id="SVGID_9_" x="-1" y="-2.02" width="375" height="378"/>
					</defs>
					<clipPath id="SVGID_10_">
						<use xlink:href="#SVGID_9_"  overflow="visible"/>
					</clipPath>
					<rect x="-60" y="-27.37" clip-path="url(#SVGID_10_)" fill="#FFC524" width="507" height="343"/>
				</g>
			</g>
			<g clip-path="url(#SVGID_4_)">
				<defs>
					<path id="SVGID_11_" d="M-77.72,219.89c0,0,106.26-91.45,160.32-93.32c54.06-1.87,102.53,56.92,144.47,59.72
						c41.94,2.8,86.68-55.99,126.76-55.06c40.08,0.93,78.61,67.78,101.29,82.88v116.18H-73.31L-77.72,219.89z"/>
				</defs>
				<clipPath id="SVGID_12_">
					<use xlink:href="#SVGID_11_"  overflow="visible"/>
				</clipPath>
				<g clip-path="url(#SVGID_12_)">
					<defs>
						<rect id="SVGID_13_" x="-1" y="-2.02" width="375" height="378"/>
					</defs>
					<clipPath id="SVGID_14_">
						<use xlink:href="#SVGID_13_"  overflow="visible"/>
					</clipPath>
					<rect x="-82.72" y="121.53" clip-path="url(#SVGID_14_)" fill="#FFDE85" width="542.84" height="213.77"/>
				</g>
			</g>
			<g clip-path="url(#SVGID_4_)">
				<defs>
					<path id="SVGID_15_" d="M353.83,131.24c0,0-13.9,14.17-5.45,21.57c8.45,7.4,30.83,12.33,26.62,25.48
						c-4.21,13.15,34.71,41.23,80.11,35.83C432.44,199.02,393.91,132.17,353.83,131.24"/>
				</defs>
				<clipPath id="SVGID_16_">
					<use xlink:href="#SVGID_15_"  overflow="visible"/>
				</clipPath>
				<g clip-path="url(#SVGID_16_)">
					<defs>
						<rect id="SVGID_17_" x="-1" y="-2.02" width="375" height="378"/>
					</defs>
					<clipPath id="SVGID_18_">
						<use xlink:href="#SVGID_17_"  overflow="visible"/>
					</clipPath>
					<rect x="340.66" y="126.24" clip-path="url(#SVGID_18_)" fill="#FFB766" width="119.46" height="93.56"/>
				</g>
			</g>
			<g clip-path="url(#SVGID_4_)">
				<defs>
					<path id="SVGID_19_" d="M35.85,179.75c-1.13-7.95-7.44-14.51-10.16-22.15c-2-5.61-1.98-11.79,0.06-17.39
						c3.72-10.23,13.96-18.98,12.81-29.7c-0.29-2.68-1.31-5.27-1.69-7.94c-0.32-2.26,0.25-4.56,1.41-6.76
						c5.74-10.89,21.93-10.82,27.57,0.12c1.14,2.21,1.69,4.51,1.35,6.77c-0.41,2.67-1.45,5.24-1.76,7.93
						c-1.24,10.71,8.92,19.55,12.55,29.81c1.99,5.62,1.95,11.79-0.1,17.39c-2.79,7.61-9.15,14.12-10.35,22.06
						c-2.34,15.42,15.44,29.19,12.64,44.55c-2.13,11.69-15.72,19.12-28.77,20.8c-13.04-1.79-26.57-9.34-28.59-21.05
						C20.16,208.8,38.05,195.19,35.85,179.75"/>
				</defs>
				<clipPath id="SVGID_20_">
					<use xlink:href="#SVGID_19_"  overflow="visible"/>
				</clipPath>
				<g clip-path="url(#SVGID_20_)">
					<defs>
						<rect id="SVGID_21_" x="-1" y="-2.02" width="375" height="378"/>
					</defs>
					<clipPath id="SVGID_22_">
						<use xlink:href="#SVGID_21_"  overflow="visible"/>
					</clipPath>
					<rect x="17.55" y="82.69" clip-path="url(#SVGID_22_)" fill="#F99A07" width="67.93" height="167.55"/>
				</g>
			</g>
			<g clip-path="url(#SVGID_4_)">
				<defs>
					<path id="SVGID_23_" d="M52.55,157.44c-2.84-0.39-13.15-2.6-18.92-14.41c-0.13-0.26-0.02-0.57,0.24-0.7
						c0.26-0.13,0.57-0.02,0.7,0.24c5.46,11.18,15.12,13.39,17.97,13.81c-0.05-3.04-0.1-6.09-0.16-9.13
						c-0.21-10.49-0.51-20.98-0.86-31.47c-0.99-0.24-6.62-1.95-8.31-10.04c-0.06-0.28,0.12-0.56,0.4-0.62
						c0.29-0.07,0.56,0.12,0.62,0.4c1.44,6.91,5.92,8.76,7.26,9.16c-0.08-2.37-0.15-4.74-0.24-7.11c-0.01-0.29,0.21-0.53,0.49-0.54
						c0.29-0.01,0.53,0.21,0.55,0.49c0.51,10.5,0.92,20.99,1.27,31.49c2.44-0.88,9.88-4.14,10.81-11.7c0.04-0.29,0.3-0.49,0.58-0.45
						c0.29,0.04,0.49,0.3,0.45,0.58c-1.04,8.46-9.57,11.9-11.81,12.66c0.08,2.37,0.17,4.73,0.24,7.1
						c0.38,12.91,0.66,25.82,0.76,38.74c2.28-0.65,7.07-2.81,8.19-9.74c0.05-0.28,0.31-0.48,0.6-0.43c0.28,0.05,0.48,0.31,0.43,0.6
						c-1.26,7.75-6.8,10.02-9.21,10.64c0.09,13.21,0.03,26.43-0.46,39.65c-0.06,1.7-0.13,3.41-0.21,5.11
						c3.89-0.78,15.56-3.97,16.77-14.12c0.04-0.28,0.29-0.5,0.58-0.46c0.29,0.03,0.49,0.29,0.46,0.58
						c-1.31,11.05-14.06,14.33-17.86,15.07c-0.22,4.57-0.51,9.13-0.93,13.69c-0.66,6.62-1.32,13.25-3.49,19.84
						c0,0.01-0.01,0.03-0.01,0.04c-0.25,0.69-1.02,1.05-1.71,0.8c-0.69-0.25-1.05-1.02-0.8-1.71l0.02-0.07
						c1.07-2.95,1.7-6.17,2.27-9.38c0.25-1.62,0.49-3.24,0.71-4.86l0.56-4.9c0.67-6.55,1.08-13.14,1.39-19.73
						c0.18-3.9,0.32-7.8,0.44-11.7c-3.19-0.23-12.34-1.68-15.39-10.89c-0.09-0.27,0.06-0.57,0.33-0.66
						c0.27-0.09,0.57,0.06,0.66,0.33c2.84,8.59,11.43,9.96,14.43,10.17c0.26-8.96,0.37-17.93,0.4-26.9
						C52.77,177.11,52.69,167.27,52.55,157.44"/>
				</defs>
				<clipPath id="SVGID_24_">
					<use xlink:href="#SVGID_23_"  overflow="visible"/>
				</clipPath>
				<g clip-path="url(#SVGID_24_)">
					<defs>
						<rect id="SVGID_25_" x="-1" y="-2.02" width="375" height="378"/>
					</defs>
					<clipPath id="SVGID_26_">
						<use xlink:href="#SVGID_25_"  overflow="visible"/>
					</clipPath>
					<rect x="28.57" y="100.12" clip-path="url(#SVGID_26_)" fill="#F25007" width="48.16" height="172.19"/>
				</g>
			</g>
			<g clip-path="url(#SVGID_4_)">
				<defs>
					<path id="SVGID_27_" d="M-26.44,148.53c-1.31-9.22-8.62-16.83-11.78-25.68c-2.32-6.51-2.29-13.67,0.06-20.16
						c4.31-11.86,16.19-22.01,14.85-34.43c-0.33-3.11-1.51-6.11-1.96-9.21c-0.38-2.62,0.29-5.28,1.63-7.83
						c6.65-12.62,25.42-12.54,31.96,0.14c1.32,2.56,1.96,5.23,1.56,7.85c-0.47,3.1-1.68,6.08-2.04,9.19
						c-1.44,12.41,10.34,22.66,14.55,34.56c2.3,6.51,2.26,13.67-0.11,20.16c-3.23,8.83-10.6,16.37-12,25.58
						c-2.71,17.88,17.89,33.84,14.66,51.64C22.5,213.88,6.74,222.5-8.4,224.44c-15.12-2.08-30.8-10.83-33.15-24.4
						C-44.62,182.21-23.88,166.43-26.44,148.53"/>
				</defs>
				<clipPath id="SVGID_28_">
					<use xlink:href="#SVGID_27_"  overflow="visible"/>
				</clipPath>
				<g clip-path="url(#SVGID_28_)">
					<defs>
						<rect id="SVGID_29_" x="-1" y="-2.02" width="375" height="378"/>
					</defs>
					<clipPath id="SVGID_30_">
						<use xlink:href="#SVGID_29_"  overflow="visible"/>
					</clipPath>
					<rect x="-46.85" y="36.8" clip-path="url(#SVGID_30_)" fill="#A10E0D" width="77.16" height="192.65"/>
				</g>
			</g>
			<g clip-path="url(#SVGID_4_)">
				<defs>
					<path id="SVGID_31_" d="M-7.08,122.66c-3.29-0.45-15.25-3.01-21.94-16.7c-0.15-0.3-0.02-0.66,0.28-0.81
						c0.3-0.15,0.66-0.02,0.81,0.28c6.33,12.96,17.53,15.53,20.83,16.01c-0.05-3.53-0.11-7.05-0.18-10.58
						c-0.24-12.16-0.59-24.32-1-36.48c-1.15-0.28-7.68-2.26-9.64-11.64c-0.07-0.33,0.14-0.65,0.47-0.72
						c0.33-0.08,0.65,0.14,0.71,0.47c1.67,8.01,6.86,10.15,8.41,10.62c-0.1-2.75-0.17-5.5-0.28-8.25c-0.01-0.33,0.24-0.61,0.57-0.63
						c0.33-0.02,0.62,0.24,0.63,0.57c0.6,12.17,1.06,24.34,1.47,36.51c2.83-1.01,11.46-4.8,12.54-13.56
						c0.04-0.33,0.35-0.57,0.67-0.53c0.33,0.04,0.57,0.34,0.53,0.67C6.6,97.71-3.28,101.7-5.88,102.58c0.09,2.74,0.2,5.49,0.28,8.23
						c0.45,14.96,0.76,29.93,0.88,44.91c2.65-0.75,8.2-3.26,9.5-11.3c0.05-0.33,0.36-0.56,0.69-0.5c0.33,0.05,0.55,0.36,0.5,0.69
						c-1.46,8.99-7.88,11.61-10.68,12.34c0.11,15.31,0.03,30.64-0.53,45.96c-0.07,1.97-0.16,3.95-0.25,5.93
						c4.51-0.91,18.04-4.6,19.44-16.37c0.04-0.33,0.34-0.58,0.67-0.53c0.33,0.04,0.57,0.34,0.53,0.67
						c-1.52,12.82-16.3,16.62-20.71,17.47c-0.26,5.29-0.59,10.59-1.08,15.88c-0.77,7.68-1.53,15.36-4.05,23
						c0,0.01-0.01,0.03-0.02,0.05c-0.29,0.8-1.18,1.22-1.98,0.93c-0.8-0.29-1.22-1.18-0.92-1.99l0.03-0.08
						c1.24-3.42,1.96-7.16,2.63-10.87c0.29-1.87,0.57-3.75,0.82-5.64l0.65-5.68c0.78-7.59,1.25-15.23,1.61-22.88
						c0.21-4.52,0.37-9.04,0.51-13.56c-3.69-0.26-14.31-1.95-17.84-12.62c-0.1-0.32,0.07-0.66,0.38-0.76
						c0.32-0.11,0.66,0.07,0.76,0.38c3.3,9.96,13.25,11.54,16.73,11.79c0.3-10.39,0.43-20.79,0.46-31.19
						C-6.82,145.46-6.91,134.06-7.08,122.66"/>
				</defs>
				<clipPath id="SVGID_32_">
					<use xlink:href="#SVGID_31_"  overflow="visible"/>
				</clipPath>
				<g clip-path="url(#SVGID_32_)">
					<defs>
						<rect id="SVGID_33_" x="-1" y="-2.02" width="375" height="378"/>
					</defs>
					<clipPath id="SVGID_34_">
						<use xlink:href="#SVGID_33_"  overflow="visible"/>
					</clipPath>
					<rect x="-34.07" y="57.01" clip-path="url(#SVGID_34_)" fill="#F25007" width="54.23" height="198.03"/>
				</g>
			</g>
			<g clip-path="url(#SVGID_4_)">
				<defs>
					<path id="SVGID_35_" d="M379.16,214.76c-0.62-1.88-2.78-3.32-4.63-2.62c-1.38,0.52-2.41,2.06-3.89,1.96
						c-1.62-0.12-2.36-2.27-1.81-3.8c0.54-1.53,1.85-2.63,2.87-3.9c1.76-2.18,2.71-5.01,2.61-7.82c-0.06-1.68-0.78-3.66-2.42-4
						c-1.86-0.39-3.73,1.6-5.51,0.95c-1.29-0.47-1.76-2.14-1.44-3.48c0.32-1.34,1.19-2.46,1.88-3.65c1.34-2.32,2.01-5.01,1.92-7.69
						c-0.05-1.49-0.37-3.03-1.32-4.18c-0.94-1.15-2.64-1.77-3.98-1.12c-1.59,0.77-2,2.82-2.12,4.59c-0.1,1.43-0.45,3.25-1.85,3.5
						c-0.94,0.17-1.85-0.58-2.19-1.47c-0.34-0.89-0.25-1.89-0.14-2.84c0.75-6.22,2.24-12.74-0.02-18.58
						c-0.9-2.33-2.85-4.67-5.34-4.52c-2.5,0.09-4.2,2.61-4.88,5.02c-1.69,6.03,0.42,12.38,1.76,18.5c0.2,0.93,0.39,1.91,0.14,2.84
						c-0.25,0.92-1.09,1.76-2.04,1.68c-1.42-0.12-1.95-1.89-2.18-3.31c-0.29-1.75-0.89-3.75-2.55-4.36
						c-1.39-0.52-3.02,0.26-3.85,1.49c-0.83,1.23-1,2.8-0.91,4.28c0.16,2.67,1.09,5.29,2.64,7.47c0.8,1.12,1.78,2.15,2.22,3.45
						c0.44,1.3,0.14,3.01-1.1,3.6c-1.72,0.82-3.76-0.98-5.58-0.41c-1.61,0.5-2.13,2.54-2.03,4.22c0.17,2.8,1.39,5.53,3.35,7.53
						c1.14,1.16,2.55,2.13,3.23,3.6c0.69,1.47,0.16,3.68-1.44,3.96c-1.46,0.25-2.63-1.19-4.05-1.57c-1.91-0.52-3.92,1.11-4.36,3.05
						c-0.43,1.93,0.36,3.96,1.51,5.57c2.44,3.41,6.42,5.46,10.52,6.34c4.1,0.87,9.02,2.39,13.2,2.05c4.19-0.07,8.95-2.05,12.94-3.31
						c3.99-1.26,7.76-3.69,9.86-7.32C379.18,218.74,379.78,216.64,379.16,214.76"/>
				</defs>
				<clipPath id="SVGID_36_">
					<use xlink:href="#SVGID_35_"  overflow="visible"/>
				</clipPath>
				<g clip-path="url(#SVGID_36_)">
					<defs>
						<rect id="SVGID_37_" x="-1" y="-2.02" width="375" height="378"/>
					</defs>
					<clipPath id="SVGID_38_">
						<use xlink:href="#SVGID_37_"  overflow="visible"/>
					</clipPath>
					<rect x="325.04" y="151.09" clip-path="url(#SVGID_38_)" fill="#DA1F20" width="59.37" height="85.04"/>
				</g>
			</g>
			<g clip-path="url(#SVGID_4_)">
				<defs>
					<path id="SVGID_39_" d="M372.51,217.94c-0.09-0.07-0.23-0.06-0.3,0.04c-4.02,5.14-15.56,4.62-17.79,4.46
						c-0.07-0.51-0.15-1.03-0.22-1.54c-0.35-2.72-0.62-5.45-0.83-8.19c-0.16-2.11-0.29-4.22-0.4-6.33c0.56,0.05,1.83,0.15,3.47,0.07
						c3.93-0.19,9.96-1.36,13.2-6.42c0.07-0.1,0.04-0.24-0.06-0.3c-0.1-0.07-0.24-0.04-0.3,0.07c-4.52,7.06-14.73,6.31-16.33,6.15
						c-0.17-3.23-0.3-6.46-0.4-9.7c-0.04-1.35-0.08-2.7-0.12-4.05c0.25,0.01,0.6,0.01,1.03-0.01c3.16-0.15,10.44-1.44,11.75-9.92
						c0.02-0.12-0.06-0.23-0.18-0.25c-0.12-0.02-0.23,0.06-0.25,0.18c-0.68,4.38-3.02,7.32-6.96,8.73c-2.32,0.83-4.53,0.87-5.4,0.84
						c-0.1-4-0.15-8.01-0.18-12.01c-0.04-5.5-0.06-11,0.01-16.51c0-0.07-0.05-0.13-0.13-0.13c-0.07,0-0.13,0.05-0.13,0.12
						c-0.18,5.5-0.29,11.01-0.34,16.51c-0.02,4.73,0,9.45,0.08,14.18c-7.91-0.79-10.8-11.13-10.83-11.23
						c-0.03-0.12-0.15-0.19-0.27-0.15c-0.12,0.03-0.18,0.15-0.15,0.27c0.03,0.11,3.01,10.78,11.25,11.56
						c0.01,0.63,0.02,1.27,0.03,1.9c0.11,4.46,0.28,8.92,0.56,13.38c-11.64,0.1-14.45-7.3-14.47-7.37
						c-0.04-0.11-0.16-0.17-0.28-0.13c-0.11,0.04-0.17,0.16-0.13,0.28c0.03,0.08,0.75,2.04,3.02,3.98
						c2.03,1.73,5.73,3.74,11.89,3.68c0.06,0.9,0.11,1.8,0.17,2.69c0.2,2.75,0.46,5.5,0.8,8.24c0.15,1.17,0.32,2.35,0.55,3.51
						c-1.56,0.29-12.72,2.11-17.72-3.97c-0.08-0.09-0.21-0.11-0.31-0.03c-0.09,0.08-0.11,0.21-0.03,0.31
						c3.5,4.26,9.88,4.77,14.11,4.56c1.99-0.1,3.51-0.35,4.02-0.45c0.29,1.41,0.67,2.8,1.19,4.14c0.02,0.06,0.08,0.09,0.14,0.08
						c0.07-0.01,0.12-0.08,0.11-0.15v0c-0.34-2.05-0.65-4.09-0.94-6.14c0.85,0.06,2.74,0.15,5.01,0.04
						c0.65-0.03,1.33-0.08,2.02-0.15c5.39-0.54,9.11-2.06,11.04-4.53C372.62,218.15,372.6,218.02,372.51,217.94"/>
				</defs>
				<clipPath id="SVGID_40_">
					<use xlink:href="#SVGID_39_"  overflow="visible"/>
				</clipPath>
				<g clip-path="url(#SVGID_40_)">
					<defs>
						<rect id="SVGID_41_" x="-1" y="-2.02" width="375" height="378"/>
					</defs>
					<clipPath id="SVGID_42_">
						<use xlink:href="#SVGID_41_"  overflow="visible"/>
					</clipPath>
					<rect x="330.78" y="158.11" clip-path="url(#SVGID_42_)" fill="#FF5A62" width="46.81" height="76.07"/>
				</g>
			</g>
			<g clip-path="url(#SVGID_4_)">
				<defs>
					<path id="SVGID_43_" d="M31.24,242.81l8.8,3.73c3.79-4.11,6.87-9.74,8.34-17.48c0.45-2.39,0.76-4.75,0.97-7.08l-8.99-2.35
						l9.23-1.32c0.43-10.99-1.56-21-3.99-28.88l-5.44-0.04l4.46-2.95c-3.04-8.84-6.34-14.31-6.34-14.31s-2.91,1.3-7.26,4l2.07,5.43
						l-4-4.2c-4.39,2.87-9.84,6.96-15.24,12.36l4.46,6.1l-6.55-3.94C6.43,197.6,1.3,204.64-2.47,213.09
						c-1.46,3.26-2.39,6.36-2.91,9.29l9.89,3.21l-10.36,0.87c-1.01,19.99,17.4,30.99,17.4,30.99s14.75,1.04,25.81-8.34L31.24,242.81
						z"/>
				</defs>
				<clipPath id="SVGID_44_">
					<use xlink:href="#SVGID_43_"  overflow="visible"/>
				</clipPath>
				<g clip-path="url(#SVGID_44_)">
					<defs>
						<rect id="SVGID_45_" x="-1" y="-2.02" width="375" height="378"/>
					</defs>
					<clipPath id="SVGID_46_">
						<use xlink:href="#SVGID_45_"  overflow="visible"/>
					</clipPath>
					<rect x="-10.88" y="167.13" clip-path="url(#SVGID_46_)" fill="#FFECC3" width="65.53" height="95.35"/>
				</g>
			</g>
			<g clip-path="url(#SVGID_4_)">
				<defs>
					<path id="SVGID_47_" d="M34.13,186.27l-5.25,16.15c-1.78,5.37-3.46,10.78-5.17,16.17c-1.7,5.39-3.37,10.8-4.94,16.22
						c-1.55,5.44-3.11,10.83-4.93,16.22c-0.04,0.14-0.19,0.21-0.33,0.17c-0.11-0.04-0.18-0.15-0.18-0.26
						c0.37-5.73,1.85-11.26,3.46-16.69c1.6-5.45,3.31-10.86,5.12-16.23c1.79-5.38,3.71-10.71,5.64-16.04
						c0.96-2.67,1.97-5.31,2.98-7.96c1.01-2.65,2.03-5.29,3.1-7.91c0.05-0.13,0.2-0.19,0.33-0.14
						C34.11,186,34.17,186.14,34.13,186.27"/>
				</defs>
				<clipPath id="SVGID_48_">
					<use xlink:href="#SVGID_47_"  overflow="visible"/>
				</clipPath>
				<g clip-path="url(#SVGID_48_)">
					<defs>
						<rect id="SVGID_49_" x="-1" y="-2.02" width="375" height="378"/>
					</defs>
					<clipPath id="SVGID_50_">
						<use xlink:href="#SVGID_49_"  overflow="visible"/>
					</clipPath>
					<rect x="8.33" y="180.93" clip-path="url(#SVGID_50_)" fill="#F25007" width="30.81" height="75.27"/>
				</g>
			</g>
			<g clip-path="url(#SVGID_4_)">
				<defs>
					<path id="SVGID_51_" d="M384.35,162.99c0.94-6.57,6.14-11.98,8.39-18.29c1.65-4.63,1.63-9.73-0.05-14.36
						c-3.07-8.45-11.53-15.67-10.58-24.52c0.24-2.22,1.08-4.35,1.39-6.56c0.27-1.87-0.2-3.76-1.16-5.58
						c-4.74-8.99-18.1-8.93-22.76,0.1c-0.94,1.83-1.4,3.72-1.11,5.59c0.34,2.21,1.19,4.33,1.45,6.54
						c1.03,8.84-7.37,16.14-10.36,24.61c-1.64,4.64-1.61,9.74,0.08,14.36c2.3,6.29,7.55,11.66,8.55,18.22
						c1.93,12.73-12.74,24.1-10.44,36.78c1.76,9.65,12.98,15.79,23.76,17.17c10.77-1.48,21.93-7.71,23.61-17.38
						C397.3,186.98,382.53,175.74,384.35,162.99"/>
				</defs>
				<clipPath id="SVGID_52_">
					<use xlink:href="#SVGID_51_"  overflow="visible"/>
				</clipPath>
				<g clip-path="url(#SVGID_52_)">
					<defs>
						<rect id="SVGID_53_" x="-1" y="-2.02" width="375" height="378"/>
					</defs>
					<clipPath id="SVGID_54_">
						<use xlink:href="#SVGID_53_"  overflow="visible"/>
					</clipPath>
					<rect x="342.5" y="81.98" clip-path="url(#SVGID_54_)" fill="#F99A07" width="57.83" height="140.08"/>
				</g>
			</g>
			<g clip-path="url(#SVGID_4_)">
				<defs>
					<path id="SVGID_55_" d="M370.56,144.57c2.34-0.32,10.86-2.14,15.62-11.89c0.1-0.21,0.02-0.47-0.2-0.58
						c-0.21-0.1-0.47-0.02-0.58,0.2c-4.51,9.23-12.49,11.06-14.84,11.4c0.04-2.51,0.08-5.02,0.13-7.54
						c0.17-8.66,0.42-17.32,0.71-25.98c0.82-0.2,5.47-1.61,6.86-8.29c0.05-0.23-0.1-0.46-0.33-0.51c-0.24-0.06-0.46,0.1-0.51,0.33
						c-1.19,5.71-4.88,7.23-5.99,7.56c0.07-1.96,0.12-3.92,0.2-5.87c0.01-0.24-0.17-0.44-0.41-0.45c-0.24-0.01-0.44,0.17-0.45,0.41
						c-0.42,8.67-0.76,17.33-1.05,26c-2.02-0.72-8.16-3.42-8.93-9.66c-0.03-0.24-0.25-0.41-0.48-0.37c-0.24,0.03-0.4,0.24-0.37,0.48
						c0.86,6.98,7.9,9.82,9.75,10.45c-0.06,1.96-0.14,3.91-0.2,5.86c-0.32,10.66-0.54,21.32-0.63,31.99
						c-1.89-0.53-5.84-2.32-6.76-8.04c-0.04-0.23-0.26-0.4-0.49-0.36c-0.23,0.04-0.39,0.26-0.36,0.49c1.04,6.4,5.61,8.27,7.6,8.79
						c-0.08,10.91-0.02,21.82,0.38,32.73c0.05,1.41,0.11,2.81,0.18,4.22c-3.21-0.65-12.85-3.28-13.85-11.66
						c-0.03-0.24-0.24-0.41-0.48-0.38c-0.24,0.03-0.4,0.24-0.38,0.48c1.09,9.13,11.61,11.84,14.75,12.44
						c0.18,3.77,0.42,7.54,0.77,11.31c0.55,5.47,1.09,10.94,2.89,16.38c0,0.01,0.01,0.02,0.01,0.03c0.21,0.57,0.84,0.87,1.41,0.66
						c0.57-0.21,0.87-0.84,0.66-1.41l-0.02-0.05c-0.88-2.43-1.4-5.1-1.88-7.74c-0.2-1.33-0.4-2.67-0.58-4.02l-0.46-4.05
						c-0.56-5.41-0.89-10.85-1.15-16.29c-0.15-3.22-0.26-6.44-0.36-9.66c2.63-0.19,10.19-1.39,12.71-8.99
						c0.07-0.22-0.05-0.47-0.27-0.54c-0.23-0.08-0.47,0.05-0.54,0.27c-2.35,7.09-9.43,8.22-11.91,8.4
						c-0.21-7.4-0.31-14.8-0.33-22.21C370.38,160.81,370.44,152.69,370.56,144.57"/>
				</defs>
				<clipPath id="SVGID_56_">
					<use xlink:href="#SVGID_55_"  overflow="visible"/>
				</clipPath>
				<g clip-path="url(#SVGID_56_)">
					<defs>
						<rect id="SVGID_57_" x="-1" y="-2.02" width="375" height="378"/>
					</defs>
					<clipPath id="SVGID_58_">
						<use xlink:href="#SVGID_57_"  overflow="visible"/>
					</clipPath>
					<rect x="349.72" y="96.38" clip-path="url(#SVGID_58_)" fill="#F25007" width="41.5" height="143.91"/>
				</g>
			</g>
			<g clip-path="url(#SVGID_4_)">
				<defs>
					<path id="SVGID_59_" d="M455.12,224.97c0,0-102.64-10.85-233.88,17.11C57.32,277.02,2.96,237.36-68.88,214.12v116.18h524
						V224.97z"/>
				</defs>
				<clipPath id="SVGID_60_">
					<use xlink:href="#SVGID_59_"  overflow="visible"/>
				</clipPath>
				<g clip-path="url(#SVGID_60_)">
					<defs>
						<rect id="SVGID_61_" x="-1" y="-2.02" width="375" height="378"/>
					</defs>
					<clipPath id="SVGID_62_">
						<use xlink:href="#SVGID_61_"  overflow="visible"/>
					</clipPath>
					<rect x="-73.88" y="209.12" clip-path="url(#SVGID_62_)" fill="#F18200" width="534" height="126.18"/>
				</g>
			</g>
			<g clip-path="url(#SVGID_4_)">
				<defs>
					<path id="SVGID_63_" d="M319.38,242.9c1.8-0.38,3.85-1.88,5.04-3.2c2.45-2.72,1.91-6.69,1.47-10.02
						c-0.56-4.33,1.89-10.53-2.08-13.82c-3.15-2.62-6.16,2.33-7.55,4.6c-1.92,3.14-3.68,6.59-5.31,9.88
						c-1.33,2.69-2.45,6.41-0.76,9.26C311.95,242.56,316.19,243.58,319.38,242.9"/>
				</defs>
				<clipPath id="SVGID_64_">
					<use xlink:href="#SVGID_63_"  overflow="visible"/>
				</clipPath>
				<g clip-path="url(#SVGID_64_)">
					<defs>
						<rect id="SVGID_65_" x="-1" y="-2.02" width="375" height="378"/>
					</defs>
					<clipPath id="SVGID_66_">
						<use xlink:href="#SVGID_65_"  overflow="visible"/>
					</clipPath>
					<rect x="304.34" y="210.11" clip-path="url(#SVGID_66_)" fill="#A10E0D" width="26.93" height="37.99"/>
				</g>
			</g>
			<g clip-path="url(#SVGID_4_)">
				<defs>
					<path id="SVGID_67_" d="M305.68,234.5c0.17-0.12,0.33-0.25,0.49-0.38c4.49-3.71,4.24-9.26,1.96-14.24
						c-1.94-4.24-3.06-8.78-4.27-13.27c-0.5-1.86-1-3.81-2.3-5.23c-2.76-3.01-6.31-1.09-8,1.76c-1.42,2.4-2.11,5.24-2.46,7.98
						c-0.58,4.46-0.83,9.18-1,13.66c-0.14,3.66,0.47,8.37,3.76,10.7C297.47,238.04,302.33,237.01,305.68,234.5"/>
				</defs>
				<clipPath id="SVGID_68_">
					<use xlink:href="#SVGID_67_"  overflow="visible"/>
				</clipPath>
				<g clip-path="url(#SVGID_68_)">
					<defs>
						<rect id="SVGID_69_" x="-1" y="-2.02" width="375" height="378"/>
					</defs>
					<clipPath id="SVGID_70_">
						<use xlink:href="#SVGID_69_"  overflow="visible"/>
					</clipPath>
					<rect x="285.07" y="194.86" clip-path="url(#SVGID_70_)" fill="#A10E0D" width="29.66" height="47.1"/>
				</g>
			</g>
			<g clip-path="url(#SVGID_4_)">
				<defs>
					<path id="SVGID_71_" d="M301.48,240.68l-0.4-1.53l-0.33-1.55c-0.21-1.03-0.46-2.06-0.63-3.1c-0.23-1.47-0.48-2.93-0.67-4.4
						c-1.17-0.27-5.69-1.5-7.46-4.54c-0.06-0.1-0.03-0.24,0.08-0.3c0.11-0.06,0.24-0.03,0.3,0.08c1.59,2.73,5.7,3.96,7.02,4.3
						c-0.05-0.47-0.11-0.93-0.14-1.4l-0.16-1.57c-0.05-0.52-0.11-1.05-0.12-1.57l-0.13-3.16c-0.05-0.7-0.04-1.4-0.03-2.11
						c-0.75-0.46-4.55-2.9-5.44-5.95c-0.03-0.12,0.03-0.24,0.15-0.27c0,0,0,0,0.01,0c0.11-0.03,0.23,0.04,0.26,0.15
						c0.77,2.64,3.99,4.89,5.04,5.56c0.01-0.18,0.01-0.36,0.01-0.54l0.07-3.16c0-0.12,0.1-0.22,0.23-0.22c0.13,0,0.23,0.1,0.23,0.23
						v0.01l-0.02,3.14c-0.01,1.05-0.03,2.09,0.06,3.13l0.17,2.9c1.13-0.63,4.36-2.68,4.72-5.84c0.01-0.12,0.12-0.21,0.24-0.19
						c0.12,0.01,0.2,0.12,0.19,0.24c-0.42,3.6-4.13,5.76-5.12,6.27c0.03,0.44,0.08,0.87,0.13,1.31l0.18,1.56
						c0.19,2.08,0.61,4.13,0.96,6.19c0.19,1.03,0.46,2.04,0.68,3.06l0.35,1.53l0.42,1.51c0.29,1,0.54,2.02,0.88,3.01l0.99,2.97
						l1.11,2.93c0.37,0.98,0.81,1.92,1.2,2.89c1.67,3.81,3.6,7.55,5.89,10.96l0.02,0.03c0,0,0,0,0,0.01c0.2,0.3,0.11,0.71-0.19,0.9
						c-0.3,0.2-0.71,0.11-0.9-0.19c-2.33-3.6-4.19-7.38-5.82-11.28c-0.39-0.98-0.81-1.95-1.17-2.94l-1.07-2.98l-0.95-3.02
						C301.99,242.72,301.76,241.69,301.48,240.68"/>
				</defs>
				<clipPath id="SVGID_72_">
					<use xlink:href="#SVGID_71_"  overflow="visible"/>
				</clipPath>
				<g clip-path="url(#SVGID_72_)">
					<defs>
						<rect id="SVGID_73_" x="-1" y="-2.02" width="375" height="378"/>
					</defs>
					<clipPath id="SVGID_74_">
						<use xlink:href="#SVGID_73_"  overflow="visible"/>
					</clipPath>
					<rect x="286.96" y="208.61" clip-path="url(#SVGID_74_)" fill="#DF4505" width="30.57" height="60.64"/>
				</g>
			</g>
			<g clip-path="url(#SVGID_4_)">
				<defs>
					<path id="SVGID_75_" d="M315.06,245.91c0.05-2.32,0.29-4.63,0.64-6.93c-0.84-0.38-3.37-1.77-3.66-4.66
						c-0.01-0.12,0.07-0.23,0.19-0.24c0.12-0.01,0.23,0.08,0.24,0.2c0.26,2.55,2.43,3.84,3.3,4.26c0.06-0.36,0.12-0.73,0.18-1.09
						l0.44-2.08c0.15-0.69,0.38-1.37,0.56-2.05l0.29-1.02c0.04-0.14,0.09-0.27,0.14-0.4c-0.55-0.52-2.5-2.59-2.23-5.61
						c0.01-0.12,0.12-0.21,0.24-0.2c0.12,0.01,0.21,0.12,0.2,0.24c-0.24,2.59,1.33,4.48,1.96,5.12c0.02-0.05,0.04-0.1,0.06-0.15
						l0.74-1.99c0.04-0.12,0.17-0.18,0.29-0.14c0.12,0.04,0.18,0.17,0.14,0.29l-0.01,0.02l-0.69,1.99
						c-0.11,0.33-0.24,0.66-0.33,0.99l-0.26,1.02c-0.1,0.41-0.21,0.81-0.32,1.21c0.86,0.07,3.33,0.04,5.62-2.24
						c0.09-0.08,0.22-0.08,0.31,0c0.08,0.09,0.08,0.22,0,0.31c-1.25,1.25-2.54,1.86-3.63,2.15c-1.08,0.29-1.96,0.26-2.4,0.21
						c-0.03,0.13-0.06,0.26-0.09,0.39l-0.38,2.06c-0.42,2.76-0.69,5.56-0.68,8.36c-0.01,2.8,0.16,5.6,0.49,8.37
						c0.34,2.77,0.82,5.55,1.51,8.22l0.01,0.03c0,0,0,0.01,0,0.01c0.08,0.35-0.14,0.7-0.49,0.78c-0.35,0.08-0.7-0.14-0.78-0.49
						c-0.65-2.81-1.05-5.61-1.33-8.44C315.08,251.59,314.98,248.75,315.06,245.91"/>
				</defs>
				<clipPath id="SVGID_76_">
					<use xlink:href="#SVGID_75_"  overflow="visible"/>
				</clipPath>
				<g clip-path="url(#SVGID_76_)">
					<defs>
						<rect id="SVGID_77_" x="-1" y="-2.02" width="375" height="378"/>
					</defs>
					<clipPath id="SVGID_78_">
						<use xlink:href="#SVGID_77_"  overflow="visible"/>
					</clipPath>
					<rect x="307.04" y="221.08" clip-path="url(#SVGID_78_)" fill="#DF4505" width="21.14" height="47.28"/>
				</g>
			</g>
			<g clip-path="url(#SVGID_4_)">
				<defs>
					<path id="SVGID_79_" d="M459.54,282.68c0,0-60.36-22.78-143.35-23.18c-82.98-0.4-100.92,28.42-163.03,28.42
						S59.33,267.24,5.5,263.17c-53.82-4.07-78.81,12.06-78.81,12.06v55.08h532.85V282.68z"/>
				</defs>
				<clipPath id="SVGID_80_">
					<use xlink:href="#SVGID_79_"  overflow="visible"/>
				</clipPath>
				<g clip-path="url(#SVGID_80_)">
					<defs>
						<rect id="SVGID_81_" x="-1" y="-2.02" width="375" height="378"/>
					</defs>
					<clipPath id="SVGID_82_">
						<use xlink:href="#SVGID_81_"  overflow="visible"/>
					</clipPath>
					<rect x="-78.31" y="254.5" clip-path="url(#SVGID_82_)" fill="#FF9429" width="542.85" height="80.81"/>
				</g>
			</g>
			<g clip-path="url(#SVGID_4_)">
				<defs>
					<path id="SVGID_83_" d="M-61.76,262.78c0,0,75.02-3.91,143.24,18.3c68.22,22.2,62.94,63.15,62.94,63.15H-61.76V262.78z"/>
				</defs>
				<clipPath id="SVGID_84_">
					<use xlink:href="#SVGID_83_"  overflow="visible"/>
				</clipPath>
				<g clip-path="url(#SVGID_84_)">
					<defs>
						<rect id="SVGID_85_" x="-1" y="-2.02" width="375" height="378"/>
					</defs>
					<clipPath id="SVGID_86_">
						<use xlink:href="#SVGID_85_"  overflow="visible"/>
					</clipPath>
					<rect x="-66.76" y="257.51" clip-path="url(#SVGID_86_)" fill="#A10E0D" width="216.28" height="91.71"/>
				</g>
			</g>
			<g clip-path="url(#SVGID_4_)">
				<defs>
					<path id="SVGID_87_" d="M21.17,325.54c-0.21-4.34-3.93-8.62-8.25-8.22c-3.22,0.3-6.29,2.95-9.34,1.87
						c-3.35-1.19-3.65-6.16-1.62-9.07c2.04-2.92,5.44-4.48,8.33-6.55c4.99-3.58,8.63-9.01,10.06-14.99
						c0.86-3.59,0.49-8.18-2.79-9.86c-3.71-1.9-8.79,1.2-12.19-1.22c-2.45-1.75-2.47-5.55-1.02-8.18c1.45-2.64,3.94-4.5,6.09-6.61
						c4.17-4.11,7.16-9.41,8.51-15.11c0.75-3.17,0.98-6.61-0.35-9.58c-1.33-2.97-4.55-5.27-7.75-4.67c-3.8,0.71-5.86,4.8-7.13,8.45
						c-1.03,2.96-2.83,6.59-5.94,6.31c-2.08-0.19-3.57-2.3-3.77-4.39c-0.2-2.08,0.57-4.13,1.36-6.07
						c5.2-12.69,12.13-25.58,10.75-39.23c-0.55-5.45-3.29-11.52-8.64-12.66c-5.32-1.27-10.39,3.05-13.21,7.74
						c-7.08,11.75-6.32,26.37-7.04,40.07c-0.11,2.09-0.29,4.27-1.36,6.07c-1.07,1.8-3.32,3.07-5.29,2.35
						c-2.94-1.08-3.01-5.14-2.68-8.25c0.41-3.85,0.3-8.43-2.84-10.7c-2.64-1.91-6.53-1.21-9,0.91c-2.47,2.12-3.73,5.33-4.41,8.51
						c-1.21,5.73-0.78,11.8,1.24,17.3c1.04,2.82,2.5,5.57,2.68,8.58c0.18,3-1.46,6.43-4.42,6.96c-4.1,0.74-7.37-4.25-11.54-4.12
						c-3.68,0.12-5.97,4.11-6.73,7.72c-1.26,6.02-0.29,12.48,2.69,17.86c1.72,3.11,4.14,5.98,4.73,9.49c0.6,3.51-1.8,7.87-5.34,7.51
						c-3.22-0.32-4.86-4.04-7.64-5.68c-3.73-2.21-8.93,0.06-10.97,3.9c-2.04,3.83-1.54,8.57-0.05,12.64
						c3.16,8.62,10.38,15.28,18.51,19.51c8.14,4.23,17.66,10.3,26.67,12.02c8.88,2.3,20.08,0.9,29.24,0.56
						c9.16-0.34,18.53-3.27,25.07-9.71C18.91,333.95,21.38,329.88,21.17,325.54"/>
				</defs>
				<clipPath id="SVGID_88_">
					<use xlink:href="#SVGID_87_"  overflow="visible"/>
				</clipPath>
				<g clip-path="url(#SVGID_88_)">
					<defs>
						<rect id="SVGID_89_" x="-1" y="-2.02" width="375" height="378"/>
					</defs>
					<clipPath id="SVGID_90_">
						<use xlink:href="#SVGID_89_"  overflow="visible"/>
					</clipPath>
					<rect x="-89.98" y="180.54" clip-path="url(#SVGID_90_)" fill="#DA1F20" width="116.16" height="171.89"/>
				</g>
			</g>
			<g clip-path="url(#SVGID_4_)">
				<defs>
					<path id="SVGID_91_" d="M5.28,328.38c-0.16-0.21-0.45-0.26-0.67-0.1c-11.47,8.5-35.52,0.68-40.14-0.94
						c0.15-1.13,0.28-2.26,0.43-3.39c0.83-5.94,1.86-11.87,3.01-17.77c0.88-4.54,1.84-9.07,2.83-13.6c1.14,0.44,3.78,1.38,7.29,2.17
						c8.41,1.89,21.81,2.92,31.59-5.85c0.2-0.18,0.21-0.48,0.04-0.67c-0.18-0.2-0.48-0.21-0.67-0.04
						c-13.66,12.26-34.75,4.74-38.03,3.46c1.52-6.92,3.13-13.82,4.8-20.7c0.69-2.87,1.4-5.75,2.11-8.62
						c0.53,0.16,1.27,0.36,2.18,0.57c6.77,1.52,22.87,3.05,30.58-14.1c0.11-0.24,0-0.52-0.24-0.63c-0.24-0.11-0.52,0-0.63,0.24
						c-3.98,8.84-10.63,13.68-19.78,14.37c-5.37,0.4-10.06-0.81-11.88-1.37c2.12-8.51,4.33-16.99,6.61-25.46
						c3.11-11.64,6.28-23.26,9.63-34.83c0.04-0.15-0.04-0.3-0.19-0.35c-0.15-0.05-0.31,0.04-0.35,0.19
						c-3.57,11.51-7.02,23.06-10.31,34.66c-2.8,9.96-5.5,19.95-8.08,29.97c-16.23-6.28-16.32-29.78-16.32-30.02
						c0-0.26-0.22-0.48-0.47-0.48c-0.26,0-0.48,0.21-0.48,0.47c0,0.25,0.09,24.5,17.04,30.95c-0.35,1.35-0.7,2.69-1.04,4.04
						c-2.36,9.48-4.59,19-6.61,28.57c-24.63-6.58-26.25-23.82-26.26-23.99c-0.02-0.26-0.25-0.46-0.51-0.44
						c-0.26,0.02-0.46,0.25-0.44,0.51c0.01,0.19,0.39,4.74,4.06,10.15c3.27,4.83,9.92,11.23,22.96,14.7
						c-0.4,1.93-0.81,3.86-1.2,5.79c-1.18,5.92-2.23,11.87-3.1,17.85c-0.36,2.56-0.68,5.15-0.88,7.74
						c-3.46-0.3-28.07-2.95-35.09-18.7c-0.11-0.24-0.39-0.35-0.63-0.24c-0.24,0.11-0.35,0.39-0.24,0.63
						c4.92,11.03,18.09,15.82,27.14,17.86c4.26,0.96,7.61,1.31,8.75,1.4c-0.21,3.14-0.22,6.29,0.11,9.44
						c0.01,0.13,0.12,0.24,0.25,0.25c0.16,0.02,0.3-0.1,0.31-0.25l0-0.01c0.47-4.53,1.01-9.01,1.59-13.51
						c1.75,0.61,5.69,1.91,10.55,3c1.38,0.31,2.84,0.61,4.35,0.87c11.7,2.01,20.42,0.96,25.93-3.12
						C5.39,328.89,5.44,328.59,5.28,328.38"/>
				</defs>
				<clipPath id="SVGID_92_">
					<use xlink:href="#SVGID_91_"  overflow="visible"/>
				</clipPath>
				<g clip-path="url(#SVGID_92_)">
					<defs>
						<rect id="SVGID_93_" x="-1" y="-2.02" width="375" height="378"/>
					</defs>
					<clipPath id="SVGID_94_">
						<use xlink:href="#SVGID_93_"  overflow="visible"/>
					</clipPath>
					<rect x="-78.85" y="195.76" clip-path="url(#SVGID_94_)" fill="#FF5A62" width="94.52" height="151.32"/>
				</g>
			</g>
			<g clip-path="url(#SVGID_4_)">
				<defs>
					<path id="SVGID_95_" d="M260.76,280.37c2.85-3.48,8.17-3.51,11.04-0.05l22.81,27.54l-16.85-36.57
						c-1.46-3.17-0.43-6.95,2.46-8.91c11.18-7.54,24.96-12.78,41.83-13.24c18.84-0.51,33.04,5.53,43.7,14.41
						c2.46,2.05,3.2,5.53,1.86,8.45l-16.52,35.85l20.19-24.38c3.15-3.8,9.16-3.37,11.63,0.91c11.71,20.23,14.14,41.65,14.14,41.65
						H237.21C237.21,326.05,243.3,301.68,260.76,280.37"/>
				</defs>
				<clipPath id="SVGID_96_">
					<use xlink:href="#SVGID_95_"  overflow="visible"/>
				</clipPath>
				<g clip-path="url(#SVGID_96_)">
					<defs>
						<rect id="SVGID_97_" x="-1" y="-2.02" width="375" height="378"/>
					</defs>
					<clipPath id="SVGID_98_">
						<use xlink:href="#SVGID_97_"  overflow="visible"/>
					</clipPath>
					<rect x="232.21" y="244.13" clip-path="url(#SVGID_98_)" fill="#DF4505" width="169.85" height="86.92"/>
				</g>
			</g>
			<g clip-path="url(#SVGID_4_)">
				<defs>
					<rect id="SVGID_99_" x="307.29" y="219.51" width="162.18" height="129.37"/>
				</defs>
				<clipPath id="SVGID_100_">
					<use xlink:href="#SVGID_99_"  overflow="visible"/>
				</clipPath>
				<g clip-path="url(#SVGID_100_)">
					<defs>
						<rect id="SVGID_101_" x="-1" y="-2.02" width="375" height="378"/>
					</defs>
					<clipPath id="SVGID_102_">
						<use xlink:href="#SVGID_101_"  overflow="visible"/>
					</clipPath>
					<g clip-path="url(#SVGID_102_)" enable-background="new    ">
						<g>
							<defs>
								<rect id="SVGID_103_" x="306" y="216.98" width="164" height="132"/>
							</defs>
							<clipPath id="SVGID_104_">
								<use xlink:href="#SVGID_103_"  overflow="visible"/>
							</clipPath>
							<g clip-path="url(#SVGID_104_)">
								<defs>
									<path id="SVGID_105_" d="M338.46,344.16c-11.1-0.79-23.78-2.58-29.85-11.92c-1.53-2.36-2.12-6.21,0.42-7.42
										c1.21-0.58,2.63-0.24,3.97-0.31c2.94-0.15,5.62-2.53,6.1-5.43c1.66-9.89-11.23-19.64,1.62-28.73
										c5.25-3.71,12.4-3.37,18.54-1.47c6.14,1.9,11.79,5.16,17.96,6.97c2.07,0.61,4.39,1.03,6.32,0.07
										c3.6-1.79,3.58-7.08,1.83-10.69c-1.76-3.61-4.71-6.73-5.46-10.68c-1.72-9.09,9.84-15.97,18.82-13.76
										c8.97,2.2,15.45,9.74,21.83,16.43c2.43,2.55,6.64,5.09,9.05,2.51c1.18-1.26,1.2-3.19,1.11-4.92
										c-0.63-11.88-3.17-23.99-0.2-35.51c2.97-11.52,14.12-22.23,25.64-19.3c5.59,1.42,9.99,5.67,13.66,10.12
										c10.96,13.27,17.9,29.83,19.67,46.95l-2.97,71.81C466.51,348.88,378.68,347.03,338.46,344.16"/>
								</defs>
								<clipPath id="SVGID_106_">
									<use xlink:href="#SVGID_105_"  overflow="visible"/>
								</clipPath>
								<g clip-path="url(#SVGID_106_)">
									<defs>
										<rect id="SVGID_107_" x="307" y="218.98" width="67" height="130"/>
									</defs>
									<clipPath id="SVGID_108_">
										<use xlink:href="#SVGID_107_"  overflow="visible"/>
									</clipPath>
									<rect x="302.29" y="214.51" clip-path="url(#SVGID_108_)" fill="#A10E0D" width="172.18" height="139.37"/>
								</g>
							</g>
						</g>
					</g>
				</g>
			</g>
			<g clip-path="url(#SVGID_4_)">
				<defs>
					<path id="SVGID_109_" d="M401.22,339.3c0.1-0.26,0.14-0.53,0.09-0.72c-0.21-0.78-1.93-1.75-2.64-2.31
						c-2.17-1.73-4.31-3.47-6.4-5.24c-4.25-3.59-8.35-7.27-12.32-11.03c-7.17-6.79-14.06-14.06-19.91-21.77
						c-12.24-15.84-21.02-36.18-19.15-55.87c0.1-0.82-0.43-1.6-1.13-1.75c-0.71-0.15-1.35,0.4-1.43,1.24
						c-2.02,20.57,7.05,41.6,19.68,57.95c5.93,7.82,12.91,15.19,20.14,22.03c4.06,3.85,8.25,7.61,12.6,11.29
						c2.21,1.86,4.45,3.7,6.75,5.52c0.61,0.49,1.81,1.79,2.62,1.76C400.57,340.37,401.02,339.83,401.22,339.3"/>
				</defs>
				<clipPath id="SVGID_110_">
					<use xlink:href="#SVGID_109_"  overflow="visible"/>
				</clipPath>
				<g clip-path="url(#SVGID_110_)">
					<defs>
						<rect id="SVGID_111_" x="-1" y="-2.02" width="375" height="378"/>
					</defs>
					<clipPath id="SVGID_112_">
						<use xlink:href="#SVGID_111_"  overflow="visible"/>
					</clipPath>
					<rect x="333.05" y="235.58" clip-path="url(#SVGID_112_)" fill="#F8AF00" width="73.28" height="109.81"/>
				</g>
			</g>
			<g clip-path="url(#SVGID_4_)">
				<defs>
					<path id="SVGID_113_" d="M376.4,333.5c-1.78,0.54-3.61,1.58-3.41,3.53c0.16,1.63,1.82,3.32,3.6,4.14
						c1.78,0.83,3.63,0.96,5.36,0.93c3.53-0.04,6.88-0.67,9.75-1.96c1.48-0.66,2.85-1.49,4-2.52c1.48-1.33,1.71-1.56-0.53-2.6
						C389.2,332.27,381.74,331.95,376.4,333.5"/>
				</defs>
				<clipPath id="SVGID_114_">
					<use xlink:href="#SVGID_113_"  overflow="visible"/>
				</clipPath>
				<g clip-path="url(#SVGID_114_)">
					<defs>
						<rect id="SVGID_115_" x="-1" y="-2.02" width="375" height="378"/>
					</defs>
					<clipPath id="SVGID_116_">
						<use xlink:href="#SVGID_115_"  overflow="visible"/>
					</clipPath>
					<rect x="367.97" y="327.57" clip-path="url(#SVGID_116_)" fill="#F8AF00" width="33.86" height="19.54"/>
				</g>
			</g>
			<g clip-path="url(#SVGID_4_)">
				<defs>
					<path id="SVGID_117_" d="M359.09,314.66c-1.82,0.27-3.77,1.02-3.9,2.97c-0.11,1.62,1.22,3.53,2.8,4.59
						c1.58,1.07,3.35,1.46,5.03,1.69c3.41,0.47,6.76,0.34,9.74-0.51c1.54-0.44,3-1.05,4.29-1.89c1.66-1.09,1.92-1.28-0.06-2.62
						C371.71,315.33,364.53,313.92,359.09,314.66"/>
				</defs>
				<clipPath id="SVGID_118_">
					<use xlink:href="#SVGID_117_"  overflow="visible"/>
				</clipPath>
				<g clip-path="url(#SVGID_118_)">
					<defs>
						<rect id="SVGID_119_" x="-1" y="-2.02" width="375" height="378"/>
					</defs>
					<clipPath id="SVGID_120_">
						<use xlink:href="#SVGID_119_"  overflow="visible"/>
					</clipPath>
					<rect x="350.18" y="309.47" clip-path="url(#SVGID_120_)" fill="#F8AF00" width="33.2" height="19.72"/>
				</g>
			</g>
			<g clip-path="url(#SVGID_4_)">
				<defs>
					<path id="SVGID_121_" d="M345.22,297.75c-1.62,0.3-3.35,1.09-3.46,2.99c-0.09,1.58,1.1,3.39,2.51,4.38
						c1.41,0.99,2.97,1.33,4.45,1.51c3.02,0.38,5.98,0.21,8.64-0.62c1.37-0.43,2.69-1.02,3.84-1.81c1.5-1.03,1.74-1.21-0.01-2.5
						C356.54,298.25,350.07,296.9,345.22,297.75"/>
				</defs>
				<clipPath id="SVGID_122_">
					<use xlink:href="#SVGID_121_"  overflow="visible"/>
				</clipPath>
				<g clip-path="url(#SVGID_122_)">
					<defs>
						<rect id="SVGID_123_" x="-1" y="-2.02" width="375" height="378"/>
					</defs>
					<clipPath id="SVGID_124_">
						<use xlink:href="#SVGID_123_"  overflow="visible"/>
					</clipPath>
					<rect x="336.76" y="292.5" clip-path="url(#SVGID_124_)" fill="#F8AF00" width="30.67" height="19.32"/>
				</g>
			</g>
			<g clip-path="url(#SVGID_4_)">
				<defs>
					<path id="SVGID_125_" d="M363.53,285.14c1-1.35,2.51-2.6,4.17-2.21c1.38,0.32,2.38,1.71,2.67,3.13c0.29,1.42,0,2.87-0.35,4.25
						c-0.71,2.81-1.71,5.59-3.16,8.06c-0.75,1.27-1.61,2.49-2.64,3.52c-1.32,1.33-1.58,1.56-2.5-0.5
						C359.24,295.82,360.54,289.11,363.53,285.14"/>
				</defs>
				<clipPath id="SVGID_126_">
					<use xlink:href="#SVGID_125_"  overflow="visible"/>
				</clipPath>
				<g clip-path="url(#SVGID_126_)">
					<defs>
						<rect id="SVGID_127_" x="-1" y="-2.02" width="375" height="378"/>
					</defs>
					<clipPath id="SVGID_128_">
						<use xlink:href="#SVGID_127_"  overflow="visible"/>
					</clipPath>
					<rect x="355.41" y="277.86" clip-path="url(#SVGID_128_)" fill="#F8AF00" width="20.08" height="30.07"/>
				</g>
			</g>
			<g clip-path="url(#SVGID_4_)">
				<defs>
					<path id="SVGID_129_" d="M334.62,277.45c-1.5,0.03-3.18,0.5-3.55,2.2c-0.31,1.41,0.5,3.21,1.62,4.31
						c1.12,1.1,2.48,1.63,3.78,2.02c2.66,0.79,5.35,1.08,7.88,0.74c1.3-0.18,2.58-0.51,3.74-1.04c1.51-0.7,1.76-0.82,0.37-2.26
						C344.77,279.57,339.12,277.38,334.62,277.45"/>
				</defs>
				<clipPath id="SVGID_130_">
					<use xlink:href="#SVGID_129_"  overflow="visible"/>
				</clipPath>
				<g clip-path="url(#SVGID_130_)">
					<defs>
						<rect id="SVGID_131_" x="-1" y="-2.02" width="375" height="378"/>
					</defs>
					<clipPath id="SVGID_132_">
						<use xlink:href="#SVGID_131_"  overflow="visible"/>
					</clipPath>
					<rect x="326" y="272.44" clip-path="url(#SVGID_132_)" fill="#F8AF00" width="28.37" height="19.4"/>
				</g>
			</g>
			<g clip-path="url(#SVGID_4_)">
				<defs>
					<path id="SVGID_133_" d="M352.97,268.71c1.09-1.09,2.63-1.99,4.09-1.38c1.21,0.51,1.92,1.94,1.98,3.28
						c0.06,1.34-0.4,2.62-0.92,3.83c-1.05,2.45-2.36,4.82-4.04,6.83c-0.87,1.04-1.83,2-2.92,2.78c-1.4,1-1.66,1.17-2.18-0.84
						C347.57,277.79,349.7,271.89,352.97,268.71"/>
				</defs>
				<clipPath id="SVGID_134_">
					<use xlink:href="#SVGID_133_"  overflow="visible"/>
				</clipPath>
				<g clip-path="url(#SVGID_134_)">
					<defs>
						<rect id="SVGID_135_" x="-1" y="-2.02" width="375" height="378"/>
					</defs>
					<clipPath id="SVGID_136_">
						<use xlink:href="#SVGID_135_"  overflow="visible"/>
					</clipPath>
					<rect x="343.54" y="262.13" clip-path="url(#SVGID_136_)" fill="#F8AF00" width="20.51" height="27.64"/>
				</g>
			</g>
			<g clip-path="url(#SVGID_4_)">
				<defs>
					<path id="SVGID_137_" d="M330.07,251.96c-1.44-0.67-3.19-1.06-4.18,0.2c-0.82,1.05-0.74,2.97-0.08,4.44
						c0.65,1.47,1.74,2.57,2.84,3.52c2.24,1.93,4.7,3.42,7.24,4.25c1.31,0.43,2.65,0.7,3.96,0.74c1.7,0.04,1.98,0.03,1.19-1.83
						C338.91,258.34,334.35,254,330.07,251.96"/>
				</defs>
				<clipPath id="SVGID_138_">
					<use xlink:href="#SVGID_137_"  overflow="visible"/>
				</clipPath>
				<g clip-path="url(#SVGID_138_)">
					<defs>
						<rect id="SVGID_139_" x="-1" y="-2.02" width="375" height="378"/>
					</defs>
					<clipPath id="SVGID_140_">
						<use xlink:href="#SVGID_139_"  overflow="visible"/>
					</clipPath>
					<rect x="320.29" y="246.34" clip-path="url(#SVGID_140_)" fill="#F8AF00" width="26.15" height="23.78"/>
				</g>
			</g>
			<g clip-path="url(#SVGID_4_)">
				<defs>
					<path id="SVGID_141_" d="M350.58,252.05c1.41-0.55,3.19-0.8,4.34,0.28c0.96,0.9,1.13,2.46,0.71,3.71
						c-0.41,1.24-1.3,2.23-2.22,3.13c-1.86,1.82-3.95,3.45-6.27,4.56c-1.2,0.58-2.47,1.04-3.78,1.26c-1.7,0.29-2.01,0.32-1.77-1.67
						C342.24,257.97,346.37,253.66,350.58,252.05"/>
				</defs>
				<clipPath id="SVGID_142_">
					<use xlink:href="#SVGID_141_"  overflow="visible"/>
				</clipPath>
				<g clip-path="url(#SVGID_142_)">
					<defs>
						<rect id="SVGID_143_" x="-1" y="-2.02" width="375" height="378"/>
					</defs>
					<clipPath id="SVGID_144_">
						<use xlink:href="#SVGID_143_"  overflow="visible"/>
					</clipPath>
					<rect x="336.51" y="246.58" clip-path="url(#SVGID_144_)" fill="#F8AF00" width="24.33" height="23.57"/>
				</g>
			</g>
			<g clip-path="url(#SVGID_4_)">
				<defs>
					<path id="SVGID_145_" d="M338.8,242.46c-2.89-5.18-2.41-12.07,0.09-16.15c0.83-1.39,2.18-2.64,3.87-2.18
						c1.41,0.39,2.56,1.87,2.99,3.29c0.43,1.43,0.29,2.84,0.08,4.18c-0.43,2.72-1.17,5.37-2.36,7.75c-0.61,1.23-1.34,2.41-2.24,3.45
						C340.1,244.14,339.88,244.39,338.8,242.46"/>
				</defs>
				<clipPath id="SVGID_146_">
					<use xlink:href="#SVGID_145_"  overflow="visible"/>
				</clipPath>
				<g clip-path="url(#SVGID_146_)">
					<defs>
						<rect id="SVGID_147_" x="-1" y="-2.02" width="375" height="378"/>
					</defs>
					<clipPath id="SVGID_148_">
						<use xlink:href="#SVGID_147_"  overflow="visible"/>
					</clipPath>
					<rect x="331.82" y="219.03" clip-path="url(#SVGID_148_)" fill="#F8AF00" width="19.22" height="29.83"/>
				</g>
			</g>
			<g clip-path="url(#SVGID_4_)">
				<defs>
					<path id="SVGID_149_" d="M328.37,327.16c0.04-0.17,0.05-0.33,0-0.44c-0.18-0.46-1.3-0.92-1.77-1.21
						c-1.44-0.89-2.87-1.79-4.27-2.71c-2.84-1.87-5.6-3.79-8.28-5.78c-4.85-3.59-9.56-7.49-13.67-11.74
						c-8.58-8.71-15.4-20.4-15.71-32.48c0-0.5-0.38-0.94-0.82-0.98c-0.44-0.04-0.79,0.34-0.78,0.86
						c0.28,12.62,7.32,24.71,16.18,33.7c4.17,4.31,8.94,8.26,13.82,11.88c2.74,2.04,5.56,4.01,8.47,5.92
						c1.47,0.97,2.97,1.92,4.5,2.85c0.4,0.25,1.23,0.95,1.72,0.87C328.05,327.85,328.28,327.49,328.37,327.16"/>
				</defs>
				<clipPath id="SVGID_150_">
					<use xlink:href="#SVGID_149_"  overflow="visible"/>
				</clipPath>
				<g clip-path="url(#SVGID_150_)">
					<defs>
						<rect id="SVGID_151_" x="-1" y="-2.02" width="375" height="378"/>
					</defs>
					<clipPath id="SVGID_152_">
						<use xlink:href="#SVGID_151_"  overflow="visible"/>
					</clipPath>
					<rect x="278.09" y="266.82" clip-path="url(#SVGID_152_)" fill="#FFECC3" width="55.32" height="66.08"/>
				</g>
			</g>
			<g clip-path="url(#SVGID_4_)">
				<defs>
					<path id="SVGID_153_" d="M312.89,325.46c-1.04,0.46-2.07,1.22-1.81,2.39c0.22,0.98,1.35,1.88,2.49,2.25
						c1.14,0.37,2.27,0.31,3.32,0.17c2.14-0.28,4.13-0.91,5.77-1.91c0.85-0.51,1.62-1.12,2.24-1.82c0.8-0.91,0.93-1.07-0.51-1.54
						C320.56,323.78,316.01,324.13,312.89,325.46"/>
				</defs>
				<clipPath id="SVGID_154_">
					<use xlink:href="#SVGID_153_"  overflow="visible"/>
				</clipPath>
				<g clip-path="url(#SVGID_154_)">
					<defs>
						<rect id="SVGID_155_" x="-1" y="-2.02" width="375" height="378"/>
					</defs>
					<clipPath id="SVGID_156_">
						<use xlink:href="#SVGID_155_"  overflow="visible"/>
					</clipPath>
					<rect x="306.04" y="319.25" clip-path="url(#SVGID_156_)" fill="#FFECC3" width="24.45" height="16.13"/>
				</g>
			</g>
			<g clip-path="url(#SVGID_4_)">
				<defs>
					<path id="SVGID_157_" d="M322.52,314.36c0.36-1.03,1.07-2.11,2.21-2.21c0.95-0.08,1.88,0.58,2.37,1.4
						c0.49,0.82,0.63,1.78,0.7,2.71c0.15,1.89,0.1,3.81-0.33,5.62c-0.22,0.93-0.54,1.85-1.02,2.69c-0.61,1.07-0.74,1.26-1.78,0.17
						C321.88,321.77,321.41,317.41,322.52,314.36"/>
				</defs>
				<clipPath id="SVGID_158_">
					<use xlink:href="#SVGID_157_"  overflow="visible"/>
				</clipPath>
				<g clip-path="url(#SVGID_158_)">
					<defs>
						<rect id="SVGID_159_" x="-1" y="-2.02" width="375" height="378"/>
					</defs>
					<clipPath id="SVGID_160_">
						<use xlink:href="#SVGID_159_"  overflow="visible"/>
					</clipPath>
					<rect x="316.96" y="307.14" clip-path="url(#SVGID_160_)" fill="#FFECC3" width="15.92" height="23.32"/>
				</g>
			</g>
			<g clip-path="url(#SVGID_4_)">
				<defs>
					<path id="SVGID_161_" d="M301.01,315.31c-1.08,0.3-2.21,0.9-2.15,2.09c0.05,0.99,1,2.05,2.04,2.58
						c1.04,0.53,2.14,0.64,3.17,0.66c2.11,0.03,4.12-0.29,5.87-1.03c0.9-0.38,1.74-0.86,2.46-1.46c0.92-0.78,1.07-0.92-0.23-1.59
						C308.71,314.79,304.25,314.47,301.01,315.31"/>
				</defs>
				<clipPath id="SVGID_162_">
					<use xlink:href="#SVGID_161_"  overflow="visible"/>
				</clipPath>
				<g clip-path="url(#SVGID_162_)">
					<defs>
						<rect id="SVGID_163_" x="-1" y="-2.02" width="375" height="378"/>
					</defs>
					<clipPath id="SVGID_164_">
						<use xlink:href="#SVGID_163_"  overflow="visible"/>
					</clipPath>
					<rect x="293.86" y="309.87" clip-path="url(#SVGID_164_)" fill="#FFECC3" width="24.26" height="15.77"/>
				</g>
			</g>
			<g clip-path="url(#SVGID_4_)">
				<defs>
					<path id="SVGID_165_" d="M312.21,305.84c0.53-0.96,1.4-1.9,2.52-1.83c0.93,0.06,1.71,0.84,2.04,1.72
						c0.33,0.88,0.29,1.84,0.2,2.76c-0.19,1.87-0.57,3.75-1.3,5.46c-0.38,0.88-0.84,1.74-1.44,2.49c-0.77,0.97-0.93,1.13-1.74-0.1
						C310.32,313.01,310.61,308.66,312.21,305.84"/>
				</defs>
				<clipPath id="SVGID_166_">
					<use xlink:href="#SVGID_165_"  overflow="visible"/>
				</clipPath>
				<g clip-path="url(#SVGID_166_)">
					<defs>
						<rect id="SVGID_167_" x="-1" y="-2.02" width="375" height="378"/>
					</defs>
					<clipPath id="SVGID_168_">
						<use xlink:href="#SVGID_167_"  overflow="visible"/>
					</clipPath>
					<rect x="305.94" y="299" clip-path="url(#SVGID_168_)" fill="#FFECC3" width="16.1" height="23.2"/>
				</g>
			</g>
			<g clip-path="url(#SVGID_4_)">
				<defs>
					<path id="SVGID_169_" d="M291.36,306.07c-0.96,0.3-1.95,0.9-1.88,2.07c0.06,0.97,0.92,1.98,1.84,2.47
						c0.93,0.5,1.9,0.59,2.81,0.59c1.86,0.01,3.64-0.31,5.19-1.01c0.8-0.36,1.55-0.81,2.2-1.38c0.83-0.73,0.97-0.86-0.19-1.52
						C298.26,305.55,294.24,305.21,291.36,306.07"/>
				</defs>
				<clipPath id="SVGID_170_">
					<use xlink:href="#SVGID_169_"  overflow="visible"/>
				</clipPath>
				<g clip-path="url(#SVGID_170_)">
					<defs>
						<rect id="SVGID_171_" x="-1" y="-2.02" width="375" height="378"/>
					</defs>
					<clipPath id="SVGID_172_">
						<use xlink:href="#SVGID_171_"  overflow="visible"/>
					</clipPath>
					<rect x="284.48" y="300.62" clip-path="url(#SVGID_172_)" fill="#FFECC3" width="22.7" height="15.59"/>
				</g>
			</g>
			<g clip-path="url(#SVGID_4_)">
				<defs>
					<path id="SVGID_173_" d="M301.54,297.08c0.51-0.89,1.33-1.76,2.37-1.65c0.86,0.09,1.57,0.86,1.85,1.71
						c0.28,0.84,0.21,1.74,0.1,2.6c-0.23,1.76-0.63,3.51-1.33,5.12c-0.36,0.83-0.8,1.63-1.34,2.33c-0.71,0.91-0.84,1.06-1.56-0.12
						C299.72,303.88,300.01,299.71,301.54,297.08"/>
				</defs>
				<clipPath id="SVGID_174_">
					<use xlink:href="#SVGID_173_"  overflow="visible"/>
				</clipPath>
				<g clip-path="url(#SVGID_174_)">
					<defs>
						<rect id="SVGID_175_" x="-1" y="-2.02" width="375" height="378"/>
					</defs>
					<clipPath id="SVGID_176_">
						<use xlink:href="#SVGID_175_"  overflow="visible"/>
					</clipPath>
					<rect x="295.3" y="290.43" clip-path="url(#SVGID_176_)" fill="#FFECC3" width="15.66" height="22.49"/>
				</g>
			</g>
			<g clip-path="url(#SVGID_4_)">
				<defs>
					<path id="SVGID_177_" d="M283.44,294.54c-0.91,0.13-1.89,0.53-1.99,1.59c-0.08,0.88,0.54,1.91,1.3,2.49
						c0.76,0.58,1.62,0.81,2.44,0.94c1.67,0.28,3.33,0.26,4.83-0.13c0.78-0.2,1.52-0.5,2.19-0.91c0.86-0.54,1.01-0.63,0.06-1.4
						C289.75,295.08,286.17,294.17,283.44,294.54"/>
				</defs>
				<clipPath id="SVGID_178_">
					<use xlink:href="#SVGID_177_"  overflow="visible"/>
				</clipPath>
				<g clip-path="url(#SVGID_178_)">
					<defs>
						<rect id="SVGID_179_" x="-1" y="-2.02" width="375" height="378"/>
					</defs>
					<clipPath id="SVGID_180_">
						<use xlink:href="#SVGID_179_"  overflow="visible"/>
					</clipPath>
					<rect x="276.44" y="289.46" clip-path="url(#SVGID_180_)" fill="#FFECC3" width="21.48" height="15.3"/>
				</g>
			</g>
			<g clip-path="url(#SVGID_4_)">
				<defs>
					<path id="SVGID_181_" d="M293.93,287.9c0.58-0.74,1.45-1.4,2.38-1.14c0.77,0.22,1.31,1.04,1.44,1.85
						c0.13,0.81-0.05,1.62-0.28,2.39c-0.46,1.56-1.08,3.1-1.95,4.44c-0.45,0.69-0.96,1.35-1.56,1.9c-0.77,0.71-0.92,0.83-1.39-0.35
						C291.32,293.8,292.18,290.07,293.93,287.9"/>
				</defs>
				<clipPath id="SVGID_182_">
					<use xlink:href="#SVGID_181_"  overflow="visible"/>
				</clipPath>
				<g clip-path="url(#SVGID_182_)">
					<defs>
						<rect id="SVGID_183_" x="-1" y="-2.02" width="375" height="378"/>
					</defs>
					<clipPath id="SVGID_184_">
						<use xlink:href="#SVGID_183_"  overflow="visible"/>
					</clipPath>
					<rect x="286.98" y="281.7" clip-path="url(#SVGID_184_)" fill="#FFECC3" width="15.82" height="21.17"/>
				</g>
			</g>
			<g clip-path="url(#SVGID_4_)">
				<defs>
					<path id="SVGID_185_" d="M278.81,279.42c-0.92-0.3-2.02-0.41-2.52,0.43c-0.42,0.7-0.23,1.85,0.27,2.7
						c0.5,0.84,1.24,1.43,1.98,1.92c1.5,1.01,3.1,1.73,4.7,2.05c0.82,0.16,1.66,0.23,2.45,0.16c1.03-0.1,1.2-0.13,0.59-1.2
						C284.64,282.64,281.56,280.35,278.81,279.42"/>
				</defs>
				<clipPath id="SVGID_186_">
					<use xlink:href="#SVGID_185_"  overflow="visible"/>
				</clipPath>
				<g clip-path="url(#SVGID_186_)">
					<defs>
						<rect id="SVGID_187_" x="-1" y="-2.02" width="375" height="378"/>
					</defs>
					<clipPath id="SVGID_188_">
						<use xlink:href="#SVGID_187_"  overflow="visible"/>
					</clipPath>
					<rect x="271.06" y="274.2" clip-path="url(#SVGID_188_)" fill="#FFECC3" width="20.58" height="17.51"/>
				</g>
			</g>
			<g clip-path="url(#SVGID_4_)">
				<defs>
					<path id="SVGID_189_" d="M291.26,277.97c0.82-0.44,1.87-0.72,2.65-0.15c0.65,0.48,0.86,1.41,0.7,2.2
						c-0.16,0.79-0.63,1.45-1.12,2.06c-1,1.24-2.14,2.38-3.47,3.23c-0.68,0.44-1.42,0.81-2.2,1.04c-1.01,0.3-1.2,0.34-1.2-0.88
						C286.63,282.17,288.83,279.26,291.26,277.97"/>
				</defs>
				<clipPath id="SVGID_190_">
					<use xlink:href="#SVGID_189_"  overflow="visible"/>
				</clipPath>
				<g clip-path="url(#SVGID_190_)">
					<defs>
						<rect id="SVGID_191_" x="-1" y="-2.02" width="375" height="378"/>
					</defs>
					<clipPath id="SVGID_192_">
						<use xlink:href="#SVGID_191_"  overflow="visible"/>
					</clipPath>
					<rect x="281.63" y="272.5" clip-path="url(#SVGID_192_)" fill="#FFECC3" width="18.03" height="19.03"/>
				</g>
			</g>
			<g clip-path="url(#SVGID_4_)">
				<defs>
					<path id="SVGID_193_" d="M283.42,273.02c-2.13-2.93-2.35-7.14-1.13-9.8c0.4-0.9,1.13-1.76,2.19-1.6
						c0.88,0.13,1.69,0.94,2.05,1.78c0.37,0.84,0.39,1.7,0.35,2.53c-0.06,1.68-0.31,3.34-0.86,4.87c-0.28,0.79-0.64,1.56-1.1,2.25
						C284.32,273.94,284.21,274.11,283.42,273.02"/>
				</defs>
				<clipPath id="SVGID_194_">
					<use xlink:href="#SVGID_193_"  overflow="visible"/>
				</clipPath>
				<g clip-path="url(#SVGID_194_)">
					<defs>
						<rect id="SVGID_195_" x="-1" y="-2.02" width="375" height="378"/>
					</defs>
					<clipPath id="SVGID_196_">
						<use xlink:href="#SVGID_195_"  overflow="visible"/>
					</clipPath>
					<rect x="276.54" y="256.59" clip-path="url(#SVGID_196_)" fill="#FFECC3" width="15.35" height="22.19"/>
				</g>
			</g>
			<g clip-path="url(#SVGID_4_)">
				<defs>
					<path id="SVGID_197_" d="M-21.33,320.7c-0.1-0.27-0.13-0.53-0.08-0.72c0.22-0.78,1.96-1.71,2.68-2.27
						c2.2-1.69,4.36-3.4,6.49-5.13c4.32-3.52,8.48-7.13,12.51-10.82c7.29-6.66,14.3-13.82,20.28-21.43
						c12.5-15.63,21.63-35.82,20.1-55.54c-0.09-0.82,0.45-1.59,1.16-1.73c0.71-0.14,1.35,0.42,1.41,1.26
						c1.67,20.6-7.76,41.48-20.66,57.61c-6.06,7.72-13.17,14.97-20.51,21.68c-4.12,3.78-8.38,7.47-12.79,11.07
						c-2.24,1.83-4.52,3.63-6.84,5.41c-0.62,0.48-1.84,1.76-2.65,1.71C-20.69,321.78-21.13,321.23-21.33,320.7"/>
				</defs>
				<clipPath id="SVGID_198_">
					<use xlink:href="#SVGID_197_"  overflow="visible"/>
				</clipPath>
				<g clip-path="url(#SVGID_198_)">
					<defs>
						<rect id="SVGID_199_" x="-1" y="-2.02" width="375" height="378"/>
					</defs>
					<clipPath id="SVGID_200_">
						<use xlink:href="#SVGID_199_"  overflow="visible"/>
					</clipPath>
					<rect x="-26.43" y="218.04" clip-path="url(#SVGID_200_)" fill="#FFD039" width="74.84" height="108.76"/>
				</g>
			</g>
			<g clip-path="url(#SVGID_4_)">
				<defs>
					<path id="SVGID_201_" d="M3.59,315.32c1.77,0.57,3.58,1.64,3.35,3.59c-0.19,1.63-1.88,3.29-3.68,4.08
						c-1.79,0.8-3.65,0.89-5.38,0.84c-3.52-0.1-6.87-0.79-9.71-2.13c-1.47-0.69-2.83-1.54-3.96-2.59c-1.46-1.35-1.69-1.59,0.57-2.59
						C-9.19,313.88-1.72,313.68,3.59,315.32"/>
				</defs>
				<clipPath id="SVGID_202_">
					<use xlink:href="#SVGID_201_"  overflow="visible"/>
				</clipPath>
				<g clip-path="url(#SVGID_202_)">
					<defs>
						<rect id="SVGID_203_" x="-1" y="-2.02" width="375" height="378"/>
					</defs>
					<clipPath id="SVGID_204_">
						<use xlink:href="#SVGID_203_"  overflow="visible"/>
					</clipPath>
					<rect x="-21.89" y="309.27" clip-path="url(#SVGID_204_)" fill="#FFD039" width="33.85" height="19.57"/>
				</g>
			</g>
			<g clip-path="url(#SVGID_4_)">
				<defs>
					<path id="SVGID_205_" d="M21.22,296.78c1.81,0.3,3.75,1.09,3.85,3.04c0.08,1.63-1.28,3.51-2.88,4.55
						c-1.6,1.04-3.38,1.41-5.06,1.61c-3.42,0.41-6.76,0.22-9.73-0.68c-1.53-0.46-2.99-1.1-4.25-1.96c-1.64-1.11-1.9-1.31,0.1-2.62
						C8.59,297.24,15.79,295.95,21.22,296.78"/>
				</defs>
				<clipPath id="SVGID_206_">
					<use xlink:href="#SVGID_205_"  overflow="visible"/>
				</clipPath>
				<g clip-path="url(#SVGID_206_)">
					<defs>
						<rect id="SVGID_207_" x="-1" y="-2.02" width="375" height="378"/>
					</defs>
					<clipPath id="SVGID_208_">
						<use xlink:href="#SVGID_207_"  overflow="visible"/>
					</clipPath>
					<rect x="-3.16" y="291.54" clip-path="url(#SVGID_208_)" fill="#FFD039" width="33.23" height="19.64"/>
				</g>
			</g>
			<g clip-path="url(#SVGID_4_)">
				<defs>
					<path id="SVGID_209_" d="M1.39,283.25c-1.03-1.47-2.6-2.86-4.41-2.56c-1.5,0.25-2.65,1.66-3.04,3.15
						c-0.39,1.49-0.16,3.04,0.14,4.52c0.62,3.02,1.56,6.01,3.04,8.67c0.76,1.37,1.66,2.69,2.76,3.8c1.42,1.44,1.7,1.69,2.81-0.46
						C5.67,294.61,4.47,287.58,1.39,283.25"/>
				</defs>
				<clipPath id="SVGID_210_">
					<use xlink:href="#SVGID_209_"  overflow="visible"/>
				</clipPath>
				<g clip-path="url(#SVGID_210_)">
					<defs>
						<rect id="SVGID_211_" x="-1" y="-2.02" width="375" height="378"/>
					</defs>
					<clipPath id="SVGID_212_">
						<use xlink:href="#SVGID_211_"  overflow="visible"/>
					</clipPath>
					<rect x="-11.27" y="275.65" clip-path="url(#SVGID_212_)" fill="#FFD039" width="20.67" height="31.31"/>
				</g>
			</g>
			<g clip-path="url(#SVGID_4_)">
				<defs>
					<path id="SVGID_213_" d="M35.38,280.11c1.61,0.33,3.34,1.14,3.41,3.05c0.06,1.59-1.16,3.37-2.59,4.34
						c-1.42,0.97-2.99,1.28-4.48,1.44c-3.02,0.33-5.98,0.1-8.62-0.77c-1.36-0.45-2.67-1.06-3.81-1.87c-1.48-1.06-1.72-1.24,0.05-2.5
						C24.05,280.42,30.54,279.18,35.38,280.11"/>
				</defs>
				<clipPath id="SVGID_214_">
					<use xlink:href="#SVGID_213_"  overflow="visible"/>
				</clipPath>
				<g clip-path="url(#SVGID_214_)">
					<defs>
						<rect id="SVGID_215_" x="-1" y="-2.02" width="375" height="378"/>
					</defs>
					<clipPath id="SVGID_216_">
						<use xlink:href="#SVGID_215_"  overflow="visible"/>
					</clipPath>
					<rect x="13.08" y="274.81" clip-path="url(#SVGID_216_)" fill="#FFD039" width="30.7" height="19.26"/>
				</g>
			</g>
			<g clip-path="url(#SVGID_4_)">
				<defs>
					<path id="SVGID_217_" d="M17.28,267.18c-0.97-1.37-2.47-2.64-4.14-2.28c-1.39,0.3-2.41,1.67-2.72,3.09
						c-0.31,1.41-0.05,2.87,0.28,4.26c0.67,2.82,1.62,5.62,3.02,8.11c0.73,1.29,1.57,2.52,2.58,3.57c1.3,1.36,1.55,1.59,2.51-0.46
						C21.39,277.94,20.21,271.21,17.28,267.18"/>
				</defs>
				<clipPath id="SVGID_218_">
					<use xlink:href="#SVGID_217_"  overflow="visible"/>
				</clipPath>
				<g clip-path="url(#SVGID_218_)">
					<defs>
						<rect id="SVGID_219_" x="-1" y="-2.02" width="375" height="378"/>
					</defs>
					<clipPath id="SVGID_220_">
						<use xlink:href="#SVGID_219_"  overflow="visible"/>
					</clipPath>
					<rect x="5.28" y="259.84" clip-path="url(#SVGID_220_)" fill="#FFD039" width="19.95" height="30.14"/>
				</g>
			</g>
			<g clip-path="url(#SVGID_4_)">
				<defs>
					<path id="SVGID_221_" d="M46.32,259.99c1.5,0.06,3.17,0.55,3.52,2.26c0.28,1.42-0.55,3.21-1.69,4.28
						c-1.14,1.08-2.5,1.59-3.82,1.95c-2.68,0.74-5.37,0.99-7.89,0.6c-1.3-0.2-2.57-0.55-3.72-1.11c-1.5-0.72-1.74-0.85-0.33-2.27
						C36.13,261.94,41.82,259.85,46.32,259.99"/>
				</defs>
				<clipPath id="SVGID_222_">
					<use xlink:href="#SVGID_221_"  overflow="visible"/>
				</clipPath>
				<g clip-path="url(#SVGID_222_)">
					<defs>
						<rect id="SVGID_223_" x="-1" y="-2.02" width="375" height="378"/>
					</defs>
					<clipPath id="SVGID_224_">
						<use xlink:href="#SVGID_223_"  overflow="visible"/>
					</clipPath>
					<rect x="26.45" y="254.98" clip-path="url(#SVGID_224_)" fill="#FFD039" width="28.45" height="19.28"/>
				</g>
			</g>
			<g clip-path="url(#SVGID_4_)">
				<defs>
					<path id="SVGID_225_" d="M28.12,250.94c-1.07-1.1-2.6-2.04-4.06-1.45c-1.22,0.49-1.95,1.91-2.04,3.25
						c-0.08,1.34,0.36,2.63,0.86,3.84c1.01,2.47,2.28,4.86,3.92,6.9c0.85,1.05,1.8,2.03,2.87,2.83c1.38,1.02,1.64,1.2,2.2-0.81
						C33.36,260.12,31.34,254.18,28.12,250.94"/>
				</defs>
				<clipPath id="SVGID_226_">
					<use xlink:href="#SVGID_225_"  overflow="visible"/>
				</clipPath>
				<g clip-path="url(#SVGID_226_)">
					<defs>
						<rect id="SVGID_227_" x="-1" y="-2.02" width="375" height="378"/>
					</defs>
					<clipPath id="SVGID_228_">
						<use xlink:href="#SVGID_227_"  overflow="visible"/>
					</clipPath>
					<rect x="17.01" y="244.31" clip-path="url(#SVGID_228_)" fill="#FFD039" width="20.36" height="27.74"/>
				</g>
			</g>
			<g clip-path="url(#SVGID_4_)">
				<defs>
					<path id="SVGID_229_" d="M51.31,234.59c1.45-0.64,3.21-1.01,4.18,0.27c0.8,1.07,0.69,2.98,0.01,4.44
						c-0.67,1.46-1.78,2.54-2.9,3.47c-2.27,1.89-4.76,3.34-7.31,4.13c-1.31,0.41-2.66,0.66-3.97,0.67c-1.7,0.01-1.98,0-1.16-1.85
						C42.36,240.81,46.99,236.55,51.31,234.59"/>
				</defs>
				<clipPath id="SVGID_230_">
					<use xlink:href="#SVGID_229_"  overflow="visible"/>
				</clipPath>
				<g clip-path="url(#SVGID_230_)">
					<defs>
						<rect id="SVGID_231_" x="-1" y="-2.02" width="375" height="378"/>
					</defs>
					<clipPath id="SVGID_232_">
						<use xlink:href="#SVGID_231_"  overflow="visible"/>
					</clipPath>
					<rect x="34.72" y="229" clip-path="url(#SVGID_232_)" fill="#FFD039" width="26.33" height="23.56"/>
				</g>
			</g>
			<g clip-path="url(#SVGID_4_)">
				<defs>
					<path id="SVGID_233_" d="M30.8,234.33c-1.4-0.58-3.17-0.85-4.34,0.21c-0.98,0.89-1.17,2.44-0.78,3.69
						c0.39,1.25,1.27,2.26,2.17,3.17c1.83,1.86,3.89,3.51,6.19,4.67c1.19,0.6,2.45,1.08,3.76,1.33c1.69,0.32,2.01,0.36,1.8-1.64
						C39.04,240.39,34.97,236.01,30.8,234.33"/>
				</defs>
				<clipPath id="SVGID_234_">
					<use xlink:href="#SVGID_233_"  overflow="visible"/>
				</clipPath>
				<g clip-path="url(#SVGID_234_)">
					<defs>
						<rect id="SVGID_235_" x="-1" y="-2.02" width="375" height="378"/>
					</defs>
					<clipPath id="SVGID_236_">
						<use xlink:href="#SVGID_235_"  overflow="visible"/>
					</clipPath>
					<rect x="20.49" y="228.82" clip-path="url(#SVGID_236_)" fill="#FFD039" width="24.17" height="23.75"/>
				</g>
			</g>
			<g clip-path="url(#SVGID_4_)">
				<defs>
					<path id="SVGID_237_" d="M42.73,224.94c2.98-5.13,2.62-12.03,0.18-16.15c-0.8-1.4-2.13-2.68-3.83-2.24
						c-1.42,0.37-2.59,1.82-3.05,3.24c-0.46,1.42-0.34,2.84-0.15,4.18c0.39,2.73,1.08,5.39,2.22,7.79c0.59,1.24,1.3,2.44,2.18,3.48
						C41.41,226.59,41.62,226.84,42.73,224.94"/>
				</defs>
				<clipPath id="SVGID_238_">
					<use xlink:href="#SVGID_237_"  overflow="visible"/>
				</clipPath>
				<g clip-path="url(#SVGID_238_)">
					<defs>
						<rect id="SVGID_239_" x="-1" y="-2.02" width="375" height="378"/>
					</defs>
					<clipPath id="SVGID_240_">
						<use xlink:href="#SVGID_239_"  overflow="visible"/>
					</clipPath>
					<rect x="30.72" y="201.45" clip-path="url(#SVGID_240_)" fill="#FFD039" width="19.14" height="29.86"/>
				</g>
			</g>
			<g clip-path="url(#SVGID_4_)">
				<defs>
					<path id="SVGID_241_" d="M158.35,268.62c-8.22,0-15.88,0.39-22.3,1.05c0.2-0.34,0.31-0.69,0.31-1.05
						c0-4.58-16.87-8.29-37.68-8.29c-20.81,0-37.68,3.71-37.68,8.29c0,4.58,16.87,8.29,37.68,8.29c6.87,0,13.3-0.41,18.85-1.11
						c2.1,3.29,19.57,5.85,40.82,5.85c22.66,0,41.03-2.92,41.03-6.51C199.38,271.54,181.01,268.62,158.35,268.62"/>
				</defs>
				<clipPath id="SVGID_242_">
					<use xlink:href="#SVGID_241_"  overflow="visible"/>
				</clipPath>
				<g clip-path="url(#SVGID_242_)">
					<defs>
						<rect id="SVGID_243_" x="-1" y="-2.02" width="375" height="378"/>
					</defs>
					<clipPath id="SVGID_244_">
						<use xlink:href="#SVGID_243_"  overflow="visible"/>
					</clipPath>
					<rect x="56" y="255.32" clip-path="url(#SVGID_244_)" fill="#D47505" width="148.38" height="31.33"/>
				</g>
			</g>
			<g clip-path="url(#SVGID_4_)">
				<defs>
					<path id="SVGID_245_" d="M162.21,264.75c0,0,0.46,5.3,6.41,7.01c5.95,1.71,8.59,4.68,8.53,6.05
						c-0.06,1.37-15.09-0.51-22.06-2.22c-3.74-1.37-1.83-10.03-0.35-12.31C156.21,260.99,161.33,262.06,162.21,264.75"/>
				</defs>
				<clipPath id="SVGID_246_">
					<use xlink:href="#SVGID_245_"  overflow="visible"/>
				</clipPath>
				<g clip-path="url(#SVGID_246_)">
					<defs>
						<rect id="SVGID_247_" x="-1" y="-2.02" width="375" height="378"/>
					</defs>
					<clipPath id="SVGID_248_">
						<use xlink:href="#SVGID_247_"  overflow="visible"/>
					</clipPath>
					<rect x="147.91" y="257.03" clip-path="url(#SVGID_248_)" fill="#3C2415" width="34.24" height="26.25"/>
				</g>
			</g>
			<g clip-path="url(#SVGID_4_)">
				<defs>
					<path id="SVGID_249_" d="M84.28,254.2c0,0-1.26,8.09,2.37,9.16c3.63,1.07,7.25,2.27,7.66,4.2c0.4,1.93-9.67,1.73-13.1,1.12
						c-3.43-0.61-9.46-11.11-9.86-13.94c-0.4-2.84,6.16-6.06,8.22-5.94C82.34,248.96,84.49,251.27,84.28,254.2"/>
				</defs>
				<clipPath id="SVGID_250_">
					<use xlink:href="#SVGID_249_"  overflow="visible"/>
				</clipPath>
				<g clip-path="url(#SVGID_250_)">
					<defs>
						<rect id="SVGID_251_" x="-1" y="-2.02" width="375" height="378"/>
					</defs>
					<clipPath id="SVGID_252_">
						<use xlink:href="#SVGID_251_"  overflow="visible"/>
					</clipPath>
					<rect x="66.33" y="243.8" clip-path="url(#SVGID_252_)" fill="#3C2415" width="32.98" height="30.31"/>
				</g>
			</g>
			<g clip-path="url(#SVGID_4_)">
				<defs>
					<path id="SVGID_253_" d="M173.92,207.02l-0.18-2.06c-0.1-1.42-0.3-2.67-0.49-3.93l-0.29-1.9l-0.34-1.82
						c-0.24-1.2-0.45-2.45-0.72-3.61c-1-4.76-2.2-9.32-3.43-13.89c-2.52-9.11-5.23-17.91-8.28-26.91l-14.6,6.13l-23.16-3.27
						c-0.71,9.12-1.65,18.52-2.86,27.6c-0.61,4.55-1.31,9.06-2.15,13.34c-0.43,2.12-0.9,4.2-1.41,5.94
						c-0.24,0.81-0.53,1.67-0.61,1.92c-0.05,0.23,0.35-0.22,0.14,0.03c-5.91,8.2-12.83,15.46-19.86,22.69
						c-6.45,6.63-10.97,14.94-17.51,21.52l5.17,5.92c7.5-5.82,14.96-11.66,22.41-17.58l11.14-8.96c3.73-3.06,7.35-6,11.22-9.54
						l1.58-1.55l0.2-0.2l0.32-0.37l0.65-0.82c0.48-0.61,0.71-1,0.99-1.44c1.13-1.8,1.73-3.14,2.37-4.52
						c1.18-2.68,2.07-5.14,2.91-7.58c1.63-4.86,2.99-9.6,4.27-14.34c1.06-3.98,2.04-7.92,2.99-11.87c1.59,3.53,3.14,7.07,4.61,10.59
						c1.68,4.08,3.35,8.19,4.75,12.24c0.39,1.02,0.67,2.01,1.02,3.01l0.49,1.5l0.41,1.45c0.28,0.97,0.57,1.95,0.74,2.8l0.31,1.33
						c0.09,0.42,0.09,0.68,0.16,1.04c0.16,0.54,0.14,1.63,0.16,2.59c0.02,0.98-0.04,2.09-0.06,3.14c-0.09,2.16-0.21,4.36-0.37,6.59
						c-0.32,4.45-0.72,8.96-1.18,13.47c-0.91,9.02,0.46,18.57-0.68,27.58l7.48,1.48c2.32-8.92,4.52-17.81,6.61-26.81
						c1.05-4.5,2.04-9.02,2.97-13.61c0.47-2.29,0.9-4.62,1.3-7c0.18-1.23,0.39-2.39,0.55-3.68c0.14-1.32,0.34-2.51,0.3-4.25
						C173.95,208.61,173.96,207.74,173.92,207.02"/>
				</defs>
				<clipPath id="SVGID_254_">
					<use xlink:href="#SVGID_253_"  overflow="visible"/>
				</clipPath>
				<g clip-path="url(#SVGID_254_)">
					<defs>
						<rect id="SVGID_255_" x="-1" y="-2.02" width="375" height="378"/>
					</defs>
					<clipPath id="SVGID_256_">
						<use xlink:href="#SVGID_255_"  overflow="visible"/>
					</clipPath>
					<rect x="73.16" y="147.9" clip-path="url(#SVGID_256_)" fill="#DF4505" width="105.8" height="121.85"/>
				</g>
			</g>
			<g clip-path="url(#SVGID_4_)">
				<defs>
					<path id="SVGID_257_" d="M242.93,64.6c-0.32-0.33-2.32,1.77-3.9,2.65c0.84-1.88,2.53-4.87,1.58-4.2
						c-0.95,0.66-4.95,3.87-6.01,5.31c-1.05,1.44-1.63-0.47-1.83-2.98c-0.13-1.6-1.75,1.87-1.75,4.41c0,2.08-0.65,3.43-0.89,3.85
						c-5.41,3.95-9.36,6.26-14.95,9.95c-2.81,1.86-5.64,3.65-8.47,5.36c-2.82,1.65-5.74,3.31-8.35,4.37l-0.91,0.32L197,93.82
						l-0.25,0c-0.17,0-0.27,0.04-0.48,0.06l-0.93,0.04c-1.33,0.05-2.94,0.03-4.51-0.01c-2.54-0.06-6.45-1.14-8.86-0.48
						c-2.28,0.62-2.72,3.79-2.49,5.94c0.11,1.02,0.4,2,0.69,2.98c0.56,1.89,1.2,5.4,3.28,6.26c2.15,0.88,6.2-0.5,8.4-0.89
						c1.8-0.32,3.57-0.63,5.58-1.13l1.57-0.42c0.6-0.2,1.3-0.49,1.93-0.75l0.95-0.42l0.69-0.41l1.36-0.83
						c3.32-2.23,5.93-4.54,8.59-6.89c2.59-2.37,5.11-4.75,7.56-7.19c4.72-4.68,7.81-7.97,12.18-12.72c0.01,0,0.04,0.02,0.04,0.02
						s2.09-0.88,4.36-1.77c2.27-0.88,5.63-3.43,6.26-4.42C243.56,69.79,243.24,64.93,242.93,64.6"/>
				</defs>
				<clipPath id="SVGID_258_">
					<use xlink:href="#SVGID_257_"  overflow="visible"/>
				</clipPath>
				<g clip-path="url(#SVGID_258_)">
					<defs>
						<rect id="SVGID_259_" x="-1" y="-2.02" width="375" height="378"/>
					</defs>
					<clipPath id="SVGID_260_">
						<use xlink:href="#SVGID_259_"  overflow="visible"/>
					</clipPath>
					<rect x="174.43" y="57.95" clip-path="url(#SVGID_260_)" fill="#FFE5D2" width="73.86" height="55.95"/>
				</g>
			</g>
			<g clip-path="url(#SVGID_4_)">
				<defs>
					<path id="SVGID_261_" d="M145.36,97.07c-2.08-4.97-8.02-6.95-12.65-4.24c-2.34,1.37-4.68,2.77-7.02,4.19
						c-2.61,1.59-5.22,3.22-7.86,4.97c-0.66,0.44-1.32,0.87-1.99,1.35c-0.67,0.46-1.34,0.93-2.06,1.48
						c-0.37,0.28-0.67,0.49-1.08,0.83l-1.21,1.01c-0.4,0.36-0.84,0.85-1.24,1.28l-0.59,0.67l-0.4,0.56
						c-2.13,2.99-3.52,5.66-4.97,8.42c-1.41,2.74-2.76,5.48-4.05,8.22c-2.59,5.49-5.04,11.19-7.42,16.75
						c-2.51,1.38-4.08,5.84-4.08,5.84s-0.66,3.87,0.73,5.12c3.55,2.64,4.86,2.02,6.49,1.63c1.63-0.39,1.23-2.17,1.23-2.17
						s-0.39,0.7-2.39,0.47c-2.01-0.23-1.93-1.66-1.93-1.66s0.62-1.76,1.08-2.77c0.46-1.01,1.23-1.32,2.42-0.7
						c2.11,1.86,3.37,1.55,2.29,0.39c-1.08-1.16-2.11-4.55-2.11-4.55s-0.01-0.05-0.02-0.1c3.42-4.74,6.92-9.45,10.49-14.04
						c1.82-2.34,3.67-4.65,5.54-6.88c1.85-2.2,3.84-4.46,5.59-5.99l0.32-0.29c0.08-0.05,0.15-0.07,0.22-0.11
						c0.15-0.07,0.21-0.14,0.41-0.23l1.42-0.63c0.54-0.25,1.17-0.5,1.8-0.76l1.94-0.76c2.64-1,5.38-1.97,8.15-2.9
						c2.48-0.83,4.98-1.65,7.5-2.45C144.85,107.44,147.38,101.9,145.36,97.07"/>
				</defs>
				<clipPath id="SVGID_262_">
					<use xlink:href="#SVGID_261_"  overflow="visible"/>
				</clipPath>
				<g clip-path="url(#SVGID_262_)">
					<defs>
						<rect id="SVGID_263_" x="-1" y="-2.02" width="375" height="378"/>
					</defs>
					<clipPath id="SVGID_264_">
						<use xlink:href="#SVGID_263_"  overflow="visible"/>
					</clipPath>
					<rect x="83.57" y="86.61" clip-path="url(#SVGID_264_)" fill="#FFE5D2" width="67.48" height="73.88"/>
				</g>
			</g>
			<g clip-path="url(#SVGID_4_)">
				<defs>
					<path id="SVGID_265_" d="M296.88,49.31c0.96,2.9-8.21,8.58-20.48,12.67c-12.27,4.1-23,5.06-23.96,2.16
						c-0.96-2.9,8.21-8.58,20.48-12.67C285.2,47.37,295.92,46.4,296.88,49.31"/>
				</defs>
				<clipPath id="SVGID_266_">
					<use xlink:href="#SVGID_265_"  overflow="visible"/>
				</clipPath>
				<g clip-path="url(#SVGID_266_)">
					<defs>
						<rect id="SVGID_267_" x="-1" y="-2.02" width="375" height="378"/>
					</defs>
					<clipPath id="SVGID_268_">
						<use xlink:href="#SVGID_267_"  overflow="visible"/>
					</clipPath>
					<rect x="247.38" y="42.63" clip-path="url(#SVGID_268_)" fill="#A10E0D" width="54.58" height="28.18"/>
				</g>
			</g>
			<g clip-path="url(#SVGID_4_)">
				<defs>
					<path id="SVGID_269_" d="M285.43,52.6c0.43,1.3-4.11,3.98-10.15,5.99c-6.03,2.01-11.27,2.59-11.7,1.3
						c-0.43-1.3,4.11-3.98,10.15-5.99C279.76,51.88,285,51.3,285.43,52.6"/>
				</defs>
				<clipPath id="SVGID_270_">
					<use xlink:href="#SVGID_269_"  overflow="visible"/>
				</clipPath>
				<g clip-path="url(#SVGID_270_)">
					<defs>
						<rect id="SVGID_271_" x="-1" y="-2.02" width="375" height="378"/>
					</defs>
					<clipPath id="SVGID_272_">
						<use xlink:href="#SVGID_271_"  overflow="visible"/>
					</clipPath>
					<rect x="258.56" y="46.91" clip-path="url(#SVGID_272_)" fill="#F7941D" width="31.9" height="18.67"/>
				</g>
			</g>
			<g clip-path="url(#SVGID_4_)">
				<defs>
					<path id="SVGID_273_" d="M188.8,92c-9.45-0.29-25.35-2.75-25.35-2.75c-0.02,0.05-0.04,0.11-0.06,0.16
						c-1.05-0.4-1.72-0.57-1.72-0.57c-9.91-1.89-17.43-1.36-22.52,0.41c0,0-0.01,0-0.01,0c0,0-13.7,3.84-21.64,10.05
						c-1.17,2.72,3.08,13.91,7.23,16.43c0.78-0.17,3.47-0.97,6.72-1.98c0.12,7.36-0.24,15.54-2.75,22.29
						c-5.37,14.4-10.75,21.31-7.76,25.21c18.8,6.9,42.38,4.5,41.98-2.4c-3.09-10.8,3.64-22.39,7.19-29.54
						c2.22-4.46,5.21-10.92,6.18-17.43c6.09-0.13,13.44-0.65,15.12-2.3C193.08,107.95,190.47,92.85,188.8,92"/>
				</defs>
				<clipPath id="SVGID_274_">
					<use xlink:href="#SVGID_273_"  overflow="visible"/>
				</clipPath>
				<g clip-path="url(#SVGID_274_)">
					<defs>
						<rect id="SVGID_275_" x="-1" y="-2.02" width="375" height="378"/>
					</defs>
					<clipPath id="SVGID_276_">
						<use xlink:href="#SVGID_275_"  overflow="visible"/>
					</clipPath>
					<rect x="112.32" y="82.65" clip-path="url(#SVGID_276_)" fill="#A10E0D" width="84.64" height="87.73"/>
				</g>
			</g>
			<g clip-path="url(#SVGID_4_)">
				<defs>
					<path id="SVGID_277_" d="M160.86,82.8c0,0-2.14,4.85,1.51,8.36c2.45,2.35,0.28,5.59-2.02,5.93c-2.3,0.33-9.28-2.17-8.12-7.02
						c2.49-4.01,3.71-8.69,3.71-8.69L160.86,82.8z"/>
				</defs>
				<clipPath id="SVGID_278_">
					<use xlink:href="#SVGID_277_"  overflow="visible"/>
				</clipPath>
				<g clip-path="url(#SVGID_278_)">
					<defs>
						<rect id="SVGID_279_" x="-1" y="-2.02" width="375" height="378"/>
					</defs>
					<clipPath id="SVGID_280_">
						<use xlink:href="#SVGID_279_"  overflow="visible"/>
					</clipPath>
					<rect x="147.11" y="76.38" clip-path="url(#SVGID_280_)" fill="#FFE5D2" width="21.35" height="25.74"/>
				</g>
			</g>
			<g clip-path="url(#SVGID_4_)">
				<defs>
					<path id="SVGID_281_" d="M156.01,56.81c0,0,7.99-1.04,10.88,7.03c1.58,6.58,3.79,6.76,4.46,8.88c0.67,2.12-2.63,1.88-3.52,2.2
						c-0.88,0.32,1.06,7.26-2.23,8.86c-3.29,1.6-10.68,2.23-14.92-5.86C146.44,69.84,144.8,59.35,156.01,56.81"/>
				</defs>
				<clipPath id="SVGID_282_">
					<use xlink:href="#SVGID_281_"  overflow="visible"/>
				</clipPath>
				<g clip-path="url(#SVGID_282_)">
					<defs>
						<rect id="SVGID_283_" x="-1" y="-2.02" width="375" height="378"/>
					</defs>
					<clipPath id="SVGID_284_">
						<use xlink:href="#SVGID_283_"  overflow="visible"/>
					</clipPath>
					<rect x="142.47" y="51.77" clip-path="url(#SVGID_284_)" fill="#FFE5D2" width="33.97" height="38.01"/>
				</g>
			</g>
			<g clip-path="url(#SVGID_4_)">
				<defs>
					<path id="SVGID_285_" d="M168.77,58.15c0,0,1.3,4.31-5.32,6.71c-2.09,0.72-5.56,4.07-4,7.54c1.56,3.47,2.02,5.51,0,3.71
						c-2.01-1.8-3.56-4.31-4.99-1.8c-1.43,2.51,0.24,4.79,2.26,4.91c1.9,0.96,1.07,4.14-1.55,4.58c-2.62,0.44-8.43-6.52-8.01-12.66
						C148.87,65.22,163.92,58.75,168.77,58.15"/>
				</defs>
				<clipPath id="SVGID_286_">
					<use xlink:href="#SVGID_285_"  overflow="visible"/>
				</clipPath>
				<g clip-path="url(#SVGID_286_)">
					<defs>
						<rect id="SVGID_287_" x="-1" y="-2.02" width="375" height="378"/>
					</defs>
					<clipPath id="SVGID_288_">
						<use xlink:href="#SVGID_287_"  overflow="visible"/>
					</clipPath>
					<rect x="142.15" y="53.15" clip-path="url(#SVGID_288_)" fill="#3C2415" width="31.73" height="35.67"/>
				</g>
			</g>
			<g clip-path="url(#SVGID_4_)">
				<defs>
					<path id="SVGID_289_" d="M147.17,71.14c0,0,13.29-7.31,18.92-11.43c-1.59-3.11-8.65-7.84-16.3-2.57
						C142.14,62.4,147.17,71.14,147.17,71.14"/>
				</defs>
				<clipPath id="SVGID_290_">
					<use xlink:href="#SVGID_289_"  overflow="visible"/>
				</clipPath>
				<g clip-path="url(#SVGID_290_)">
					<defs>
						<rect id="SVGID_291_" x="-1" y="-2.02" width="375" height="378"/>
					</defs>
					<clipPath id="SVGID_292_">
						<use xlink:href="#SVGID_291_"  overflow="visible"/>
					</clipPath>
					<rect x="140.55" y="49.77" clip-path="url(#SVGID_292_)" fill="#F7941D" width="30.54" height="26.37"/>
				</g>
			</g>
			<g clip-path="url(#SVGID_4_)">
				<defs>
					<path id="SVGID_293_" d="M166.09,59.71c0,0,9.16-5.22,10.31-6.38c1.16-1.16-2.35-1.39-11.34,4.97
						C163.85,59.25,165.41,60.09,166.09,59.71"/>
				</defs>
				<clipPath id="SVGID_294_">
					<use xlink:href="#SVGID_293_"  overflow="visible"/>
				</clipPath>
				<g clip-path="url(#SVGID_294_)">
					<defs>
						<rect id="SVGID_295_" x="-1" y="-2.02" width="375" height="378"/>
					</defs>
					<clipPath id="SVGID_296_">
						<use xlink:href="#SVGID_295_"  overflow="visible"/>
					</clipPath>
					<rect x="159.62" y="47.68" clip-path="url(#SVGID_296_)" fill="#F7941D" width="22" height="17.12"/>
				</g>
			</g>
			<g clip-path="url(#SVGID_4_)">
				<defs>
					<path id="SVGID_297_" d="M152.55,194.63c0,0,0.82-5.92,2.53-13.22c1.28-5.5,7.12-11.94,9.93-14.79
						c-1.35-4.41-1.48-5.73-2.98-9.94c-0.04-0.12-1.45,1.02-1.49,0.89c-1.03-3.04-5.86-2.52-14.51,1.58l-23.15-3.28
						c-0.71,9.15-1.65,18.59-2.86,27.7c-0.31,2.33-0.65,4.64-1.01,6.93c10.13-9.51,25.8-14.36,25.8-14.36
						c1.59,3.54,3.14,7.1,4.61,10.63c1.06,2.58,2.1,5.17,3.09,7.75L152.55,194.63z"/>
				</defs>
				<clipPath id="SVGID_298_">
					<use xlink:href="#SVGID_297_"  overflow="visible"/>
				</clipPath>
				<g clip-path="url(#SVGID_298_)">
					<defs>
						<rect id="SVGID_299_" x="-1" y="-2.02" width="375" height="378"/>
					</defs>
					<clipPath id="SVGID_300_">
						<use xlink:href="#SVGID_299_"  overflow="visible"/>
					</clipPath>
					<rect x="114" y="150.63" clip-path="url(#SVGID_300_)" fill="#BA3C08" width="56" height="49"/>
				</g>
			</g>
			<g clip-path="url(#SVGID_4_)">
				<defs>
					<path id="SVGID_301_" d="M162.99,159.06c-0.38-1.32-0.6-2.65-0.71-3.99c-28.62-5.12-30.87-41.44-30.87-41.44
						c0.12,7.41-0.24,15.66-2.76,22.45c-5.39,14.51-10.79,21.46-7.79,25.39C139.73,168.43,163.4,166.01,162.99,159.06"/>
				</defs>
				<clipPath id="SVGID_302_">
					<use xlink:href="#SVGID_301_"  overflow="visible"/>
				</clipPath>
				<g clip-path="url(#SVGID_302_)">
					<defs>
						<rect id="SVGID_303_" x="-1" y="-2.02" width="375" height="378"/>
					</defs>
					<clipPath id="SVGID_304_">
						<use xlink:href="#SVGID_303_"  overflow="visible"/>
					</clipPath>
					<rect x="115" y="108.63" clip-path="url(#SVGID_304_)" fill="#800F0E" width="53" height="62"/>
				</g>
			</g>
			<g clip-path="url(#SVGID_4_)">
				<defs>
					<path id="SVGID_305_" d="M268.61,242.7c-10.26,0-18.68,1.81-19.63,4.12c-4.2-0.98-10.47-1.6-17.49-1.6
						c-12.63,0-22.88,2.01-22.88,4.5c0,2.48,10.24,4.5,22.88,4.5c11.54,0,21.08-1.68,22.65-3.86c3.6,0.9,8.75,1.46,14.47,1.46
						c10.89,0,19.72-2.04,19.72-4.56C288.33,244.74,279.5,242.7,268.61,242.7"/>
				</defs>
				<clipPath id="SVGID_306_">
					<use xlink:href="#SVGID_305_"  overflow="visible"/>
				</clipPath>
				<g clip-path="url(#SVGID_306_)">
					<defs>
						<rect id="SVGID_307_" x="-1" y="-2.02" width="375" height="378"/>
					</defs>
					<clipPath id="SVGID_308_">
						<use xlink:href="#SVGID_307_"  overflow="visible"/>
					</clipPath>
					<rect x="203.62" y="237.7" clip-path="url(#SVGID_308_)" fill="#F18200" width="89.71" height="21.52"/>
				</g>
			</g>
			<g clip-path="url(#SVGID_4_)">
				<defs>
					<path id="SVGID_309_" d="M260.41,137.3c0,0-2.09-6.46,3.1-14.67c1.41,1.5,4.48,13.23,4.48,13.23S264.78,140.99,260.41,137.3"/>
				</defs>
				<clipPath id="SVGID_310_">
					<use xlink:href="#SVGID_309_"  overflow="visible"/>
				</clipPath>
				<g clip-path="url(#SVGID_310_)">
					<defs>
						<rect id="SVGID_311_" x="-1" y="-2.02" width="375" height="378"/>
					</defs>
					<clipPath id="SVGID_312_">
						<use xlink:href="#SVGID_311_"  overflow="visible"/>
					</clipPath>
					<rect x="255" y="117.63" clip-path="url(#SVGID_312_)" fill="#C17110" width="18" height="26"/>
				</g>
			</g>
			<g clip-path="url(#SVGID_4_)">
				<defs>
					<path id="SVGID_313_" d="M210.03,199.82c-5.29-3.57-10.73,1.57-11.73,6.42c0,0-1.59,11.38-6.55,17.28
						c-4.96,5.9-4.19,9.21-2.28,14.61c1.41,3.98,1.91,10.61,2.08,13.82c0.06,1.07,0.91,1.92,2,2.02l7.44,0.66
						c0,0,0.71-4.01-2.91-5.63c-2.61-1.39-4.02-13.2-2.79-16.04c1.23-2.85,10.21-6.77,16.11-14.55
						C217.3,210.64,215.31,203.4,210.03,199.82"/>
				</defs>
				<clipPath id="SVGID_314_">
					<use xlink:href="#SVGID_313_"  overflow="visible"/>
				</clipPath>
				<g clip-path="url(#SVGID_314_)">
					<defs>
						<rect id="SVGID_315_" x="-1" y="-2.02" width="375" height="378"/>
					</defs>
					<clipPath id="SVGID_316_">
						<use xlink:href="#SVGID_315_"  overflow="visible"/>
					</clipPath>
					<rect x="183" y="193.63" clip-path="url(#SVGID_316_)" fill="#E09B41" width="37" height="66"/>
				</g>
			</g>
			<g clip-path="url(#SVGID_4_)">
				<defs>
					<path id="SVGID_317_" d="M264.25,171.55c0,0,4.52,3.92,10.18,2.02c5.66-1.9,9.1-6.7,15.63-6.92c6.53-0.23,9.26,1.75,9.89,3.42
						c0.64,1.67-5.48,3.31-5.48,3.31s-3.46-1.07-5.59,0.03c-2.14,1.09-8.53,10.9-20.27,12.61c-11.74,1.71-18.69-0.23-18.61-4.92
						C250.09,176.42,258.05,169.04,264.25,171.55"/>
				</defs>
				<clipPath id="SVGID_318_">
					<use xlink:href="#SVGID_317_"  overflow="visible"/>
				</clipPath>
				<g clip-path="url(#SVGID_318_)">
					<defs>
						<rect id="SVGID_319_" x="-1" y="-2.02" width="375" height="378"/>
					</defs>
					<clipPath id="SVGID_320_">
						<use xlink:href="#SVGID_319_"  overflow="visible"/>
					</clipPath>
					<rect x="245" y="161.63" clip-path="url(#SVGID_320_)" fill="#E09B41" width="60" height="30"/>
				</g>
			</g>
			<g clip-path="url(#SVGID_4_)">
				<defs>
					<path id="SVGID_321_" d="M293,183.14c-6.41-1.06-10.69,2.97-16.57,3.73c-2.84,0.36-5.15-0.55-6.79-1.59
						c3.26-7.06,2.19-14.42,1.29-17.58c-1.24-4.35,0.24-10.77,0.24-10.77l0,0c0.32-1.36,0.23-3.09,0.65-4.18
						c0.67-1.73,11.86-7.08,13.69-8.52c2.57-3.9,3.15-9.24,1.51-10.4c-1.65-1.17-10.64,1.85-13.85,1.76
						c-3.21-0.1-3.6-4.69-12.01-2.21c-8.41,2.48-12.76,18.65-12.76,18.65c-10.67,21.4-34.13,32.41-34.13,32.41
						c-6.1,2.86-12.97,6.72-15.61,13.37c-1.19,3-1.83,6.53-1.6,9.76c0.24,3.48,1.79,5.89,4.2,8.23c1.75,1.7,4.94,3.96,4.84,6.75
						c-0.13,3.77-6.52,13.91-7.31,17.27c-0.79,3.36,6.74,17.34,6.74,17.34l9.71,0.5l-0.09-2.81c-0.09-2.81-3.19-2.74-5.03-3.44
						c-1.84-0.7-2.21-6.62-2.32-10.45c-0.11-3.83,3.62-9.02,10.7-15.69c7.08-6.67,3.42-15.66,5.41-17.72
						c1.69-1.75,22.24-4.94,34.44-11.09c2.68,0.76,6.03,1.28,10.02,1.49c11.78,0.62,19.9-7.74,22.19-8.4
						c2.29-0.65,5.46,1.07,5.46,1.07s6.28-0.42,5.98-2.18C301.69,186.66,299.41,184.19,293,183.14"/>
				</defs>
				<clipPath id="SVGID_322_">
					<use xlink:href="#SVGID_321_"  overflow="visible"/>
				</clipPath>
				<g clip-path="url(#SVGID_322_)">
					<defs>
						<rect id="SVGID_323_" x="-1" y="-2.02" width="375" height="378"/>
					</defs>
					<clipPath id="SVGID_324_">
						<use xlink:href="#SVGID_323_"  overflow="visible"/>
					</clipPath>
					<rect x="192" y="127.63" clip-path="url(#SVGID_324_)" fill="#F2B15A" width="115" height="135"/>
				</g>
			</g>
			<g clip-path="url(#SVGID_4_)">
				<defs>
					<path id="SVGID_325_" d="M257.55,139.89c0,0-3.51-5.99,0.04-15.26c1.76,1.2,7.41,12.23,7.41,12.23S262.79,142.64,257.55,139.89
						"/>
				</defs>
				<clipPath id="SVGID_326_">
					<use xlink:href="#SVGID_325_"  overflow="visible"/>
				</clipPath>
				<g clip-path="url(#SVGID_326_)">
					<defs>
						<rect id="SVGID_327_" x="-1" y="-2.02" width="375" height="378"/>
					</defs>
					<clipPath id="SVGID_328_">
						<use xlink:href="#SVGID_327_"  overflow="visible"/>
					</clipPath>
					<rect x="251" y="119.63" clip-path="url(#SVGID_328_)" fill="#C17110" width="19" height="26"/>
				</g>
			</g>
			<g clip-path="url(#SVGID_4_)">
				<defs>
					<path id="SVGID_329_" d="M287.07,133.9c-1.65-1.15-10.62,1.83-13.83,1.74c0,0-3.85,4.58-2.49,7.55
						c1.14,1.52,0.92,2.58-0.7,4.15c-1.62,1.57-1.65,5.55,1.85,5.28c0.67-1.71,11.84-7,13.66-8.43
						C288.14,140.33,288.72,135.05,287.07,133.9"/>
				</defs>
				<clipPath id="SVGID_330_">
					<use xlink:href="#SVGID_329_"  overflow="visible"/>
				</clipPath>
				<g clip-path="url(#SVGID_330_)">
					<defs>
						<rect id="SVGID_331_" x="-1" y="-2.02" width="375" height="378"/>
					</defs>
					<clipPath id="SVGID_332_">
						<use xlink:href="#SVGID_331_"  overflow="visible"/>
					</clipPath>
					<rect x="264" y="128.63" clip-path="url(#SVGID_332_)" fill="#C17110" width="29" height="29"/>
				</g>
			</g>
			<g clip-path="url(#SVGID_4_)">
				<defs>
					<path id="SVGID_333_" d="M287.08,134.85c-0.58-0.33-2.09-0.24-3.94,0.01c-0.78,0.63-1.43,1.4-1.01,1.99
						c0.73,1.01,3.75,1.91,5.69,1.77C288.21,136.85,287.97,135.36,287.08,134.85"/>
				</defs>
				<clipPath id="SVGID_334_">
					<use xlink:href="#SVGID_333_"  overflow="visible"/>
				</clipPath>
				<g clip-path="url(#SVGID_334_)">
					<defs>
						<rect id="SVGID_335_" x="-1" y="-2.02" width="375" height="378"/>
					</defs>
					<clipPath id="SVGID_336_">
						<use xlink:href="#SVGID_335_"  overflow="visible"/>
					</clipPath>
					<rect x="277" y="129.63" clip-path="url(#SVGID_336_)" fill="#C17110" width="16" height="14"/>
				</g>
			</g>
			<g clip-path="url(#SVGID_4_)">
				<defs>
					<path id="SVGID_337_" d="M202.64,194.67c0,0-26.52-0.69-26.78-33.04c-1.41,3.75-2.77,7.6-3.44,11.56
						c-0.27,1.59-0.49,3.27-0.31,4.88c0.14,1.24,1.2,3.55,0.28,4.68c-0.85,1.05-3.31,0.03-4.39-0.57c1.26,3.29,4,5.96,7.3,7.14
						c-1.57,0.42-3.2,0.6-4.82,0.51c2.04,3.73,6.25,6.15,10.48,6c-0.95,1.7-3.04,2.66-4.94,2.27c5.28,2.38,11.35,2.97,16.98,1.63
						c-0.83,1.33-2.12,2.36-3.59,2.89c1.92-0.44,3.92-0.35,5.89-0.5c1.97-0.15,4.01-0.58,5.51-1.86
						C202.32,198.99,203.67,196.36,202.64,194.67"/>
				</defs>
				<clipPath id="SVGID_338_">
					<use xlink:href="#SVGID_337_"  overflow="visible"/>
				</clipPath>
				<g clip-path="url(#SVGID_338_)">
					<defs>
						<rect id="SVGID_339_" x="-1" y="-2.02" width="375" height="378"/>
					</defs>
					<clipPath id="SVGID_340_">
						<use xlink:href="#SVGID_339_"  overflow="visible"/>
					</clipPath>
					<rect x="163" y="156.63" clip-path="url(#SVGID_340_)" fill="#F2B15A" width="45" height="51"/>
				</g>
			</g>
			<g clip-path="url(#SVGID_4_)">
				<defs>
					<path id="SVGID_341_" d="M268.36,162.63c-16.76,0-22.8-9.46-23.06-9.87c-0.62-1-0.25-2.27,0.81-2.85
						c1.06-0.57,2.42-0.24,3.04,0.75c0.23,0.36,5.51,8.28,20.54,7.78c1.23-0.03,2.26,0.86,2.31,2.01c0.04,1.15-0.92,2.12-2.15,2.16
						C269.34,162.62,268.84,162.63,268.36,162.63"/>
				</defs>
				<clipPath id="SVGID_342_">
					<use xlink:href="#SVGID_341_"  overflow="visible"/>
				</clipPath>
				<g clip-path="url(#SVGID_342_)">
					<defs>
						<rect id="SVGID_343_" x="-1" y="-2.02" width="375" height="378"/>
					</defs>
					<clipPath id="SVGID_344_">
						<use xlink:href="#SVGID_343_"  overflow="visible"/>
					</clipPath>
					<rect x="240" y="144.63" clip-path="url(#SVGID_344_)" fill="#A10E0D" width="37" height="23"/>
				</g>
			</g>
			<g clip-path="url(#SVGID_4_)">
				<defs>
					<path id="SVGID_345_" d="M237.9,196.81c-11.72-1.48-12.37,6.93-18.23,8.54c-5.86,1.62-4.88,8.72-4.23,13.25
						c0.65,4.52-5.44,15.04-5.44,15.04h0c1.81-2.43,4.38-5.16,7.66-8.2c7.17-6.63,3.46-15.56,5.47-17.6
						c1.71-1.74,22.51-4.91,34.86-11.02C258,196.81,249.62,198.28,237.9,196.81"/>
				</defs>
				<clipPath id="SVGID_346_">
					<use xlink:href="#SVGID_345_"  overflow="visible"/>
				</clipPath>
				<g clip-path="url(#SVGID_346_)">
					<defs>
						<rect id="SVGID_347_" x="-1" y="-2.02" width="375" height="378"/>
					</defs>
					<clipPath id="SVGID_348_">
						<use xlink:href="#SVGID_347_"  overflow="visible"/>
					</clipPath>
					<rect x="205" y="191.63" clip-path="url(#SVGID_348_)" fill="#F7BD69" width="58" height="47"/>
				</g>
			</g>
			<g clip-path="url(#SVGID_4_)">
				<defs>
					<path id="SVGID_349_" d="M289,133.13c0,0.83-0.67,1.5-1.5,1.5c-0.83,0-1.5-0.67-1.5-1.5c0-0.83,0.67-1.5,1.5-1.5
						C288.33,131.63,289,132.3,289,133.13"/>
				</defs>
				<clipPath id="SVGID_350_">
					<use xlink:href="#SVGID_349_"  overflow="visible"/>
				</clipPath>
				<g clip-path="url(#SVGID_350_)">
					<defs>
						<rect id="SVGID_351_" x="-1" y="-2.02" width="375" height="378"/>
					</defs>
					<clipPath id="SVGID_352_">
						<use xlink:href="#SVGID_351_"  overflow="visible"/>
					</clipPath>
					<rect x="281" y="126.63" clip-path="url(#SVGID_352_)" width="13" height="13"/>
				</g>
			</g>
			<g clip-path="url(#SVGID_4_)">
				<defs>
					<path id="SVGID_353_" d="M110.14,325.54c1.04,0.28,2.13,0.85,2.05,1.99c-0.07,0.95-1,1.96-2.02,2.47
						c-1.02,0.51-2.09,0.62-3.1,0.64c-2.05,0.04-4.01-0.26-5.7-0.96c-0.87-0.36-1.68-0.82-2.37-1.39c-0.89-0.74-1.02-0.88,0.26-1.52
						C102.68,325.07,107.01,324.74,110.14,325.54"/>
				</defs>
				<clipPath id="SVGID_354_">
					<use xlink:href="#SVGID_353_"  overflow="visible"/>
				</clipPath>
				<g clip-path="url(#SVGID_354_)">
					<defs>
						<rect id="SVGID_355_" x="-1" y="-2.02" width="375" height="378"/>
					</defs>
					<clipPath id="SVGID_356_">
						<use xlink:href="#SVGID_355_"  overflow="visible"/>
					</clipPath>
					<rect x="93.32" y="320.13" clip-path="url(#SVGID_356_)" fill="#DF4505" width="23.87" height="15.52"/>
				</g>
			</g>
			<g clip-path="url(#SVGID_4_)">
				<defs>
					<path id="SVGID_357_" d="M99.48,316.49c-0.49-0.92-1.31-1.83-2.4-1.76c-0.9,0.06-1.69,0.81-2.03,1.66
						c-0.34,0.85-0.33,1.77-0.27,2.65c0.13,1.8,0.45,3.6,1.12,5.24c0.35,0.85,0.78,1.66,1.34,2.38c0.73,0.92,0.88,1.08,1.7-0.1
						C101.15,323.37,100.96,319.2,99.48,316.49"/>
				</defs>
				<clipPath id="SVGID_358_">
					<use xlink:href="#SVGID_357_"  overflow="visible"/>
				</clipPath>
				<g clip-path="url(#SVGID_358_)">
					<defs>
						<rect id="SVGID_359_" x="-1" y="-2.02" width="375" height="378"/>
					</defs>
					<clipPath id="SVGID_360_">
						<use xlink:href="#SVGID_359_"  overflow="visible"/>
					</clipPath>
					<rect x="89.75" y="309.73" clip-path="url(#SVGID_360_)" fill="#DF4505" width="15.85" height="22.67"/>
				</g>
			</g>
			<g clip-path="url(#SVGID_4_)">
				<defs>
					<path id="SVGID_361_" d="M119.85,314.29c1.06,0.12,2.21,0.52,2.32,1.66c0.09,0.94-0.64,2.07-1.54,2.72
						c-0.9,0.65-1.92,0.91-2.89,1.08c-1.97,0.34-3.92,0.32-5.67-0.12c-0.9-0.23-1.76-0.56-2.52-1.02c-0.98-0.6-1.14-0.71-0.01-1.53
						C112.53,314.91,116.67,313.96,119.85,314.29"/>
				</defs>
				<clipPath id="SVGID_362_">
					<use xlink:href="#SVGID_361_"  overflow="visible"/>
				</clipPath>
				<g clip-path="url(#SVGID_362_)">
					<defs>
						<rect id="SVGID_363_" x="-1" y="-2.02" width="375" height="378"/>
					</defs>
					<clipPath id="SVGID_364_">
						<use xlink:href="#SVGID_363_"  overflow="visible"/>
					</clipPath>
					<rect x="103.75" y="309.22" clip-path="url(#SVGID_364_)" fill="#DF4505" width="23.43" height="15.75"/>
				</g>
			</g>
		</g>
	</g>
</g>
</svg>
