<?xml version="1.0" encoding="UTF-8"?>
<svg width="375px" height="334px" viewBox="0 0 375 334" version="1.1" xmlns="http://www.w3.org/2000/svg" xmlns:xlink="http://www.w3.org/1999/xlink">
    <!-- Generator: Sketch 53.2 (72643) - https://sketchapp.com -->
    <title>Group 251</title>
    <desc>Created with Sketch.</desc>
    <g id="UI-Aplicativo" stroke="none" stroke-width="1" fill="none" fill-rule="evenodd" opacity="0.29906064">
        <g id="Formulário-Intro-2---Adoção" stroke="#FFFFFF">
            <g id="Group-251" transform="translate(-1875.000000, -1168.000000)">
                <path d="M1817.00978,1237.03389 C1817.00978,1237.03389 1865.01847,1191.98963 1848.65187,1132.66305 C1832.28527,1073.33646 1813.73646,1040.37725 1843.19634,1020.60172 C1872.65621,1000.82619 1880.29396,1000.82619 1905.38941,1015.10852 C1930.48486,1029.39085 1943.57814,1042.57453 1978.49355,1039.27861 C2013.40896,1035.98269 2022.13781,1110.69024 1970.8558,1146.94537 C1919.57379,1183.20051 1909.75384,1178.80595 1906.48052,1237.03389 C1903.2072,1295.26184 1898.84277,1291.96591 1851.92519,1291.96591 C1805.00761,1291.96591 1765.72777,1291.96591 1790.82322,1268.89446 C1815.91867,1245.82302 1817.00978,1237.03389 1817.00978,1237.03389 Z" id="Stroke-17"></path>
                <path d="M1662.02149,1350.76666 C1662.02149,1350.76666 1638.96361,1311.24608 1691.66734,1285.99682 C1744.37108,1260.74756 1823.42667,1224.52036 1828.91665,1165.23948 C1834.40662,1105.95861 1804.76077,1047.77553 1820.13269,1021.42848 C1835.50461,995.081423 1859.66049,977.51672 1892.60032,983.00569 C1925.54016,988.494659 1920.05018,1010.45054 1951.89202,1014.84171 C1983.73386,1019.23289 2014.4777,1023.62407 2024.35965,1040.09097 C2034.2416,1056.55788 2057.29949,1113.64317 1987.02784,1166.33728 C1916.7562,1219.03139 1942.01007,1216.8358 1935.42211,1258.55197 C1928.83414,1300.26814 1918.95219,1317.83284 1875.03241,1321.12622 C1831.11264,1324.41961 1801.46679,1336.49534 1780.60489,1362.84239 C1759.743,1389.18945 1682.88339,1396.87401 1662.02149,1350.76666 Z" id="Stroke-19"></path>
                <path d="M1646.5083,1377.68371 C1645.40877,1380.97249 1673.99652,1403.99398 1736.66968,1403.99398 C1799.34284,1403.99398 1815.83577,1405.09025 1846.62258,1377.68371 C1877.4094,1350.27717 1903.7981,1382.06875 1919.1915,1362.33605 C1934.58491,1342.60334 1942.28161,1265.86503 1965.37172,1232.97718 C1988.46183,1200.08933 2092.91709,1094.84822 2042.33876,1043.32393 C1991.76042,991.799636 1962.07314,1001.66599 1913.69386,977.548236 C1865.31458,953.430481 1811.43765,986.318328 1803.74095,1002.76225 C1796.04425,1019.20618 1825.73153,1114.58093 1818.03483,1145.27626 C1810.33813,1175.97158 1792.74566,1229.6884 1694.88758,1264.76877 C1597.02949,1299.84914 1646.5083,1377.68371 1646.5083,1377.68371 Z" id="Stroke-23"></path>
                <path d="M1469.64632,1391.45831 C1477.30601,1391.96754 1511.32277,1400.20047 1534.3545,1385.99446 C1557.38623,1371.78844 1573.83746,1363.04628 1588.0952,1361.95351 C1602.35293,1360.86074 1614.41717,1354.30412 1620.99766,1328.07763 C1627.57816,1301.85114 1625.38466,1276.71743 1678.02861,1251.58371 C1730.67255,1226.44999 1815.12222,1226.44999 1797.57423,1113.89465 C1780.02625,1001.33931 1761.38152,984.947754 1790.99374,969.64897 C1820.60596,954.350186 1895.18489,945.608023 1926.9906,957.628497 C1958.79632,969.64897 2038.85899,1005.71039 2055.31022,1019.9164 C2071.76146,1034.12242 2099.18018,1101.87418 2055.31022,1169.62594 C2011.44027,1237.37769 1991.69879,1233.00661 1988.40854,1273.43911 C1985.1183,1313.87162 1973.05406,1342.28364 1952.21583,1361.95351 C1931.3776,1381.62337 1926.9906,1445.00405 1901.76538,1457.02453 C1876.54015,1469.045 1816.21897,1442.81851 1770.15551,1426.42696 C1724.09206,1410.0354 1708.73757,1418.77757 1684.6091,1417.68479 C1660.48062,1416.59202 1650.60988,1414.40648 1640.73914,1449.37513 C1630.8684,1484.34378 1606.73993,1499.64257 1535.45125,1495.27149 C1464.16257,1490.90041 1438.93735,1437.35466 1440.0341,1422.05588 C1441.13085,1406.75709 1436.74385,1389.27277 1469.64632,1391.45831 Z" id="Stroke-143"></path>
                <path d="M1366.52087,1410.0821 C1366.52087,1410.0821 1378.60904,1357.5236 1389.59829,1349.85882 C1400.58754,1342.19403 1411.57679,1334.52925 1431.35744,1301.68019 C1451.13809,1268.83112 1490.6994,1228.31728 1518.17252,1219.55753 C1545.64565,1210.79777 1596.1962,1203.13299 1581.91017,1163.71412 C1567.62415,1124.29524 1548.94242,1122.1053 1511.57897,1093.63611 C1474.21552,1065.16692 1446.74239,1008.22854 1424.76389,996.183886 C1402.78539,984.139229 1381.90582,975.379479 1378.60904,926.105882 C1375.31227,876.832285 1356.63054,817.703968 1406.08217,808.944218 C1455.53379,800.184467 1510.48005,826.463719 1502.78757,776.095153 C1495.0951,725.726587 1469.81982,696.162429 1490.6994,666.598271 C1511.57897,637.034113 1530.2607,609.659892 1480.80907,570.241015 C1431.35744,530.822137 1373.11442,501.257979 1353.33377,447.604507 C1333.55312,393.951035 1325.86064,374.241596 1304.98107,353.437188 C1284.10149,332.632781 1284.10149,298.688747 1296.18967,282.264215 C1308.27784,265.839683 1341.24559,259.26987 1374.21334,211.091242 C1407.18109,162.912614 1493.99617,98.3094533 1659.93385,136.633362 C1825.87152,174.957271 1751.14462,199.046585 1840.15755,199.046585 C1929.17047,199.046585 2095.32794,188.68818 2080.38256,253.543183 C2065.43718,318.398186 2013.7877,326.062968 2040.1619,387.381222 C2066.5361,448.699476 2030.27158,422.420224 2040.1619,536.296982 C2050.05223,650.173739 2053.349,695.06746 2064.33825,738.866213 C2075.3275,782.664966 2048.9533,882.307129 2040.1619,920.631038 C2031.3705,958.954946 2137.96623,920.631038 2123.6802,1043.26755 C2109.39418,1165.90405 2034.66728,1211.89274 2018.1834,1265.54622 C2001.69953,1319.19969 1972.02855,1342.19403 1958.84145,1385.99279 C1945.65435,1429.79154 1961.0393,1506.43936 1858.83927,1486.72992 C1756.63925,1467.02048 1730.26505,1437.45632 1678.61557,1472.49532 C1626.9661,1507.53433 1319.26709,1604.98655 1366.52087,1410.0821 Z" id="Stroke-189"></path>
                <path d="M1996.67545,1429.85253 C1994.48418,1425.49311 1969.28461,1403.69602 1996.67545,1367.73081 C2024.06629,1331.76561 2056.93529,1257.6555 2056.93529,1257.6555 C2056.93529,1257.6555 2075.56106,1202.07291 2128.15148,1187.9048 C2180.74189,1173.73669 2179.64625,1242.39753 2205.94146,1268.55404 C2232.23667,1294.71055 2272.77511,1342.66416 2287.01835,1369.91052 C2301.26158,1397.15689 2293.59215,1433.12209 2265.10567,1446.20035 C2236.6192,1459.2786 2162.11612,1493.0641 2104.04754,1491.97424 C2045.97896,1490.88439 1996.67545,1429.85253 1996.67545,1429.85253 Z" id="Stroke-225"></path>
                <path d="M2014.56504,1374.81543 C2014.56504,1374.81543 2064.74771,1312.98004 2072.3842,1279.85394 C2080.02069,1246.72784 2098.56646,1216.91435 2120.38501,1210.28913 C2142.20356,1203.66391 2158.56748,1223.53957 2170.56768,1247.83204 C2182.56788,1272.12452 2201.11365,1306.35482 2226.20499,1328.43889 C2251.29632,1350.52295 2272.02395,1384.75326 2269.84209,1402.42051 C2267.66024,1420.08776 2249.11447,1439.96342 2216.38664,1448.79705 C2183.65881,1457.63067 2110.56666,1492.96518 2087.65718,1478.61054 C2064.74771,1464.25589 2006.92854,1422.29617 2003.65576,1404.62892 C2000.38298,1386.96166 2010.20133,1384.75326 2014.56504,1374.81543 Z" id="Stroke-227"></path>
                <path d="M2071.31483,1337.29287 C2071.31483,1337.29287 2080.07785,1317.36815 2091.03162,1271.98408 C2101.9854,1226.60002 2131.56059,1225.49309 2142.51436,1240.99009 C2153.46813,1256.48709 2161.13578,1310.72658 2189.61559,1327.33051 C2218.0954,1343.93444 2249.86134,1377.14229 2250.95672,1389.31851 C2252.0521,1401.49472 2232.33531,1431.38179 2193.9971,1436.91643 C2155.65889,1442.45108 2126.0837,1476.76586 2089.93625,1456.84115 C2053.78879,1436.91643 2011.06907,1418.09865 2032.97662,1389.31851 C2054.88417,1360.53837 2059.26568,1370.50072 2071.31483,1337.29287 Z" id="Stroke-229"></path>
                <path d="M2128.16602,1301 C2128.16602,1301 2162.24556,1330.84606 2186.43104,1351.84884 C2210.61653,1372.85163 2201.82181,1400.48687 2180.93434,1402.69769 C2160.04688,1404.90851 2136.96074,1394.95982 2131.46404,1373.95704 C2125.96734,1352.95425 2108.3779,1301 2128.16602,1301 Z" id="Stroke-231"></path>
                <path d="M2095.10689,909.113113 C2095.10689,909.113113 2130.02627,879.577094 2151.85088,951.776253 C2173.67549,1023.97541 2150.75965,1099.45635 2144.21227,1115.86525 C2137.66488,1132.27415 2140.93857,1123.52274 2184.58779,1149.77698 C2228.23701,1176.03121 2244.60547,1211.03687 2266.43008,1170.56158 C2288.25469,1130.0863 2239.14932,1062.26284 2250.06162,981.312272 C2260.97392,900.3617 2279.52484,813.941495 2282.79853,751.587677 C2286.07223,689.233858 2248.97039,670.637105 2206.4124,667.355325 C2163.85441,664.073545 2080.9209,654.228205 2101.65428,726.427364 C2122.38766,798.626522 2110.38412,843.477515 2095.10689,865.356048 C2079.82967,887.234581 2044.91029,950.682326 2095.10689,909.113113 Z" id="Stroke-233" stroke-width="3"></path>
                <path d="M2267.49592,1492.65943 C2273.90533,1491.51673 2379.21872,1488.27708 2345.59341,1400.63005 C2311.9681,1312.98301 2229.53185,1294.35801 2265.32654,1245.05656 C2301.12123,1195.7551 2323.89966,1185.89481 2332.57716,1114.68159 C2341.25466,1043.46838 2333.66185,1045.65955 2318.47623,966.777221 C2303.2906,887.894889 2276.17341,835.306668 2307.62935,758.615512 C2339.08529,681.924356 2322.81497,650.152306 2258.81842,634.814075 C2194.82186,619.475844 2269.66529,645.769954 2314.13748,607.424376 C2358.60966,569.078798 2284.85091,539.497924 2281.59685,513.203813 C2278.34279,486.909703 2326.06904,535.115572 2343.42404,482.527351 C2360.77904,429.93913 2292.44373,387.2112 2298.95185,367.490617 C2305.45998,347.770034 2332.57716,391.593552 2341.25466,324.762688 C2349.93216,257.931823 2413.92872,337.909743 2400.91247,427.747954 C2387.89622,517.586165 2390.0656,544.975864 2364.0331,541.6891 C2338.0006,538.402336 2356.44029,567.98321 2367.28716,598.659673 C2378.13403,629.336135 2315.22216,627.144959 2344.50872,649.056718 C2373.79528,670.968477 2384.64216,747.659633 2362.94841,772.858155 C2341.25466,798.056678 2397.65841,789.291974 2400.91247,863.791954 C2404.16653,938.291934 2420.43685,1023.74779 2406.33591,1119.06394 C2392.23497,1214.3801 2343.42404,1219.85803 2355.3556,1261.49038 C2367.28716,1303.12272 2386.81153,1445.54915 2375.96466,1460.88738 C2365.11779,1476.22561 2326.06904,1538.67413 2291.35904,1527.71825 C2256.64904,1516.76237 2230.61654,1499.23296 2267.49592,1492.65943 Z" id="Stroke-249" stroke-dasharray="12"></path>
            </g>
        </g>
    </g>
</svg>