<?xml version="1.0" encoding="UTF-8"?>
<svg width="17px" height="18px" viewBox="0 0 17 18" version="1.1" xmlns="http://www.w3.org/2000/svg" xmlns:xlink="http://www.w3.org/1999/xlink">
    <!-- Generator: Sketch 53.2 (72643) - https://sketchapp.com -->
    <title>paperclip</title>
    
    <g id="UI-Aplicativo" stroke="none" strokeWidth="1" fill="none" fillRule="evenodd">
        <g id="Chat" transform="translate(-47.000000, -742.000000)" fill="#000000" fillRule="nonzero">
            <g id="Group-5" transform="translate(32.000000, 716.000000)">
                <g id="Group-4" transform="translate(15.000000, 16.000000)">
                    <g id="paperclip" transform="translate(0.000000, 10.000000)">
                        <path d="M15.6030072,4.08072654 C14.7053636,3.14228052 13.5123171,2.62159435 12.2392259,2.61957619 L12.2258852,2.61957619 C11.6141153,2.61957619 11.0175921,2.74066599 10.4496562,2.97880928 C9.86075628,3.22704339 9.33093691,3.59233098 8.87735055,4.06659939 L4.43868399,8.71241171 C3.92601705,9.24924319 3.64586077,9.96569122 3.64776659,10.7305752 C3.64967242,11.493441 3.93364035,12.209889 4.44821312,12.7487386 C4.96278588,13.2875883 5.64507125,13.5842583 6.37309642,13.5862765 L6.3788139,13.5862765 C7.10493325,13.5862765 7.78531279,13.2916246 8.29607391,12.7588295 L12.1915803,8.68213925 C12.3211764,8.5469223 12.391692,8.36730575 12.391692,8.17759839 C12.391692,7.98587286 12.3211764,7.80625631 12.1915803,7.67305752 C12.06389,7.53784057 11.8923658,7.46518668 11.7113124,7.46518668 C11.530259,7.46518668 11.3587348,7.53985873 11.2310445,7.67305752 L7.33553808,11.7497477 C7.08206334,12.0161453 6.74092066,12.1614531 6.37690807,12.1614531 L6.37500225,12.1614531 C6.00717801,12.1594349 5.66222368,12.0100908 5.40684312,11.7416751 C5.14955674,11.4712412 5.00661986,11.1120081 5.00661986,10.728557 C5.00471403,10.3471241 5.14383926,9.98990918 5.39921982,9.7235116 L9.83788638,5.07568113 C10.4706203,4.41170535 11.3206183,4.04641776 12.227791,4.04641776 L12.2373201,4.04641776 C13.1483045,4.04843592 14.00402,4.419778 14.646283,5.08980827 C15.2866402,5.76185671 15.6411237,6.65590313 15.6430295,7.60847629 C15.6449353,8.56104945 15.2961693,9.4530777 14.6615296,10.1170535 L9.95223588,15.0514632 C9.0107583,16.0322906 7.75291376,16.5731584 6.41121292,16.5731584 L6.39787215,16.5731584 C5.05045383,16.5691221 3.784986,16.0201816 2.83588512,15.0272452 C1.88678424,14.0343088 1.36268235,12.7103935 1.36077652,11.2996973 C1.35696487,9.88900101 1.87534929,8.5691221 2.81682687,7.58425832 L8.8964088,1.21897074 C9.0260049,1.08375378 9.09652043,0.904137235 9.09652043,0.714429869 C9.09652043,0.522704339 9.0260049,0.34308779 8.8964088,0.209889001 C8.7668127,0.0746720484 8.59528844,0 8.41423506,0 C8.23318168,0 8.06165742,0.0746720484 7.93396715,0.207870838 L1.85438521,6.57517659 C1.24833284,7.20887992 0.779499881,7.95358224 0.459321271,8.78506559 C0.152483437,9.58829465 -0.00188839287,10.4359233 1.7432191e-05,11.3037336 C0.00192325725,12.1735621 0.160106737,13.0211907 0.472662046,13.8224016 C0.794746481,14.653885 1.26548527,15.3985873 1.87534929,16.0363269 C2.48140166,16.6720484 3.19418023,17.1664985 3.98890928,17.5055499 C4.7512393,17.8304743 5.56121495,17.9959637 6.3940605,18 L6.41121292,18 C7.238341,18 8.04069335,17.8385469 8.79921172,17.5176589 C9.59203495,17.184662 10.3029077,16.6942482 10.9089601,16.0585267 L15.6182538,11.1261352 C16.0699343,10.6518668 16.4206061,10.09889 16.6569284,9.47931382 C16.8856274,8.87991927 17.0018828,8.25025227 16.9999769,7.6024218 C16.9942595,6.27043391 16.498745,5.01917255 15.6030072,4.08072654 Z" id="Shape"></path>
                    </g>
                </g>
            </g>
        </g>
    </g>
</svg>