<?xml version="1.0" encoding="UTF-8"?>
<svg width="1327px" height="246px" viewBox="0 0 1327 246" version="1.1" xmlns="http://www.w3.org/2000/svg" xmlns:xlink="http://www.w3.org/1999/xlink">
    <!-- Generator: Sketch 53.2 (72643) - https://sketchapp.com -->
    <title>Group 2</title>
    <desc>Created with Sketch.</desc>
    <defs>
        <polygon id="path-1" points="0.0713070217 0.0643354839 26.865 0.0643354839 26.865 17.7276112 0.0713070217 17.7276112"></polygon>
        <polygon id="path-3" points="0.105802895 0.506409091 21.7303263 0.506409091 21.7303263 12.8755545 0.105802895 12.8755545"></polygon>
        <polygon id="path-5" points="0 0.133608696 70.9312672 0.133608696 70.9312672 27.620206 0 27.620206"></polygon>
        <polygon id="path-7" points="0.268088776 0.586175207 58.9909694 0.586175207 58.9909694 71.6782712 0.268088776 71.6782712"></polygon>
        <polygon id="path-9" points="0.227927153 0.296332694 61.4206123 0.296332694 61.4206123 101 0.227927153 101"></polygon>
        <path d="M4.95146667,1.2962963 C-2.35573333,14.9494074 1.05973333,25.2274815 1.05973333,25.2274815 L1.05973333,25.2274815 C9.45226667,32.1232593 15.6554667,22.5327407 15.6554667,22.5327407 L15.6554667,22.5327407 C15.6554667,22.5327407 11.8826667,8.56333333 8.98346667,1.49385185 L8.98346667,1.49385185 C8.616,0.597851852 7.76746667,0.137925926 6.9168,0.137925926 L6.9168,0.137925926 C6.14293333,0.137925926 5.368,0.518 4.95146667,1.2962963 L4.95146667,1.2962963 Z" id="path-11"></path>
        <path d="M4.95146667,1.2962963 C-2.35573333,14.9494074 1.05973333,25.2274815 1.05973333,25.2274815 L1.05973333,25.2274815 C9.45226667,32.1232593 15.6554667,22.5327407 15.6554667,22.5327407 L15.6554667,22.5327407 C15.6554667,22.5327407 11.8826667,8.56333333 8.98346667,1.49385185 L8.98346667,1.49385185 C8.616,0.597851852 7.76746667,0.137925926 6.91626667,0.137925926 L6.91626667,0.137925926 C6.14293333,0.137925926 5.368,0.518 4.95146667,1.2962963 L4.95146667,1.2962963 Z" id="path-13"></path>
        <path d="M19.1434343,14.4801683 C19.1434343,14.4801683 16.2479798,35.4095644 7.20353535,46.262297 L7.20353535,46.262297 C-1.84141414,57.1155396 -0.431818182,63.2052871 3.05252525,73.1427475 L3.05252525,73.1427475 C5.62121212,80.4679851 6.53787879,92.658698 6.84141414,98.5562129 L6.84141414,98.5562129 C6.94444444,100.522901 8.5,102.095436 10.4883838,102.274921 L10.4883838,102.274921 L16.3212121,102.797059 C22.5873737,100.22155 18.4010101,94.4566089 18.2590909,94.2648861 L18.2590909,94.2648861 C18.2792929,94.3459604 17.5944444,95.2704109 18.2555556,94.2597871 L18.2555556,94.2597871 C18.2555556,94.2597871 18.2570707,94.2618267 18.2590909,94.2648861 L18.2590909,94.2648861 C18.2585859,94.2628465 18.2575758,94.2608069 18.2555556,94.2597871 L18.2555556,94.2597871 C13.5065657,91.711302 11.420202,68.8529505 13.6560606,63.6152475 L13.6560606,63.6152475 C15.8914141,58.3744851 32.2550505,51.1532673 43.0050505,36.8551337 L43.0050505,36.8551337 C53.7545455,22.5615891 50.1393939,9.23583663 40.5080808,2.66525248 L40.5080808,2.66525248 C38.2636364,1.1340198 36.0025253,0.472678218 33.8328283,0.472678218 L33.8328283,0.472678218 C26.6919192,0.471148515 20.5333333,7.62913861 19.1434343,14.4801683 L19.1434343,14.4801683 Z" id="path-15"></path>
        <path d="M74.0995618,0.275726027 C62.0502416,0.687287671 55.709382,9.45831507 45.2709663,12.9322603 L45.2709663,12.9322603 C34.8325506,16.4041781 26.4932697,9.23631507 26.4932697,9.23631507 L26.4932697,9.23631507 C15.0507865,4.65186301 0.375758427,18.1325342 0.213696629,26.7028493 L0.213696629,26.7028493 C0.0531685393,35.2736712 12.8816124,38.8226301 34.5345,35.6908082 L34.5345,35.6908082 C56.1878989,32.5594932 67.9810899,14.6296986 71.9211854,12.6306849 L71.9211854,12.6306849 C73.8925112,11.6311781 76.4706742,11.6190137 78.5575393,11.8572329 L78.5575393,11.8572329 C81.9925337,12.2485205 85.4801854,11.7639726 88.6099719,10.3067808 L88.6099719,10.3067808 C90.9279157,9.22719178 91.2055169,6.77860274 90.6820112,5.42379452 L90.6820112,5.42379452 C89.5930787,2.60013699 86.6263764,0.230616438 76.595927,0.230616438 L76.595927,0.230616438 C75.8081124,0.230616438 74.9768427,0.245315068 74.0995618,0.275726027 L74.0995618,0.275726027 Z" id="path-17"></path>
        <path d="M117.354048,1.75195133 C101.984881,6.27723451 94.0317825,35.8359668 94.0317825,35.8359668 L94.0317825,35.8359668 C74.5330637,74.951396 31.6528037,95.0765442 31.6528037,95.0765442 L31.6528037,95.0765442 C20.5109682,100.299467 7.93840584,107.351856 3.11527586,119.512668 L3.11527586,119.512668 C0.939801061,124.996002 -0.22595756,131.445493 0.186440318,137.351869 L0.186440318,137.351869 C0.630755968,143.715232 3.45674536,148.117403 7.85785146,152.392407 L7.85785146,152.392407 C11.0628011,155.506706 16.8804483,159.629719 16.7071804,164.723956 L16.7071804,164.723956 C16.4634907,171.621821 4.7912122,190.142449 3.35136605,196.285425 L3.35136605,196.285425 C2.57318037,199.603392 6.23156499,208.583029 9.76025199,216.140029 L9.76025199,216.140029 C13.1551883,223.408752 20.278931,228.212179 28.2902918,228.625088 L28.2902918,228.625088 C31.051939,228.767454 33.3444456,226.516971 33.2522387,223.753265 L33.2522387,223.753265 C33.081504,218.612925 29.0679708,218.189883 25.7008992,216.920757 L25.7008992,216.920757 C22.3302812,215.648591 20.0094032,205.377535 19.8189098,198.379356 L19.8189098,198.379356 C19.62487,191.380164 26.4324748,181.88933 39.3718382,169.695586 L39.3718382,169.695586 C52.3112016,157.501336 45.6216419,141.06704 49.2536817,137.302219 L49.2536817,137.302219 C52.3421061,134.102805 89.9027374,128.275971 112.208194,117.026093 L112.208194,117.026093 C117.105292,118.421372 123.237557,119.369796 130.523928,119.751801 L130.523928,119.751801 C152.054239,120.879069 166.894989,105.597878 171.08635,104.404241 L171.08635,104.404241 C173.183297,103.807423 175.67795,104.295314 177.648745,104.932664 L177.648745,104.932664 C180.883586,105.978869 184.339825,106.183551 187.640021,105.366852 L187.640021,105.366852 C190.09769,104.759394 190.921979,102.549442 190.902727,101.280823 L190.902727,101.280823 C190.85409,98.0236527 187.288926,94.6545155 175.563958,92.722708 L175.563958,92.722708 C163.841016,90.7903938 156.025721,98.154365 145.270952,99.5359646 L145.270952,99.5359646 C140.084568,100.200673 135.857743,98.532823 132.855952,96.6304004 L132.855952,96.6304004 C138.819003,83.7258451 136.865432,70.2771615 135.22192,64.4959248 L135.22192,64.4959248 C132.962851,56.5386814 135.657623,44.8135774 135.657623,44.8135774 L135.657623,44.8135774 L135.655597,44.8110442 C136.236703,42.3229491 136.073568,39.1716659 136.845167,37.1760221 L136.845167,37.1760221 C137.716573,34.9209801 148.347218,29.3145332 155.599645,25.3207124 L155.599645,25.3207124 C161.6777,21.9743739 165.794586,15.8243053 166.2693,8.90212168 L166.2693,8.90212168 C166.474992,5.90890929 165.936443,3.51606195 164.618188,2.58232965 L164.618188,2.58232965 C162.890069,1.35981416 156.750711,2.65173894 150.720279,3.94315708 L150.720279,3.94315708 C146.232032,4.90424779 141.803568,5.8653385 139.298276,5.79035619 L139.298276,5.79035619 C134.672732,5.65153761 133.251631,0.414935841 125.339064,0.413922566 L125.339064,0.413922566 C123.210199,0.413922566 120.6127,0.792887168 117.354048,1.75195133 L117.354048,1.75195133 Z" id="path-19"></path>
        <path d="M1.394,2.30620755 C-2.38875758,16.5280755 2.90648485,25.4681321 2.90648485,25.4681321 L2.90648485,25.4681321 C12.6593333,30.5329245 16.7578788,19.9056226 16.7578788,19.9056226 L16.7578788,19.9056226 C16.7578788,19.9056226 10.6450909,8.10509434 6.29566667,1.53186792 L6.29566667,1.53186792 C5.74754545,0.703018868 4.88363636,0.313811321 4.02745455,0.313811321 L4.02745455,0.313811321 C2.87557576,0.313811321 1.73657576,1.01835849 1.394,2.30620755 L1.394,2.30620755 Z" id="path-21"></path>
        <path d="M1.394,2.30620755 C-2.38875758,16.5280755 2.90648485,25.4681321 2.90648485,25.4681321 L2.90648485,25.4681321 C12.6593333,30.5329245 16.7578788,19.9056226 16.7578788,19.9056226 L16.7578788,19.9056226 C16.7578788,19.9056226 10.6450909,8.10509434 6.29566667,1.53186792 L6.29566667,1.53186792 C5.7470303,0.703018868 4.88363636,0.313811321 4.02693939,0.313811321 L4.02693939,0.313811321 C2.87557576,0.313811321 1.73657576,1.01835849 1.394,2.30620755 L1.394,2.30620755 Z" id="path-23"></path>
        <path d="M2.198,0.602604167 C0.2745,1.6859375 -0.383,4.08541667 0.7285,5.95833333 L0.7285,5.95833333 C1.1925,6.73697917 12.087,24.5041667 42.318,24.5041667 L42.318,24.5041667 C43.198,24.5041667 44.0975,24.4885417 45.008,24.4598958 L45.008,24.4598958 C47.2295,24.3838542 48.9685,22.5692708 48.89,20.4026042 L48.89,20.4026042 C48.8115,18.2421875 46.943,16.5572917 44.7305,16.6213542 L44.7305,16.6213542 C17.63,17.5765625 8.0985,2.6890625 7.6815,2.01145833 L7.6815,2.01145833 C6.9335,0.769270833 5.5885,0.0765625 4.207,0.0765625 L4.207,0.0765625 C3.523,0.0765625 2.831,0.246354167 2.198,0.602604167 L2.198,0.602604167 Z" id="path-25"></path>
        <path d="M17.9489655,16.3210074 C7.25797701,19.2570963 9.03921839,32.1740741 10.2282299,40.3940148 L10.2282299,40.3940148 C11.4172414,48.6154667 0.308,67.7209481 0.308,67.7209481 L0.308,67.7209481 L0.312045977,67.7209481 C3.61811494,63.2989333 8.29475862,58.3399704 14.295954,52.8143407 L14.295954,52.8143407 C27.370023,40.7712889 20.6112184,24.5404444 24.2804138,20.8226074 L24.2804138,20.8226074 C27.3988506,17.6633778 65.3516322,11.9075556 87.8887356,0.797362963 L87.8887356,0.797362963 C87.8887356,0.797362963 72.5944368,3.47605926 51.2114483,0.797362963 L51.2114483,0.797362963 C49.4989885,0.582785185 47.916,0.483051852 46.4478161,0.483051852 L46.4478161,0.483051852 C29.5776092,0.483051852 27.7827126,13.6196444 17.9489655,16.3210074 L17.9489655,16.3210074 Z" id="path-27"></path>
        <path d="M17.9489655,16.3210074 C7.25797701,19.2570963 9.03921839,32.1740741 10.2282299,40.3940148 L10.2282299,40.3940148 C11.4172414,48.6154667 0.308,67.7209481 0.308,67.7209481 L0.308,67.7209481 L0.312045977,67.7209481 C3.61811494,63.2989333 8.29475862,58.3399704 14.295954,52.8143407 L14.295954,52.8143407 C27.370023,40.7712889 20.6112184,24.5404444 24.2804138,20.8226074 L24.2804138,20.8226074 C27.3988506,17.6633778 65.3516322,11.9075556 87.8887356,0.797362963 L87.8887356,0.797362963 C87.8887356,0.797362963 72.5944368,3.47605926 51.2114483,0.797362963 L51.2114483,0.797362963 C49.4989885,0.583288889 47.916,0.483555556 46.4478161,0.483555556 L46.4478161,0.483555556 C29.5776092,0.483555556 27.7827126,13.6201481 17.9489655,16.3210074 L17.9489655,16.3210074 Z" id="path-29"></path>
        <path d="M0.209,2.8335 C0.209,4.328 1.419,5.5395 2.914,5.5395 L2.914,5.5395 C4.4085,5.5395 5.6205,4.328 5.6205,2.8335 L5.6205,2.8335 C5.6205,1.3405 4.4085,0.1275 2.914,0.1275 L2.914,0.1275 C1.419,0.1275 0.209,1.3405 0.209,2.8335 L0.209,2.8335 Z" id="path-31"></path>
        <polygon id="path-33" points="0.252342857 0.250123886 2.87657143 0.250123886 2.87657143 5.67132706 0.252342857 5.67132706"></polygon>
        <polygon id="path-35" points="0.350884152 0.0876633948 29.9702528 0.0876633948 29.9702528 65 0.350884152 65"></polygon>
    </defs>
    <g id="UI-Aplicativo" stroke="none" stroke-width="1" fill="none" fill-rule="evenodd">
        <g id="Formulário-Intro---Adoção" transform="translate(-74.000000, -32.000000)">
            <g id="Group-2" transform="translate(74.000000, 32.000000)">
                <g id="Group-27" transform="translate(0.000000, 163.000000)">
                    <path d="M211.519678,62.3070054 C211.328784,62.1007833 211.11299,61.9201212 210.869926,61.7760562 C201.161579,56.031464 185.358244,58.0036443 185.007876,60.1286031 C184.724498,61.8492505 192.163454,68.7672753 195.154924,71.4702369 C195.810605,72.0627624 195.812384,73.0758647 195.161446,73.6718755 L190.839642,77.628435 C189.061123,79.2561373 190.007888,82.1670637 192.416004,82.5092181 C207.036623,84.5877043 214.22955,79.5727317 219.022068,76.651349 C223.126299,74.1505431 213.082997,63.9991883 211.519678,62.3070054" id="Fill-1" fill="#AE5530"></path>
                    <g id="Group-5" transform="translate(239.000000, 64.000000)">
                        <mask id="mask-2" fill="white">
                            <use xlink:href="#path-1"></use>
                        </mask>
                        <g id="Clip-4"></g>
                        <path d="M17.85684,8.54581935 C14.70324,8.53072258 13.53204,0.0643354839 13.53204,0.0643354839 L0.14064,7.89433548 C0.14064,7.89433548 -0.87456,8.26188387 4.86444,13.9928516 C10.60344,19.7238194 24.55224,18.0718839 26.53644,14.3000129 C28.52004,10.5287226 21.01044,8.56091613 17.85684,8.54581935" id="Fill-3" fill="#AE5530" mask="url(#mask-2)"></path>
                    </g>
                    <path d="M240.980063,74.0541218 C240.980063,74.0541218 223.591184,79.9623443 201.342473,71.1887378 C179.0979,62.393172 137.860857,57.6066512 124.620744,53.2676241 C72.4848414,36.181555 51.8042569,53.3809812 50.197711,51.7791437 C48.5917561,50.1773062 47.5059486,43.0660734 54.4369116,40.7734101 C66.3027723,36.8551695 93.1985261,21.8154642 119.509705,18.537009 C124.064541,17.9838736 128.596915,17.4271772 133.186033,16.9482283 C154.805838,14.6413212 177.036225,13.680456 202.866268,18.0901088 L203.785983,18.239669 C235.512014,23.77043 256.297219,32.7683769 256.297219,32.7683769 C256.297219,32.7683769 261.550707,38.0142613 260.952538,49.5666019 C260.373874,61.1444627 240.980063,74.0541218 240.980063,74.0541218" id="Fill-6" fill="#964721"></path>
                    <path d="M240.980063,74.0558278 C240.980063,74.0558278 223.591184,79.9588705 201.342473,71.1929559 C179.0979,62.4051013 137.684717,58.1303615 124.620744,53.2875539 C85.0972317,38.6369788 51.8042569,53.4008117 50.197711,51.8003785 C48.5917561,50.1999454 47.5059486,43.0949471 54.4369116,40.8042938 C66.3027723,36.8894884 93.1985261,21.8629687 119.509705,18.5873878 C124.064541,18.0347373 128.596915,17.4785289 133.186033,17 C128.572681,21.9086275 129.526088,37.0970288 136.655061,43.9826272 C143.787581,50.8456926 161.734437,45.9109742 164.152531,42.0548731 C166.544618,38.2177471 176.480022,38.7010198 176.915055,45.699876 C177.350678,52.6981391 198.24405,46.0485439 193.831073,37.5951259 C189.396226,29.13815 201.791691,18.5203819 201.791691,18.5203819 C202.157568,18.3952646 202.503938,18.2440566 202.866268,18.1408794 L203.785983,18.2903085 C235.512014,23.8162205 256.297219,32.8062788 256.297219,32.8062788 C256.297219,32.8062788 261.550707,38.047564 260.952538,49.5897765 C260.373874,61.1574868 240.980063,74.0558278 240.980063,74.0558278" id="Fill-8" fill="#964721"></path>
                    <path d="M133,16.8762132 L127.850898,26.8163867 C127.850898,26.8163867 94.9819427,33.1117701 59.8549093,19.7457452 C42.2503957,13.032823 28.9886119,17.0975446 19.3729044,21.923766 C9.77548321,26.7775041 3.80231255,32.3891529 0.748480389,28.9280081 C-2.32422808,25.4417391 4.33851758,17.241111 15.6985137,11.4194965 C15.7468842,11.4045416 15.7728391,11.3853995 15.8212097,11.3698464 C27.0803355,5.60147112 42.9252236,2.19416366 58.4639616,8.03252757 C89.8033464,19.7971898 133,16.8762132 133,16.8762132" id="Fill-10" fill="#964721"></path>
                    <path d="M256.129063,33.8043773 C253.461807,36.7250405 250.028999,38.7978078 246.597379,40.2883573 C240.480092,42.9481294 234.432886,43.7325977 233.052636,43.973144 C231.791762,44.1873619 226.690063,43.1210595 221.082352,40.7377361 C214.651479,38.0103477 207.597593,33.54947 205.039023,27.3066348 C205.039023,27.3066348 205.024175,27.2575681 205.012297,27.1845665 C204.458772,25.8831032 204.148156,24.5044496 204.059069,23.0450156 C203.26501,8.42015826 210.296327,-0.639223122 236.129691,1.2474499 C236.129691,1.2474499 261.261051,2.32033436 260.997948,21.3623881 C260.934994,26.6424397 258.986371,30.7048003 256.129063,33.8043773" id="Fill-12" fill="#AE5530"></path>
                    <path d="M262.810614,4.81149469 C256.33371,4.98722812 245,3 245,3 L259.331069,15 C259.331069,15 269.287519,4.63576127 262.810614,4.81149469" id="Fill-14" fill="#BC5E3C"></path>
                    <g id="Group-18" transform="translate(198.000000, 0.000000)">
                        <mask id="mask-4" fill="white">
                            <use xlink:href="#path-3"></use>
                        </mask>
                        <g id="Clip-17"></g>
                        <path d="M3.17043158,0.753645455 C-5.66372632,-1.53967273 7.41064211,12.8755545 7.41064211,12.8755545 C7.41064211,12.8755545 20.1422737,5.62332727 21.7303263,1.59805455 C21.7303263,1.59805455 12.0045895,3.04696364 3.17043158,0.753645455" id="Fill-16" fill="#BC5E3C" mask="url(#mask-4)"></path>
                    </g>
                    <path d="M246.375236,40.2817311 C240.217911,42.9462516 234.131126,43.7321203 232.741244,43.973096 C231.472716,44.1876963 226.337028,43.1194904 220.693212,40.7319122 C217.240926,33.4247121 227.738268,31.2775102 229.047447,25.7710344 C230.500097,19.5164547 232.038233,13.7438266 234.532846,14.00878 C236.755461,14.2299742 238.452612,25.1973682 239.341538,28.0501135 C240.231062,30.9028588 249.448518,37.255747 246.375236,40.2817311" id="Fill-19" fill="#BC5E3C"></path>
                    <path d="M230,30.46297 C230,30.46297 232.03179,32.6882482 233.052623,32.978838 C234.074618,33.2689124 237,30.481003 237,30.481003 C237,30.481003 233.18335,29.4108703 230,30.46297" id="Fill-21" fill="#030404"></path>
                    <path d="M28.3079832,11.7156114 C24.0073352,17.8728935 17.1275861,16.5731336 19.2243496,22.0778952 C9.70052442,26.8385956 3.77315787,32.3433571 0.742743434,28.9487248 C-2.30640256,25.5288602 4.30525112,17.4844325 15.5775499,11.7737045 C15.6255495,11.7584477 15.6518908,11.740257 15.699305,11.7250002 C17.7053375,11.022015 32.3141946,5.96732829 28.3079832,11.7156114" id="Fill-23" fill="#AE5530"></path>
                    <path d="M132.818194,16.5928327 C107.386943,12.69004 82.5587155,29.3345275 82.5587155,29.3345275 C82.5587155,29.3345275 47.0173859,50.0624328 48.0208559,56.4822483 C48.6904248,60.7615389 52.3215258,60.2642334 54.6682558,59.4572848 C55.773604,59.0766819 56.7811962,58.4597415 57.6462769,57.6762507 C61.2809112,54.3810152 74.7347117,43.880714 89.5894834,45.5673304 C124.16621,49.493581 132.347671,42.9564764 132.347671,42.9564764 C132.347671,42.9564764 158.248857,20.4962119 132.818194,16.5928327" id="Fill-25" fill="#AE5530"></path>
                </g>
                <g id="Group-20" transform="translate(392.000000, 130.000000)">
                    <g id="Group-3" transform="translate(0.000000, 79.000000)">
                        <mask id="mask-6" fill="white">
                            <use xlink:href="#path-5"></use>
                        </mask>
                        <g id="Clip-2"></g>
                        <path d="M70.9312672,0.133608696 C70.9312672,0.133608696 53.853679,13.3879565 46.5466454,13.9406522 C39.2396118,14.4927391 15.2201328,15.5768261 9.6069563,14.7179565 C0.839947899,13.377 -0.0114554622,17.6220435 -0.000119327731,19.3239565 C0.0303092437,23.7503913 1.21762017,27.8834348 8.1189395,27.607087 C15.0196622,27.3307391 65.6832336,25.3932609 70.9312672,0.133608696" id="Fill-1" fill="#BB535E" mask="url(#mask-6)"></path>
                    </g>
                    <g id="Group-6" transform="translate(222.000000, 3.000000)">
                        <mask id="mask-8" fill="white">
                            <use xlink:href="#path-7"></use>
                        </mask>
                        <g id="Clip-5"></g>
                        <path d="M0.268088776,0.586175207 C0.268088776,0.586175207 15.6905684,5.18881983 16.510548,24.3509355 C17.3293235,43.5142413 16.0373439,63.5647537 33.104599,63.6992331 C50.1718541,63.8343074 51.5366806,48.9904066 47.3043337,36.7099438 C43.0719867,24.429481 46.4849561,21.4608198 51.5366806,23.8897785 C56.5884051,26.3187372 63.1422214,47.3707041 55.4963031,60.1908694 C47.8503847,73.0110347 23.6820582,77.8689521 13.3058847,60.055795 C2.93031327,42.2432331 13.9904051,7.78081983 0.268088776,0.586175207" id="Fill-4" fill="#E0646B" mask="url(#mask-8)"></path>
                    </g>
                    <path d="M182.499391,68.4146753 C182.499391,68.4146753 186.769347,70.2420462 186.633289,73.9045639 C186.497231,77.5670817 173.720329,99.1360392 171.000959,98.7292922 C168.282788,98.321947 161.485862,96.965326 160.263134,101.442534 C159.039208,105.918546 162.302212,108.225041 165.564017,108.76757 C168.826422,109.310098 176.302441,108.902753 176.982134,107.54673 C177.662426,106.190109 198.646586,75.8198639 202.155334,73.7089665 C205.663483,71.598069 198.077178,38.5905476 182.499391,68.4146753" id="Fill-7" fill="#BB535E"></path>
                    <path d="M38.0967188,59.1018454 C38.8813239,62.4008032 41.3338843,70.6805522 49.6986438,71.7574479 C58.0622136,72.8349373 69.124611,69.0652086 71.822249,70.9500729 C74.5210766,72.8349373 75.7345675,76.6040723 75.1950399,77.6815617 C74.6561072,78.7584574 85.3134128,93.9721325 115.396091,94.9148615 C145.479959,95.8569969 166.120606,88.9907477 176.777912,73.7776663 C187.435218,58.5639912 193.261164,62.2351726 196.536994,66.4311478 C199.208459,69.8518055 233.841728,43.2155557 235.865997,23.9626311 C237.889077,4.71030022 216.573871,-2.82915715 201.060222,0.940571537 C185.546574,4.71030022 154.11359,49.2738362 134.957684,50.2159715 C115.801778,51.1587005 112.967919,44.6961389 105.548969,45.7736283 C98.1294236,46.850524 94.8916632,46.1773157 89.8996947,43.4844828 C84.908321,40.7916498 70.3386968,32.7143382 61.5700352,39.9842749 C52.8013735,47.2542115 48.6189938,52.9088045 44.5722395,53.7167731 C40.5248903,54.5247417 37.4037203,56.1887653 38.0967188,59.1018454" id="Fill-9" fill="#E0646B"></path>
                    <path d="M70.707579,39.1162904 C70.707579,39.1162904 81.8947471,34.2983819 85.4585071,32.9760257 C89.022267,31.6536695 93.5760573,28.6307443 93.9718366,30.7089707 C94.367616,32.787197 90.5070215,42.706257 87.7354022,46.1068396 C84.9632009,49.5074222 66.1537887,42.3280443 70.707579,39.1162904" id="Fill-11" fill="#E8747F"></path>
                    <path d="M39.0178569,60.9264402 C39.0178569,60.9264402 36.1762311,57.7497532 37.2372525,56.5264899 C38.2968887,55.3032266 41,55 41,55 C41,55 40.2617175,61.7751295 39.0178569,60.9264402" id="Fill-13" fill="#464039"></path>
                    <path d="M73.5178935,71.1596177 C73.5178935,71.1596177 75.5638432,74.7237657 69.8058881,80.4830981 C64.047933,86.2424305 50.948734,95.7519435 46.3578515,96.0200667 C41.7663736,96.2875992 21.8058595,98.4940047 15.1636683,98.1626895 C4.22057638,97.6164034 1.52440051,100.037189 2.06506475,103.385776 C2.6045381,106.734362 4.22593539,111.823977 12.5978949,110.886727 C20.9704499,109.948887 14.2181013,108.207268 26.9118021,108.475981 C39.6060984,108.743514 73.7709577,109.814825 74.8510953,105.528989 C75.9312329,101.242562 90.1719003,92.1836615 104.319678,92.4943064 C118.468647,92.8049512 71.914955,60.4961122 73.5178935,71.1596177" id="Fill-15" fill="#E0646B"></path>
                    <g id="Group-19" transform="translate(173.000000, 14.000000)">
                        <mask id="mask-10" fill="white">
                            <use xlink:href="#path-9"></use>
                        </mask>
                        <g id="Clip-18"></g>
                        <path d="M21.1403588,7.54729883 C21.1403588,7.54729883 9.97428039,26.917445 19.0724765,43.5535035 C28.1706725,60.189562 32.5124961,59.7873339 30.6518882,66.0162579 C28.7906725,72.2451819 16.1773196,92.7387316 12.4554961,89.9266789 C8.73367255,87.113445 0.462143137,86.9120357 0.256084314,92.9401409 C0.0488098039,98.9676556 0.876084314,100.776205 6.45912353,100.776205 C12.0421627,100.776205 14.7987314,102.91965 22.3809667,93.9448251 C28.1445353,87.1223047 59.8070843,67.2217608 55.6719275,59.9881526 C51.5361627,52.7551351 50.6511431,40.3929713 59.9845745,23.5684977 C69.3192216,6.74343333 30.4452216,-9.53115146 21.1403588,7.54729883" id="Fill-17" fill="#E0646B" mask="url(#mask-10)"></path>
                    </g>
                </g>
                <g id="Group-43" transform="translate(902.000000, 123.000000) scale(-1, 1) translate(-902.000000, -123.000000) translate(798.000000, 0.000000)">
                    <g id="Group-5">
                        <path d="M20.0563395,137.594249 C20.0563395,137.594249 4.8535354,131.768714 0.189755326,114.159201 C-0.0594542955,113.219172 1.08029828,112.537829 1.77859381,113.215098 C6.20842199,117.516523 16.7235423,125.482331 31.5794873,122.481467 L20.0563395,137.594249 Z" id="Fill-1" fill="#F3C588"></path>
                        <path d="M133.752737,24.7755321 C133.752737,24.7755321 130.496228,14.6816723 137.463926,1.27326642 C138.298015,-0.33181107 140.640077,-0.213161624 141.308874,1.46728118 C144.073575,8.40954686 147.671348,22.1285801 147.671348,22.1285801 C147.671348,22.1285801 141.755926,31.5477166 133.752737,24.7755321" id="Fill-3" fill="#DF9B42"></path>
                    </g>
                    <g id="Group-8" transform="translate(132.000000, 0.000000)">
                        <mask id="mask-12" fill="white">
                            <use xlink:href="#path-11"></use>
                        </mask>
                        <g id="Clip-7"></g>
                        <polygon id="Fill-6" fill="#DF9B42" mask="url(#mask-12)" points="-501.9328 423.086741 219.612267 423.086741 219.612267 -235.389778 -501.9328 -235.389778"></polygon>
                    </g>
                    <g id="Group-11" transform="translate(132.000000, 0.000000)">
                        <mask id="mask-14" fill="white">
                            <use xlink:href="#path-13"></use>
                        </mask>
                        <g id="Clip-10"></g>
                        <polygon id="Fill-9" fill="#DF9B42" mask="url(#mask-14)" points="-9.35786667 37.0745926 25.2762667 37.0745926 25.2762667 -11.562963 -9.35786667 -11.562963"></polygon>
                    </g>
                    <g id="Group-14" transform="translate(0.000000, 137.000000)">
                        <mask id="mask-16" fill="white">
                            <use xlink:href="#path-15"></use>
                        </mask>
                        <g id="Clip-13"></g>
                        <polygon id="Fill-12" fill="#DF9B42" mask="url(#mask-16)" points="-8.73838384 112.687099 58.6782828 112.687099 58.6782828 -8.72542574 -8.73838384 -8.72542574"></polygon>
                    </g>
                    <g id="Group-17" transform="translate(114.000000, 78.000000)">
                        <mask id="mask-18" fill="white">
                            <use xlink:href="#path-17"></use>
                        </mask>
                        <g id="Clip-16"></g>
                        <polygon id="Fill-15" fill="#DF9B42" mask="url(#mask-18)" points="-9.01002247 45.9570411 101.654157 45.9570411 101.654157 -8.89976712 -9.01002247 -8.89976712"></polygon>
                    </g>
                    <g id="Group-20" transform="translate(17.000000, 17.000000)">
                        <mask id="mask-20" fill="white">
                            <use xlink:href="#path-19"></use>
                        </mask>
                        <g id="Clip-19"></g>
                        <polygon id="Fill-18" fill="#F0B05A" mask="url(#mask-20)" points="-9.03475597 238.028781 201.160997 238.028781 201.160997 -8.72530531 -9.03475597 -8.72530531"></polygon>
                    </g>
                    <path d="M127.921772,29.6074275 C127.921772,29.6074275 122.540014,20.5064609 126.384576,6.02861687 C126.991915,3.74209559 130.059502,3.26186908 131.366328,5.24034008 C135.786292,11.9318765 142,23.9442812 142,23.9442812 C142,23.9442812 137.834491,34.7628614 127.921772,29.6074275" id="Fill-21" fill="#F7BC74"></path>
                    <g id="Group-25" transform="translate(125.000000, 4.000000)">
                        <mask id="mask-22" fill="white">
                            <use xlink:href="#path-21"></use>
                        </mask>
                        <g id="Clip-24"></g>
                        <polygon id="Fill-23" fill="#F7BC74" mask="url(#mask-22)" points="-477.609333 411.598698 219.337606 411.598698 219.337606 -235.34117 -477.609333 -235.34117"></polygon>
                    </g>
                    <g id="Group-28" transform="translate(125.000000, 4.000000)">
                        <mask id="mask-24" fill="white">
                            <use xlink:href="#path-23"></use>
                        </mask>
                        <g id="Clip-27"></g>
                        <polygon id="Fill-26" fill="#F7BC74" mask="url(#mask-24)" points="-9.26087879 36.0256415 26.0512121 36.0256415 26.0512121 -11.7597736 -9.26087879 -11.7597736"></polygon>
                    </g>
                    <g id="Group-31" transform="translate(105.000000, 48.000000)">
                        <mask id="mask-26" fill="white">
                            <use xlink:href="#path-25"></use>
                        </mask>
                        <g id="Clip-30"></g>
                        <polygon id="Fill-29" fill="#A01D20" mask="url(#mask-26)" points="-8.8315 33.8994792 57.9115 33.8994792 57.9115 -9.31822917 -8.8315 -9.31822917"></polygon>
                    </g>
                    <path d="M93.5659146,133.317725 C72.3262209,130.607113 71.143084,146.047568 60.5234883,149.016965 C49.9038927,151.986871 51.6733229,165.050382 52.8544502,173.363063 C54.0350752,181.67829 43,201 43,201 L43.0035168,201 C46.288166,196.52833 50.9337995,191.513111 56.8952019,185.924797 C69.8820761,173.744617 63.1680882,157.330155 66.8129537,153.570141 C69.9112149,150.374563 107.612337,144.554464 130,133.317725 C130,133.317725 114.807116,136.026809 93.5659146,133.317725" id="Fill-32" fill="#F3C588"></path>
                    <g id="Group-36" transform="translate(43.000000, 133.000000)">
                        <mask id="mask-28" fill="white">
                            <use xlink:href="#path-27"></use>
                        </mask>
                        <g id="Clip-35"></g>
                        <polygon id="Fill-34" fill="#F3C588" mask="url(#mask-28)" points="-384.681885 279.1536 299.541379 279.1536 299.541379 -360.509807 -384.681885 -360.509807"></polygon>
                    </g>
                    <g id="Group-39" transform="translate(43.000000, 133.000000)">
                        <mask id="mask-30" fill="white">
                            <use xlink:href="#path-29"></use>
                        </mask>
                        <g id="Clip-38"></g>
                        <polygon id="Fill-37" fill="#F3C588" mask="url(#mask-30)" points="-8.81466667 76.8067556 97.011908 76.8067556 97.011908 -8.60225185 -8.81466667 -8.60225185"></polygon>
                    </g>
                    <g id="Group-42" transform="translate(179.000000, 17.000000)">
                        <mask id="mask-32" fill="white">
                            <use xlink:href="#path-31"></use>
                        </mask>
                        <g id="Clip-41"></g>
                        <polygon id="Fill-40" fill="#010202" mask="url(#mask-32)" points="-8.811 14.5585 14.639 14.5585 14.639 -8.8915 -8.811 -8.8915"></polygon>
                    </g>
                </g>
                <g id="Group-19" transform="translate(1132.000000, 130.000000)">
                    <path d="M85.998339,79.7811333 C85.998339,79.7811333 82.3538334,80.6757394 79.5735168,83.0201467 C68.244737,92.5744494 58.3842698,97.1935836 52.9291897,98.1389889 C47.4741096,99.0839446 56.0760231,109.372813 60.4818593,108.322663 C64.8876955,107.272962 65.7267313,111.262275 64.5732817,113.257382 C63.4189337,115.252038 59.1177524,115.042548 56.180678,114.937353 C53.2436036,114.832608 50.4116332,113.677262 44.5370352,102.233497 C38.6624372,90.7892832 37.7187466,90.4745977 36.0397767,90.0547173 C34.3617051,89.6348368 86.3383551,72.5523568 85.998339,79.7811333" id="Fill-1" fill="#456591"></path>
                    <path d="M156.092329,65.4151524 C156.092329,65.4151524 152.286011,74.7362387 149.545679,78.8442107 C146.805347,82.9535359 144.486535,93.0667161 145.962306,99.0714732 C147.437627,105.07623 151.775133,106.830926 153.551023,106.129499 C155.773256,105.2517 159.296605,111.607396 154.895465,113.187975 C150.494325,114.768103 146.383375,113.819936 144.59214,112.239808 C142.800003,110.65968 135.10568,92.5398564 135.000526,89.0633943 C134.89492,85.5869322 150.728102,61.5719635 156.092329,65.4151524" id="Fill-3" fill="#456591"></path>
                    <path d="M182,14 C182,14 180.246592,3.46738064 179.735749,1.35253872 C179.22442,-0.762750414 173.151713,7.20290074 174.100421,10.3092006 C175.048643,13.4155004 182,14 182,14" id="Fill-5" fill="#456591"></path>
                    <path d="M193.683146,30.3184114 C193.368223,32.9961431 191.949268,36.855584 183.911524,38.6668188 C175.873779,40.4789529 170.594314,35.6743244 167.205289,41.5028311 C163.817163,47.3308882 162.871493,56.0736484 159.246725,59.8543986 C155.621507,63.6351489 151.051069,83.0105947 131.350363,84.270545 C111.650107,85.530945 89.9001489,77.6546817 75.7160002,79.7019885 C61.5314016,81.7501947 53.4941073,89.9416704 42.7763652,91.8315958 C32.0595228,93.721971 17.2446276,95.7697275 12.8316514,102.070828 C8.4186752,108.371929 6.84270867,112.152229 2.43018234,111.995297 C-1.98324377,111.837017 -0.249365666,102.38604 6.5273354,98.1326964 C13.3049363,93.879802 30.0107213,81.4349823 32.2169845,77.1820879 C34.4236976,72.9287439 34.1083243,71.3535811 37.4181689,66.9428557 C40.7280136,62.53258 52.0751526,48.8273603 62.0046865,46.9374348 C71.9337705,45.0470597 99.5147594,47.5669603 107.552504,42.9993032 C115.590248,38.4307467 131.665286,28.5071766 137.969602,28.5854176 C144.274368,28.6641083 152.784948,23.1512636 156.725089,18.5827072 C160.66478,14.0146004 165.288305,8.97389982 174.219082,10.1816895 C183.149859,11.3890294 185.408759,15.6423735 185.934232,17.2175362 C186.459704,18.7926989 187.802177,24.1980746 191.082779,24.8046674 C195.338293,25.5924736 193.683146,30.3184114 193.683146,30.3184114" id="Fill-7" fill="#5475AE"></path>
                    <g id="Group-11" transform="translate(192.000000, 24.000000)">
                        <mask id="mask-34" fill="white">
                            <use xlink:href="#path-33"></use>
                        </mask>
                        <g id="Clip-10"></g>
                        <path d="M1.8822,5.66005714 C1.8822,5.66005714 3.20991429,2.47191429 2.7972,1.30834286 C2.38448571,0.144771429 0.252342857,0.252771429 0.252342857,0.252771429 C0.252342857,0.252771429 1.1922,5.95791429 1.8822,5.66005714" id="Fill-9" fill="#010202" mask="url(#mask-34)"></path>
                    </g>
                    <path d="M176,13.0705262 C175.391399,12.8035076 169.050393,-0.864734425 167.62989,0.0433116281 C166.209821,0.950443233 164.180716,10.9348348 165.347527,14.6721804 C166.513904,18.4095261 176,13.0705262 176,13.0705262" id="Fill-12" fill="#6084B9"></path>
                    <path d="M63.4582079,46.1044366 C63.4582079,46.1044366 58.0453564,46.5228836 51.7829483,49.6679707 C45.5205402,52.8139558 35.7097469,50.8218428 37.066535,38.9728787 C38.4233231,27.1243635 46.1470938,22.1959379 55.0185035,24.9221291 C63.89036,27.6487692 70.2568958,18.1066512 62.533572,15.1707876 C54.8098012,12.234475 42.5982618,15.0657269 36.6491305,20.9374541 C30.6999992,26.8096303 27.6168369,36.456809 29.5997317,45.0547273 C31.5826265,53.6526457 40.7981491,61.9187697 38.356735,65.4836507 C35.914874,69.0489807 65.635951,53.2359946 63.4582079,46.1044366" id="Fill-14" fill="#5475AE"></path>
                    <g id="Group-18" transform="translate(124.000000, 51.000000)">
                        <mask id="mask-36" fill="white">
                            <use xlink:href="#path-35"></use>
                        </mask>
                        <g id="Clip-17"></g>
                        <path d="M29.8912388,2.3525 C28.9764627,6.06704545 25.917806,14.0293182 23.5124328,20.0806818 C21.1075075,26.1315909 15.9833284,27.2993182 15.2512388,35.1547727 C14.5191493,43.0102273 16.5058657,58.0847727 18.9116866,57.0229545 C21.3166119,55.9615909 24.558403,58.4034091 24.0354179,62.2252273 C23.5124328,66.0465909 15.6694478,64.8793182 13.1597463,64.6665909 C10.6500448,64.4543182 10.6500448,55.4306818 8.87243284,49.6984091 C7.09437313,43.9661364 -0.852940299,35.5797727 0.506462687,30.6961364 C1.86586567,25.8129545 7.93123881,12.1188636 3.64392537,10.4202273 C-0.64338806,8.72204545 31.7736269,-5.29068182 29.8912388,2.3525" id="Fill-16" fill="#5475AE" mask="url(#mask-36)"></path>
                    </g>
                </g>
            </g>
        </g>
    </g>
</svg>