<svg xmlns="http://www.w3.org/2000/svg" xmlns:xlink="http://www.w3.org/1999/xlink" width="415.59" height="432.92" viewBox="0 0 415.59 432.92"><defs><clipPath id="a"><path d="M51.44,413.21a10.72,10.72,0,0,1,1.38,2.64H4.13l1-2.64Z" fill="none" clip-rule="evenodd"/></clipPath><clipPath id="b"><rect x="-49.83" y="-208.88" width="493.54" height="1068.67" fill="none"/></clipPath><clipPath id="c"><path d="M243.84,336.28a21.08,21.08,0,0,0,10.28,1.21c-4.45,4.78-9.45,10.28-13.89,15.06a27.79,27.79,0,0,1-6.28-5.88,29.86,29.86,0,0,1,9.89-10.39" fill="none" clip-rule="evenodd"/></clipPath><clipPath id="e"><path d="M229.88,322a19.78,19.78,0,0,0,8.45,12.78,22.81,22.81,0,0,0,5.7,2.77,27.56,27.56,0,0,0-9.8,8.86,24.41,24.41,0,0,1-5.1-8.11,21.92,21.92,0,0,1,.75-16.3" fill="none" clip-rule="evenodd"/></clipPath><clipPath id="g"><path d="M320.77,381c-11.43,10.65-17.35,25.71-18.24,40.68h18.29c-3.09-3.26-3.22-8.46-1.92-12.61a48,48,0,0,1,17.92-24.3c-4.58-2.34-10.82-3.47-16.05-3.77" fill="none" clip-rule="evenodd"/></clipPath><clipPath id="i"><path d="M279.31,383.11a44.37,44.37,0,0,1-9.9,11.32c1.9,8.8,7.48,16.79,14.28,22.45,2.48,2.07,5.3,3.93,6.74,6.86H276.12c-10.74-9.42-19.5-21.74-24-35.5,6.86-7.25,18.2-9.17,27.21-5.13" fill="none" clip-rule="evenodd"/></clipPath><clipPath id="k"><path d="M280,387.13a140.48,140.48,0,0,1-15.75-3.36A62.52,62.52,0,0,0,276,352.55a84.14,84.14,0,0,1,4,34.58" fill="none" clip-rule="evenodd"/></clipPath><clipPath id="m"><path d="M330.77,385.68A114,114,0,0,1,296.48,389a55.31,55.31,0,0,0,24.88-14.08,33.87,33.87,0,0,0,9.41,10.75" fill="none" clip-rule="evenodd"/></clipPath><clipPath id="o"><path d="M224.08,362.32a4.55,4.55,0,0,1,6.5-1l2.53,1.91a37.79,37.79,0,0,1,15.19-22.62,36.37,36.37,0,0,1,26.22-5.92c11.91,1.95,22.21,9.76,34,12.48,6.55,1.52,14.64,2.3,21.66.91a84.19,84.19,0,0,0,16.79,24.46,14.55,14.55,0,0,1-1.95,7.31,63.51,63.51,0,0,0,29.2,31.58c1.17.6,2.48,1.29,2.87,2.57.53,1.73-1,3.45-2.54,4.31-4,2.2-9.11,1.52-13.19-.59s-7.38-5.48-10.61-8.79c-7-7.2-13.18-15.63-20.19-22.83a31.48,31.48,0,0,1-9.48-9.54,58,58,0,0,1-25,12.49,133.63,133.63,0,0,1-16.65-1.74A86.6,86.6,0,0,0,275.81,354a63,63,0,0,1-10.58,30.08c-4.36,6.46-13.06,8.9-20.55,7.14a35.17,35.17,0,0,1-19.57-12.51c-3.67,5-7.47,10.2-13.46,12.59a12.41,12.41,0,0,1-10.16-.28,12.89,12.89,0,0,1-5.87-6,68.34,68.34,0,0,0,28.46-22.7" fill="none" clip-rule="evenodd"/></clipPath><clipPath id="q"><path d="M345.89,334.75a26.59,26.59,0,0,1-3,1.53c.77-3.91.63-8.21,1-12.2L357,325.92c-5.18,3-7.15,6.37-11.11,8.83" fill="none" clip-rule="evenodd"/></clipPath><clipPath id="s"><path d="M405.41,329.16a3,3,0,1,0,3-3.05,3,3,0,0,0-3,3.05" fill="none" clip-rule="evenodd"/></clipPath><clipPath id="u"><path d="M328.76,348.38c5.44-1.12,10.23-3.62,13.13-8.2a14.89,14.89,0,0,0,1.93-5.24,24.11,24.11,0,0,0,2.61-1.38c3.42-2.24,5.12-5.32,9.6-8l-11.31-1.67c.39-3.95,1.36-7.57,4.62-10a10.94,10.94,0,0,1,8.92-1.69c6.68,1.46,11.29,6.63,16.5,10.73,4.08,3.21,9,5.9,14.05,5.15,3.72-.57,7.12-3,10.88-2.89,5.14.09,9.41,5.27,9.73,10.71s-2.72,10.67-6.92,13.81-9.42,4.43-14.55,4.81-10.28-.06-15.42-.06-10.4.51-15.12,2.66C354.8,365.5,350.33,376,343.48,381a15.44,15.44,0,0,0,1.94-7.51,85.82,85.82,0,0,1-16.66-25.14" fill="none" clip-rule="evenodd"/></clipPath><clipPath id="w"><path d="M355.63,316.94a31.69,31.69,0,0,1-21.89-.32c-2.44-.95-4.8-2.23-7.41-2.61s-5.6.35-6.94,2.59a5.88,5.88,0,0,0-.38,4.84,11.41,11.41,0,0,0,2.7,4.17,22.11,22.11,0,0,0,23.19,5.3c4.85-1.82,9-5.37,14.11-6.36a30.13,30.13,0,0,1-3.38-7.61" fill="none" clip-rule="evenodd"/></clipPath><clipPath id="y"><path d="M339.83,344.42c-60.39-46.4-130.3-80.64-178.72-137.83L159.43,208c48.49,57.28,116.81,90.85,177.39,137.4A4.59,4.59,0,0,1,339.83,344.42Z" fill="none" clip-rule="evenodd"/></clipPath><clipPath id="aa"><path d="M355,372.42a75.94,75.94,0,0,1-19.84-26.69c1.8-1.19,3.85-2.39,5.65-3.58a67.25,67.25,0,0,0,18,21.64c-1.13,2.71-2.72,5.92-3.85,8.63" fill="none" clip-rule="evenodd"/></clipPath><clipPath id="ac"><path d="M117.31,79.09a20.16,20.16,0,0,0-14.06,15.63C99.76,93,95.8,90.11,92.31,88.35L97.22,71Z" fill="none" clip-rule="evenodd"/></clipPath><clipPath id="ae"><path d="M126.69,51.17c4.71-1.67,9.51-3.82,12.68-7.74s4.18-10.06,1-14c-2-2.55-5.26-3.71-8.41-4.39s-6.41-1-9.33-2.38c-4.23-2-7.18-5.95-10.68-9.09S103.56,8,99.27,9.82c-2.9,1.25-4.77,4.22-5.7,7.29s-1.1,6.3-1.64,9.46S90.4,33,88.18,35.24c-2.45,2.5-6.19,3.65-8,6.66-2.22,3.71-.53,8.53,1.61,12.29C85.37,60.45,91.55,66.61,97.18,71Z" fill="none" clip-rule="evenodd"/></clipPath><clipPath id="ag"><path d="M129.91,47.22a17.62,17.62,0,0,0,3.2,17.3l-4.87,2a42.83,42.83,0,0,1-3.9,9.11,13.55,13.55,0,0,1-6.87,6.59c-3.78,1.4-8.1.23-11.46-2.07s-6-5.6-8.51-8.85c1.32-1.69,3.34-3.74,4.67-5.43a4.64,4.64,0,0,1-4.81-1.31,9.33,9.33,0,0,1-2.22-4.83c-.46-2.45-.22-5.33,1.62-6.92a5.15,5.15,0,0,1,6.39.17,9.54,9.54,0,0,1,3.15,6.2,22.63,22.63,0,0,0,8.76-11.09,22.43,22.43,0,0,0,.14-14c4.55,4.16,10.16,8.87,14.71,13" fill="none" clip-rule="evenodd"/></clipPath><clipPath id="ai"><path d="M59.79,92.58c2.8-2,5.22-4.54,8.11-6.39.37-.24.76-.47,1.15-.68a29.3,29.3,0,0,1,.31,12.91c-1.82,1.47-3.56,3.07-5.46,4.44a27.78,27.78,0,0,1-29.34,1.57L30.45,94.15a27.78,27.78,0,0,0,29.34-1.57" fill="none" clip-rule="evenodd"/></clipPath><clipPath id="ak"><path d="M68.62,85.82c2.76-1.43,6-2.17,8.9-1.17l4.26,10.23c-3.35-1.14-7.11,0-10.1,1.85a29.41,29.41,0,0,0-2.74,1.94,28.18,28.18,0,0,0-.32-12.85" fill="none" clip-rule="evenodd"/></clipPath><clipPath id="am"><path d="M106.48,105.25a22.52,22.52,0,0,0,7.61-8.94,6.71,6.71,0,0,0-1.79-7.87A46.36,46.36,0,0,0,84.06,77.61a7.16,7.16,0,0,0-7.55,7,31.08,31.08,0,0,0,1.64,9.22c10.3-1.81,22.19,3.16,28.33,11.37" fill="none" clip-rule="evenodd"/></clipPath><clipPath id="ao"><path d="M112.66,139.47a125.45,125.45,0,0,0,25.55,38.71,72.51,72.51,0,0,1,7,7.68,17.82,17.82,0,0,1,3.71,9.59l-8,8.51a204.6,204.6,0,0,1-22.05-20.11c-2.81-2.95-5.62-5.93-8.36-9a80.14,80.14,0,0,1,2.21-35.41" fill="none" clip-rule="evenodd"/></clipPath><clipPath id="aq"><path d="M107.25,123.67A118.18,118.18,0,0,0,113.36,140,72.75,72.75,0,0,0,111,175c-6.72-6.84-13-14.06-17.36-22.33a190.92,190.92,0,0,1,13.63-29" fill="none" clip-rule="evenodd"/></clipPath><clipPath id="as"><path d="M149.43,194.74l10.81,4.35A7.38,7.38,0,0,1,164,209l-1.73,3.82a4.93,4.93,0,0,1-7.58,1.94L141,203.89Z" fill="none" clip-rule="evenodd"/></clipPath><clipPath id="au"><path d="M198.18,386.89a15.43,15.43,0,0,1,3.36,2.71L155,402.69l-.8-3.43Z" fill="none" clip-rule="evenodd"/></clipPath><clipPath id="aw"><path d="M48.88,237.88l2-22.08,37.43,27.77-9.77,36.72a109,109,0,0,1-29.71-42.41" fill="none" clip-rule="evenodd"/></clipPath><clipPath id="ay"><path d="M48.51,236.86a110,110,0,0,0,30.64,42.8l-8.31,30.58-37.5,84.55L12,386.14,18.92,358A148.41,148.41,0,0,1,41.8,307.61Z" fill="none" clip-rule="evenodd"/></clipPath><clipPath id="ba"><path d="M14.1,385.58l13.49,5a9.86,9.86,0,0,0,5.47,11.79l13.08,6.17a13.1,13.1,0,0,1,5.37,4.63H4.13Z" fill="none" clip-rule="evenodd"/></clipPath><clipPath id="bc"><path d="M92.91,193.43l40.67,70.71a90.91,90.91,0,0,1,9.31,22.92l21.8,85.22L143.47,379l-13-28.7a179.56,179.56,0,0,1-15-55.51l-.67-6.42L63.07,244.18a48.26,48.26,0,0,1-16.82-37.65l.26-13.1Z" fill="none" clip-rule="evenodd"/></clipPath><clipPath id="be"><path d="M150.22,376.68l14.13-4.26,2.56,2.81a28.48,28.48,0,0,0,17.15,9l8.77,1.22a15.75,15.75,0,0,1,6.08,2.26l-43.32,12.34Z" fill="none" clip-rule="evenodd"/></clipPath><clipPath id="bg"><path d="M46.94,163.29c1.22-7.77,1.24-15.76,2.16-23.6.73-6.22,3.21-12.87,6.46-19l21-14.74L61.67,111c.43-.58.86-1.19,1.3-1.74,3.32-4.2,6.68-8.44,10.89-11.75S83.25,91.9,88.6,92.1c9.4.34,17.05,8.62,19.55,17.69s.89,18.76-1.27,27.92-4.89,18.37-4.58,27.78c.18,5.56,1.4,11.22,0,16.59a17.53,17.53,0,0,1-9.64,11.35H46.24l21-6.78Z" fill="none" clip-rule="evenodd"/></clipPath><clipPath id="bi"><path d="M43.67,182.83c.35-3.79,2-7.35,3.08-11a55,55,0,0,0,1.7-7.37l20.17,22.45-20.87,6.51c-3.34-2-4.43-6.8-4.08-10.6" fill="none" clip-rule="evenodd"/></clipPath><clipPath id="bk"><polygon points="90.99 172.45 71.36 192.11 64.67 189.39 84.3 169.74 90.99 172.45" fill="none" clip-rule="evenodd"/></clipPath><clipPath id="bm"><polygon points="88.36 121.04 55.46 142.5 81.55 172.37 64.35 145.1 88.36 121.04" fill="none" clip-rule="evenodd"/></clipPath><clipPath id="bo"><path d="M55.2,143.07c9.29-6.64,21.88-15.18,32.63-22.67a10.55,10.55,0,0,0,2.52-14.75,10.23,10.23,0,0,0-14.3-2.45l-39.21,28A12.22,12.22,0,0,0,34.69,149l31.25,36.52L79.71,173Z" fill="none" clip-rule="evenodd"/></clipPath></defs><title>login-illustration-content</title><g clip-path="url(#a)"><g clip-path="url(#b)"><rect x="-2.45" y="406.63" width="61.86" height="15.79" fill="#143d4c"/></g></g><g clip-path="url(#c)"><g clip-path="url(#b)"><rect x="227.37" y="329.7" width="33.33" height="29.43" fill="#c4872b"/></g></g><g clip-path="url(#e)"><g clip-path="url(#b)"><rect x="221.32" y="315.46" width="29.3" height="37.57" fill="#faa81a"/></g></g><g clip-path="url(#g)"><g clip-path="url(#b)"><rect x="295.95" y="374.45" width="47.45" height="53.84" fill="#a3732a"/></g></g><g clip-path="url(#i)"><g clip-path="url(#b)"><rect x="245.52" y="374.45" width="51.49" height="55.87" fill="#a3732a"/></g></g><g clip-path="url(#k)"><g clip-path="url(#b)"><rect x="257.62" y="345.97" width="29.3" height="47.74" fill="#c4872b"/></g></g><g clip-path="url(#m)"><g clip-path="url(#b)"><rect x="289.9" y="368.35" width="47.45" height="27.4" fill="#c4872b"/></g></g><g clip-path="url(#o)"><g clip-path="url(#b)"><rect x="189.04" y="327.67" width="194.71" height="98.59" fill="#faa81a"/></g></g><g clip-path="url(#q)"><g clip-path="url(#b)"><rect x="336.3" y="317.5" width="27.28" height="25.36" fill="#c4872b"/></g></g><g clip-path="url(#s)"><g clip-path="url(#b)"><rect x="398.83" y="319.53" width="19.21" height="19.26" fill="#1d5063"/></g></g><g clip-path="url(#u)"><g clip-path="url(#b)"><rect x="322.17" y="305.29" width="93.85" height="82.32" fill="#db9527"/></g></g><g clip-path="url(#w)"><g clip-path="url(#b)"><rect x="312.09" y="307.33" width="53.5" height="31.47" fill="#faa81a"/></g></g><g clip-path="url(#y)"><g clip-path="url(#b)"><rect x="152.85" y="200.01" width="193.56" height="152.01" fill="#60a4bd"/></g></g><g clip-path="url(#aa)"><g clip-path="url(#b)"><rect x="328.55" y="335.56" width="36.85" height="43.43" fill="#60a4bd"/></g></g><g clip-path="url(#ac)"><g clip-path="url(#b)"><rect x="85.73" y="64.45" width="38.17" height="36.85" fill="#f49e77"/></g></g><g clip-path="url(#ae)"><g clip-path="url(#b)"><rect x="72.57" y="2.59" width="76.33" height="75.02" fill="#437b8f"/></g></g><g clip-path="url(#ag)"><g clip-path="url(#b)"><rect x="88.36" y="27.6" width="51.33" height="61.86" fill="#fdcda6"/></g></g><g clip-path="url(#ai)"><g clip-path="url(#b)"><rect x="23.87" y="78.93" width="52.64" height="35.53" fill="#74c3c2"/></g></g><g clip-path="url(#ak)"><g clip-path="url(#b)"><rect x="62.04" y="77.61" width="26.32" height="27.64" fill="#66b2b1"/></g></g><g clip-path="url(#am)"><g clip-path="url(#b)"><rect x="69.93" y="71.03" width="51.33" height="40.8" fill="#74c3c2"/></g></g><g clip-path="url(#ao)"><g clip-path="url(#b)"><rect x="102.84" y="132.89" width="52.64" height="77.65" fill="#be2349"/></g></g><g clip-path="url(#aq)"><g clip-path="url(#b)"><rect x="87.04" y="117.09" width="32.9" height="64.49" fill="#a91e40"/></g></g><g clip-path="url(#as)"><g clip-path="url(#b)"><rect x="134.42" y="188.16" width="36.85" height="34.22" fill="#fdcda6"/></g></g><g clip-path="url(#au)"><g clip-path="url(#b)"><rect x="147.58" y="380.31" width="60.54" height="28.95" fill="#143d4c"/></g></g><g clip-path="url(#aw)"><g clip-path="url(#b)"><rect x="42.3" y="209.22" width="52.64" height="77.65" fill="#1f799a"/></g></g><g clip-path="url(#ay)"><g clip-path="url(#b)"><rect x="5.44" y="230.28" width="80.28" height="171.09" fill="#2997bf"/></g></g><g clip-path="url(#ba)"><g clip-path="url(#b)"><rect x="-2.45" y="379" width="60.54" height="40.8" fill="#143d4c"/></g></g><g clip-path="url(#bc)"><g clip-path="url(#b)"><rect x="39.66" y="186.85" width="131.61" height="198.73" fill="#2997be"/></g></g><g clip-path="url(#be)"><g clip-path="url(#b)"><rect x="143.63" y="365.84" width="61.86" height="40.8" fill="#143d4c"/></g></g><g clip-path="url(#bg)"><g clip-path="url(#b)"><rect x="39.66" y="85.51" width="76.33" height="114.5" fill="#be2349"/></g></g><g clip-path="url(#bi)"><g clip-path="url(#b)"><rect x="37.03" y="157.89" width="38.17" height="42.12" fill="#a91e40"/></g></g><g clip-path="url(#bk)"><g clip-path="url(#b)"><rect x="58.09" y="163.16" width="39.48" height="35.53" fill="#dc1d49"/></g></g><g clip-path="url(#bm)"><g clip-path="url(#b)"><rect x="48.88" y="114.46" width="46.06" height="64.49" fill="#a91e40"/></g></g><g clip-path="url(#bo)"><g clip-path="url(#b)"><rect x="25.19" y="94.72" width="73.7" height="97.39" fill="#dc1d49"/></g></g></svg>