<svg xmlns="http://www.w3.org/2000/svg" xmlns:xlink="http://www.w3.org/1999/xlink" width="1000" height="822.06" viewBox="0 0 1000 822.06"><defs><clipPath id="a"><path d="M-16.89,595.91C-24.67,580.37-267.82,430.12-267.82,291s68.27-619.91,68.27-619.91,462.64,113.3,649.3,62.83S1068.64-412.38,1162-319.19s-118.83,606.83-68.28,703.91-56.76,222.83-157.86,269.43S570.3,821.12,364.2,817.23-16.89,595.91-16.89,595.91Z" fill="none" clip-rule="evenodd"/></clipPath><clipPath id="b"><path d="M655.34,621.26a17.81,17.81,0,0,0,24.73-4.77,17.82,17.82,0,0,0-24.73,4.77" fill="none" clip-rule="evenodd"/></clipPath><clipPath id="c"><rect x="118.71" y="-283.89" width="739.41" height="950.39" fill="none"/></clipPath><clipPath id="d"><path d="M714.55,585.78h0a22.69,22.69,0,0,0,31.1,7.89,22.69,22.69,0,0,0-31.1-7.89" fill="none" clip-rule="evenodd"/></clipPath><clipPath id="f"><path d="M748.5,631.12a16.4,16.4,0,0,0,20.75,10.37,16.4,16.4,0,0,0-20.75-10.37" fill="none" clip-rule="evenodd"/></clipPath><clipPath id="h"><path d="M295.28,524.2h0a25.17,25.17,0,0,0,35-6.77,25.18,25.18,0,0,0-35,6.77" fill="none" clip-rule="evenodd"/></clipPath><clipPath id="j"><path d="M290,579.63h0a18.9,18.9,0,0,0,20.82,16.77A18.9,18.9,0,0,0,290,579.63" fill="none" clip-rule="evenodd"/></clipPath><clipPath id="l"><path d="M522.28,447.46h0a21.33,21.33,0,0,0,27.21,13,21.33,21.33,0,0,0-27.21-13" fill="none" clip-rule="evenodd"/></clipPath><clipPath id="n"><path d="M519.77,413.24h0a14.67,14.67,0,0,0,20.75.07,14.67,14.67,0,0,0-20.75-.07" fill="none" clip-rule="evenodd"/></clipPath><clipPath id="p"><path d="M447.55,431h0a22,22,0,0,0,31.14,1,22,22,0,0,0-31.14-1" fill="none" clip-rule="evenodd"/></clipPath><clipPath id="r"><path d="M397.62,269.14h0a17.65,17.65,0,0,0,24.63,4,17.65,17.65,0,0,0-24.63-4" fill="none" clip-rule="evenodd"/></clipPath><clipPath id="t"><path d="M422.41,273.18a.17.17,0,0,1-.19.14l-24.62-4a.16.16,0,0,1-.14-.19.17.17,0,0,1,.19-.14l24.62,4a.16.16,0,0,1,.14.2" fill="none" clip-rule="evenodd"/></clipPath><clipPath id="v"><path d="M443.62,249.43h0a17.43,17.43,0,0,0,24.62-1.54,17.45,17.45,0,0,0-24.62,1.54" fill="none" clip-rule="evenodd"/></clipPath><clipPath id="x"><path d="M468.88,280.76h0a19.29,19.29,0,0,0,24.47,12,19.29,19.29,0,0,0-24.47-12" fill="none" clip-rule="evenodd"/></clipPath><clipPath id="z"><path d="M715.6,301h0a15.57,15.57,0,0,0,15.57-15.57A15.57,15.57,0,0,0,715.6,301" fill="none" clip-rule="evenodd"/></clipPath><clipPath id="ab"><path d="M735.34,313a14.78,14.78,0,0,0,18.15,10.37A14.78,14.78,0,0,0,735.34,313" fill="none" clip-rule="evenodd"/></clipPath><clipPath id="ad"><path d="M755.31,289.15h0a15.83,15.83,0,0,0,22-4.08,15.83,15.83,0,0,0-22,4.08" fill="none" clip-rule="evenodd"/></clipPath><clipPath id="af"><path d="M760.33,240.58h0a16,16,0,0,0,20.75-9.08,16,16,0,0,0-20.75,9.08" fill="none" clip-rule="evenodd"/></clipPath><clipPath id="ah"><path d="M203.18,239.29h0a13.87,13.87,0,0,0,19.37-3.11,13.87,13.87,0,0,0-19.37,3.11" fill="none" clip-rule="evenodd"/></clipPath><clipPath id="aj"><path d="M259.47,243.42h0a17.62,17.62,0,0,0,22,11.68,17.64,17.64,0,0,0-22-11.68" fill="none" clip-rule="evenodd"/></clipPath><clipPath id="al"><path d="M213.17,495.22h0a15.61,15.61,0,0,0,16.45-14.72,15.61,15.61,0,0,0-16.45,14.72" fill="none" clip-rule="evenodd"/></clipPath><clipPath id="an"><path d="M229.73,480.4a.14.14,0,0,1,0,.21l-16.45,14.72a.15.15,0,1,1-.2-.22l16.45-14.72a.15.15,0,0,1,.21,0" fill="none" clip-rule="evenodd"/></clipPath><clipPath id="ap"><path d="M744.31,367.46h0a27.84,27.84,0,0,0,36.78,14.09,27.85,27.85,0,0,0-36.78-14.09" fill="none" clip-rule="evenodd"/></clipPath><clipPath id="ar"><path d="M781.34,381.65a.28.28,0,0,1-.35.15l-36.78-14.09a.27.27,0,0,1-.15-.35.27.27,0,0,1,.34-.15l36.78,14.09a.28.28,0,0,1,.16.35" fill="none" clip-rule="evenodd"/></clipPath><clipPath id="at"><path d="M267,371.28H166.42c-6.26-4.7-13.33-13.78-16.39-21s-1.08-17.16,6.13-20.18c9.48-4,19.76,5.95,29.89,4.29,6.51-1.06,11.29-6.67,14.49-12.44s5.49-12.17,9.94-17,12.06-7.79,17.72-4.39c10.25,6.15,5.65,26.24,17,29.9,7.62,2.45,14.85-5.51,22.85-5.61,9.1-.12,15.28,10.49,14.08,19.51s-9.27,20-15.16,26.94" fill="none" clip-rule="evenodd"/></clipPath></defs><title>login-illustration</title><g clip-path="url(#a)"><rect x="-1.03" y="-1.73" width="1002.06" height="280.81" fill="#1d5063"/><rect y="149.66" width="1002.06" height="672.39" fill="#316c7f"/><path d="M0,822.06S346.5,576.89,1000,561.44l2.06,260.62Z" fill="#1d5063"/><path d="M374.89,109.43c7.94,4.15,9.23,13,15.61,17.74,5.94,4.4,14.83,4.49,22,5,9.75.65,19.88.9,28.61,5.29,10.57,5.3,16.73,15.17,20.53,26.54q19.5.85,39,1.85a32.72,32.72,0,0,1,16.48-21.59c17.27-9.49,19-1.26,32.89,5.55,6.29,3.08,14.87,3.81,20.66.12,4.45-2.84,6.37-7.57,7.69-12.08,3.06-10.46,8.62-18.18,21.77-21.18,6.73-1.54,15.23.49,23,.85a19.06,19.06,0,0,0-1.54-3.4A21.29,21.29,0,0,0,605.41,104c-4.39-.38-8.79.64-13.2.54-24-.56-1-29.34-11.76-40.69-7.14-7.54-19.93-1.74-27.25,5.64s-15.06,16.89-25.41,16c-12.22-1-17.95-15.47-19.93-27.57s-4.51-26.54-15.75-31.42c-8.25-3.58-18.21,0-24.6,6.36S457.5,47.72,454,56c-1.86-9.32-12.2-16-21.47-13.9s-17.37,14.6-15,23.81c-1.46-3-6.26-2.39-8.21.26s-1.84,6.23-1.56,9.5.6,6.79-1,9.64c-2.71,4.73-9.65,5.26-14.55,2.9s-8.48-6.74-12.52-10.4S370.41,71,365.06,72c-6.9,1.28-10.85,9.06-10.78,16.07s3,13.46,4.91,20.12c5-1.38,10.06-1.69,15.7,1.25" fill="#40c0c3" fillRule="evenodd"/><path d="M578.41,137.82c-1.32,4.51-3.24,9.24-7.69,12.08-5.79,3.69-14.37,3-20.66-.12-13.93-6.81-15.62-15-32.89-5.55a32.69,32.69,0,0,0-16.48,21.59q215.63,11.09,429.89,39.5a36.34,36.34,0,0,0-19.89-30.52c-10.16-5.28-23.6-7.82-29.2-16.58-10.56-16.51,16.84-36.9,7.37-53.85-5.75-10.28-22.55-13-35.84-10.17s-24.83,9.64-37.72,13.52a61,61,0,0,1-10.7,2.21c-10.31,1.19-21-.33-27.67-6.59-7-6.58-7.5-16.14-9-24.83S762.26,60,752.17,57.2c-13.22-3.67-25.46,7-33,16.67s-17.92,21-31.72,19.32c-8.1-1-14.17-6.36-20.77-10.35s-16.35-6.62-22.55-2.21c-11.18,7.94,3.54,26.51-7.87,34.21-3.62,2.44-8.21,2.88-13.1,2.65-7.74-.36-16.25-2.39-23-.85C587,119.64,581.47,127.36,578.41,137.82Z" fill="#0ba5a3" fillRule="evenodd"/><path d="M955.46,22c-7,2.73-5.34,13.2-9.19,19.63s-13.45,7.7-20.47,4.65-12.15-9.12-17.24-14.82S897.81,20,890.44,18s-16.74,1.27-18.7,8.66c-2.19,8.25,4.89,18.84-1.34,24.67-8.41,7.88-24-8.76-32.52-1-2.73,2.36-2.54,6.71-1.22,10.07s3.51,6.4,4.2,9.94-1,8-4.52,8.59c-5.42.9-10.79-7.37-15.09-3.94-2,1.59-1.77,4.73-.71,7s2.79,4.36,3.35,6.84c1.07,4.72-2.41,9.33-6.38,12.12s-8.66,4.59-12.07,8a9.62,9.62,0,0,0-.84,1,61,61,0,0,0,10.7-2.21C828.19,103.83,839.72,97,853,94.2s30.09-.12,35.84,10.17c9.47,16.95-17.93,37.34-7.37,53.85,5.6,8.76,19,11.3,29.2,16.58a36.34,36.34,0,0,1,19.89,30.52q34.74,4.6,69.42,9.65V52.29L968.73,26.65c-3.81-3.12-8.68-6.44-13.27-4.65" fill="#40c0c3" fillRule="evenodd"/><path d="M461.68,164c-3.8-11.37-10-21.24-20.53-26.54-8.73-4.39-18.86-4.64-28.61-5.29-7.21-.48-16.1-.57-22-5-6.38-4.73-7.67-13.59-15.61-17.74-5.64-2.94-10.72-2.63-15.7-1.25-5.75,1.6-11.38,4.61-17.61,5.76-13.62,2.52-28.84.33-39.05-9-8.93-8.18-14.4-21.68-26.28-24C261.93,78,248.67,93.94,234.44,90.7c-9.73-2.22-15.24-12.45-18.24-22s-5.09-20-12.43-26.8c-10.63-9.8-28.14-7.34-40.27.54S142.67,62.4,132.17,72.35,107.54,90.52,93.36,87.66c-10.12-2-20.16-9.52-29.76-5.73-13.92,5.5-11.36,28-23.46,36.85-8.44,6.14-20.07,3-30.41,1.62A37.24,37.24,0,0,0,0,120.35v43.08q230.72-9.68,461.68.54" fill="#0ba5a3" fillRule="evenodd"/><g clip-path="url(#b)"><g clip-path="url(#c)"><rect x="645.48" y="603.57" width="44.44" height="30.61" fill="#3fc0c3"/></g></g><g clip-path="url(#d)"><g clip-path="url(#c)"><rect x="704.69" y="572.73" width="50.82" height="34" fill="#3fc0c3"/></g></g><g clip-path="url(#f)"><g clip-path="url(#c)"><rect x="738.64" y="620.41" width="40.47" height="31.79" fill="#3fc0c3"/></g></g><g clip-path="url(#h)"><g clip-path="url(#c)"><rect x="285.42" y="503.26" width="54.68" height="35.12" fill="#3fc0c3"/></g></g><g clip-path="url(#j)"><g clip-path="url(#c)"><rect x="280.09" y="569.66" width="40.54" height="36.71" fill="#3fc0c3"/></g></g><g clip-path="url(#l)"><g clip-path="url(#c)"><rect x="512.42" y="436.38" width="46.93" height="35.18" fill="#3fc0c3"/></g></g><g clip-path="url(#n)"><g clip-path="url(#c)"><rect x="509.91" y="399.12" width="40.47" height="28.31" fill="#3fc0c3"/></g></g><g clip-path="url(#p)"><g clip-path="url(#c)"><rect x="437.69" y="415.18" width="50.86" height="32.64" fill="#3fc0c3"/></g></g><g clip-path="url(#r)"><g clip-path="url(#c)"><rect x="387.76" y="255.95" width="44.34" height="30.38" fill="#3fc0c3"/></g></g><g clip-path="url(#t)"><g clip-path="url(#c)"><rect x="387.6" y="259.11" width="44.68" height="24.07" fill="#f47e39"/></g></g><g clip-path="url(#v)"><g clip-path="url(#c)"><rect x="433.76" y="233.67" width="44.35" height="29.99" fill="#3fc0c3"/></g></g><g clip-path="url(#x)"><g clip-path="url(#c)"><rect x="459.02" y="269.87" width="44.18" height="33.82" fill="#3fc0c3"/></g></g><g clip-path="url(#z)"><g clip-path="url(#c)"><rect x="705.74" y="275.58" width="35.28" height="35.28" fill="#3fc0c3"/></g></g><g clip-path="url(#ab)"><g clip-path="url(#c)"><rect x="725.48" y="302.62" width="37.88" height="31.14" fill="#3fc0c3"/></g></g><g clip-path="url(#ad)"><g clip-path="url(#c)"><rect x="745.45" y="272.43" width="41.73" height="29.37" fill="#3fc0c3"/></g></g><g clip-path="url(#af)"><g clip-path="url(#c)"><rect x="750.47" y="220.53" width="40.47" height="31.01" fill="#3fc0c3"/></g></g><g clip-path="url(#ah)"><g clip-path="url(#c)"><rect x="193.32" y="223.69" width="39.09" height="28.09" fill="#3fc0c3"/></g></g><g clip-path="url(#aj)"><g clip-path="url(#c)"><rect x="249.61" y="232.78" width="41.76" height="32.96" fill="#3fc0c3"/></g></g><g clip-path="url(#al)"><g clip-path="url(#c)"><rect x="203.31" y="470.62" width="36.17" height="34.49" fill="#3fc0c3"/></g></g><g clip-path="url(#an)"><g clip-path="url(#c)"><rect x="203.16" y="470.49" width="36.47" height="34.74" fill="#f47e39"/></g></g><g clip-path="url(#ap)"><g clip-path="url(#c)"><rect x="734.45" y="355.18" width="56.5" height="38.66" fill="#3fc0c3"/></g></g><g clip-path="url(#ar)"><g clip-path="url(#c)"><rect x="734.18" y="357.33" width="57.03" height="34.34" fill="#f47e39"/></g></g><path d="M808.52,489.94H678.73c-7.47-1.61-11-13.68-10.9-21.33a17.31,17.31,0,0,1,13.57-16.27c6.59-1.28,13.74,1.41,20-1.1,10.53-4.26,10.61-18.91,16-28.92a26.28,26.28,0,0,1,44-3.51c7.91,10.37,9,27.21,21.28,31.64,5.34,1.94,11.36.69,16.85,2.14a18,18,0,0,1,12.62,12.94c1.47,6.16,1.1,20.21-3.64,24.41" fill="#5698af" fillRule="evenodd"/><path d="M735.66,520.48H597.29c-3.61-5.33-9.91-12.28-10.72-18.66s2.28-13.76,8.44-15.61c5-1.49,10.29.92,15.48.62,7.67-.44,13.78-6.65,17.72-13.25s6.58-14,11.58-19.87,13.52-9.75,20.43-6.38,8.94,11.72,10.86,19,5.63,15.63,13.06,16.95c6.9,1.22,12.91-4.3,18.56-8.44s14.58-6.8,18.9-1.28c3.33,4.25,1.48,10.32.4,15.6s0,12.44,5.32,13.47c3.85.76,7.4-2.43,11.31-2.74a8.22,8.22,0,0,1,8.5,7.94c0,4.36-7.11,12.63-11.47,12.63" fill="#1d5063" fillRule="evenodd"/><g clip-path="url(#at)"><g clip-path="url(#c)"><rect x="138.78" y="289.21" width="153.39" height="91.93" fill="#5698af"/></g></g><path d="M414.47,388.85H260.67c-7.14-6.67-12.25-16.88-14.89-26.29s1.81-21.52,11.37-23.51c9.92-2.06,19.54,7.23,29.48,5.33,10.94-2.09,14.79-15.39,17.31-26.24s9.15-23.89,20.22-22.72c9.51,1,14.12,11.89,16.81,21.06s7.33,20.06,16.84,21c7.76.8,14.08-5.64,20.12-10.58s15.63-8.53,21-2.87c4.84,5.08,2.22,13.28.23,20s-1.6,16.25,5.18,18.07c4.89,1.3,9.56-2.62,14.55-3.43,6.7-1.08,13.68,4.63,13.94,11.41s-11.58,18.73-18.37,18.73" fill="#1d5063" fillRule="evenodd"/><path d="M540.35,227,389.5,224.8c-4.53-.07-8.76-13.31-6-16.9s7.62-4.77,12.13-5.1,9.19-.06,13.39-1.73c8.51-3.39,12.11-13.16,16-21.43s11.42-17,20.39-15.19c7.54,1.57,11.41,9.72,14.44,16.8s7.68,15.07,15.36,15.58,13.83-6.87,21.46-7.23c2.28-.11,6.05.28,7.42,2.3,1.53,2.26,1.35,6.92,2.52,9.61a14.65,14.65,0,0,0,6.42,7.36c3.61,1.84,7.9,1.54,11.84,2.5a18.85,18.85,0,0,1,9.36,5.61c2.8,3,3.43,7.09,6.1,10" fill="#1d5063" fillRule="evenodd"/></g></svg>