<?xml version="1.0" encoding="UTF-8"?>
<svg width="375px" height="460px" viewBox="0 0 375 460" version="1.1" xmlns="http://www.w3.org/2000/svg" xmlns:xlink="http://www.w3.org/1999/xlink">
    <!-- Generator: Sketch 53.2 (72643) - https://sketchapp.com -->
    <title>Group 7</title>
    <desc>Created with Sketch.</desc>
    <defs>
        <path d="M2.06717389,526.264773 C-2.58396736,516.976078 2.06717389,477.118152 2.06717389,393.900862 C2.06717389,310.683571 2.06717389,86.6835714 2.06717389,86.6835714 C2.06717389,86.6835714 169.508259,40.9304309 281.135649,10.7421703 C392.763039,-19.4460902 544.878164,17.9513981 600.691859,73.6835714 C656.505554,129.415745 588.110971,340.490862 618.343389,398.54521 C648.575807,456.599557 632.296813,533.231295 571.831977,561.097382 C511.36714,588.963468 353.228338,660.950859 229.973095,658.628685 C106.717852,656.306511 2.06717389,526.264773 2.06717389,526.264773 Z" id="path-1"></path>
        <polygon id="path-3" points="0.0002 0.196147695 500 0.196147695 500 331.2052 0.0002 331.2052"></polygon>
        <polygon id="path-5" points="0.2995 0.513560057 98 0.513560057 98 99.3185 0.2995 99.3185"></polygon>
        <polygon id="path-7" points="0 0.562100401 500 0.562100401 500 198 0 198"></polygon>
    </defs>
    <g id="UI-Aplicativo" stroke="none" stroke-width="1" fill="none" fill-rule="evenodd">
        <g id="Login">
            <g id="Group-7" transform="translate(-110.691859, -198.683571)">
                <mask id="mask-2" fill="white">
                    <use xlink:href="#path-1"></use>
                </mask>
                <use id="Stroke-1" fill="#1B5063" xlink:href="#path-1"></use>
                <g id="Group-188" mask="url(#mask-2)">
                    <g transform="translate(53.691859, 330.683571)">
                        <g id="Group-18">
                            <g id="Group-3" transform="translate(0.000000, 71.000000)">
                                <mask id="mask-4" fill="white">
                                    <use xlink:href="#path-3"></use>
                                </mask>
                                <g id="Clip-2"></g>
                                <path d="M250.3442,3.7402 C243.8442,3.4062 237.3432,3.1032 230.8402,2.8162 C153.9452,-0.5798 76.9032,-0.6798 0.0002,2.5472 L0.0002,47.8112 L0.0002,70.0022 L0.0002,193.0542 L0.0002,198.4672 L0.0002,331.2052 C149.7912,244.3342 327.9512,207.0812 500.0002,226.6572 L500.0002,223.2772 L500.0002,192.0842 L500.0002,175.1522 L500.0002,152.9612 L500.0002,28.3192 C488.4412,26.6322 476.8702,25.0282 465.2902,23.4922 C393.9442,14.0312 322.2192,7.4372 250.3442,3.7402" id="Fill-1" fill="#2F6B7E" mask="url(#mask-4)"></path>
                            </g>
                            <path d="M187.4434,46.5479 C191.4144,48.6219 192.0584,53.0499 195.2524,55.4169 C198.2204,57.6159 202.6654,57.6599 206.2684,57.9009 C211.1434,58.2279 216.2104,58.3509 220.5754,60.5439 C225.8584,63.1969 228.9394,68.1309 230.8404,73.8159 C237.3424,74.1029 243.8444,74.4059 250.3444,74.7399 C251.2634,70.4259 254.1534,66.3789 258.5864,63.9439 C267.2204,59.2019 268.0654,63.3169 275.0304,66.7229 C278.1764,68.2619 282.4654,68.6249 285.3614,66.7799 C287.5864,65.3629 288.5444,62.9969 289.2034,60.7429 C290.7334,55.5129 293.5144,51.6509 300.0884,50.1509 C303.4534,49.3829 307.7074,50.3969 311.5744,50.5769 C311.3574,49.9529 311.0994,49.3729 310.8034,48.8769 C309.1104,46.0359 306.0004,44.0899 302.7044,43.8089 C300.5084,43.6219 298.3094,44.1309 296.1064,44.0799 C284.1264,43.8019 295.5914,29.4119 290.2234,23.7359 C286.6544,19.9639 280.2584,22.8669 276.6024,26.5549 C272.9474,30.2429 269.0704,34.9999 263.8954,34.5759 C257.7854,34.0759 254.9204,26.8399 253.9284,20.7899 C252.9374,14.7399 251.6774,7.5219 246.0534,5.0819 C241.9284,3.2919 236.9504,5.0989 233.7534,8.2609 C230.5564,11.4229 228.7504,15.6919 227.0224,19.8429 C226.0904,15.1829 220.9194,11.8359 216.2864,12.8929 C211.6524,13.9509 207.5994,20.1909 208.7824,24.7939 C208.0524,23.3219 205.6514,23.6019 204.6764,24.9239 C203.7024,26.2459 203.7544,28.0389 203.8944,29.6759 C204.0344,31.3129 204.1974,33.0699 203.3814,34.4949 C202.0274,36.8589 198.5574,37.1239 196.1034,35.9439 C193.6484,34.7639 191.8644,32.5749 189.8474,30.7439 C187.8304,28.9129 185.2064,27.3309 182.5284,27.8279 C179.0824,28.4679 177.1034,32.3549 177.1414,35.8599 C177.1794,39.3259 178.6254,42.5929 179.5944,45.9229 C182.0874,45.2329 184.6254,45.0759 187.4434,46.5479" id="Fill-4" fill="#16CDCB"></path>
                            <path d="M289.2029,60.7429 C288.5439,62.9969 287.5859,65.3629 285.3609,66.7799 C282.4659,68.6249 278.1769,68.2619 275.0299,66.7229 C268.0659,63.3169 267.2209,59.2019 258.5859,63.9439 C254.1529,66.3789 251.2639,70.4259 250.3439,74.7399 C322.2199,78.4379 393.9439,85.0309 465.2899,94.4929 C464.9969,88.4449 461.5969,82.4749 455.3479,79.2319 C450.2649,76.5929 443.5479,75.3229 440.7459,70.9419 C435.4669,62.6879 449.1669,52.4909 444.4309,44.0159 C441.5569,38.8739 433.1549,37.5139 426.5089,38.9329 C419.8619,40.3529 414.0969,43.7489 407.6489,45.6929 C405.9539,46.2049 404.1379,46.5849 402.2999,46.7959 C397.1469,47.3899 391.8169,46.6299 388.4669,43.5029 C384.9419,40.2129 384.7179,35.4319 383.9809,31.0839 C383.2419,26.7359 381.1319,21.8329 376.0869,20.4319 C369.4769,18.5969 363.3579,23.9299 359.5829,28.7679 C355.8089,33.6059 350.6209,39.2769 343.7229,38.4269 C339.6729,37.9279 336.6379,35.2479 333.3359,33.2499 C330.0339,31.2529 325.1619,29.9429 322.0599,32.1459 C316.4719,36.1149 323.8319,45.4019 318.1239,49.2519 C316.3139,50.4729 314.0209,50.6909 311.5739,50.5769 C307.7069,50.3969 303.4529,49.3829 300.0879,50.1509 C293.5149,51.6509 290.7339,55.5129 289.2029,60.7429 Z" id="Fill-8" fill="#0FA5A3"></path>
                            <g id="Group-12" transform="translate(402.000000, 0.000000)">
                                <mask id="mask-6" fill="white">
                                    <use xlink:href="#path-5"></use>
                                </mask>
                                <g id="Clip-11"></g>
                                <path d="M75.7295,2.8325 C72.2435,4.1975 73.0595,9.4325 71.1345,12.6445 C69.1695,15.9225 64.4095,16.4945 60.9025,14.9735 C57.3965,13.4515 54.8265,10.4135 52.2825,7.5605 C49.7395,4.7075 46.9035,1.8245 43.2185,0.8085 C39.5355,-0.2075 34.8495,1.4415 33.8695,5.1365 C32.7735,9.2635 36.3175,14.5555 33.2005,17.4735 C28.9975,21.4095 21.1955,13.0895 16.9405,16.9715 C15.5765,18.1525 15.6695,20.3255 16.3285,22.0055 C16.9865,23.6855 18.0875,25.2065 18.4285,26.9785 C18.7705,28.7495 17.9505,30.9735 16.1695,31.2695 C13.4605,31.7215 10.7735,27.5875 8.6275,29.3025 C7.6335,30.0975 7.7415,31.6665 8.2725,32.8225 C8.8045,33.9785 9.6645,34.9995 9.9445,36.2405 C10.4785,38.6035 8.7405,40.9075 6.7555,42.2995 C4.7715,43.6905 2.4255,44.5965 0.7185,46.3175 C0.5715,46.4665 0.4325,46.6285 0.2995,46.7955 C2.1375,46.5845 3.9545,46.2055 5.6485,45.6935 C12.0965,43.7485 17.8625,40.3525 24.5085,38.9335 C31.1555,37.5135 39.5565,38.8735 42.4305,44.0165 C47.1675,52.4915 33.4665,62.6875 38.7465,70.9415 C41.5475,75.3225 48.2645,76.5935 53.3475,79.2315 C59.5965,82.4745 62.9975,88.4445 63.2905,94.4925 C74.8705,96.0285 86.4415,97.6315 98.0005,99.3185 L98.0005,17.9775 C92.7895,13.7045 87.5785,9.4315 82.3675,5.1585 C80.4605,3.5945 78.0255,1.9345 75.7295,2.8325" id="Fill-10" fill="#16CDCB" mask="url(#mask-6)"></path>
                            </g>
                            <path d="M230.8403,73.8159 C228.9393,68.1309 225.8583,63.1969 220.5753,60.5439 C216.2103,58.3509 211.1433,58.2279 206.2683,57.9009 C202.6653,57.6599 198.2203,57.6159 195.2523,55.4169 C192.0583,53.0499 191.4143,48.6219 187.4433,46.5479 C184.6253,45.0759 182.0873,45.2329 179.5943,45.9229 C176.7193,46.7189 173.9033,48.2279 170.7883,48.8029 C163.9783,50.0619 156.3713,48.9649 151.2653,44.2869 C146.8013,40.1959 144.0653,33.4439 138.1263,32.2619 C130.9673,30.8379 124.3373,38.7999 117.2203,37.1789 C112.3563,36.0709 109.5983,30.9559 108.1023,26.1969 C106.6063,21.4389 105.5543,16.1789 101.8863,12.7969 C96.5693,7.8959 87.8173,9.1269 81.7503,13.0639 C75.6833,17.0019 71.3373,23.0329 66.0843,28.0039 C60.8303,32.9749 53.7693,37.0899 46.6783,35.6619 C41.6203,34.6429 36.6003,30.9009 31.8013,32.7969 C24.8413,35.5479 26.1183,46.8129 20.0683,51.2189 C15.8493,54.2919 10.0373,52.7459 4.8673,52.0299 C3.3193,51.8159 1.6323,51.7979 0.0003,52.0079 L0.0003,73.5469 C76.9033,70.3199 153.9443,70.4199 230.8403,73.8159" id="Fill-13" fill="#0FA5A3"></path>
                            <g id="Group-17" transform="translate(0.000000, 292.000000)">
                                <mask id="mask-8" fill="white">
                                    <use xlink:href="#path-7"></use>
                                </mask>
                                <g id="Clip-16"></g>
                                <path d="M0,110.2051 L0,198.0001 L500,198.0001 L500,5.6571 C327.951,-13.9189 149.791,23.3341 0,110.2051" id="Fill-15" fill="#224E5C" mask="url(#mask-8)"></path>
                            </g>
                        </g>
                        <g id="Group-187" transform="translate(8.000000, 73.000000)">
                            <path d="M321.1592,232.3711 C325.2902,235.1661 330.9032,234.0831 333.6982,229.9521 C329.5672,227.1571 323.9542,228.2401 321.1592,232.3711" id="Fill-37" fill="#16CDCB"></path>
                            <path d="M351.1865,214.3779 L351.1865,214.3779 C354.4385,219.8379 361.5005,221.6269 366.9605,218.3749 C363.7075,212.9149 356.6455,211.1259 351.1865,214.3779" id="Fill-41" fill="#16CDCB"></path>
                            <path d="M368.4043,237.3691 C369.8573,241.7281 374.5693,244.0841 378.9283,242.6311 C377.4753,238.2711 372.7633,235.9161 368.4043,237.3691" id="Fill-45" fill="#16CDCB"></path>
                            <path d="M138.5498,183.1445 L138.5498,183.1445 C144.3938,187.0935 152.3338,185.5585 156.2828,179.7135 C150.4388,175.7645 142.4998,177.2995 138.5498,183.1445" id="Fill-49" fill="#16CDCB"></path>
                            <path d="M135.8472,211.2549 L135.8472,211.2549 C136.4132,216.5209 141.1412,220.3289 146.4072,219.7629 C145.8402,214.4969 141.1122,210.6889 135.8472,211.2549" id="Fill-53" fill="#16CDCB"></path>
                            <path d="M253.6738,144.2241 L253.6738,144.2241 C255.6588,149.8591 261.8368,152.8181 267.4728,150.8321 C265.4868,145.1971 259.3098,142.2381 253.6738,144.2241" id="Fill-101" fill="#16CDCB"></path>
                            <path d="M252.4033,126.8691 L252.4033,126.8691 C255.2993,129.7861 260.0103,129.8031 262.9273,126.9081 C260.0323,123.9911 255.3203,123.9731 252.4033,126.8691" id="Fill-105" fill="#16CDCB"></path>
                            <path d="M215.7764,135.8892 L215.7764,135.8892 C220.0044,140.3832 227.0744,140.5992 231.5694,136.3712 C227.3414,131.8772 220.2714,131.6612 215.7764,135.8892" id="Fill-109" fill="#16CDCB"></path>
                            <path d="M190.4546,53.7876 L190.4546,53.7876 C193.3406,57.7986 198.9326,58.7086 202.9426,55.8226 C200.0556,51.8116 194.4646,50.9006 190.4546,53.7876" id="Fill-113" fill="#16CDCB"></path>
                            <path d="M203.0269,55.8364 C203.0189,55.8824 202.9749,55.9144 202.9289,55.9064 L190.4409,53.8724 C190.3939,53.8644 190.3629,53.8204 190.3699,53.7734 C190.3779,53.7274 190.4219,53.6954 190.4679,53.7034 L202.9559,55.7384 C203.0029,55.7454 203.0339,55.7894 203.0269,55.8364" id="Fill-115" fill="#FF7F35"></path>
                            <path d="M213.7803,43.7949 L213.7803,43.7949 C217.4453,47.0279 223.0373,46.6779 226.2703,43.0119 C222.6053,39.7789 217.0133,40.1289 213.7803,43.7949" id="Fill-117" fill="#16CDCB"></path>
                            <path d="M226.5933,59.6826 L226.5933,59.6826 C228.3343,64.7946 233.8893,67.5266 239.0013,65.7866 C237.2603,60.6746 231.7053,57.9416 226.5933,59.6826" id="Fill-121" fill="#16CDCB"></path>
                            <path d="M351.7197,69.9468 L351.7197,69.9468 C356.0787,69.9468 359.6137,66.4128 359.6137,62.0528 C355.2537,62.0528 351.7197,65.5878 351.7197,69.9468" id="Fill-125" fill="#16CDCB"></path>
                            <path d="M361.7285,76.0356 C362.8185,80.0316 366.9415,82.3876 370.9375,81.2976 C369.8475,77.3016 365.7245,74.9456 361.7285,76.0356" id="Fill-129" fill="#16CDCB"></path>
                            <path d="M371.8564,63.9385 L371.8564,63.9385 C375.5114,66.4495 380.5104,65.5215 383.0214,61.8675 C379.3664,59.3555 374.3684,60.2835 371.8564,63.9385" id="Fill-133" fill="#16CDCB"></path>
                            <path d="M374.4043,39.3022 L374.4043,39.3022 C378.5823,40.9372 383.2943,38.8752 384.9283,34.6982 C380.7513,33.0632 376.0393,35.1242 374.4043,39.3022" id="Fill-137" fill="#16CDCB"></path>
                            <path d="M91.8389,38.6499 L91.8389,38.6499 C94.9879,40.9269 99.3869,40.2209 101.6639,37.0719 C98.5149,34.7949 94.1159,35.5009 91.8389,38.6499" id="Fill-145" fill="#16CDCB"></path>
                            <path d="M120.3877,40.7461 L120.3877,40.7461 C121.8397,45.4691 126.8447,48.1221 131.5677,46.6701 C130.1167,41.9471 125.1117,39.2951 120.3877,40.7461" id="Fill-149" fill="#16CDCB"></path>
                            <path d="M96.9063,168.4482 L96.9063,168.4482 C101.2723,168.6912 105.0093,165.3492 105.2523,160.9832 C100.8853,160.7402 97.1493,164.0822 96.9063,168.4482" id="Fill-169" fill="#16CDCB"></path>
                            <path d="M105.3081,160.9326 C105.3361,160.9636 105.3331,161.0116 105.3021,161.0386 L96.9561,168.5046 C96.9261,168.5336 96.8781,168.5306 96.8501,168.4986 C96.8221,168.4676 96.8251,168.4196 96.8561,168.3926 L105.2011,160.9266 C105.2321,160.8986 105.2801,160.9016 105.3081,160.9326" id="Fill-171" fill="#FF7F35"></path>
                            <path d="M366.2773,103.6519 L366.2773,103.6519 C369.4553,110.7769 377.8073,113.9779 384.9323,110.7999 C381.7553,103.6739 373.4023,100.4749 366.2773,103.6519" id="Fill-173" fill="#16CDCB"></path>
                            <path d="M385.0586,110.8477 C385.0316,110.9177 384.9546,110.9517 384.8836,110.9257 L366.2296,103.7777 C366.1606,103.7507 366.1246,103.6737 366.1516,103.6037 C366.1786,103.5347 366.2556,103.4997 366.3266,103.5257 L384.9806,110.6737 C385.0496,110.7007 385.0846,110.7787 385.0586,110.8477" id="Fill-175" fill="#FF7F35"></path>
                            <path d="M398.8467,165.7705 L333.0197,165.7705 C329.2307,164.9515 327.4537,158.8295 327.4947,154.9525 C327.5357,151.0755 330.5687,147.4375 334.3747,146.6995 C337.7167,146.0515 341.3447,147.4155 344.5007,146.1415 C349.8447,143.9835 349.8857,136.5505 352.6147,131.4745 C354.7137,127.5675 358.8767,124.8485 363.2987,124.4975 C367.7197,124.1455 372.2607,126.1715 374.9507,129.6975 C378.9627,134.9535 379.5287,143.4935 385.7457,145.7435 C388.4547,146.7235 391.5037,146.0935 394.2877,146.8285 C397.3917,147.6475 399.9487,150.2685 400.6917,153.3905 C401.4347,156.5125 401.2477,163.6415 398.8467,165.7705" id="Fill-177" fill="#5698AF"></path>
                            <path d="M361.8936,181.2598 L291.7166,181.2598 C289.8856,178.5568 286.6916,175.0318 286.2806,171.7938 C285.8686,168.5568 287.4356,164.8148 290.5626,163.8788 C293.0886,163.1238 295.7806,164.3428 298.4126,164.1928 C302.3016,163.9698 305.4026,160.8198 307.3986,157.4728 C309.3956,154.1278 310.7366,150.3538 313.2716,147.3948 C315.8066,144.4358 320.1296,142.4518 323.6316,144.1598 C327.0736,145.8398 328.1646,150.1038 329.1416,153.8058 C330.1196,157.5088 331.9946,161.7318 335.7646,162.3998 C339.2656,163.0198 342.3106,160.2228 345.1766,158.1198 C348.0426,156.0158 352.5726,154.6748 354.7636,157.4748 C356.4486,159.6268 355.5106,162.7068 354.9656,165.3848 C354.4206,168.0628 354.9796,171.6928 357.6616,172.2178 C359.6156,172.6008 361.4136,170.9848 363.3976,170.8268 C365.6016,170.6538 367.7316,172.6408 367.7086,174.8518 C367.6876,177.0628 364.1046,181.2598 361.8936,181.2598" id="Fill-179" fill="#1B5063"></path>
                            <path d="M124.2075,105.5894 L73.1975,105.5894 C70.0255,103.2084 66.4365,98.5994 64.8865,94.9494 C63.3355,91.2984 64.3375,86.2464 67.9965,84.7154 C72.8005,82.7054 78.0135,87.7344 83.1525,86.8934 C86.4535,86.3544 88.8815,83.5074 90.5025,80.5814 C92.1235,77.6554 93.2875,74.4124 95.5415,71.9424 C97.7975,69.4714 101.6595,67.9914 104.5285,69.7124 C109.7285,72.8304 107.3965,83.0224 113.1695,84.8794 C117.0305,86.1214 120.7005,82.0844 124.7555,82.0324 C129.3725,81.9734 132.5075,87.3514 131.8975,91.9274 C131.2885,96.5054 127.1975,102.0704 124.2075,105.5894" id="Fill-181" fill="#5698AF"></path>
                            <path d="M199,114.5 L121,114.5 C117.375,111.12 114.784,105.941 113.444,101.169 C112.104,96.398 114.362,90.253 119.215,89.245 C124.244,88.201 129.121,92.909 134.166,91.946 C139.711,90.887 141.666,84.14 142.942,78.64 C144.218,73.141 147.583,66.522 153.197,67.116 C158.02,67.626 160.358,73.146 161.724,77.799 C163.088,82.452 165.44,87.97 170.265,88.464 C174.201,88.867 177.402,85.604 180.465,83.097 C183.527,80.591 188.396,78.774 191.125,81.641 C193.578,84.22 192.25,88.375 191.237,91.788 C190.224,95.2 190.43,100.032 193.868,100.953 C196.346,101.616 198.713,99.626 201.246,99.216 C204.643,98.666 208.182,101.561 208.316,105 C208.451,108.438 202.441,114.5 199,114.5" id="Fill-183" fill="#1B5063"></path>
                            <path d="M262.8389,32.4214 C237.3379,32.0484 211.8359,31.6744 186.3339,31.3014 C184.0399,31.2684 181.8899,24.5514 183.2829,22.7294 C184.6749,20.9064 187.1459,20.3094 189.4339,20.1444 C191.7219,19.9804 194.0939,20.1124 196.2259,19.2644 C200.5429,17.5474 202.3679,12.5944 204.3599,8.3974 C206.3539,4.2004 210.1519,-0.2496 214.7009,0.6964 C218.5239,1.4914 220.4889,5.6254 222.0219,9.2154 C223.5539,12.8064 225.9199,16.8584 229.8149,17.1154 C233.6789,17.3694 236.8279,13.6304 240.6969,13.4494 C241.8529,13.3954 243.7679,13.5914 244.4599,14.6154 C245.2349,15.7624 245.1439,18.1264 245.7379,19.4874 C246.4129,21.0314 247.4929,22.4574 248.9929,23.2234 C250.8229,24.1574 253.0019,24.0044 254.9989,24.4884 C256.8209,24.9314 258.4819,25.9554 259.7459,27.3334 C261.1669,28.8794 261.4839,30.9314 262.8389,32.4214" id="Fill-185" fill="#1B5063"></path>
                        </g>
                    </g>
                </g>
                <g id="Group-74" transform="translate(306.691859, 500.183571) scale(-1, 1) translate(-306.691859, -500.183571) translate(151.691859, 342.683571)">
                    <path d="M54.9265,254.727273 C100.813268,219.471516 153.929054,193.457576 190.718718,150 L192,151.102751 C155.153016,194.628293 103.242036,220.135497 57.2102804,255.5 C56.8226036,255.075619 56.0613435,254.818044 54.9265,254.727273 Z" id="Fill-4" fill="#61A5BD"></path>
                    <g id="Group-6" transform="translate(0.000000, 230.000000)">
                        <g id="Group-5" transform="translate(0.500000, 0.000000)">
                            <path d="M127.363944,18.5454545 C124.874441,19.482914 122.176351,19.8191456 119.551402,19.462968 C122.929432,23.0959794 126.730056,27.2760795 130.105377,30.9090909 C131.91494,29.703786 133.50237,28.1622494 134.878505,26.4411993 C133.031017,23.2185045 130.433157,20.4802112 127.363944,18.5454545" id="Fill-6" fill="#C68606"></path>
                            <path d="M137.965594,7.72727273 C137.316155,11.5467417 134.962607,15.1084998 131.549024,17.4327597 C130.234042,18.3274539 128.763411,19.0325118 127.214953,19.5357773 C130.255512,21.1865853 132.829117,23.5230014 134.66204,26.2727273 C136.35273,24.4493016 137.707966,22.3705964 138.537209,20.1119798 C140.034677,16.0250751 139.667019,11.7436716 137.965594,7.72727273" id="Fill-8" fill="#FAA700"></path>
                            <path d="M68.9080257,52.5454545 C77.592469,60.6379797 82.0938872,72.0804456 82.7663551,83.4545455 L68.8695989,83.4545455 C71.2163749,80.9807041 71.320676,77.0255963 70.3270703,73.8706256 C68.0351897,66.6060904 63.1934204,60.0429411 56.7102804,55.4092361 C60.1933899,53.6342486 64.9363476,52.7708096 68.9080257,52.5454545" id="Fill-10" fill="#A4710B"></path>
                            <path d="M100.414625,54.1223607 C102.419154,57.4067708 104.974295,60.3329292 107.930341,62.7308624 C106.491647,69.4147417 102.246613,75.4841015 97.0805097,79.7857374 C95.1977747,81.3547231 93.056227,82.7746552 91.9626168,85 L102.837822,85 C110.992957,77.8428101 117.651039,68.4785802 121.084112,58.0212902 C115.874874,52.5141503 107.257936,51.0576085 100.414625,54.1223607" id="Fill-12" fill="#A4710B"></path>
                            <path d="M4.59813084,13.1363636 C4.59813084,14.4141328 3.56825939,15.4545455 2.29906542,15.4545455 C1.02987146,15.4545455 0,14.4141328 0,13.1363636 C0,11.8566165 1.02987146,10.8181818 2.29906542,10.8181818 C3.56825939,10.8181818 4.59813084,11.8566165 4.59813084,13.1363636" id="Fill-14" fill="#1B5063"></path>
                            <path d="M99.91694,57.1818182 C103.999438,56.5316525 108.018553,55.7031714 111.88785,54.6250486 C106.785448,47.6680019 103.679638,39.3639876 102.924793,30.9090909 C100.112854,39.4078806 99.0583766,48.3236542 99.91694,57.1818182" id="Fill-16" fill="#C68606"></path>
                            <path d="M61.3084112,56.081639 C69.6204635,58.240931 78.5232982,59.0540161 87.364486,58.6102444 C80.4471941,56.8708974 73.8663913,53.1688285 68.4620161,47.9090909 C66.7436098,51.1584531 64.0594025,53.9968053 61.3084112,56.081639" id="Fill-18" fill="#C68606"></path>
                            <path d="M49.8192285,17.3837438 C50.5489291,17.838847 51.3349887,18.1861626 52.1121495,18.5454545 C51.5248295,15.5723134 51.6286487,12.3087445 51.3171911,9.27272727 L41.3831776,10.6709719 C45.3164418,12.9315173 46.8114382,15.5124314 49.8192285,17.3837438" id="Fill-20" fill="#C68606"></path>
                            <path d="M62.8411215,27.7363285 C58.7052277,26.8833705 55.0645123,24.9873045 52.8605838,21.5102782 C52.1011393,20.3096176 51.6701032,18.9541206 51.39814,17.5252801 C50.7233633,17.1993089 50.0460209,16.8869198 49.4148609,16.4740229 C46.8132503,14.7762562 45.5201421,12.4319798 42.118036,10.3810776 L50.7079691,9.11522269 C50.4129147,6.11085464 49.6765614,3.3618307 47.2006697,1.50651119 C45.2610073,0.0532228475 42.7491959,-0.286330504 40.4246799,0.22164131 C35.3446119,1.32994345 31.8450095,5.25789662 27.8861484,8.37363817 C24.7842281,10.8184223 21.0357537,12.8611753 17.2077428,12.2880092 C14.3829171,11.8588138 11.7967007,10.0360914 8.94621808,10.0931363 C5.03867081,10.1637634 1.79050611,14.0971495 1.54933116,18.2288346 C1.31328759,22.3605198 3.61727804,26.3400851 6.81156323,28.7251078 C10.0058484,31.1101306 13.9647095,32.0907607 17.8645597,32.3814183 C21.7618442,32.672076 25.6770886,32.3325226 29.5820701,32.3379555 C33.4921831,32.3461048 37.4792668,32.7209717 41.0686684,34.3562606 C43.0545131,40.7452965 46.4489222,48.6826956 51.6547091,52.5454545 C50.6669181,50.8667028 50.2076594,48.818517 50.1820025,46.8382418 C55.3749609,41.5629409 59.7340698,34.7392768 62.8411215,27.7363285" id="Fill-22" fill="#DC9403"></path>
                            <path d="M142.374555,38.329757 C141.221405,36.7148283 139.000427,36.3791557 137.433591,37.576476 C136.782035,38.0733771 136.138236,38.5649921 135.517707,39.0301762 C133.958627,32.0947049 129.744199,25.8200063 123.970691,21.8421541 C118.197183,17.8616587 110.926649,16.2229422 104.051702,17.346256 C95.0023166,18.826387 87.1784767,24.7601268 78.2376842,26.8270241 C73.2631079,27.9794119 67.1121116,28.5767505 61.7781454,27.5142278 C58.6470582,34.3281169 54.2542281,40.967562 49.0236834,46.1004451 C49.0469533,48.0272586 49.5097647,50.0201494 50.5051971,51.6535797 C46.145979,61.9669216 38.143737,70.6256883 28.3186902,75.6528478 C27.429265,76.1074595 26.4364181,76.6334346 26.1390812,77.600806 C25.7357372,78.9223516 26.8707886,80.2253956 28.0653075,80.8782391 C31.1343418,82.5486727 34.9867943,82.035913 38.0868551,80.4341998 C41.1895015,78.8298434 43.7000594,76.2686881 46.1537356,73.7498221 C51.4851162,68.2786234 56.1649411,61.8744134 61.4963217,56.4058577 C64.2654336,54.5556939 66.9673214,52.0368279 68.6970467,49.1532154 C74.1344344,53.8209145 80.7611699,57.1062769 87.7214399,58.647199 C91.9772364,58.4595396 96.2175197,58.036645 100.369895,57.3256534 C99.5994042,48.791112 100.545711,40.1984225 103.069197,32.0101259 C103.746608,40.156133 106.533819,48.1594132 111.112808,54.8622924 C114.424883,59.7731559 121.033519,61.6233197 126.72429,60.2912018 C132.412475,58.9590838 138.020508,55.5019205 141.593722,50.7840027 C144.380933,54.6111988 147.26898,58.5361892 151.816942,60.3519929 C154.296474,61.3431521 157.150908,61.340509 159.53736,60.1352594 C161.497199,59.1467433 163.022666,57.5952487 164,55.5759271 C155.485821,51.894101 147.814528,45.9577182 142.374555,38.329757" id="Fill-24" fill="#FAA700"></path>
                            <path d="M42.4246039,3.84845382 C47.7550941,5.7464193 53.7810888,5.65725313 59.052551,3.60388377 C60.9106516,2.88036405 62.7045912,1.91227427 64.6807479,1.61929973 C66.6517718,1.3263252 68.9359009,1.88934583 69.9599094,3.59114575 C70.6143509,4.67897294 70.6400153,6.06232228 70.2447839,7.26733929 C69.8495526,8.46980869 69.0693557,9.51687421 68.1942006,10.4365595 C63.8055928,15.0477239 56.5502746,16.7062146 50.5730422,14.4643225 C46.8876383,13.0809731 43.7155218,10.3805122 39.8504673,9.63406402 C40.8308463,8.00104943 41.9780438,5.70311002 42.4246039,3.84845382" id="Fill-28" fill="#FAA700"></path>
                        </g>
                        <path d="M43.4204442,46 C49.5764206,40.7296425 54.9258654,33.7748262 58.5,25.7236842 C57.1267799,24.8186445 55.574853,23.9078947 54.2016329,23 C50.6768779,29.5922294 45.967015,35.2423039 40.5,39.4448858 C41.3559112,41.5033515 42.564533,43.9415343 43.4204442,46" id="Fill-26" fill="#61A5BD"></path>
                    </g>
                    <path d="M302.425274,286 L292.176613,289.833397 C293.261886,293.375508 291.511115,297.142923 288.014694,298.790865 L278.074892,303.477201 C276.380433,304.277033 274.982889,305.506552 274,307 L310,307 L302.425274,286 Z" id="Fill-30" fill="#133D4C"></path>
                    <path d="M274.048806,307 C273.611942,307.621502 273.250113,308.28866 273,309 L310,309 L309.227986,307 L274.048806,307 Z" id="Fill-32" fill="#133D4C"></path>
                    <path d="M276,173.779729 L274.441411,157 L246,178.102809 L253.42077,206 C263.30863,197.396273 271.137331,186.226194 276,173.779729" id="Fill-34" fill="#1E799A"></path>
                    <path d="M276.281297,173 C271.267431,185.562422 263.195308,196.836567 253,205.522164 L259.314254,228.75742 L287.802129,293 L304,286.431839 L298.761582,265.00908 C295.394986,251.245749 289.49632,238.265322 281.377275,226.758191 L276.281297,173 Z" id="Fill-36" fill="#2997BF"></path>
                    <path d="M224,53.1233281 C229.323129,54.5572384 233.659864,59.3758851 234.681973,65 C237.338435,63.6652242 240.345238,61.4948859 243,60.1601101 L239.265306,47 L224,53.1233281 Z" id="Fill-38" fill="#F49E76"></path>
                    <path d="M216.87372,31.9117942 C213.292685,30.6393358 209.651661,29.0110634 207.243752,26.0323923 C204.832511,23.0537213 204.06598,18.3840868 206.440561,15.3766118 C207.971957,13.4399673 210.441522,12.5555155 212.8311,12.0421268 C215.222345,11.5304324 217.70524,11.283057 219.919849,10.2359474 C223.134282,8.71441918 225.377219,5.71033285 228.033417,3.32468504 C230.692948,0.94073159 234.447286,-0.923055757 237.710043,0.48833957 C239.914654,1.44225982 241.33607,3.70083122 242.042612,6.02887105 C242.752487,8.35691088 242.879131,10.8188045 243.289059,13.2197015 C243.69732,15.6205985 244.450521,18.0740204 246.138556,19.8039539 C247.996562,21.705017 250.837727,22.5776083 252.205819,24.8683724 C253.892188,27.6894687 252.610747,31.347575 250.982701,34.2042527 C248.269847,38.9586048 243.572342,43.6384054 239.294764,47 L216.87372,31.9117942 Z" id="Fill-40" fill="#417B8E"></path>
                    <path d="M214.429752,28.9115956 C216.040265,33.3016788 215.05981,38.6034296 212,42.052658 C213.233794,42.5711582 214.465943,43.0896585 215.698093,43.6081587 C216.323215,46.0444231 217.497787,48.3244506 218.664134,50.5306519 C219.830481,52.7385702 221.598919,54.7009734 223.877326,55.5405317 C226.756179,56.6050024 230.033136,55.7122206 232.591203,53.9678621 C235.14927,52.2217868 237.124986,49.7116963 239.05793,47.2445279 C238.047864,45.9602955 236.514669,44.401361 235.506248,43.1171287 C236.743332,43.5909898 238.21895,43.0913753 239.158279,42.1213335 C240.097607,41.1547254 240.594415,39.8052513 240.847754,38.4540603 C241.194862,36.5929535 241.013905,34.403921 239.615605,33.1952317 C238.269947,32.0328984 236.156046,32.2286236 234.761036,33.3257152 C233.369316,34.4228068 232.622459,36.2289732 232.367475,38.0317058 C229.444205,36.1139417 226.871333,32.9995065 225.708276,29.6069354 C224.546865,26.2160811 224.510673,22.4148906 225.606283,19 C222.148369,22.164225 217.887666,25.7439369 214.429752,28.9115956" id="Fill-42" fill="#FFCDA5"></path>
                    <path d="M267.706507,63.3740412 C265.582528,61.8492034 263.743513,59.9279752 261.546637,58.5161508 C261.261672,58.33398 260.968424,58.1619297 260.668549,58 C259.868329,61.1964244 259.782177,64.5733329 260.433287,67.8085529 C261.820004,68.9285665 263.138792,70.1464126 264.586809,71.1854614 C271.000165,75.7886498 280.027903,76.2727521 286.880303,72.3813795 L290,64.5699593 C283.145944,68.4647054 274.118205,67.9789164 267.706507,63.3740412" id="Fill-44" fill="#73C3C2"></path>
                    <path d="M261,58.2381136 C258.897269,57.1534595 256.449236,56.5909842 254.233121,57.3465481 L251,65.1221408 C253.542518,64.2540818 256.397698,65.1221408 258.675657,66.5274898 C259.402336,66.974112 260.086068,67.4795004 260.756056,68 C260.080914,64.7796185 260.170246,61.4198774 261,58.2381136" id="Fill-46" fill="#66B2B1"></path>
                    <path d="M232.230503,73 C229.812034,71.3354524 227.679962,68.9100152 226.450629,66.2055309 C225.516068,64.1516155 226.067091,61.7115769 227.80725,60.2303567 C233.699338,55.2172456 241.433751,52.2596722 249.268654,52.0033384 C252.424054,51.8978846 254.991584,54.3038535 254.999958,57.3603911 C255.008332,60.874436 253.753877,64.3609007 253.753877,64.3609007 C245.930698,62.9900014 236.894934,66.7636249 232.230503,73" id="Fill-48" fill="#73C3C2"></path>
                    <path d="M227.537941,99 C222.933123,109.927535 216.33189,119.977086 208.119632,128.41756 C206.286967,130.300162 204.369947,132.115227 202.821775,134.247717 C201.273603,136.380207 200.097588,138.889218 200,141.540057 L206.106678,148 C212.01818,143.395645 217.671654,138.164881 222.858691,132.726439 C224.995698,130.482513 227.134358,128.220013 229.215128,125.906861 C230.665712,116.963234 230.104996,107.678543 227.537941,99" id="Fill-50" fill="#BE2248"></path>
                    <path d="M231.645923,87 C230.417382,91.22795 228.852647,95.36907 227,99.3916338 C229.775393,107.974439 230.381617,117.156705 228.813305,126 C233.917024,120.803562 238.650572,115.318248 242,109.029757 C239.129828,101.485571 235.776824,94.0181966 231.645923,87" id="Fill-52" fill="#A91D3F"></path>
                    <path d="M199.600081,141 L191.381767,144.299801 C188.514631,145.45119 187.193738,148.916254 188.512898,151.820151 L189.828591,154.718601 C190.870398,157.005034 193.650861,157.716934 195.581931,156.191435 L206,147.948288 L199.600081,141 Z" id="Fill-54" fill="#FFCDA5"></path>
                    <path d="M242.538765,140 L211.637259,193.727888 C208.503924,199.175487 206.123795,205.034548 204.562149,211.141844 L188,275.899251 L204.126964,281 L213.987259,259.195999 C220.019598,245.860941 223.86764,231.61625 225.379072,217.021307 L225.886231,212.139891 L265.21192,178.566762 C273.508896,171.483522 278.207224,160.967478 277.992979,149.960062 L277.797145,140 L242.538765,140 Z" id="Fill-56" fill="#2997BF"></path>
                    <path d="M199,279.241711 L188.261862,276 L186.315212,278.141845 C182.949094,281.848311 178.330705,284.271324 173.287499,284.9759 L166.621801,285.903757 C164.95495,286.138615 163.397289,286.752225 162,287.622194 L194.917324,297 L199,279.241711 Z" id="Fill-58" fill="#133D4C"></path>
                    <path d="M162.551864,287 C161.617452,287.575138 160.740248,288.241436 160,289.055249 L195.393239,299 L196,296.39779 L162.551864,287 Z" id="Fill-60" fill="#133D4C"></path>
                    <path d="M277.471166,117.099514 C276.544032,111.200954 276.530644,105.124768 275.829437,99.1725855 C275.272153,94.4470351 273.387763,89.394718 270.919312,84.7479268 L255.005754,73.5490427 L266.280298,77.4015393 C265.950613,76.9574716 265.625949,76.4983224 265.294591,76.0777149 C262.76924,72.8871305 260.212093,69.6680588 257.017332,67.1527924 C253.822571,64.6392018 249.881417,62.8595797 245.81977,63.0087194 C238.677161,63.2701328 232.858311,69.5574608 230.962206,76.4547535 C229.064428,83.3537218 230.287775,90.7034608 231.929504,97.6677825 C233.572907,104.632104 235.641385,111.624913 235.408765,118.776917 C235.273209,122.998073 234.342729,127.30134 235.422153,131.381736 C236.421248,135.150446 239.190933,138.411411 242.747176,140 L278,140 L262.078074,134.853842 L277.471166,117.099514 Z" id="Fill-62" fill="#BE2248"></path>
                    <path d="M279.952762,131.952437 C279.68784,129.070833 278.466532,126.366311 277.611783,123.595785 C277.041951,121.757354 276.633737,119.888336 276.325495,118 L261,135.056198 L276.853673,140 C279.392926,138.469047 280.217684,134.834041 279.952762,131.952437" id="Fill-64" fill="#A91D3F"></path>
                    <path d="M272,84 C270.503628,81.4112807 268.812388,78.972322 267.046062,76.7835129 L255,73 L272,84 Z" id="Fill-66" fill="#A54B28"></path>
                    <polygon id="Fill-68" fill="#DC1D48" points="244 124.064901 258.916949 139 264 136.935099 249.083051 122"></polygon>
                    <polygon id="Fill-70" fill="#A91D3F" points="246 85 271 101.300914 251.172168 124 264.241605 103.279765"></polygon>
                    <path d="M271.19195,101.737557 C264.132715,96.6927293 254.571453,90.2011861 246.40095,84.5128079 C242.770917,81.9861492 241.909014,76.9260396 244.484681,73.3024578 C246.996751,69.7688713 251.840142,68.9436319 255.353023,71.4465183 L285.144732,92.6904883 C289.542946,95.8267374 290.302759,102.133196 286.778163,106.252601 L263.033162,134 L252.573178,124.448619 L271.19195,101.737557 Z" id="Fill-72" fill="#DC1D48"></path>
                </g>
            </g>
        </g>
    </g>
</svg>