<svg xmlns="http://www.w3.org/2000/svg" width="181" height="52" viewBox="0 0 181 52"><title>calinos-full</title><path d="M35.72,25,31.2,27.51a.87.87,0,0,1-1-.14,9.4,9.4,0,0,0-2.88-2.05,9.74,9.74,0,0,0-3.86-.71,8.84,8.84,0,0,0-6.52,2.48,8.55,8.55,0,0,0-2.49,6.34,8.26,8.26,0,0,0,2.4,6.14A8.51,8.51,0,0,0,23.11,42a9.12,9.12,0,0,0,7-2.8A.87.87,0,0,1,31.26,39l4.24,3a.92.92,0,0,1,.17,1.33q-4.53,5.38-12.38,5.39-7.56,0-11.83-4.61a15.83,15.83,0,0,1-2.2-18.67,14.89,14.89,0,0,1,5.8-5.66,17,17,0,0,1,8.33-2.06,16.4,16.4,0,0,1,7.66,1.75A14.5,14.5,0,0,1,36,23.6.92.92,0,0,1,35.72,25" transform="translate(-7.18 -6.73)" fill="#fff" fill-rule="evenodd"/><path d="M60.8,18.49h5.49a.89.89,0,0,1,.89.9V47.07a.89.89,0,0,1-.89.9H60.8a.89.89,0,0,1-.89-.9V44.85a14,14,0,0,1-4.27,3,11.72,11.72,0,0,1-4.65.91,12.81,12.81,0,0,1-9.71-4.43,15.64,15.64,0,0,1-4.1-11,16,16,0,0,1,4-11.19,12.52,12.52,0,0,1,9.63-4.36,12.07,12.07,0,0,1,4.9,1,13.46,13.46,0,0,1,4.23,3V19.39a.89.89,0,0,1,.89-.9m-8.54,6.07A7.31,7.31,0,0,0,46.66,27a8.82,8.82,0,0,0-2.23,6.22,8.93,8.93,0,0,0,2.27,6.29A7.31,7.31,0,0,0,52.29,42,7.41,7.41,0,0,0,58,39.53a9,9,0,0,0,2.26-6.36A8.68,8.68,0,0,0,58,26.94a7.52,7.52,0,0,0-5.71-2.38" transform="translate(-7.18 -6.73)" fill="#fff" fill-rule="evenodd"/><path d="M73,7.73h5.29a.87.87,0,0,1,.85.88V46.84a.87.87,0,0,1-.85.89H73a.88.88,0,0,1-.86-.89V8.61A.88.88,0,0,1,73,7.73" transform="translate(-7.18 -6.73)" fill="#fff" fill-rule="evenodd"/><path d="M88.67,6.73a4.22,4.22,0,0,1,3.18,1.39,4.65,4.65,0,0,1,1.33,3.36,4.64,4.64,0,0,1-1.31,3.32,4.21,4.21,0,0,1-3.15,1.38,4.29,4.29,0,0,1-3.21-1.4,4.77,4.77,0,0,1-1.33-3.37,4.68,4.68,0,0,1,1.18-3.17,4.27,4.27,0,0,1,3.31-1.51M86,18.69h5.34a.88.88,0,0,1,.86.89V46.84a.88.88,0,0,1-.86.89H86a.88.88,0,0,1-.86-.89V19.58a.88.88,0,0,1,.86-.89" transform="translate(-7.18 -6.73)" fill="#fff" fill-rule="evenodd"/><path d="M99.07,18.48h5.5a.89.89,0,0,1,.89.9v2.1a19,19,0,0,1,4.91-2.93,15.35,15.35,0,0,1,5-.82,9.88,9.88,0,0,1,7.32,3q2.53,2.58,2.53,7.63V46.83a.89.89,0,0,1-.89.9h-5.41a.89.89,0,0,1-.89-.9V34.92a32.51,32.51,0,0,0-.47-7,4.76,4.76,0,0,0-1.62-2.62,7.39,7.39,0,0,0-3.71-.9A6.44,6.44,0,0,0,108,25.94a8,8,0,0,0-2.19,4.12,32.77,32.77,0,0,0-.32,5.94V46.83a.89.89,0,0,1-.89.9h-5.5a.89.89,0,0,1-.89-.9V19.38a.89.89,0,0,1,.89-.9" transform="translate(-7.18 -6.73)" fill="#fff" fill-rule="evenodd"/><path d="M187.1,22.18l-3.28,3.39a.85.85,0,0,1-1.21,0c-1.57-1.44-3-2.17-4.31-2.17a3.05,3.05,0,0,0-1.89.53,1.61,1.61,0,0,0-.68,1.31,1.63,1.63,0,0,0,.43,1.1,8.11,8.11,0,0,0,2.14,1.37l2.63,1.36a15.41,15.41,0,0,1,5.7,4.3,8.67,8.67,0,0,1,1.55,5.15,8.61,8.61,0,0,1-2.8,6.56,10.5,10.5,0,0,1-7.5,2.63,11.71,11.71,0,0,1-9.49-4.42.92.92,0,0,1,0-1.2l3.27-3.66a.86.86,0,0,1,1.27,0,10.18,10.18,0,0,0,2.32,1.75,6.33,6.33,0,0,0,3,.94,3.49,3.49,0,0,0,2.28-.71,2.05,2.05,0,0,0,.87-1.62q0-1.71-3.13-3.34l-2.41-1.24c-4.63-2.41-6.94-5.41-6.94-9a7.9,7.9,0,0,1,2.62-6,9.32,9.32,0,0,1,6.68-2.48A11.29,11.29,0,0,1,183.49,18a11.51,11.51,0,0,1,3.67,3,.93.93,0,0,1-.06,1.22" transform="translate(-7.18 -6.73)" fill="#fff" fill-rule="evenodd"/><path d="M147.5,17.78c-9.34-.14-17.13,7.73-17.13,17.31A18,18,0,0,0,136,48.17c2.23,2.13,7.77,7.65,10.19,10.08a1.63,1.63,0,0,0,2.33,0c2.38-2.43,7.79-8,10-10.07a18.13,18.13,0,0,0,5.64-13.07A17.12,17.12,0,0,0,147.5,17.78m2.71,9.29c.89,0,1.61,1.43,1.61,3.2s-.72,2.2-1.61,2.2-1.62-.44-1.62-2.2.73-3.2,1.62-3.2m-5.18,0c.89,0,1.62,1.43,1.62,3.2s-.73,2.2-1.62,2.2-1.61-.44-1.61-2.2.72-3.2,1.61-3.2m-4.67,11c-.72,0-1.31-.43-1.31-2.13s.59-3.09,1.31-3.09,1.31,1.38,1.31,3.09S141.09,38,140.36,38m13.13,2.38a3.06,3.06,0,0,1-2.84,2.92,2.94,2.94,0,0,1-1.56-.35h0a3,3,0,0,0-1.58-.46,2.9,2.9,0,0,0-1.46.39h0a3,3,0,0,1-1.74.42,3.05,3.05,0,0,1-2.76-2.77,3.11,3.11,0,0,1,1.27-2.83h0A4.21,4.21,0,0,0,144.13,36a3.74,3.74,0,0,1,3.37-2.43,3.8,3.8,0,0,1,3.39,2.53,4.05,4.05,0,0,0,1.28,1.64h0a3.08,3.08,0,0,1,1.33,2.7M154.64,38c-.72,0-1.31-.43-1.31-2.13s.59-3.09,1.31-3.09S156,34.18,156,35.89,155.36,38,154.64,38" transform="translate(-7.18 -6.73)" fill="#fff" fill-rule="evenodd"/></svg>