<?xml version="1.0" encoding="UTF-8"?>
<svg width="65px" height="62px" viewBox="0 0 65 62" version="1.1" xmlns="http://www.w3.org/2000/svg" xmlns:xlink="http://www.w3.org/1999/xlink">
    <!-- Generator: Sketch 53.2 (72643) - https://sketchapp.com -->
    <title>pawprint</title>
    
    <g id="Page-1" stroke="none" strokeWidth="1" fill="none" fillRule="evenodd">
        <g id="Login" transform="translate(-155.000000, -89.000000)" fill="#000000" fillRule="nonzero">
            <g id="pawprint" transform="translate(187.154329, 117.254834) rotate(-45.000000) translate(-187.154329, -117.254834) translate(154.154329, 86.254834)">
                <path d="M44.9870864,33.6456739 C42.1231801,28.7728365 37.2456049,25.8632214 31.9392691,25.8632214 C26.6329334,25.8632214 21.7553581,28.7728365 18.8919373,33.6456739 L11.9909816,45.3874063 C10.8460018,47.3352703 10.317699,49.5860647 10.4628852,51.8945854 C10.6080712,54.2036356 11.413636,56.3538063 12.7921762,58.1141923 C14.1716875,59.8729895 15.9945265,61.0751785 18.0635507,61.5910076 C20.1325749,62.1068368 22.2535554,61.8865237 24.1968163,60.9549596 L24.3269498,60.8919373 C29.2166643,58.5945383 34.8041466,58.6157223 39.6812363,60.9549596 C40.9393544,61.5581725 42.2722509,61.8632214 43.6172865,61.8632214 C44.3485587,61.8632214 45.0842009,61.77266 45.8130452,61.5915372 C47.8820694,61.0762377 49.7049085,59.8740487 51.0849053,58.1147218 C52.4639311,56.3559247 53.2699813,54.2052244 53.4156531,51.8956446 C53.5613248,49.5860647 53.033022,47.3357999 51.8880422,45.3868768 L44.9870864,33.6456739 Z" id="Path"></path>
                <path d="M11.7972938,33.0592318 C13.8088381,32.223228 15.3370028,30.4693706 16.1001336,28.1204266 C16.8266304,25.8852491 16.7671595,23.3617945 15.9321878,21.0143949 C15.0967403,18.6685396 13.5771394,16.7535557 11.6531364,15.6215532 C9.63207669,14.4329248 7.41167046,14.2393673 5.40345653,15.0769152 C1.36324012,16.7576739 -0.490825193,22.1597818 1.27094131,27.1217522 C2.67826118,31.0711491 5.96058,33.5642315 9.27905725,33.5642315 C10.1263989,33.5642315 10.9761194,33.401561 11.7972938,33.0592318 Z" id="Path"></path>
                <path d="M25.221332,23.8969696 C30.4598527,23.8969696 34.7218254,18.738679 34.7218254,12.3982801 C34.7218254,6.05630858 30.4598527,0.89696962 25.221332,0.89696962 C19.9833049,0.89696962 15.7218254,6.05630858 15.7218254,12.3982801 C15.7218254,18.738679 19.9833049,23.8969696 25.221332,23.8969696 Z" id="Path"></path>
                <path d="M40.9530344,27.4236584 L40.9535638,27.4236584 C41.8180404,27.7099229 42.6999867,27.8467171 43.5782273,27.8467171 C47.676683,27.8467171 51.6708511,24.8705174 53.1949346,20.2966237 C54.0726458,17.66373 54.0149434,14.8797816 53.0324151,12.4581532 C52.0043602,9.92296971 50.0991235,8.08284901 47.6671541,7.27634386 C45.2346556,6.46983858 42.604169,6.80627852 40.2595473,8.22281237 C38.0197427,9.5759665 36.3034945,11.771541 35.4268421,14.4044348 C33.5766609,19.9585992 36.055745,25.7990283 40.9530344,27.4236584 L40.9530344,27.4236584 Z" id="Path"></path>
                <path d="M62.5414126,25.2981367 L62.5400264,25.2965497 C59.1573377,22.4359081 54.0983214,23.6758016 51.2617791,28.0619777 C48.4280092,32.4502696 48.8711179,38.3498139 52.2487239,41.2125715 C53.4805568,42.2572769 54.9360231,42.7566197 56.4256814,42.7566197 C59.0219563,42.7566197 61.723117,41.2395486 63.5288194,38.4497884 C66.3621273,34.0614964 65.9194808,28.1619521 62.5414126,25.2981367 Z" id="Path"></path>
            </g>
        </g>
    </g>
</svg>