<?xml version="1.0" encoding="UTF-8"?>
<svg width="34px" height="41px" viewBox="0 0 34 41" version="1.1" xmlns="http://www.w3.org/2000/svg" xmlns:xlink="http://www.w3.org/1999/xlink">
    <!-- Generator: Sketch 53.2 (72643) - https://sketchapp.com -->
    <title>Group 15</title>
    <desc>Created with Sketch.</desc>
    <defs>
        <polygon id="path-1" points="0 0 34 0 34 41 0 41"></polygon>
    </defs>
    <g id="UI-Aplicativo" stroke="none" stroke-width="1" fill="none" fill-rule="evenodd">
        <g id="Login" transform="translate(-167.000000, -63.000000)">
            <g id="Group-15" transform="translate(167.000000, 63.000000)">
                <mask id="mask-2" fill="white">
                    <use xlink:href="#path-1"></use>
                </mask>
                <g id="Clip-14"></g>
                <path d="M24.4219299,20.2672079 C23.6931785,20.2672079 23.1024027,19.8419605 23.1024027,18.1348283 C23.1024027,16.4279754 23.6931785,15.0441764 24.4219299,15.0441764 C25.1506812,15.0441764 25.7414571,16.4279754 25.7414571,18.1348283 C25.7414571,19.8419605 25.1506812,20.2672079 24.4219299,20.2672079 M23.2609102,22.650045 C23.1875423,24.2131013 21.9432993,25.489681 20.4110599,25.5731669 C19.838626,25.6044391 19.2993172,25.4720903 18.8322812,25.2191198 L18.8300911,25.2224704 C18.3677091,24.9290134 17.8223775,24.7589703 17.2376244,24.7589703 C16.7016007,24.7589703 16.1987021,24.9022086 15.7623273,25.1521077 L15.761506,25.1512701 C15.2531321,25.457571 14.6494895,25.6167247 14.0061516,25.569537 C12.5527553,25.4623177 11.3651808,24.2834639 11.2255628,22.8038935 C11.1149634,21.6322994 11.6493446,20.5799308 12.5086798,19.9704003 L12.5056685,19.9645368 C13.138056,19.5655358 13.625624,18.7055477 13.8470965,18.1934639 C14.441705,16.8183206 15.673355,15.7681858 17.2316017,15.7681858 C18.8279011,15.7681858 20.0417566,16.8830989 20.6506007,18.2967741 C20.8575639,18.7773065 21.3456794,19.5577177 21.9323489,19.9399657 L21.9301588,19.9441539 C22.7727946,20.5232498 23.3134723,21.5239632 23.2609102,22.650045 M10.0535927,20.2672079 C9.32484138,20.2672079 8.73379175,19.8419605 8.73379175,18.1348283 C8.73379175,16.4279754 9.32484138,15.0441764 10.0535927,15.0441764 C10.782344,15.0441764 11.3731199,16.4279754 11.3731199,18.1348283 C11.3731199,19.8419605 10.782344,20.2672079 10.0535927,20.2672079 M14.7524236,9.309061 C15.6489903,9.309061 16.3758253,10.7414438 16.3758253,12.5083284 C16.3758253,14.2754922 15.6489903,14.7158173 14.7524236,14.7158173 C13.8558569,14.7158173 13.1290219,14.2754922 13.1290219,12.5083284 C13.1290219,10.7414438 13.8558569,9.309061 14.7524236,9.309061 M19.9601759,9.309061 C20.8567426,9.309061 21.5835776,10.7414438 21.5835776,12.5083284 C21.5835776,14.2754922 20.8567426,14.7158173 19.9601759,14.7158173 C19.0636091,14.7158173 18.3365004,14.2754922 18.3365004,12.5083284 C18.3365004,10.7414438 19.0636091,9.309061 19.9601759,9.309061 M17.2389932,0.00164448257 C7.83120229,-0.130704333 0,7.74293334 0,17.3387809 C0,22.5224429 2.23470965,27.1613526 5.68683371,30.4323788 C7.92893491,32.556661 13.5013366,38.0885065 15.9421882,40.5171351 C16.5945602,41.1663145 17.6370415,41.1601717 18.282022,40.5031743 C20.677703,38.0633769 26.1225321,32.5329276 28.3279494,30.4186971 C31.75653,27.1320349 34,22.5151832 34,17.3387809 C34,7.84400986 26.517569,0.131759563 17.2389932,0.00164448257" id="Fill-13" fill="#FFFFFF" mask="url(#mask-2)"></path>
            </g>
        </g>
    </g>
</svg>