<?xml version="1.0" encoding="UTF-8"?>
<svg width="125px" height="27px" viewBox="0 0 125 27" version="1.1" xmlns="http://www.w3.org/2000/svg" xmlns:xlink="http://www.w3.org/1999/xlink">
    <!-- Generator: Sketch 53.2 (72643) - https://sketchapp.com -->
    <title>Group 4</title>
    <desc>Created with Sketch.</desc>
    <g id="Page-1" stroke="none" strokeWidth="1" fill="none" fillRule="evenodd">
        <g id="Map-Menu-opened" transform="translate(-38.000000, -128.000000)" fill="#000000">
            <g id="Group-4" transform="translate(32.445436, 120.945436)">
                <text id="Calinos" font-family="SFProText-Bold, SF Pro Text" font-size="22" font-weight="bold" line-spacing="28">
                    <tspan x="49.5545635" y="27.0545635">Calinos</tspan>
                </text>
                <g id="pawprint" transform="translate(20.000000, 19.500000) rotate(-45.000000) translate(-20.000000, -19.500000) translate(6.000000, 6.000000)" fillRule="nonzero">
                    <path d="M19.108294,14.5348421 C17.9094495,12.5044932 15.8676738,11.2921536 13.646417,11.2921536 C11.4251602,11.2921536 9.38338449,12.5044932 8.18474321,14.5348421 L5.29597106,19.4272306 C4.8166772,20.2388406 4.59552718,21.1766716 4.65630279,22.1385552 C4.71707836,23.1006595 5.0542915,23.9965639 5.63135485,24.7300581 C6.2088247,25.4628903 6.9718736,25.9638024 7.83797675,26.1787312 C8.7040799,26.39366 9.59193219,26.3018629 10.4053902,25.9137112 L10.4598647,25.8874519 C12.506722,24.9302023 14.845668,24.9390289 16.8872405,25.9137112 C17.4138946,26.1650499 17.9718512,26.2921536 18.5348894,26.2921536 C18.8410033,26.2921536 19.1489466,26.2544197 19.4540442,26.1789518 C20.3201474,25.9642437 21.0831963,25.4633316 21.6608694,24.7302788 C22.238136,23.9974466 22.5755524,23.1013215 22.6365312,22.1389966 C22.6975101,21.1766716 22.4763601,20.2390613 21.9970662,19.42701 L19.108294,14.5348421 Z" id="Path"></path>
                    <path d="M5.14366068,13.3871339 C6.02371132,13.0351324 6.69228339,12.2966661 7.02615312,11.307637 C7.34399545,10.3665097 7.31797694,9.30400248 6.95267681,8.3156237 C6.58716855,7.32789512 5.92234313,6.52158611 5.08059181,6.04495349 C4.1963782,5.54447837 3.22495048,5.46298047 2.34635688,5.81563224 C0.578762203,6.52332011 -0.232391371,8.79789184 0.538381476,10.8871425 C1.15408392,12.5500465 2.5900984,13.5997654 4.0419322,13.5997654 C4.41264415,13.5997654 4.78439689,13.5312726 5.14366068,13.3871339 Z" id="Path"></path>
                    <path d="M10.4642583,10.0035713 C12.6699513,10.0035713 14.4644661,7.7608363 14.4644661,5.00414113 C14.4644661,2.24676219 12.6699513,0.00357133747 10.4642583,0.00357133747 C8.25877323,0.00357133747 6.46446609,2.24676219 6.46446609,5.00414113 C6.46446609,7.7608363 8.25877323,10.0035713 10.4642583,10.0035713 Z" id="Path"></path>
                    <path d="M17.1811734,11.0900274 L17.1813963,11.0900274 C17.5453865,11.2127122 17.9167323,11.2713383 18.2865178,11.2713383 C20.0121834,11.2713383 21.6939383,9.99582413 22.3356577,8.03558397 C22.7052203,6.90720097 22.6809245,5.71408022 22.2672284,4.67623949 C21.8343632,3.58973227 21.0321583,2.80110912 20.0081712,2.45546405 C18.9839613,2.10981893 17.876388,2.25400748 16.8891788,2.86109341 C15.9461032,3.44101661 15.2234724,4.38197712 14.8543556,5.51036017 C14.0753319,7.89071634 15.1191568,10.3937574 17.1811734,11.0900274 L17.1811734,11.0900274 Z" id="Path"></path>
                    <path d="M26.5045234,11.1985727 L26.5039169,11.1979045 C25.0239906,9.99342381 22.810671,10.5154842 21.5696837,12.3622952 C20.3299094,14.2099971 20.5237694,16.6940157 22.0014721,17.8993874 C22.540399,18.3392633 23.1771655,18.5495129 23.828891,18.5495129 C24.9647612,18.5495129 26.146519,17.9107461 26.9365138,16.7361102 C28.1760861,14.8884084 27.9824282,12.4043897 26.5045234,11.1985727 Z" id="Path"></path>
                </g>
            </g>
        </g>
    </g>
</svg>