<?xml version="1.0" encoding="UTF-8"?>
<svg width="17px" height="16px" viewBox="0 0 17 16" version="1.1" xmlns="http://www.w3.org/2000/svg" xmlns:xlink="http://www.w3.org/1999/xlink">
    <!-- Generator: Sketch 53.2 (72643) - https://sketchapp.com -->
    <title>023-menu</title>
    <desc>Created with Sketch.</desc>
    <g id="UI-Aplicativo" stroke="none" stroke-width="1" fill="none" fill-rule="evenodd">
        <g id="Mapa" transform="translate(-51.000000, -63.000000)" fill="#000000" fill-rule="nonzero">
            <g id="023-menu" transform="translate(51.000000, 63.000000)">
                <path d="M16.2916131,0 L0.708345439,0 C0.317130573,0 0,0.447719216 0,0.999970703 C0,1.55222219 0.317130573,2 0.708345439,2 L16.2916546,2 C16.6828694,2 17,1.55228078 17,0.999970703 C17,0.447660622 16.6828279,0 16.2916131,0 Z" id="Path"></path>
                <path d="M16.2916131,7 L0.708345439,7 C0.317130573,7 0,7.4477061 0,8 C0,8.5522939 0.317130573,9 0.708345439,9 L16.2916546,9 C16.6828694,9 17,8.5522939 17,8 C17,7.4477061 16.6828279,7 16.2916131,7 Z" id="Path"></path>
                <path d="M16.2916131,14 L0.708345439,14 C0.317130573,14 0,14.4477061 0,15 C0,15.5522939 0.317130573,16 0.708345439,16 L16.2916546,16 C16.6828694,16 17,15.5522939 17,15 C17,14.4477061 16.6828279,14 16.2916131,14 Z" id="Path"></path>
            </g>
        </g>
    </g>
</svg>