<?xml version="1.0" encoding="UTF-8"?>
<svg width="22px" height="23px" viewBox="0 0 22 23" version="1.1" xmlns="http://www.w3.org/2000/svg" xmlns:xlink="http://www.w3.org/1999/xlink">
    <!-- Generator: Sketch 53.2 (72643) - https://sketchapp.com -->
    <title>Group 2</title>
    
    <g id="UI-Aplicativo" stroke="none" strokeWidth="1" fill="none" fillRule="evenodd">
        <g id="Menu-aberto" transform="translate(-34.000000, -209.000000)" stroke="#FFFFFF" strokeWidth="1.3">
            <g id="Group-2" transform="translate(35.000000, 210.000000)">
                <path d="M18.5,14 C17.6715768,14 17,13.4300759 17,11.1421469 C17,8.85459211 17.6715768,7 18.5,7 C19.3284232,7 20,8.85459211 20,11.1421469 C20,13.4300759 19.3284232,14 18.5,14" id="Path"></path>
                <path d="M16.9959132,17.7170272 C16.9106958,19.4697727 15.4654978,20.9012754 13.6857899,20.994893 C13.0209034,21.0299604 12.394492,20.88155 11.8520261,20.5978795 L11.8494823,20.6016367 C11.3124219,20.2725664 10.6790151,20.0818873 9.99981974,20.0818873 C9.37722403,20.0818873 8.79310333,20.2425086 8.28625064,20.522735 L8.28529671,20.5217957 C7.6948165,20.8652687 6.99368088,21.0437369 6.24643883,20.9908226 C4.55830776,20.8705914 3.17893073,19.5486744 3.01676331,17.8895464 C2.88830127,16.5757701 3.50898914,15.3956883 4.50711373,14.7121864 L4.503616,14.7056113 C5.23813903,14.2581884 5.80445311,13.293834 6.06169516,12.7196047 C6.7523376,11.177577 8.18290865,10 9.99282428,10 C11.8469385,10 13.2568411,11.2502166 13.9640183,12.8354525 C14.2044077,13.3743012 14.7713577,14.2494215 15.4527788,14.6780583 L15.450235,14.6827548 C16.4289631,15.3321286 17.0569644,16.4542865 16.9959132,17.7170272" id="Path"></path>
                <path d="M1.50015559,14 C0.671818276,14 0,13.4300759 0,11.1421469 C0,8.85459211 0.671818276,7 1.50015559,7 C2.32849289,7 3,8.85459211 3,11.1421469 C3,13.4300759 2.32849289,14 1.50015559,14" id="Path"></path>
                <path d="M7,0 C8.10455312,0 9,1.85447222 9,4.14201611 C9,6.4299215 8.10455312,7 7,7 C5.89544688,7 5,6.4299215 5,4.14201611 C5,1.85447222 5.89544688,0 7,0" id="Path"></path>
                <path d="M13.0001686,0 C14.1046286,0 15,1.85447222 15,4.14201611 C15,6.4299215 14.1046286,7 13.0001686,7 C11.8957086,7 11,6.4299215 11,4.14201611 C11,1.85447222 11.8957086,0 13.0001686,0" id="Path"></path>
            </g>
        </g>
    </g>
</svg>