<?xml version="1.0" encoding="UTF-8"?>
<svg width="28px" height="23px" viewBox="0 0 28 23" version="1.1" xmlns="http://www.w3.org/2000/svg" xmlns:xlink="http://www.w3.org/1999/xlink">
    <!-- Generator: Sketch 53.2 (72643) - https://sketchapp.com -->
    <title>Group 2</title>
    <desc>Created with Sketch.</desc>
    <g id="UI-Aplicativo" stroke="none" stroke-width="1" fill="none" fill-rule="evenodd">
        <g id="Mapa" transform="translate(-57.000000, -767.000000)" fill="#0FA5A3">
            <g id="Group-3" transform="translate(1.000000, 746.000000)">
                <g id="Group-2" transform="translate(56.000000, 21.000000)">
                    <path d="M25.5,16 C24.1192946,16 23,15.3486582 23,12.7338822 C23,10.1195338 24.1192946,8 25.5,8 C26.8807054,8 28,10.1195338 28,12.7338822 C28,15.3486582 26.8807054,16 25.5,16" id="Path"></path>
                    <path d="M23.9941617,18.821671 C23.8724225,21.052438 21.8078541,22.8743505 19.2654141,22.9935001 C18.3155763,23.0381314 17.4207029,22.8492454 16.6457516,22.4882103 L16.6421176,22.4929922 C15.8748885,22.0741755 14.9700215,21.8314929 13.9997425,21.8314929 C13.11032,21.8314929 12.2758619,22.0359201 11.5517866,22.3925718 L11.5504239,22.3913763 C10.7068807,22.8285238 9.7052584,23.0556651 8.63776976,22.9883197 C6.22615394,22.8352982 4.25561534,21.1528583 4.02394759,19.0412409 C3.84043039,17.3691619 4.72712734,15.8672397 6.15301961,14.9973282 L6.14802286,14.9889598 C7.19734148,14.4195125 8.00636159,13.1921523 8.37385023,12.4613151 C9.36048228,10.4987343 11.4041552,9 13.989749,9 C16.6384836,9 18.6526302,10.5911848 19.6628833,12.6087577 C20.0062966,13.2945652 20.8162253,14.4083547 21.7896841,14.9538924 L21.78605,14.9598698 C23.184233,15.7863455 24.0813777,17.2145464 23.9941617,18.821671" id="Path"></path>
                    <path d="M2.50025931,16 C1.11969713,16 0,15.3486582 0,12.7338822 C0,10.1195338 1.11969713,8 2.50025931,8 C3.88082149,8 5,10.1195338 5,12.7338822 C5,15.3486582 3.88082149,16 2.50025931,16" id="Path"></path>
                    <path d="M10,0 C11.6568297,0 13,2.11939682 13,4.7337327 C13,7.34848172 11.6568297,8 10,8 C8.34317032,8 7,7.34848172 7,4.7337327 C7,2.11939682 8.34317032,0 10,0" id="Path"></path>
                    <path d="M19.0002529,0 C20.6569429,0 22,2.11939682 22,4.7337327 C22,7.34848172 20.6569429,8 19.0002529,8 C17.3435629,8 16,7.34848172 16,4.7337327 C16,2.11939682 17.3435629,0 19.0002529,0" id="Path"></path>
                </g>
            </g>
        </g>
    </g>
</svg>