<?xml version="1.0" encoding="UTF-8"?>
<svg width="40px" height="49px" viewBox="0 0 40 49" version="1.1" xmlns="http://www.w3.org/2000/svg" xmlns:xlink="http://www.w3.org/1999/xlink">
    <!-- Generator: Sketch 53.2 (72643) - https://sketchapp.com -->
    <title>Fill 13</title>
    <desc>Created with Sketch.</desc>
    <g id="UI-Aplicativo" stroke="none" stroke-width="1" fill="none" fill-rule="evenodd">
        <g id="Mapa" transform="translate(-116.000000, -216.000000)" fill="#4887FF">
            <g id="Group-15" transform="translate(116.000000, 216.000000)">
                <path d="M28.773472,24.2489333 C27.921632,24.2489333 27.231072,23.7412667 27.231072,21.7032667 C27.231072,19.6656 27.921632,18.0136 28.773472,18.0136 C29.625312,18.0136 30.315872,19.6656 30.315872,21.7032667 C30.315872,23.7412667 29.625312,24.2489333 28.773472,24.2489333 M27.416352,27.0936 C27.330592,28.9596 25.876192,30.4836 24.085152,30.5832667 C23.416032,30.6206 22.785632,30.4626 22.239712,30.1606 L22.237152,30.1646 C21.696672,29.8142667 21.059232,29.6112667 20.375712,29.6112667 C19.749152,29.6112667 19.161312,29.7822667 18.651232,30.0806 L18.650272,30.0796 C18.056032,30.4452667 17.350432,30.6352667 16.598432,30.5789333 C14.899552,30.4509333 13.511392,29.0436 13.348192,27.2772667 C13.218912,25.8786 13.843552,24.6222667 14.848032,23.8946 L14.844512,23.8876 C15.583712,23.4112667 16.153632,22.3846 16.412512,21.7732667 C17.107552,20.1316 18.547232,18.8779333 20.368672,18.8779333 C22.234592,18.8779333 23.653472,20.2089333 24.365152,21.8966 C24.607072,22.4702667 25.177632,23.4019333 25.863392,23.8582667 L25.860832,23.8632667 C26.845792,24.5546 27.477792,25.7492667 27.416352,27.0936 M11.978272,24.2489333 C11.126432,24.2489333 10.435552,23.7412667 10.435552,21.7032667 C10.435552,19.6656 11.126432,18.0136 11.978272,18.0136 C12.830112,18.0136 13.520672,19.6656 13.520672,21.7032667 C13.520672,23.7412667 12.830112,24.2489333 11.978272,24.2489333 M17.470752,11.1669333 C18.518752,11.1669333 19.368352,12.8769333 19.368352,14.9862667 C19.368352,17.0959333 18.518752,17.6216 17.470752,17.6216 C16.422752,17.6216 15.573152,17.0959333 15.573152,14.9862667 C15.573152,12.8769333 16.422752,11.1669333 17.470752,11.1669333 M23.558112,11.1669333 C24.606112,11.1669333 25.455712,12.8769333 25.455712,14.9862667 C25.455712,17.0959333 24.606112,17.6216 23.558112,17.6216 C22.510112,17.6216 21.660192,17.0959333 21.660192,14.9862667 C21.660192,12.8769333 22.510112,11.1669333 23.558112,11.1669333 M20.377312,0.0556 C9.380512,-0.1024 0.226592,9.29726667 0.226592,20.7529333 C0.226592,26.9412667 2.838752,32.4792667 6.873952,36.3842667 C9.494752,38.9202667 16.008352,45.5242667 18.861472,48.4236 C19.624032,49.1986 20.842592,49.1912667 21.596512,48.4069333 C24.396832,45.4942667 30.761312,38.8919333 33.339232,36.3679333 C37.346912,32.4442667 39.969312,26.9326 39.969312,20.7529333 C39.969312,9.41793333 31.223072,0.210933333 20.377312,0.0556" id="Fill-13"></path>
            </g>
        </g>
    </g>
</svg>