<svg xmlns="http://www.w3.org/2000/svg" xmlns:xlink="http://www.w3.org/1999/xlink" width="374" height="351.03" viewBox="0 0 374 351.03"><defs><clipPath id="a"><rect width="374" height="351.03" fill="none"/></clipPath><clipPath id="b"><path d="M56.62-46.39c17.25,6.28,79,34.86,189.38,0s175.52-63,217.28,37.07,38.08,128.06,9,234.92-39.51,28-170.59,75-191.49,60.81-276.22,43S-175.39,286.79-152,213.72-87.22-62.86-14.23-75.45,56.62-46.39,56.62-46.39Z" fill="none" clip-rule="evenodd"/></clipPath><clipPath id="c"><path d="M-401.5,222.5q506-139.68,769-48.84T288.25,357.53Q-75.42,384.82-142,355T-401.5,222.5Z" fill="none" clip-rule="evenodd"/></clipPath><clipPath id="d"><path d="M334.07,285.56c0,6.87-66.5,12.44-148.54,12.44S37,292.43,37,285.56s66.5-12.44,148.53-12.44,148.54,5.57,148.54,12.44" fill="none" clip-rule="evenodd"/></clipPath><clipPath id="e"><rect x="-1" width="375" height="812" fill="none"/></clipPath><clipPath id="f"><path d="M198,160.5a150.43,150.43,0,0,1-34.44,3.62s-27.89,5.1-29.24,1.73c0,0-1-1,8.8-2.92,0,0-13.51-.21-13.26-3,0,0-.35-1.55,11.08-.51-4.56-.59-14.29-2.17-13.93-4.92,0,0,.46-2.34,13.84.36-3.06-.79-11.74-3.15-11.21-5,.35-2.58,10.31,1.08,22.58,3.23,0,0-8.21-7.18-6.43-9.44,0,0-1-2.72,5.84,3.22a27.32,27.32,0,0,0,3.28,2.47c2.12,1.39,6.93,4.12,7.84,5.42a146.24,146.24,0,0,1,17.08-7.21Z" fill="none" clip-rule="evenodd"/></clipPath><clipPath id="h"><path d="M244.43,115.65,229,143.18,226.82,147A20.68,20.68,0,0,1,214.6,157s-.09,0-.11,0c-5.47,1.52-10.9,2.87-16.35,4L180,148.14c10.4-3.63,20.9-6.25,31.79-9.07l11.32-30.7a12.41,12.41,0,0,1,8.28-7.68l.08,0c2.58-.71,5.71-1,8.35,0a9.42,9.42,0,0,1,5.91,6.79,8.2,8.2,0,0,1,.21,1.27,11.63,11.63,0,0,1-1.51,6.88" fill="none" clip-rule="evenodd"/></clipPath><clipPath id="j"><path d="M270,273.19l16.66.8h.12c6,.24,11-5,11.21-11.19l0-.53a16.53,16.53,0,0,1,3.08-9.08l5.62-7.83c3.09-4.3.31-10.42-4.87-10.72L291.2,234l-13.85,10.77,5.37,18.13Z" fill="none" clip-rule="evenodd"/></clipPath><clipPath id="l"><path d="M298.24,203.69s12.39,32.77-15.32,46.27l-9.18,4L220,203l17.84-12Z" fill="none" clip-rule="evenodd"/></clipPath><clipPath id="n"><polygon points="215 110.99 226.39 117 235 104.67 215 92 215 110.99" fill="none" clip-rule="evenodd"/></clipPath><clipPath id="p"><path d="M179.71,91.82a42.37,42.37,0,0,0,4.07,7.42,4.77,4.77,0,0,1,.93,3.57l-1,6.21a1.41,1.41,0,0,0,.88,1.54,5.26,5.26,0,0,0,3.44.22s4.45,5.5,10.6,7.75a8.18,8.18,0,0,0,6-.21c20.38-8.63,22.95-22.38,11.94-41.22a18.69,18.69,0,0,0-10.84-8.49c-7.16-2.12-19.92-4-25.72,7a18.61,18.61,0,0,0-.29,16.19" fill="none" clip-rule="evenodd"/></clipPath><clipPath id="r"><path d="M179.76,67.83c-2.69,2.61-6.62,8.74-6.75,12.86-.43,14,10.18,9.76,12.23,8.84-.35-1.61-1.05-3.52-.89-5.25,3.48,1.66,7.29,2.48,10.51,4.61,2.55,1.69,4.29,4.17,6.28,6.44,1.09-3-.09-6,3.36-7.83a7.31,7.31,0,0,1,7.89.67c4.24,3.55,4.56,13.25-2.21,14.12a19,19,0,0,0,17.28-3.83c1.61-3.63,2.08-13.44.83-17.18-6.33-19.06-11.07-21.87-22-23.12C197,57.09,186.15,61.61,179.76,67.83Z" fill="none" clip-rule="evenodd"/></clipPath><clipPath id="t"><path d="M232,98.85a26.45,26.45,0,0,0-11.17,32.33c4,10.22,12.41,20.62,22,31.12a15,15,0,0,1,.76,19.39l-8.14,10.37s32.15,39.45,66.13,30.66c0,0,1.61-31.92-1.21-48.23-5.27-30.35-12.16-48.22-40.15-70.47C250,95.93,241.24,93.51,232,98.85Z" fill="none" clip-rule="evenodd"/></clipPath><clipPath id="v"><path d="M281,247.74,266.1,259c-19.67-14.22-43.5-21.63-63.9-46.32-6.82-8.26-5.26-20.52,4.12-25.67a16.24,16.24,0,0,1,19.59,3Z" fill="none" clip-rule="evenodd"/></clipPath><clipPath id="x"><path d="M225,180.19A152.8,152.8,0,0,1,198.17,197s-22.74,17.12-25.47,14.79c0,0-1.36-.4,6.5-6.48-1.13.5-12.18,5.73-13.2,3.27,0,0-1.05-1.23,10.32-5.7-4,1.47-14.38,4.95-15.31,2.22,0,0-.66-2.29,12.94-6-2.67.63-12.31,2.75-12.69.8-.85-2.41,9.74-3.74,21.75-7.41,0,0-10.63-2.58-10-5.35,0,0-2.16-1.93,6.69.17a28.36,28.36,0,0,0,4.07.69c2.54.24,8.06.45,9.48,1.18A160.16,160.16,0,0,1,210.41,170Z" fill="none" clip-rule="evenodd"/></clipPath><clipPath id="z"><path d="M248,116.28l-1.57,36.09A20.74,20.74,0,0,1,240,166.85a.14.14,0,0,1-.09.09c-5,4.57-10.05,8.95-15.31,13.06L210,169.71c6.19-6,12.7-11.68,19.33-17.55l-1.08-9.38-2.7-23.24a12.44,12.44,0,0,1,3.95-10.65l.06-.06c2-1.82,4.63-3.56,7.5-3.79a9.44,9.44,0,0,1,8.29,3.24l.12.13a11.4,11.4,0,0,1,2.52,7.87" fill="none" clip-rule="evenodd"/></clipPath><clipPath id="ab"><path d="M285.09,268.19c-4.47,2.57-8.56,8.12-12.58,14.24a8.28,8.28,0,0,1-6,2.57H256.4c-4.25.12-6.06-5.62-2.52-8.06a26.35,26.35,0,0,1,7.23-3.26,16,16,0,0,0,4.93-2.52,15.13,15.13,0,0,0,5.56-9.36c-1.55-1.31-3.14-2.57-4.75-3.76L281,247l6.51,7a9,9,0,0,1-2.46,14.17" fill="none" clip-rule="evenodd"/></clipPath><clipPath id="ad"><path d="M107.68,267.85c-1.25,1.1-3.67,1.33-5.32,1.77a36.83,36.83,0,0,1-9,1.61c-6.11.12-12.71-2.27-16.64-7.33-3.11-4-5.26-11.84-5.18-16.81a32.72,32.72,0,0,1,1.92-9.79,21.4,21.4,0,0,0-3.09,3c-.33-4.38,1.88-10.19,3.91-14,1.6-3,4.52-5.48,5.78-8.54a36.93,36.93,0,0,0-7.61,2.37c0-4.66,6.17-7.72,7.27-12.17-10,.21-19.61,6.44-26.56,13.29-5,4.91-9.46,9.67-11.54,16.52a38.9,38.9,0,0,0-.83,19.32c4.89,22.66,33.64,36.34,53.39,24.54,1.92-1.15,15.17-12.15,13.65-13.34Z" fill="none" clip-rule="evenodd"/></clipPath><clipPath id="af"><path d="M161.17,122.65c-.06-.15-.11-.3-.17-.43.06.15.09.28.15.43-6.29,6.56-9.65,1.35-11-1.65-.34.2-.67.45-1,.68,0,0-2.25,2-5.63,4.57a81.32,81.32,0,0,1-7.25,4.86,4,4,0,0,1-4.69-.47,14.64,14.64,0,0,0-3.37-2.21l-.93-.42a15.33,15.33,0,0,0-3.92-1.26,14.91,14.91,0,0,0-2.76-.24,14.28,14.28,0,0,0-6.63,1.68,23.22,23.22,0,0,0-4.81-.07c-7.17.5-20.7,4-29.42,22,0,0,19.42-10.62,30.87-8.91l.24.31-2.39,25.55c-.29,1.68-.57,3.29-.81,4.82a43.1,43.1,0,0,1-9.24,20.75,94.89,94.89,0,0,0-10.08,14.69c-.16.28-.33.57-.47.87,0,0,0,0,0,0C76.06,229.94,73.18,255.31,76,283l38.09-20.28,17.06-19.08,1.73-1.73c.73-.73,1.44-1.47,2.13-2.21,14.79-16.06,19.78-38.93,14.17-60.08l-.5-1.88-6.07-17.55-3.74-10.85a.23.23,0,0,1-.15,0,9.52,9.52,0,0,1-4.41-.94,17.71,17.71,0,0,1-5.59-4.52.46.46,0,0,1,0-.64.43.43,0,0,1,.62,0c3.13,3.59,6.18,5.27,9.32,5.18a.45.45,0,0,1,.46.43v0a31.52,31.52,0,0,0,11.25-1c5.36-1.67,9.92-5.44,11.15-13.09,0,0,1.2-7.4-.4-12.18" fill="none" clip-rule="evenodd"/></clipPath><clipPath id="ah"><path d="M142,287H76.75c-.06-.2-.13-.39-.19-.59-7.42-23,12.78-45.56,36.26-40.76l2.39.49a30,30,0,0,1,9.76,3.79c18.9,11.66,3.77,26.27,3.77,26.27C143.15,276.2,142,287,142,287" fill="none" clip-rule="evenodd"/></clipPath><clipPath id="aj"><path d="M150,121.63c5.09-3.32,8.23-3.17,10.15-1.36.1.08.2.21.3.31s.3.35.42.54a8.7,8.7,0,0,1,1,1.87c.06.17.1.32.16.48C155.11,130.79,151.43,125,150,121.63Z" fill="none" clip-rule="evenodd"/></clipPath><clipPath id="al"><path d="M113.4,130a21.7,21.7,0,0,0-4.79-.08c-4-6.61-17.61-12.15-17.61-12.15,20.53-7.34,29,10.48,29,10.48A13.74,13.74,0,0,0,113.4,130Z" fill="none" clip-rule="evenodd"/></clipPath><clipPath id="an"><path d="M160,121.83a3,3,0,1,1,1.8-3.86,3,3,0,0,1-1.8,3.86" fill="none" clip-rule="evenodd"/></clipPath><clipPath id="ap"><path d="M163,285H144.74l-14-41.26-8.58-25.27c-4.15-12.59-1.69-20.68,2.13-25.7a11.75,11.75,0,0,1,1.42-1.56,12.32,12.32,0,0,1,7.36-3.16h0c.34,0,.69,0,1,0a13.12,13.12,0,0,1,8,2.71,12.44,12.44,0,0,1,4.88,8.95l1.84,24.11,3.83,50.69C164.06,275.89,163,285,163,285" fill="none" clip-rule="evenodd"/></clipPath><clipPath id="ar"><polygon points="127.2 146.13 126 142 133.2 143.38 138 148.88 136.8 153 127.2 146.13" fill="none" clip-rule="evenodd"/></clipPath><clipPath id="at"><rect x="277" y="26" width="121" height="208" fill="none"/></clipPath><clipPath id="av"><rect x="277" y="26" width="121" height="209" fill="none"/></clipPath><clipPath id="aw"><path d="M362.26,149c-1.23-3.69-3.25-8.46-5.1-13.3-2-4.77-4.11-9.5-5.67-13.06s-2.81-5.82-2.81-5.82a50.71,50.71,0,0,0,8.16-11.57,68.05,68.05,0,0,0,5.37-14.54c2.51-10.32,2.63-21.6-.14-30.92-5.08,6.94-8.69,16.4-11.28,26.29-2.42,9.82-3.73,20-3.1,28.69,0,0-1.18-2.65-3.28-6.46s-4.7-9-7.7-13.93c-5.77-10-12.37-19.57-12.37-19.57a.92.92,0,0,0-.26-.26c4.2-6,7.23-14.43,8-23.16A52.35,52.35,0,0,0,328.69,26c-3.59,6.49-5.74,15.13-6.58,23.75a72,72,0,0,0,1.16,24.63,1,1,0,0,0-.33.15.92.92,0,0,0-.26.26c-5.93-4.31-14.28-6.93-22.48-7.73-8.38-.68-16.69.51-23.2,3.4,5.64,3.24,13.54,5.15,21.65,6.17,8.26.86,16.72.82,23.89-1a1,1,0,0,0,.14.34l.94,1.34c.58.86,1.45,2.06,2.39,3.58,1.88,3,4.54,7,6.95,11.07,4.91,8.15,9.29,16.59,9.29,16.59-6.59-5.6-15.84-9.6-25.24-11.37S297.93,95.82,290,98.47c6.36,4.36,15.31,7.67,24.84,9.92s19.69,3.3,28.52,2.12c0,0,1.15,2.11,2.68,5.37s3.75,7.53,5.59,12,3.86,8.8,5.11,12.18l2.19,5.59a52.55,52.55,0,0,0-10.6-8.51,67.09,67.09,0,0,0-13.06-5.92c-9.28-2.88-18.8-3.69-27-2.07,5.74,5.16,14.21,9.57,23.42,13s19.18,5.7,28.05,5.65c0,0,.72,2,1.78,5.12S364,160,365.21,164.2s2.56,8.29,3.32,11.46l1.38,5.24a46.79,46.79,0,0,0-8-8,58.34,58.34,0,0,0-10.24-6.16,47.57,47.57,0,0,0-22-4.7,45.77,45.77,0,0,0,7.93,7.2,70.24,70.24,0,0,0,10.19,6.3c7.28,3.8,15.31,6.73,22.68,7.55,0,0,3,12.32,5.05,24.84.88,6.27,1.93,12.52,2.3,17.26s.78,7.88.78,7.88a1,1,0,0,0,1.1.93,1,1,0,0,0,.91-1.09s-.24-2.42-.61-6.06-.91-8.48-1.63-13.3-1.54-9.62-2.18-13.22c-.32-1.8-.59-3.3-.78-4.35l-.36-1.63c6.15-3.89,12.12-10.47,16.3-18.21a62.65,62.65,0,0,0,5-12.22A48.43,48.43,0,0,0,398,151.55c-11.07,8.85-20.52,26.43-23.42,40.57,0,0-1.82-8.86-4.25-17.56-1.07-4.4-2.55-8.68-3.49-11.93l-1.19-3.92c-.33-.93-.51-1.47-.51-1.47,6.77-5.43,13.07-14.19,16.79-24.07,3.9-9.92,5.43-21,3.95-30.65-5.8,6.13-10.94,15.17-14.61,24.53s-6.32,19.33-6.88,28Z" fill="none" clip-rule="evenodd"/></clipPath><clipPath id="ax"><rect x="277" y="26" width="97" height="208" fill="none"/></clipPath><clipPath id="ay"><rect x="320" y="168" width="67" height="115" fill="none"/></clipPath><clipPath id="ba"><rect x="320" y="168" width="67" height="116" fill="none"/></clipPath><clipPath id="bb"><path d="M367.21,236c-.68-2-1.8-4.67-2.82-7.35s-2.28-5.25-3.14-7.22-1.56-3.22-1.56-3.22a27.6,27.6,0,0,0,4.52-6.4,37.27,37.27,0,0,0,3-8,33.73,33.73,0,0,0-.08-17.09c-2.81,3.84-4.8,9.07-6.24,14.54a52.85,52.85,0,0,0-1.72,15.86s-.65-1.47-1.81-3.57-2.61-5-4.27-7.71c-3.19-5.55-6.85-10.82-6.85-10.82a.93.93,0,0,0-.14-.14,27.17,27.17,0,0,0,4.44-12.8,28.91,28.91,0,0,0-1.89-14A34.91,34.91,0,0,0,345,181.13a40,40,0,0,0,.64,13.62.58.58,0,0,0-.18.08.4.4,0,0,0-.14.15,26.07,26.07,0,0,0-12.45-4.28A27,27,0,0,0,320,192.58c3.12,1.79,7.5,2.85,12,3.41a38.28,38.28,0,0,0,13.22-.57.82.82,0,0,0,.09.19l.51.74c.33.47.81,1.14,1.33,2,1,1.67,2.51,3.85,3.85,6.12,2.72,4.5,5.14,9.17,5.14,9.17a32.4,32.4,0,0,0-28.95-5.55c3.52,2.41,8.47,4.24,13.75,5.48s10.9,1.83,15.79,1.18c0,0,.64,1.16,1.49,3s2.07,4.17,3.09,6.62,2.14,4.87,2.83,6.74l1.22,3.09a29.3,29.3,0,0,0-5.87-4.71,36.84,36.84,0,0,0-7.24-3.27A31.17,31.17,0,0,0,337.29,225c3.18,2.86,7.87,5.29,13,7.18a46.67,46.67,0,0,0,15.53,3.12s.4,1.13,1,2.83,1.4,4,2.07,6.27,1.41,4.58,1.83,6.33l.77,2.9a26.4,26.4,0,0,0-4.42-4.42,32.56,32.56,0,0,0-5.67-3.41,26.57,26.57,0,0,0-12.18-2.6,25.58,25.58,0,0,0,4.39,4,39,39,0,0,0,5.64,3.48,37.18,37.18,0,0,0,12.56,4.17s1.65,6.82,2.79,13.73c.49,3.47,1.07,6.93,1.28,9.55s.43,4.36.43,4.36a.57.57,0,0,0,.61.51.54.54,0,0,0,.5-.6s-.13-1.34-.33-3.35-.51-4.69-.91-7.36-.85-5.32-1.2-7.31c-.19-1-.33-1.82-.44-2.4s-.2-.9-.2-.9a27.66,27.66,0,0,0,9-10.07,35.11,35.11,0,0,0,2.75-6.76,26.46,26.46,0,0,0,.92-6.84c-6.13,4.9-11.36,14.62-13,22.44,0,0-1-4.9-2.35-9.72-.6-2.43-1.41-4.79-1.93-6.59-.28-.9-.5-1.64-.67-2.16s-.28-.82-.28-.82a31.84,31.84,0,0,0,9.3-13.31,33.68,33.68,0,0,0,2.19-16.94,43.33,43.33,0,0,0-8.09,13.56,51.77,51.77,0,0,0-3.81,15.5Z" fill="none" clip-rule="evenodd"/></clipPath><clipPath id="bc"><rect x="320" y="168" width="54" height="115" fill="none"/></clipPath><clipPath id="bd"><rect x="-15" y="161" width="75" height="129" fill="none"/></clipPath><clipPath id="be"><path d="M7.15,236.68c.76-2.27,2-5.21,3.16-8.18s2.55-5.85,3.52-8,1.74-3.58,1.74-3.58a31.41,31.41,0,0,1-5.06-7.12,42,42,0,0,1-3.33-8.95,37.48,37.48,0,0,1,.09-19c3.15,4.27,5.38,10.1,7,16.18a58.87,58.87,0,0,1,1.93,17.65s.73-1.63,2-4,2.92-5.52,4.78-8.58c3.58-6.18,7.67-12,7.67-12a.57.57,0,0,1,.16-.15,30.14,30.14,0,0,1-5-14.26A32,32,0,0,1,28,161,38.68,38.68,0,0,1,32,175.61a44,44,0,0,1-.72,15.16,1,1,0,0,1,.21.09.75.75,0,0,1,.15.16c3.68-2.65,8.85-4.26,13.94-4.75A30.43,30.43,0,0,1,60,188.36c-3.49,2-8.39,3.17-13.42,3.79a43.19,43.19,0,0,1-14.81-.63.64.64,0,0,1-.09.21s-.2.3-.57.82-.91,1.27-1.49,2.21c-1.16,1.86-2.81,4.28-4.31,6.81-3,5-5.76,10.21-5.76,10.21a34.76,34.76,0,0,1,15.65-7A34.59,34.59,0,0,1,52,205.6c-3.95,2.68-9.49,4.72-15.4,6.1s-12.2,2-17.68,1.31c0,0-.71,1.29-1.66,3.3s-2.32,4.64-3.47,7.37-2.39,5.41-3.16,7.49l-1.36,3.44a32.38,32.38,0,0,1,6.57-5.23,41.84,41.84,0,0,1,8.1-3.65,35.07,35.07,0,0,1,16.73-1.27c-3.55,3.17-8.81,5.89-14.52,8S14.24,236,8.74,235.92c0,0-.44,1.26-1.11,3.15s-1.56,4.41-2.31,7-1.58,5.11-2.05,7.06-.86,3.22-.86,3.22a28.83,28.83,0,0,1,5-4.92,35.65,35.65,0,0,1,6.35-3.79,29.6,29.6,0,0,1,13.63-2.89,28.45,28.45,0,0,1-4.91,4.43A45.29,45.29,0,0,1,16.11,253a41.9,41.9,0,0,1-14.06,4.64S.2,265.25-1.08,273c-.54,3.87-1.19,7.71-1.42,10.63S-3,288.43-3,288.43a.63.63,0,0,1-.68.57.61.61,0,0,1-.56-.67s.15-1.49.37-3.73.57-5.22,1-8.19,1-5.92,1.36-8.13c.2-1.11.36-2,.48-2.68l.22-1a30.77,30.77,0,0,1-10.1-11.21A38.47,38.47,0,0,1-14,245.87a29.5,29.5,0,0,1-1-7.61c6.86,5.45,12.72,16.27,14.52,25,0,0,1.13-5.46,2.63-10.81.67-2.71,1.58-5.34,2.16-7.34l.74-2.41c.2-.58.32-.91.32-.91A35.5,35.5,0,0,1-5,227a37.27,37.27,0,0,1-2.45-18.86c3.6,3.77,6.78,9.33,9.06,15.1a57.12,57.12,0,0,1,4.26,17.25Z" fill="none" clip-rule="evenodd"/></clipPath><clipPath id="bf"><rect x="-1" y="161" width="61" height="128" fill="none"/></clipPath><clipPath id="bg"><rect x="-24.5" y="32.27" width="121" height="208" fill="none"/></clipPath><clipPath id="bh"><rect x="-0.5" y="6.27" width="375" height="812" fill="none"/></clipPath><clipPath id="bi"><rect x="-24.5" y="32.27" width="121" height="209" fill="none"/></clipPath><clipPath id="bj"><path d="M11.24,155.24c1.23-3.68,3.25-8.46,5.1-13.29,2-4.78,4.11-9.51,5.67-13.06s2.81-5.83,2.81-5.83a50.27,50.27,0,0,1-8.16-11.57A68.05,68.05,0,0,1,11.29,97C8.78,86.63,8.66,75.35,11.43,66c5.08,6.94,8.69,16.41,11.28,26.3,2.42,9.82,3.73,20,3.1,28.68,0,0,1.18-2.65,3.28-6.45s4.7-9,7.7-13.94c5.77-10,12.37-19.57,12.37-19.57a1,1,0,0,1,.26-.25c-4.2-6-7.23-14.43-8-23.17a52.32,52.32,0,0,1,3.41-25.36C48.4,38.76,50.55,47.4,51.39,56a72,72,0,0,1-1.16,24.64,1,1,0,0,1,.33.14,1.1,1.1,0,0,1,.26.27c5.93-4.32,14.28-6.93,22.48-7.73,8.38-.69,16.69.51,23.2,3.4C90.86,80,83,81.88,74.85,82.89s-16.72.83-23.89-1a1.11,1.11,0,0,1-.14.34l-.94,1.34c-.58.86-1.45,2.06-2.39,3.58-1.88,3-4.54,7-7,11.07-4.91,8.14-9.29,16.59-9.29,16.59,6.59-5.61,15.84-9.6,25.24-11.38s19.08-1.32,27.05,1.34c-6.36,4.36-15.31,7.67-24.84,9.92S39,118,30.18,116.78c0,0-1.15,2.1-2.68,5.37s-3.75,7.53-5.59,12-3.86,8.8-5.11,12.19-2.19,5.59-2.19,5.59a52.21,52.21,0,0,1,10.6-8.51,67.09,67.09,0,0,1,13.06-5.92c9.28-2.89,18.8-3.69,27-2.08-5.74,5.17-14.21,9.57-23.42,13s-19.18,5.7-28,5.64c0,0-.72,2.05-1.78,5.13s-2.53,7.16-3.73,11.33S5.73,178.76,5,181.92l-1.38,5.25a46.44,46.44,0,0,1,8-8A57.79,57.79,0,0,1,21.81,173a47.83,47.83,0,0,1,22-4.7,45.81,45.81,0,0,1-7.93,7.21,71.12,71.12,0,0,1-10.19,6.3c-7.28,3.8-15.31,6.73-22.68,7.55,0,0-3,12.32-5,24.83-.88,6.28-1.93,12.53-2.3,17.27s-.78,7.88-.78,7.88a1,1,0,0,1-1.1.92,1,1,0,0,1-.91-1.09s.24-2.42.61-6.06.91-8.48,1.63-13.3,1.54-9.62,2.18-13.22c.32-1.8.59-3.29.78-4.34l.36-1.64c-6.15-3.88-12.12-10.46-16.3-18.21a62.82,62.82,0,0,1-5-12.21,48.49,48.49,0,0,1-1.66-12.37C-13.43,166.67-4,184.25-1.08,198.39c0,0,1.82-8.86,4.25-17.57,1.07-4.4,2.55-8.67,3.49-11.93.49-1.62.9-3,1.19-3.91s.51-1.47.51-1.47c-6.77-5.44-13.07-14.19-16.79-24.07-3.9-9.92-5.43-21-4-30.66,5.8,6.14,10.94,15.17,14.61,24.54s6.32,19.33,6.88,28Z" fill="none" clip-rule="evenodd"/></clipPath><clipPath id="bk"><rect x="-0.5" y="32.27" width="97" height="208" fill="none"/></clipPath></defs><title>post-illustration</title><g clip-path="url(#a)"><g clip-path="url(#b)"><rect x="-80.89" y="-177.49" width="539.17" height="612" transform="translate(3.4 261.87) rotate(-70)" fill="#f9c0cf"/><g clip-path="url(#c)"><rect x="-127.19" y="-190.35" width="333.29" height="864.8" transform="translate(-203.55 209.01) rotate(-73)" fill="#ecb0bd"/></g></g><g clip-path="url(#d)"><g clip-path="url(#e)"><rect x="32" y="268.12" width="307.07" height="34.88" fill="#ce93a1"/></g></g><g clip-path="url(#f)"><g clip-path="url(#e)"><rect x="122" y="138" width="81" height="34" fill="#905a3c"/></g></g><g clip-path="url(#h)"><g clip-path="url(#e)"><rect x="175" y="95" width="76" height="71" fill="#dc1d49"/></g></g><g clip-path="url(#j)"><g clip-path="url(#e)"><rect x="265" y="229" width="48" height="50" fill="#0e0e0e"/></g></g><g clip-path="url(#l)"><g clip-path="url(#e)"><rect x="215" y="186" width="91" height="73" fill="#660d23"/></g></g><g clip-path="url(#n)"><g clip-path="url(#e)"><rect x="210" y="87" width="30" height="35" fill="#6f432a"/></g></g><g clip-path="url(#p)"><g clip-path="url(#e)"><rect x="173" y="62" width="55" height="62" fill="#90593c"/></g></g><g clip-path="url(#r)"><g clip-path="url(#e)"><rect x="168" y="53" width="66" height="55" fill="#0e0e0e"/></g></g><g clip-path="url(#t)"><g clip-path="url(#e)"><rect x="214" y="91" width="93" height="138" fill="#be2349"/></g></g><g clip-path="url(#v)"><g clip-path="url(#e)"><rect x="193" y="180" width="93" height="84" fill="#841530"/></g></g><g clip-path="url(#x)"><g clip-path="url(#e)"><rect x="156" y="165" width="74" height="52" fill="#905a3c"/></g></g><g clip-path="url(#z)"><g clip-path="url(#e)"><rect x="205" y="100" width="48" height="85" fill="#dc1d49"/></g></g><g clip-path="url(#ab)"><g clip-path="url(#e)"><rect x="247" y="242" width="48" height="48" fill="#0e0e0e"/></g></g><g clip-path="url(#ad)"><g clip-path="url(#e)"><rect x="35" y="203" width="78" height="88" fill="#864825"/></g></g><g clip-path="url(#af)"><g clip-path="url(#e)"><rect x="70" y="116" width="97" height="172" fill="#7a3d1c"/></g></g><g clip-path="url(#ah)"><g clip-path="url(#e)"><rect x="70" y="240" width="77" height="52" fill="#984e26"/></g></g><g clip-path="url(#aj)"><g clip-path="url(#e)"><rect x="145" y="114" width="22" height="18" fill="#793d1c"/></g></g><g clip-path="url(#al)"><g clip-path="url(#e)"><rect x="86" y="111" width="39" height="24" fill="#864824"/></g></g><g clip-path="url(#an)"><g clip-path="url(#e)"><rect x="151" y="111" width="16" height="16" fill="#e11f26"/></g></g><g clip-path="url(#ap)"><g clip-path="url(#e)"><rect x="115" y="183" width="53" height="107" fill="#994f26"/></g></g><g clip-path="url(#ar)"><g clip-path="url(#e)"><rect x="121" y="137" width="22" height="21" fill="#793d1c"/></g></g><g clip-path="url(#at)"><g clip-path="url(#e)"><g clip-path="url(#av)"><g clip-path="url(#aw)"><g clip-path="url(#ax)"><rect x="272" y="21" width="131" height="218" fill="#d297a5"/></g></g></g></g></g><g clip-path="url(#ay)"><g clip-path="url(#e)"><g clip-path="url(#ba)"><g clip-path="url(#bb)"><g clip-path="url(#bc)"><rect x="315" y="163" width="77" height="125" fill="#facbd7"/></g></g></g></g></g><g clip-path="url(#bd)"><g clip-path="url(#be)"><g clip-path="url(#bf)"><rect x="-20" y="156" width="85" height="138" fill="#facbd6"/></g></g></g><g clip-path="url(#bg)"><g clip-path="url(#bh)"><g clip-path="url(#bi)"><g clip-path="url(#bj)"><g clip-path="url(#bk)"><rect x="-29.5" y="27.27" width="131" height="218" fill="#d297a5"/></g></g></g></g></g></g></svg>