<?xml version="1.0" encoding="UTF-8"?>
<svg width="375px" height="336px" viewBox="0 0 375 336" version="1.1" xmlns="http://www.w3.org/2000/svg" xmlns:xlink="http://www.w3.org/1999/xlink">
    <!-- Generator: Sketch 53.2 (72643) - https://sketchapp.com -->
    <title>Group 82</title>
    <desc>Created with Sketch.</desc>
    <defs>
        <polygon id="path-1" points="0 0.615063212 646.631138 0.615063212 646.631138 221.087331 0 221.087331"></polygon>
        <polygon id="path-3" points="0.809122769 0.245531527 652.899517 0.245531527 652.899517 318.249302 0.809122769 318.249302"></polygon>
        <path d="M15.9964028,1.14072 C14.4858056,3.03828 21.4448889,9.06948 21.4448889,9.06948 L21.4448889,9.06948 C11.0494722,7.26264 2.61283333,4.18404 2.310375,6.34956 L2.310375,6.34956 C1.86558333,7.90692 9.21693056,9.89352 11.8153611,10.55628 L11.8153611,10.55628 C0.476986111,8.28324 0.0847222222,10.25136 0.0847222222,10.25136 L0.0847222222,10.25136 C-0.216888889,12.56052 8.02404167,13.8852 11.8865278,14.38584 L11.8865278,14.38584 C2.20193056,13.50888 2.50438889,14.81592 2.50438889,14.81592 L2.50438889,14.81592 C2.29088889,17.17884 13.7377083,17.35776 13.7377083,17.35776 L13.7377083,17.35776 C5.42476389,18.98652 6.27791667,19.80972 6.27791667,19.80972 L6.27791667,19.80972 C7.419125,22.638 31.0549306,18.35988 31.0549306,18.35988 L31.0549306,18.35988 C41.2376944,18.52032 50.7765694,17.32164 60.229875,15.3174 L60.229875,15.3174 L44.8333056,4.41672 C39.9922778,6.11688 35.1681944,8.0682 30.36275,10.4664 L30.36275,10.4664 C29.5968611,9.3744 25.5217222,7.08288 23.7222222,5.92032 L23.7222222,5.92032 C22.7428333,5.29368 21.8185139,4.59564 20.9467222,3.84384 L20.9467222,3.84384 C17.911125,1.239 16.6953611,0.61656 16.2268472,0.61656 L16.2268472,0.61656 C15.7973056,0.61656 15.9964028,1.14072 15.9964028,1.14072 L15.9964028,1.14072 Z" id="path-5"></path>
        <path d="M43.0982687,1.17251613 L43.0288955,1.19012903 C39.8410746,2.09341935 37.2625672,4.48374194 36.1082985,7.63477419 L36.1082985,7.63477419 L26.6442985,33.3798065 C17.5472239,35.7525161 8.76692537,37.9482581 0.0760597015,40.9936129 L0.0760597015,40.9936129 L15.2353433,51.7769032 C19.7922388,50.8199355 24.3290746,49.6868387 28.905194,48.412 L28.905194,48.412 C28.9210746,48.3952258 28.9578507,48.3952258 28.9929552,48.3776129 L28.9929552,48.3776129 C33.3567761,47.1371613 36.9842388,44.0398065 39.209194,40.0550968 L39.209194,40.0550968 L41.0145672,36.8327742 L53.9305075,13.7430968 C54.912597,11.9901935 55.4032239,9.95464516 55.192597,7.97193548 L55.192597,7.97193548 C55.1558209,7.618 55.1048358,7.26322581 55.015403,6.91012903 L55.015403,6.91012903 C54.5264478,4.80245161 53.2117015,2.51780645 50.0748657,1.20774194 L50.0748657,1.20774194 C49.0585075,0.784193548 47.9577313,0.614774194 46.8544478,0.614774194 L46.8544478,0.614774194 C45.560597,0.614774194 44.263403,0.847935484 43.0982687,1.17251613 L43.0982687,1.17251613 Z" id="path-7"></path>
        <path d="M6.29453846,9.82390244 L10.8400769,25.2964634 L0.077,34.0857317 L14.1705385,34.7626829 C14.2052308,34.7643902 14.2399231,34.7660976 14.2763077,34.7660976 L14.2763077,34.7660976 C19.3879231,34.9658537 23.5848462,30.5345122 23.7625385,25.2110976 L23.7625385,25.2110976 L23.7786154,24.7595122 C23.8742308,21.9612195 24.7813077,19.255122 26.3839231,17.004878 L26.3839231,17.004878 L31.1376154,10.327561 C33.7513846,6.65768293 31.4024615,1.43329268 27.0227692,1.1695122 L27.0227692,1.1695122 L18.0146154,0.626585366 L6.29453846,9.82390244 Z" id="path-9"></path>
        <path d="M0.0754634146,10.7443125 L44.6403415,53.7755625 L52.2546829,50.3659687 C75.2353659,38.9736562 64.9532683,11.3273437 64.9532683,11.3273437 L64.9532683,11.3273437 L14.8662927,0.6193125 L0.0754634146,10.7443125 Z" id="path-11"></path>
        <polygon id="path-13" points="0.078 15.9301154 9.84342857 20.7851538 17.2208571 10.8263077 0.078 0.592846154"></polygon>
        <path d="M1.77280435,7.95396226 C-0.468847826,12.2043396 -0.423913043,17.3037736 1.53117391,21.6950943 L1.53117391,21.6950943 C2.50702174,23.8873585 3.72619565,26.3088679 4.97504348,27.9984906 L4.97504348,27.9984906 C5.6193913,28.8713208 5.93647826,29.9479245 5.76606522,31.0253774 L5.76606522,31.0253774 L4.93095652,36.3014151 C4.84108696,36.8626415 5.14884783,37.4162264 5.6745,37.6072642 L5.6745,37.6072642 C6.45534783,37.8866038 7.61263043,38.1591509 8.59017391,37.7932075 L8.59017391,37.7932075 C8.59017391,37.7932075 12.363,42.4613208 17.5754348,44.3759434 L17.5754348,44.3759434 C19.2176739,44.9796226 21.0379565,44.8785849 22.6488261,44.1959434 L22.6488261,44.1959434 C39.9292174,36.870283 42.1089783,25.1949057 32.7684783,9.19698113 L32.7684783,9.19698113 C30.7209783,5.69292453 27.4288696,3.12792453 23.5755,1.98849057 L23.5755,1.98849057 C21.2117609,1.28971698 18.1256739,0.623207547 14.9488696,0.623207547 L14.9488696,0.623207547 C9.97297826,0.623207547 4.7741087,2.2559434 1.77280435,7.95396226 L1.77280435,7.95396226 Z" id="path-15"></path>
        <path d="M5.77010526,8.95304348 C3.50736842,11.1709565 0.196210526,16.3638913 0.0875789474,19.8603261 L0.0875789474,19.8603261 C-0.277894737,31.7655 8.65936842,28.1351087 10.3814737,27.3576522 L10.3814737,27.3576522 C10.0884211,25.9892609 9.504,24.3716087 9.63452632,22.8997826 L9.63452632,22.8997826 C12.5658947,24.3097174 15.7726316,25.004087 18.4867368,26.8141957 L18.4867368,26.8141957 C20.6341053,28.2453261 22.0934737,30.3445435 23.7751579,32.2682609 L23.7751579,32.2682609 C24.6938947,29.7680217 23.7002105,27.1770652 26.6021053,25.6340217 L26.6021053,25.6340217 C28.6804211,24.5250652 31.4610526,24.6903913 33.2454737,26.1995217 L33.2454737,26.1995217 C36.8143158,29.2135435 37.0913684,37.4323696 31.3886316,38.1750652 L31.3886316,38.1750652 C39.9486316,40.5905217 45.9385263,34.9253478 45.9385263,34.9253478 L45.9385263,34.9253478 C47.2909474,31.8502826 47.6867368,23.5322609 46.64,20.3596957 L46.64,20.3596957 C41.3077895,4.19843478 37.3128421,1.81858696 28.0934737,0.754565217 L28.0934737,0.754565217 C27.3229474,0.664695652 26.5397895,0.622304348 25.7482105,0.622304348 L25.7482105,0.622304348 C18.5229474,0.622304348 10.6181053,4.20013043 5.77010526,8.95304348 L5.77010526,8.95304348 Z" id="path-17"></path>
        <path d="M11.0320476,3.02665116 C1.66765476,8.41581395 -2.37089286,20.2427364 1.59327381,30.345938 L1.59327381,30.345938 C4.97929762,38.978062 12.0818333,47.7665039 20.1885119,56.6453566 L20.1885119,56.6453566 C24.3639881,61.2174419 24.658131,68.1545736 20.8283571,73.0266202 L20.8283571,73.0266202 L13.9464286,81.7863333 C13.9464286,81.7863333 41.1208333,115.123434 69.84625,107.696225 L69.84625,107.696225 C69.84625,107.696225 71.2079286,80.7225271 68.8175952,66.9412093 L68.8175952,66.9412093 C64.3640357,41.3000155 58.5403452,26.1954884 34.8795952,7.39425581 L34.8795952,7.39425581 C29.3880833,3.03172093 24.3868095,0.62020155 19.4472381,0.62020155 L19.4472381,0.62020155 C16.6486548,0.62020155 13.8695119,1.39418605 11.0320476,3.02665116 L11.0320476,3.02665116 Z" id="path-19"></path>
        <path d="M7.11352381,2.33984 C-0.8165,6.73536 -2.13845238,17.1989333 3.63114286,24.2466133 L3.63114286,24.2466133 C20.8655476,45.3179733 41.0117976,51.6386133 57.6401667,63.7730133 L57.6401667,63.7730133 L70.2316786,54.1636267 L23.6692024,4.93738667 C20.9914881,2.112 17.3671071,0.626346667 13.7013095,0.626346667 L13.7013095,0.626346667 C11.4504405,0.626346667 9.18435714,1.18613333 7.11352381,2.33984 L7.11352381,2.33984 Z" id="path-21"></path>
        <path d="M26.838,16.6294884 C25.6591385,16.0149767 21.0691385,15.8391628 18.9581538,15.6466047 L18.9581538,15.6466047 C17.8125231,15.5411163 16.7042769,15.3301395 15.5802462,15.0672558 L15.5802462,15.0672558 C8.22710769,13.3107907 10.0215692,14.9257674 10.0215692,14.9257674 L10.0215692,14.9257674 C9.52726154,17.2448372 18.36,19.404 18.36,19.404 L18.36,19.404 C8.38495385,22.4765581 -0.4104,23.5833488 0.290769231,25.6026977 L0.290769231,25.6026977 C0.608953846,27.236093 8.61424615,25.4628837 10.8307385,24.9354419 L10.8307385,24.9354419 C-0.463569231,28.0791628 0.0797538462,29.9938605 0.0797538462,29.9938605 L0.0797538462,29.9938605 C0.855692308,32.276093 9.45664615,29.3609302 12.8013231,28.131907 L12.8013231,28.131907 C3.35381538,31.8717209 4.2336,32.908186 4.2336,32.908186 L4.2336,32.908186 C5.07766154,34.9626977 14.2609846,30.5899535 15.1939385,30.168 L15.1939385,30.168 C8.66741538,35.2607442 9.79227692,35.5947907 9.79227692,35.5947907 L9.79227692,35.5947907 C12.0627692,37.543814 30.9561231,23.2149767 30.9561231,23.2149767 L30.9561231,23.2149767 C39.1716,19.1930233 46.4192308,14.451907 53.2448308,9.14902326 L53.2448308,9.14902326 L41.1222462,0.614511628 C36.0728308,5.51302326 31.2726462,10.6936744 26.838,16.6294884 L26.838,16.6294884 Z" id="path-23"></path>
        <path d="M22.9773077,0.650947368 C20.5463077,0.847157895 18.3124615,2.30905263 16.6311538,3.84168421 L16.6311538,3.84168421 L16.5778462,3.89557895 C14.0749231,6.17936842 12.8412308,9.51073684 13.2346923,12.864 L13.2346923,12.864 L15.5226923,32.4362105 L16.4348462,40.3334737 C10.8206154,45.2715789 5.31469231,50.0311579 0.077,55.1124211 L0.077,55.1124211 L12.3944615,63.776 C16.8443846,60.3174737 21.1013846,56.6273684 25.3558462,52.7772632 L25.3558462,52.7772632 C25.3905385,52.7587368 25.4074615,52.7410526 25.4277692,52.7056842 L25.4277692,52.7056842 C28.8411538,49.5856842 30.6984615,45.1292632 30.8973077,40.512 L30.8973077,40.512 L32.2198462,10.1170526 C32.3273077,7.728 31.6486923,5.32126316 30.0926154,3.48547368 L30.0926154,3.48547368 C30.0570769,3.44926316 30.0215385,3.41473684 29.9851538,3.37936842 L29.9851538,3.37936842 C28.6761538,1.89305263 26.7215385,0.617263158 23.8048462,0.617263158 L23.8048462,0.617263158 C23.5374615,0.618105263 23.2616154,0.628210526 22.9773077,0.650947368 L22.9773077,0.650947368 Z" id="path-25"></path>
        <path d="M12.6406923,9.96684615 C14.0038462,10.9737692 15.3492308,12.0331538 16.6633077,13.1458462 L16.6633077,13.1458462 C16.0143077,16.3967692 14.5149231,19.0816154 11.9586923,21.0607692 L11.9586923,21.0607692 C10.7165385,22.0321538 9.26792308,22.7209231 7.78546154,23.1973077 L7.78546154,23.1973077 C4.95930769,24.0806923 2.99792308,25.0165385 1.66946154,25.9540769 L1.66946154,25.9540769 C-1.32930769,28.0212308 0.205615385,32.879 3.79923077,32.7732308 L3.79923077,32.7732308 L12.3682308,32.7732308 C14.2602308,32.7732308 16.1014615,31.9956154 17.4273846,30.5994615 L17.4273846,30.5994615 C20.8348462,25.4235385 24.2939231,20.724 28.0753846,18.5519231 L28.0753846,18.5519231 C30.8863077,16.9442308 32.7258462,13.7821538 32.1132308,10.4956923 L32.1132308,10.4956923 C31.8585385,9.06484615 31.1934615,7.68730769 30.1560769,6.55684615 L30.1560769,6.55684615 L24.651,0.621076923 L12.6406923,9.96684615 Z" id="path-27"></path>
        <path d="M11.3724638,11.8980127 C7.12104348,16.0554051 3.28433333,20.0974557 1.50578261,25.9027089 L1.50578261,25.9027089 C-0.0974782609,31.1405823 -0.374521739,36.8974937 0.797782609,42.2871772 L0.797782609,42.2871772 C4.97652174,61.5068481 29.5641304,73.1097215 46.4492464,63.1021266 L46.4492464,63.1021266 C48.0909855,62.1276582 59.4172754,52.7968481 58.1192754,51.7850633 L58.1192754,51.7850633 L57.9508261,51.380519 C56.8802754,52.3176709 54.8101449,52.5127342 53.4052609,52.8867468 L53.4052609,52.8867468 C50.8836522,53.5558987 48.3714493,54.1936709 45.7506522,54.2454051 L45.7506522,54.2454051 C40.5244493,54.3505696 34.8749855,52.3236076 31.5205362,48.0288228 L31.5205362,48.0288228 C28.8612609,44.6245443 27.0254203,37.9881519 27.0861304,33.7713924 L27.0861304,33.7713924 C27.1297391,30.7716582 27.8317536,28.3002911 28.7338551,25.4727215 L28.7338551,25.4727215 C27.8633913,26.2343165 26.8193478,27.0544304 26.0874058,28.0238101 L26.0874058,28.0238101 C25.8077971,24.3082785 27.6932319,19.3825063 29.4324493,16.1792278 L29.4324493,16.1792278 C30.7997101,13.6629114 33.2973768,11.532481 34.3781884,8.93305063 L34.3781884,8.93305063 C32.2764203,9.32148101 29.7907246,10.0974937 27.8668116,10.9422025 L27.8668116,10.9422025 C27.9104203,6.98920253 33.1468841,4.39910127 34.0840435,0.621658228 L34.0840435,0.621658228 C25.5495652,0.804 17.3143623,6.08427848 11.3724638,11.8980127 L11.3724638,11.8980127 Z" id="path-29"></path>
        <path d="M61.6161477,1.20051534 C61.6161477,1.20051534 59.7563068,2.92339877 56.9499545,5.06620859 L56.9499545,5.06620859 C55.2286477,6.38017178 53.1415114,7.85160736 50.9324318,9.18080982 L50.9324318,9.18080982 C49.6906023,9.92838037 48.12525,9.75990184 47.0443523,8.78628221 L47.0443523,8.78628221 C46.218125,8.04040491 45.2641477,7.40289571 44.2504432,6.91269939 L44.2504432,6.91269939 L43.4739886,6.55288344 C42.4370568,6.05168098 41.3387386,5.69271166 40.2279773,5.48867485 L40.2279773,5.48867485 C39.4797273,5.34813497 38.7032727,5.28548466 37.9400909,5.28548466 L37.9400909,5.28548466 C36.0495568,5.30157055 34.1449205,5.77144785 32.4377159,6.7095092 L32.4377159,6.7095092 C32.4377159,6.7095092 30.89725,6.45890798 28.4434545,6.6468589 L28.4434545,6.6468589 C22.4972727,7.0710184 11.2776705,10.0435215 4.03739773,25.2726258 L4.03739773,25.2726258 C4.03739773,25.2726258 20.1504886,16.2882331 29.6487841,17.7283436 L29.6487841,17.7283436 C29.7242727,17.8299387 29.7715568,17.8917423 29.8462159,17.994184 L29.8462159,17.994184 L27.8636023,39.6237791 C27.621375,41.0478037 27.3915909,42.4108712 27.1933295,43.7087485 L27.1933295,43.7087485 C26.1879205,50.1583436 23.5955909,56.2608221 19.5241818,61.2703067 L19.5241818,61.2703067 C16.2939318,65.2299755 13.5199318,69.3928344 11.1698295,73.7131656 L11.1698295,73.7131656 C11.0337841,73.9468344 10.8969091,74.1974356 10.7749659,74.4488834 L10.7749659,74.4488834 C10.7749659,74.4632761 10.7749659,74.4632761 10.7592045,74.4488834 L10.7592045,74.4488834 C0.955636364,92.8545276 -1.43677273,114.32919 0.910840909,137.774798 L0.910840909,137.774798 L32.5132045,120.603534 L46.6602727,104.452454 L48.0995341,102.983558 C48.7034432,102.369755 49.2891023,101.744945 49.8623182,101.113362 L49.8623182,101.113362 C62.1337841,87.5224785 66.2723864,68.1576074 61.6202955,50.252319 L61.6202955,50.252319 L61.2055227,48.6555828 L56.1735,33.8015337 L53.0635341,24.6156442 C53.01625,24.6452761 52.9863864,24.6452761 52.9415909,24.6452761 L52.9415909,24.6452761 C51.7080568,24.6943804 50.4877955,24.4276933 49.2824659,23.8486012 L49.2824659,23.8486012 C47.7270682,23.0959509 46.1882614,21.8293988 44.6477955,20.0294724 L44.6477955,20.0294724 C44.51175,19.8567607 44.5275114,19.6222454 44.6768295,19.4808589 L44.6768295,19.4808589 C44.831125,19.3394724 45.0600795,19.3555583 45.196125,19.5113374 L45.196125,19.5113374 C47.7892841,22.5498773 50.3202273,23.9739018 52.9258295,23.8951656 L52.9258295,23.8951656 C53.1240909,23.8790798 53.2933182,24.0500982 53.3065909,24.2558282 L53.3065909,24.2558282 L53.3065909,24.2863067 C56.2954432,24.4903436 59.6177727,24.3650429 62.6364886,23.4108957 L62.6364886,23.4108957 C67.087,22.0004172 70.8688977,18.8069448 71.8908977,12.3277178 L71.8908977,12.3277178 C71.8908977,12.3277178 72.881375,6.06776687 71.5549318,2.01496933 L71.5549318,2.01496933 C71.5084773,1.89051534 71.4628523,1.76521472 71.4180568,1.65346012 L71.4180568,1.65346012 C71.4628523,1.77876074 71.494375,1.89051534 71.5391705,2.01496933 L71.5391705,2.01496933 C66.3271364,7.57052761 63.5357159,3.15706748 62.4531591,0.621423313 L62.4531591,0.621423313 C62.1785795,0.793288344 61.9056591,0.999018405 61.6161477,1.20051534 L61.6161477,1.20051534 Z" id="path-31"></path>
        <path d="M26.8940882,0.614511628 C9.33885294,0.616186047 -4.33976471,17.7714419 1.40991176,35.2866977 L1.40991176,35.2866977 C1.46279412,35.4499535 1.51652941,35.6132093 1.57111765,35.7773023 L1.57111765,35.7773023 L57.2050588,35.7773023 C57.2050588,35.7773023 58.203,26.7337674 45.9155294,26.7337674 L45.9155294,26.7337674 C45.9155294,26.7337674 58.8205294,14.4996279 42.7025,4.74195349 L42.7025,4.74195349 C40.1462353,3.19395349 37.3050882,2.15916279 34.3726765,1.57060465 L34.3726765,1.57060465 L32.3384118,1.1612093 C30.4977647,0.791162791 28.6827059,0.614511628 26.9051765,0.614511628 L26.9051765,0.614511628 C26.9017647,0.614511628 26.8975,0.614511628 26.8940882,0.614511628 L26.8940882,0.614511628 Z" id="path-33"></path>
        <path d="M0.077,2.61877778 C1.287,5.21811111 4.40592308,9.74322222 10.2308462,4.04833333 L10.2308462,4.04833333 C10.1800769,3.92 10.1453846,3.80566667 10.0946154,3.67733333 L10.0946154,3.67733333 C9.87376923,3.14844444 9.60046154,2.65222222 9.27807692,2.21822222 L9.27807692,2.21822222 C9.17484615,2.07355556 9.03861538,1.94677778 8.92015385,1.80055556 L8.92015385,1.80055556 C8.83469231,1.72122222 8.74838462,1.62477778 8.66292308,1.56022222 L8.66292308,1.56022222 C7.95215385,0.939555556 7.04,0.570888889 5.87569231,0.570888889 L5.87569231,0.570888889 C4.38984615,0.570888889 2.49361538,1.17133333 0.077,2.61877778 L0.077,2.61877778 Z" id="path-35"></path>
        <path d="M0.0758333333,2.1736 C0.0758333333,2.1736 11.3983333,6.9732 14.7508333,12.7036 L14.7508333,12.7036 C17.2033333,12.5034 18.7433333,12.7694667 18.7433333,12.7694667 L18.7433333,12.7694667 C20.4483333,11.7684667 22.3533333,11.2701333 24.2425,11.2528 L24.2425,11.2528 C24.2425,11.2528 19.3933333,0.636133333 7.98083333,0.636133333 L7.98083333,0.636133333 C5.63,0.636133333 3,1.0868 0.0758333333,2.1736 L0.0758333333,2.1736 Z" id="path-37"></path>
        <path d="M1.782,0.776571429 C0.431142857,1.27028571 -0.256285714,2.73342857 0.239142857,4.08257143 L0.239142857,4.08257143 C0.708,5.40514286 2.19514286,6.09171429 3.51685714,5.62628571 L3.51685714,5.62628571 C4.86771429,5.13 5.55514286,3.66942857 5.06057143,2.31942857 L5.06057143,2.31942857 C4.69028571,1.27714286 3.69085714,0.629142857 2.63742857,0.629142857 L2.63742857,0.629142857 C2.35285714,0.629142857 2.064,0.676285714 1.782,0.776571429 L1.782,0.776571429 Z" id="path-39"></path>
        <path d="M11.0865455,0.645122449 L11.0705682,0.659346939 C8.79254545,0.843428571 6.58936364,1.73371429 4.87727273,3.2992449 L4.87727273,3.2992449 C4.45345455,3.69669388 4.04393182,4.12593878 3.6815,4.60287755 L3.6815,4.60287755 C0.475113636,8.80746939 -1.60025,15.5741429 1.89036364,26.1128163 L1.89036364,26.1128163 L9.10452273,47.2545918 L20.8831364,81.7774286 L36.2129091,81.7774286 C36.2129091,81.7774286 37.1261364,74.1514286 27.5666818,72.9557347 L27.5666818,72.9557347 L24.3426364,30.5466735 L22.8004091,10.3713265 C22.5817727,7.42685714 21.0857955,4.6957551 18.6967727,2.88422449 L18.6967727,2.88422449 C16.7164318,1.36555102 14.3265682,0.614163265 11.9678182,0.614163265 L11.9678182,0.614163265 C11.6684545,0.614163265 11.3699318,0.630061224 11.0865455,0.645122449 L11.0865455,0.645122449 Z" id="path-41"></path>
        <polygon id="path-43" points="1.2 4.124 10.801 11 12 6.875 7.201 1.375 0 0"></polygon>
        <path d="M46.5836735,25.46128 C45.5561531,34.58104 45.9694286,43.59576 47.7781531,51.08272 L47.7781531,51.08272 C47.6616939,51.11184 47.5442041,51.15656 47.438051,51.2304 L47.438051,51.2304 C47.3277755,51.3084 47.2484184,51.40096 47.1752449,51.50392 L47.1752449,51.50392 C41.0585612,47.02152 32.4591327,44.2988 24.0070816,43.4668 L24.0070816,43.4668 C15.3726122,42.75544 6.80719388,43.99616 0.0937857143,47.0028 L0.0937857143,47.0028 C5.90334694,50.37552 14.0462143,52.35984 22.4106633,53.4144 L22.4106633,53.4144 C30.924551,54.314 39.6394082,54.27448 47.0258061,52.34112 L47.0258061,52.34112 C47.0587857,52.46384 47.1020714,52.58136 47.1752449,52.68952 L47.1752449,52.68952 C47.1752449,52.68952 47.5225612,53.19704 48.1357755,54.0852 L48.1357755,54.0852 C48.7428061,54.97648 49.6373776,56.22864 50.6061531,57.80944 L50.6061531,57.80944 C52.5426735,60.95752 55.284102,65.05824 57.7689082,69.32016 L57.7689082,69.32016 C62.8292143,77.792 67.3463878,86.57688 67.3463878,86.57688 L67.3463878,86.57688 C60.5536224,80.7456 51.0122143,76.58872 41.3254898,74.7448 L41.3254898,74.7448 C31.5027245,72.9456 21.6655306,73.36992 13.4546429,76.13216 L13.4546429,76.13216 C20.0062449,80.66864 29.2291939,84.11208 39.0478367,86.44792 L39.0478367,86.44792 C49.0138571,88.6548 59.3395612,89.87992 68.4429592,88.65792 L68.4429592,88.65792 C68.4429592,88.65792 69.6271327,90.84608 71.205,94.23752 L71.205,94.23752 C72.7911122,97.6248 75.0677347,102.07184 76.9723061,106.68528 L76.9723061,106.68528 C78.9706633,111.25816 80.9473776,115.83728 82.2377041,119.3556 L82.2377041,119.3556 C83.5929592,122.84584 84.4957755,125.17128 84.4957755,125.17128 L84.4957755,125.17128 C81.3895102,121.8984 77.7215612,118.8668 73.5692245,116.3188 L73.5692245,116.3188 C69.3457755,113.80096 64.7739796,111.71264 60.1073673,110.162 L60.1073673,110.162 C50.5401939,107.16264 40.7287653,106.32648 32.2808367,108.00296 L32.2808367,108.00296 C38.1924286,113.37456 46.9268673,117.95888 56.4198367,121.49904 L56.4198367,121.49904 C65.9323878,124.98616 76.185949,127.42912 85.3295408,127.36984 L85.3295408,127.36984 C85.3295408,127.36984 86.0633367,129.50288 87.1640306,132.69776 L87.1640306,132.69776 C88.2698776,135.89368 89.7725102,140.14728 91.0071837,144.4872 L91.0071837,144.4872 C92.3232755,148.80008 93.6383367,153.11712 94.4288163,156.40456 L94.4288163,156.40456 C95.280102,159.68056 95.849,161.86144 95.849,161.86144 L95.849,161.86144 C93.5723776,158.88184 90.7742653,156.05616 87.6278061,153.54248 L87.6278061,153.54248 C84.3648878,151.06208 80.7793878,148.88848 77.0660918,147.12984 L77.0660918,147.12984 C69.6848469,143.59072 61.4121224,141.89136 54.3988061,142.24288 L54.3988061,142.24288 C56.5404184,144.87928 59.4240714,147.35968 62.5695,149.73296 L62.5695,149.73296 C65.6984388,152.10936 69.2684796,154.32352 73.0724694,156.29016 L73.0724694,156.29016 C80.5742959,160.23696 88.8511429,163.28728 96.4446939,164.13904 L96.4446939,164.13904 C96.4446939,164.13904 98.259602,171.68216 100.063173,181.07128 L100.063173,181.07128 L100.063173,170.72848 C99.3170102,167.31312 97.9349592,161.25096 96.2767041,155.26056 L96.2767041,155.26056 C95.1729184,150.68872 93.6568878,146.24168 92.6850204,142.85336 L92.6850204,142.85336 C92.1769286,141.1696 91.7533469,139.76664 91.4534388,138.78592 L91.4534388,138.78592 C91.120551,137.81144 90.9309184,137.25504 90.9309184,137.25504 L90.9309184,137.25504 C94.1484898,134.64776 97.2640306,131.30624 100.063173,127.45304 L100.063173,127.45304 L100.063173,99.27944 C99.0521429,101.43432 98.1101633,103.63808 97.2454796,105.85952 L97.2454796,105.85952 C93.3167857,115.7 90.7371633,125.9596 90.1600204,135.02008 L90.1600204,135.02008 C90.1600204,135.02008 89.2819388,132.47624 87.9668776,128.65944 L87.9668776,128.65944 C86.6992245,124.82704 84.6153265,119.86104 82.7128163,114.83472 L82.7128163,114.83472 C80.6515918,109.86456 78.477,104.94848 76.8702755,101.25024 L76.8702755,101.25024 C75.1295714,97.6144 73.9680714,95.19328 73.9680714,95.19328 L73.9680714,95.19328 C77.1104082,91.89024 79.9899388,87.78432 82.3768367,83.15944 L82.3768367,83.15944 C84.7039592,78.57304 86.5817347,73.4344 87.9163776,68.03472 L87.9163776,68.03472 C90.496,57.30608 90.6268878,45.5728 87.7669388,35.88104 L87.7669388,35.88104 C82.5293673,43.09968 78.817102,52.94536 76.1457551,63.22576 L76.1457551,63.22576 C73.6496122,73.44168 72.297449,84.03096 72.9446735,93.06024 L72.9446735,93.06024 C72.9446735,93.06024 71.728551,90.30528 69.5714796,86.34808 L69.5714796,86.34808 C67.4741837,82.35344 64.7193571,77.01096 61.6316429,71.8536 L61.6316429,71.8536 C55.6819184,61.40784 48.8860612,51.5008 48.8860612,51.5008 L48.8860612,51.5008 C48.8118571,51.39368 48.7129184,51.3084 48.6150102,51.23872 L48.6150102,51.23872 C52.9446122,45.00704 56.0653061,36.23256 56.881551,27.14712 L56.881551,27.14712 C57.8781531,17.95768 56.5744286,8.47184 53.3692245,0.76336 L53.3692245,0.76336 C49.6672653,7.51296 47.4524796,16.50272 46.5836735,25.46128 L46.5836735,25.46128 Z" id="path-45"></path>
        <path d="M25.9806,14.2841212 C25.4085273,19.2790303 25.6375636,24.2172727 26.6459455,28.3168485 L26.6459455,28.3168485 C26.5796182,28.3343636 26.5153636,28.3580606 26.4562909,28.3992727 L26.4562909,28.3992727 C26.3951455,28.4404848 26.3505818,28.492 26.3101636,28.5486667 L26.3101636,28.5486667 C22.9036364,26.0924242 18.1156364,24.6026061 13.4095091,24.1461818 L13.4095091,24.1461818 C8.60181818,23.7567273 3.83247273,24.435697 0.0943090909,26.0821212 L0.0943090909,26.0821212 C3.32983636,27.9304848 7.86289091,29.0164242 12.5203091,29.5954545 L12.5203091,29.5954545 C17.2616727,30.0879394 22.1139273,30.0652727 26.2262182,29.0071515 L26.2262182,29.0071515 C26.2448727,29.0741212 26.2697455,29.1390303 26.3101636,29.1977576 L26.3101636,29.1977576 C26.3101636,29.1977576 26.5029273,29.4759394 26.8449273,29.9622424 L26.8449273,29.9622424 C27.1827818,30.4506061 27.6812727,31.1367879 28.2212182,32.0022424 L28.2212182,32.0022424 C29.2990364,33.7259394 30.8245636,35.972 32.2081091,38.3066667 L32.2081091,38.3066667 C35.0270182,42.9471515 37.5412364,47.759697 37.5412364,47.759697 L37.5412364,47.759697 C33.7595455,44.5647273 28.4461091,42.2877576 23.0528727,41.2780606 L23.0528727,41.2780606 C17.5829455,40.2920606 12.1057636,40.5249091 7.53436364,42.0384242 L7.53436364,42.0384242 C11.1813273,44.5224848 16.3175455,46.4089697 21.7854,47.6886061 L21.7854,47.6886061 C27.3340909,48.8961212 33.0828,49.5678788 38.1516545,48.8981818 L38.1516545,48.8981818 C38.1516545,48.8981818 38.8107818,50.0974545 39.6906545,51.9550909 L39.6906545,51.9550909 C40.5726,53.8106667 41.8411091,56.246303 42.9013091,58.7726061 L42.9013091,58.7726061 C44.0133273,61.2772727 45.1139455,63.7860606 45.8321455,65.7127273 L45.8321455,65.7127273 C46.5866182,67.6239394 47.0902909,68.8973939 47.0902909,68.8973939 L47.0902909,68.8973939 C45.3606,67.105697 43.3179273,65.4448485 41.0068364,64.0487879 L41.0068364,64.0487879 C38.6542909,62.6702424 36.1089818,61.5266061 33.5108182,60.6766061 L33.5108182,60.6766061 C28.1839091,59.034303 22.7202,58.5758182 18.0161455,59.4938182 L18.0161455,59.4938182 C21.3086727,62.4373939 26.1712909,64.9472121 31.4577818,66.8862424 L31.4577818,66.8862424 C36.7536,68.7964242 42.4639636,70.1358182 47.5545818,70.1018182 L47.5545818,70.1018182 C47.5545818,70.1018182 47.9629091,71.2701818 48.5754,73.021697 L48.5754,73.021697 C49.1920364,74.7711515 50.0283818,77.1006667 50.7154909,79.4775758 L50.7154909,79.4775758 C51.4482,81.8400606 52.1809091,84.2046061 52.6213636,86.0055758 L52.6213636,86.0055758 C53.0949818,87.8013939 53.4121091,88.9944848 53.4121091,88.9944848 L53.4121091,88.9944848 C52.1446364,87.3614545 50.5859455,85.8149697 48.8344909,84.4374545 L48.8344909,84.4374545 C47.0167091,83.0795152 45.0206727,81.8884848 42.9541636,80.9251515 L42.9541636,80.9251515 C38.8439455,78.9861212 34.2373091,78.0557576 30.3322909,78.2494545 L30.3322909,78.2494545 C31.5241091,79.6929091 33.1294364,81.0518788 34.8819273,82.3510909 L34.8819273,82.3510909 C36.6240545,83.6533939 38.6118,84.8650303 40.7290909,85.941697 L40.7290909,85.941697 C44.9077091,88.104303 49.5164182,89.7754545 53.7437455,90.2411515 L53.7437455,90.2411515 C53.7437455,90.2411515 54.9645818,95.2391515 56.0579455,101.08303 L56.0579455,101.08303 L56.0579455,95.234 C55.8734727,94.3582424 54.9044727,89.8321212 53.6494364,85.3791515 L53.6494364,85.3791515 C53.0348727,82.8744848 52.1923091,80.4388485 51.6502909,78.5832727 L51.6502909,78.5832727 C51.3673636,77.6601212 51.1310727,76.8915152 50.9642182,76.3547273 L50.9642182,76.3547273 C50.7787091,75.8210303 50.673,75.5170909 50.673,75.5170909 L50.673,75.5170909 C52.5809455,73.9963636 54.4236,72.0202424 56.0579455,69.7360606 L56.0579455,69.7360606 L56.0579455,54.0981212 C55.3812,55.4735758 54.7552364,56.8902424 54.1883455,58.320303 L54.1883455,58.320303 C52.0026545,63.7108485 50.5652182,69.3301212 50.2439455,74.2920606 L50.2439455,74.2920606 C50.2439455,74.2920606 49.7558182,72.9001212 49.0231091,70.8086061 L49.0231091,70.8086061 C48.3173455,68.7098788 47.1566182,65.9898788 46.0974545,63.2369091 L46.0974545,63.2369091 C44.9491636,60.5148485 43.7397273,57.8216364 42.8443091,55.7960606 L42.8443091,55.7960606 C41.8753091,53.8044848 41.2275818,52.4784848 41.2275818,52.4784848 L41.2275818,52.4784848 C42.978,50.6692727 44.5812545,48.4201212 45.9098727,45.8876364 L45.9098727,45.8876364 C47.2053273,43.3747273 48.2520545,40.5599394 48.9940909,37.6029697 L48.9940909,37.6029697 C50.4315273,31.7271515 50.5040727,25.3001212 48.9111818,19.9909697 L48.9111818,19.9909697 C45.9958909,23.9452727 43.9283455,29.3368485 42.4411636,34.9684848 L42.4411636,34.9684848 C41.0514,40.5640606 40.299,46.3636364 40.6586182,51.3101212 L40.6586182,51.3101212 C40.6586182,51.3101212 39.9808364,49.8017576 38.7796909,47.6329697 L38.7796909,47.6329697 C37.6127455,45.4446061 36.0778909,42.5185455 34.3596,39.6944848 L34.3596,39.6944848 C31.0473818,33.9732121 27.2615455,28.5466061 27.2615455,28.5466061 L27.2615455,28.5466061 C27.2221636,28.4878788 27.1672364,28.4404848 27.1112727,28.4023636 L27.1112727,28.4023636 C29.5228909,24.9889697 31.2608727,20.1836364 31.7137636,15.2062424 L31.7137636,15.2062424 C32.2692545,10.1732121 31.5427636,4.97842424 29.7591818,0.756242424 L29.7591818,0.756242424 C27.6978545,4.4529697 26.4645818,9.37678788 25.9806,14.2841212 L25.9806,14.2841212 Z" id="path-47"></path>
        <path d="M27.808,16.9235841 C28.3127742,22.4909204 30.2513548,27.866708 32.9393548,31.6831858 L32.9393548,31.6831858 C32.8774194,31.7266726 32.8175484,31.7794779 32.7710968,31.844708 L32.7710968,31.844708 C32.7710968,31.844708 28.5522581,37.9142124 24.8578065,44.3140088 L24.8578065,44.3140088 C22.9419355,47.4740442 21.2314839,50.7459027 19.9287742,53.1946195 L19.9287742,53.1946195 C18.5899355,55.6195221 17.8343226,57.3061858 17.8343226,57.3061858 L17.8343226,57.3061858 C18.235871,51.7740531 17.3956129,45.2862478 15.8472258,39.0283009 L15.8472258,39.0283009 C14.1894194,32.7289381 11.8843871,26.6977434 8.63277419,22.2745221 L8.63277419,22.2745221 C6.85729032,28.2135664 6.93780645,35.4013009 8.54090323,41.9750442 L8.54090323,41.9750442 C9.36774194,45.2831416 10.5341935,48.4307522 11.9783226,51.240823 L11.9783226,51.240823 C13.4606452,54.0736726 15.2485161,56.5886549 17.1994839,58.6128584 L17.1994839,58.6128584 C17.1994839,58.6128584 16.4779355,60.0965841 15.3981935,62.3247611 L15.3981935,62.3247611 C14.4,64.5902124 13.0498065,67.6032212 11.7708387,70.647292 L11.7708387,70.647292 C10.587871,73.7265664 9.29548387,76.7685664 8.50787097,79.1168496 L8.50787097,79.1168496 C7.69135484,81.4547788 7.14735484,83.0130531 7.14735484,83.0130531 L7.14735484,83.0130531 C6.78812903,77.4622832 5.18709677,71.1774159 2.74787097,65.148292 L2.74787097,65.148292 C1.96129032,63.1530796 1.07045161,61.180646 0.0939354839,59.2941504 L0.0939354839,59.2941504 L0.0939354839,77.0947168 C2.05212903,79.9979735 4.31690323,82.5026018 6.6683871,84.3839204 L6.6683871,84.3839204 C6.6683871,84.3839204 6.55070968,84.723531 6.34425806,85.3209558 L6.34425806,85.3209558 C6.15845161,85.9214867 5.89419355,86.7808673 5.57935484,87.8131593 L5.57935484,87.8131593 C4.97548387,89.8891327 4.03509677,92.6132655 3.34864516,95.4150531 L3.34864516,95.4150531 C1.79303226,100.960646 0.629677419,106.605637 0.629677419,106.605637 L0.629677419,106.605637 C0.477935484,105.872575 0.299354839,105.123982 0.0939354839,104.366071 L0.0939354839,104.366071 L0.0939354839,107.883319 C0.167225806,107.930947 0.240516129,107.97754 0.313806452,108.024133 L0.313806452,108.024133 C0.313806452,108.024133 0.233290323,108.388593 0.0939354839,109.026398 L0.0939354839,109.026398 L0.0939354839,116.189283 C1.41006452,108.386522 3.24541935,100.852965 3.24541935,100.852965 L3.24541935,100.852965 C7.95870968,100.331124 13.0972903,98.4632655 17.755871,96.0445752 L17.755871,96.0445752 C20.1166452,94.8404071 22.3339355,93.483 24.2745806,92.0272301 L24.2745806,92.0272301 C26.2286452,90.573531 28.0185806,89.0546018 29.348129,87.4393805 L29.348129,87.4393805 C24.9950968,87.2240177 19.8575484,88.2645929 15.2763871,90.4327168 L15.2763871,90.4327168 C12.9703226,91.5105664 10.7447742,92.8420885 8.71845161,94.3620531 L8.71845161,94.3620531 C6.76645161,95.9027257 5.02812903,97.6328761 3.61496774,99.4582832 L3.61496774,99.4582832 C3.61496774,99.4582832 3.96903226,98.1226195 4.49754839,96.1160177 L4.49754839,96.1160177 C4.98683871,94.1011327 5.8043871,91.4567257 6.62090323,88.8123186 L6.62090323,88.8123186 C7.38787097,86.1554867 8.32,83.5493894 9.00748387,81.5914513 L9.00748387,81.5914513 C9.69083871,79.6335133 10.1460645,78.3268407 10.1460645,78.3268407 L10.1460645,78.3268407 C15.8224516,78.3630796 22.1883871,76.8658938 28.0939355,74.7309027 L28.0939355,74.7309027 C33.9870968,72.560708 39.4095484,69.7537434 43.0802581,66.4622124 L43.0802581,66.4622124 C37.8343226,65.4330265 31.744,65.9465841 25.8043871,67.7833805 L25.8043871,67.7833805 C22.9068387,68.7338761 20.0701935,70.0146637 17.4472258,71.5563717 L17.4472258,71.5563717 C14.8696774,73.1167168 12.5925161,74.9742212 10.6632258,76.9797876 L10.6632258,76.9797876 C10.6632258,76.9797876 11.2237419,75.5550796 12.0650323,73.4169823 L12.0650323,73.4169823 C12.8660645,71.2612832 14.0934194,68.455354 15.3341935,65.6546018 L15.3341935,65.6546018 C16.516129,62.8279646 17.9292903,60.1027965 18.9150968,58.0278584 L18.9150968,58.0278584 C19.8936774,55.9508496 20.6286452,54.6100088 20.6286452,54.6100088 L20.6286452,54.6100088 C26.2802581,55.3586018 32.6916129,54.6069027 38.8779355,53.2546726 L38.8779355,53.2546726 C44.9744516,51.8237522 50.7003871,49.714646 54.7685161,46.9356372 L54.7685161,46.9356372 C49.6701935,45.2437965 43.5633548,44.9828761 37.4647742,46.0855752 L37.4647742,46.0855752 C31.4508387,47.2141593 25.5277419,49.7622743 21.3099355,53.3343982 L21.3099355,53.3343982 C21.3099355,53.3343982 24.1135484,47.9523982 27.2567742,42.7619469 L27.2567742,42.7619469 C28.7989677,40.1506726 30.500129,37.6377611 31.7027097,35.7098496 L31.7027097,35.7098496 C32.3034839,34.7417522 32.859871,33.9745221 33.2356129,33.4278319 L33.2356129,33.4278319 C33.6165161,32.8832124 33.8332903,32.5736283 33.8332903,32.5736283 L33.8332903,32.5736283 C33.8776774,32.5073628 33.9055484,32.434885 33.9261935,32.3603363 L33.9261935,32.3603363 C38.5114839,33.5437965 43.9215484,33.5696814 49.2067097,33.0178142 L49.2067097,33.0178142 C54.4,32.3706903 59.4549677,31.1551327 63.0616774,29.0895133 L63.0616774,29.0895133 C58.8944516,27.2465044 53.5772903,26.4875575 48.2157419,26.9224248 L48.2157419,26.9224248 C42.9687742,27.4328761 37.6309677,29.0998673 33.8332903,31.8478142 L33.8332903,31.8478142 C33.787871,31.7825841 33.7372903,31.7266726 33.6701935,31.6790442 L33.6701935,31.6790442 C33.604129,31.6334867 33.531871,31.6065664 33.4575484,31.5879292 L33.4575484,31.5879292 C34.5816774,27.001115 34.8376774,21.4783009 34.2007742,15.8923274 L34.2007742,15.8923274 C33.6609032,10.402646 32.2859355,4.89536283 29.988129,0.759982301 L29.988129,0.759982301 C27.9979355,5.48243363 27.1876129,11.2930885 27.808,16.9235841 L27.808,16.9235841 Z" id="path-49"></path>
        <path d="M43.7927755,26.2437931 C44.6069592,35.2810345 47.7276531,44.0089655 52.0582857,50.2075862 L52.0582857,50.2075862 C51.9593469,50.2768966 51.8604082,50.3617241 51.7882653,50.4682759 L51.7882653,50.4682759 C51.7882653,50.4682759 44.9903469,60.3237931 39.0416531,70.712069 L39.0416531,70.712069 C35.9539388,75.842069 33.1991122,81.1572414 31.1007857,85.1306897 L31.1007857,85.1306897 C28.9447449,89.067931 27.7275918,91.8072414 27.7275918,91.8072414 L27.7275918,91.8072414 C28.3748163,82.8248276 27.0226531,72.2927586 24.5275408,62.132069 L24.5275408,62.132069 C21.8561939,51.9041379 18.142898,42.1117241 12.9063571,34.9313793 L12.9063571,34.9313793 C10.0453776,44.5727586 10.1772959,56.2427586 12.7569184,66.9155172 L12.7569184,66.9155172 C14.0905306,72.2844828 15.9683061,77.3958621 18.2964592,81.96 L18.2964592,81.96 C20.6833571,86.5593103 23.5628878,90.6434483 26.7052245,93.9289655 L26.7052245,93.9289655 C26.7052245,93.9289655 25.5426939,96.3372414 23.804051,99.9537931 L23.804051,99.9537931 C22.1952653,103.632414 20.0206735,108.523448 17.9604796,113.465172 L17.9604796,113.465172 C16.0569388,118.466897 13.9740714,123.405517 12.7053878,127.216552 L12.7053878,127.216552 C11.3903265,131.013103 10.5132755,133.544483 10.5132755,133.544483 L10.5132755,133.544483 C9.93613265,124.533103 7.3565102,114.327931 3.42781633,104.538621 L3.42781633,104.538621 C2.56416327,102.328966 1.62012245,100.135862 0.609091837,97.9924138 L0.609091837,97.9924138 L0.609091837,126.018621 C3.40823469,129.84931 6.52377551,133.174138 9.74237755,135.768621 L9.74237755,135.768621 C9.74237755,135.768621 9.55171429,136.32 9.21985714,137.28931 L9.21985714,137.28931 C8.91994898,138.265862 8.49636735,139.661379 7.98827551,141.337241 L7.98827551,141.337241 C7.01537755,144.706552 5.49934694,149.13 4.39556122,153.677586 L4.39556122,153.677586 C2.73627551,159.638276 1.35422449,165.66931 0.609091837,169.065517 L0.609091837,169.065517 L0.609091837,179.353448 C2.41472449,170.014138 4.22757143,162.51 4.22757143,162.51 L4.22757143,162.51 C11.8211224,161.662759 20.0979694,158.627586 27.5997959,154.701724 L27.5997959,154.701724 C31.4037857,152.745517 34.9748571,150.544138 38.1027653,148.17931 L38.1027653,148.17931 C41.2492245,145.818621 44.1318469,143.350345 46.2734592,140.728966 L46.2734592,140.728966 C39.2611735,140.380345 30.9874184,142.069655 23.6061735,145.59 L23.6061735,145.59 C19.8928776,147.340345 16.3094388,149.501379 13.0454898,151.968621 L13.0454898,151.968621 C9.90006122,154.47 7.09988776,157.279655 4.82429592,160.244483 L4.82429592,160.244483 C4.82429592,160.244483 5.39319388,158.075172 6.2455102,154.815517 L6.2455102,154.815517 C7.03495918,151.545517 8.35002041,147.251379 9.66508163,142.960345 L9.66508163,142.960345 C10.9007857,138.644483 12.4023878,134.413448 13.5092653,131.234483 L13.5092653,131.234483 C14.6099592,128.056552 15.3447857,125.935862 15.3447857,125.935862 L15.3447857,125.935862 C24.4873469,125.994828 34.7398776,123.564828 44.2524286,120.094138 L44.2524286,120.094138 C53.745398,116.573793 62.4798367,112.014828 68.3924592,106.671724 L68.3924592,106.671724 C59.9435,105.003103 50.1320714,105.834828 40.5659286,108.817241 L40.5659286,108.817241 C35.8993163,110.361724 31.3275204,112.438966 27.1030408,114.943448 L27.1030408,114.943448 C22.9517347,117.475862 19.2837857,120.492414 16.1775204,123.747931 L16.1775204,123.747931 C16.1775204,123.747931 17.0793061,121.434828 18.4355918,117.962069 L18.4355918,117.962069 C19.7248878,114.463448 21.7026327,109.907586 23.7020204,105.36 L23.7020204,105.36 C25.6045306,100.771034 27.8821837,96.3486207 29.4682959,92.9793103 L29.4682959,92.9793103 C31.0471939,89.6048276 32.2303367,87.4293103 32.2303367,87.4293103 L32.2303367,87.4293103 C41.3337347,88.6437931 51.6594388,87.4241379 61.6244286,85.23 L61.6244286,85.23 C71.444102,82.9065517 80.667051,79.4813793 87.2186531,74.97 L87.2186531,74.97 C79.0077653,72.2224138 69.1705714,71.7993103 59.3478061,73.5889655 L59.3478061,73.5889655 C49.6610816,75.422069 40.1196735,79.557931 33.3269082,85.3582759 L33.3269082,85.3582759 C33.3269082,85.3582759 37.843051,76.62 42.9033571,68.1931034 L42.9033571,68.1931034 C45.3881633,63.9537931 48.1295918,59.8737931 50.0661122,56.7444828 L50.0661122,56.7444828 C51.0348878,55.172069 51.9294592,53.9265517 52.5375204,53.0389655 L52.5375204,53.0389655 C53.1507347,52.1555172 53.498051,51.6506897 53.498051,51.6506897 L53.498051,51.6506897 C53.5701939,51.5431034 53.6155408,51.4262069 53.6474898,51.3041379 L53.6474898,51.3041379 C61.0328571,53.2262069 69.7477143,53.2675862 78.261602,52.3727586 L78.261602,52.3727586 C86.6270816,51.3227586 94.7689184,49.3489655 100.57848,45.9941379 L100.57848,45.9941379 C93.866102,43.0034483 85.3006837,41.7693103 76.6662143,42.4768966 L76.6662143,42.4768966 C68.2141633,43.3055172 59.6147347,46.0117241 53.498051,50.4724138 L53.498051,50.4724138 C53.4248776,50.3689655 53.3444898,50.2768966 53.2352449,50.1993103 L53.2352449,50.1993103 C53.1290918,50.1258621 53.0126327,50.0813793 52.8941122,50.0513793 L52.8941122,50.0513793 C54.7038673,42.6051724 55.1171429,33.6382759 54.0896224,24.567931 L54.0896224,24.567931 C53.2197857,15.6558621 51.0060306,6.7137931 47.3040714,0 L47.3040714,0 C44.0988673,7.66758621 42.7951429,17.102069 43.7927755,26.2437931 L43.7927755,26.2437931 Z" id="path-51"></path>
    </defs>
    <g id="UI-Aplicativo" stroke="none" stroke-width="1" fill="none" fill-rule="evenodd">
        <g id="Formulário---Intro">
            <g id="Group-82" transform="translate(-162.000000, -109.000000)">
                <g id="Group-9">
                    <g id="Group-3" transform="translate(0.000000, 223.404336)">
                        <mask id="mask-2" fill="white">
                            <use xlink:href="#path-1"></use>
                        </mask>
                        <g id="Clip-2"></g>
                        <path d="M539.447663,37.6374249 C409.13843,-7.47059962 235.438209,-11.3574214 18.3583535,25.9686855 C12.5991089,46.835271 7.55215662,65.2195862 3.13697662,79.0716893 C-20.9570849,154.649583 98.8845474,194.977168 186.344752,213.372861 C273.805989,231.767519 336.186278,217.395173 471.49188,168.874027 C605.346057,120.873123 617.283663,200.136154 646.631138,94.8434148 C630.056406,75.70511 594.332366,56.636102 539.447663,37.6374249" id="Fill-1" fill="#EBAFBC" mask="url(#mask-2)"></path>
                    </g>
                    <g id="Group-6" transform="translate(17.549231, 0.000000)">
                        <mask id="mask-4" fill="white">
                            <use xlink:href="#path-3"></use>
                        </mask>
                        <g id="Clip-5"></g>
                        <path d="M521.898432,261.044346 C576.783135,280.044058 612.507175,299.112032 629.081907,318.249302 C629.399858,317.107458 629.719874,315.951133 630.041954,314.764815 C660.10585,204.24276 663.910937,175.258116 620.800735,71.7981198 C577.690534,-31.6618761 510.466657,-2.60896962 396.499887,33.4480765 C282.53415,69.5040883 218.812894,39.944385 200.999392,33.4480765 C200.999392,33.4480765 203.196143,-9.62138349 127.858327,3.40122759 C66.3265951,14.036722 26.4753889,156.382518 0.809122769,249.375607 C217.888978,212.0495 391.5892,215.936322 521.898432,261.044346" id="Fill-4" fill="#F8BFCE" mask="url(#mask-4)"></path>
                    </g>
                    <g id="Group-4" transform="translate(226.795468, 174.000000)">
                        <path d="M250.204532,192.500844 C250.204532,198.299855 194.240914,203 125.205373,203 C56.170674,203 0.204531538,198.299855 0.204531538,192.500844 C0.204531538,186.700989 56.170674,182 125.205373,182 C194.240914,182 250.204532,186.700989 250.204532,192.500844" id="Fill-7" fill="#CD93A0"></path>
                        <g id="Group-12" transform="translate(76.204532, 72.000000)">
                            <mask id="mask-6" fill="white">
                                <use xlink:href="#path-5"></use>
                            </mask>
                            <g id="Clip-11"></g>
                            <polygon id="Fill-10" fill="#8F5A3B" mask="url(#mask-6)" points="-4.15901389 24.97656 64.4659861 24.97656 64.4659861 -3.58344 -4.15901389 -3.58344"></polygon>
                        </g>
                        <g id="Group-15" transform="translate(121.204532, 35.000000)">
                            <mask id="mask-8" fill="white">
                                <use xlink:href="#path-7"></use>
                            </mask>
                            <g id="Clip-14"></g>
                            <polygon id="Fill-13" fill="#DB1D49" mask="url(#mask-8)" points="-4.10304478 55.9704516 59.4193433 55.9704516 59.4193433 -3.57793548 -4.10304478 -3.57793548"></polygon>
                        </g>
                        <g id="Group-18" transform="translate(195.204532, 148.000000)">
                            <mask id="mask-10" fill="white">
                                <use xlink:href="#path-9"></use>
                            </mask>
                            <g id="Clip-17"></g>
                            <polygon id="Fill-16" fill="#0F0F0F" mask="url(#mask-10)" points="-4.15376923 39.0412195 36.4616154 39.0412195 36.4616154 -3.64170732 -4.15376923 -3.64170732"></polygon>
                        </g>
                        <g id="Group-21" transform="translate(154.204532, 112.000000)">
                            <mask id="mask-12" fill="white">
                                <use xlink:href="#path-11"></use>
                            </mask>
                            <g id="Clip-20"></g>
                            <polygon id="Fill-19" fill="#660D22" mask="url(#mask-12)" points="-4.07087805 57.9943125 71.3925366 57.9943125 71.3925366 -3.5994375 -4.07087805 -3.5994375"></polygon>
                        </g>
                        <g id="Group-24" transform="translate(150.204532, 29.000000)">
                            <mask id="mask-14" fill="white">
                                <use xlink:href="#path-13"></use>
                            </mask>
                            <g id="Clip-23"></g>
                            <polygon id="Fill-22" fill="#6E422A" mask="url(#mask-14)" points="-4.20771429 24.8236154 21.5065714 24.8236154 21.5065714 -3.44561538 -4.20771429 -3.44561538"></polygon>
                        </g>
                        <g id="Group-27" transform="translate(118.204532, 7.000000)">
                            <mask id="mask-16" fill="white">
                                <use xlink:href="#path-15"></use>
                            </mask>
                            <g id="Clip-26"></g>
                            <polygon id="Fill-25" fill="#90593B" mask="url(#mask-16)" points="-4.16197826 49.019434 42.4684565 49.019434 42.4684565 -3.62207547 -4.16197826 -3.62207547"></polygon>
                        </g>
                        <g id="Group-30" transform="translate(114.204532, 0.000000)">
                            <mask id="mask-18" fill="white">
                                <use xlink:href="#path-17"></use>
                            </mask>
                            <g id="Clip-29"></g>
                            <polygon id="Fill-28" fill="#0E0F0F" mask="url(#mask-18)" points="-4.13389474 43.0136087 51.4450526 43.0136087 51.4450526 -3.61682609 -4.13389474 -3.61682609"></polygon>
                        </g>
                        <g id="Group-33" transform="translate(153.204532, 31.000000)">
                            <mask id="mask-20" fill="white">
                                <use xlink:href="#path-19"></use>
                            </mask>
                            <g id="Clip-32"></g>
                            <polygon id="Fill-31" fill="#BD2348" mask="url(#mask-20)" points="-4.14927381 113.000047 74.457869 113.000047 74.457869 -3.60460465 -4.14927381 -3.60460465"></polygon>
                        </g>
                        <g id="Group-36" transform="translate(135.204532, 107.000000)">
                            <mask id="mask-22" fill="white">
                                <use xlink:href="#path-21"></use>
                            </mask>
                            <g id="Clip-35"></g>
                            <polygon id="Fill-34" fill="#84152F" mask="url(#mask-22)" points="-4.14927381 68.03968 74.457869 68.03968 74.457869 -3.64032 -4.14927381 -3.64032"></polygon>
                        </g>
                        <g id="Group-39" transform="translate(104.204532, 93.000000)">
                            <mask id="mask-24" fill="white">
                                <use xlink:href="#path-23"></use>
                            </mask>
                            <g id="Clip-38"></g>
                            <polygon id="Fill-37" fill="#8F5A3B" mask="url(#mask-24)" points="-4.07824615 39.9633488 57.3986769 39.9633488 57.3986769 -3.57153488 -4.07824615 -3.57153488"></polygon>
                        </g>
                        <g id="Group-42" transform="translate(145.204532, 39.000000)">
                            <mask id="mask-26" fill="white">
                                <use xlink:href="#path-25"></use>
                            </mask>
                            <g id="Clip-41"></g>
                            <polygon id="Fill-40" fill="#DB1D49" mask="url(#mask-26)" points="-4.15376923 67.9865263 36.4616154 67.9865263 36.4616154 -3.59242105 -4.15376923 -3.59242105"></polygon>
                        </g>
                        <g id="Group-45" transform="translate(180.204532, 159.000000)">
                            <mask id="mask-28" fill="white">
                                <use xlink:href="#path-27"></use>
                            </mask>
                            <g id="Clip-44"></g>
                            <polygon id="Fill-43" fill="#0F0F0F" mask="url(#mask-28)" points="-4.15376923 37.0056923 36.4616154 37.0056923 36.4616154 -3.60969231 -4.15376923 -3.60969231"></polygon>
                        </g>
                        <g id="Group-48" transform="translate(2.204532, 126.000000)">
                            <mask id="mask-30" fill="white">
                                <use xlink:href="#path-29"></use>
                            </mask>
                            <g id="Clip-47"></g>
                            <polygon id="Fill-46" fill="#864724" mask="url(#mask-30)" points="-4.19755072 71.0149114 62.4981014 71.0149114 62.4981014 -3.618 -4.19755072 -3.618"></polygon>
                        </g>
                        <g id="Group-51" transform="translate(33.204532, 52.000000)">
                            <mask id="mask-32" fill="white">
                                <use xlink:href="#path-31"></use>
                            </mask>
                            <g id="Clip-50"></g>
                            <polygon id="Fill-49" fill="#793C1B" mask="url(#mask-32)" points="-4.07223864 142.007926 76.3936705 142.007926 76.3936705 -3.61170552 -4.07223864 -3.61170552"></polygon>
                        </g>
                        <g id="Group-54" transform="translate(30.204532, 157.000000)">
                            <mask id="mask-34" fill="white">
                                <use xlink:href="#path-33"></use>
                            </mask>
                            <g id="Clip-53"></g>
                            <polygon id="Fill-52" fill="#984E26" mask="url(#mask-34)" points="-4.18708824 39.9633488 61.4893824 39.9633488 61.4893824 -3.57153488 -4.18708824 -3.57153488"></polygon>
                        </g>
                        <g id="Group-57" transform="translate(95.204532, 50.000000)">
                            <mask id="mask-36" fill="white">
                                <use xlink:href="#path-35"></use>
                            </mask>
                            <g id="Clip-56"></g>
                            <polygon id="Fill-55" fill="#793C1C" mask="url(#mask-36)" points="-4.15376923 10.682 14.4616154 10.682 14.4616154 -3.318 -4.15376923 -3.318"></polygon>
                        </g>
                        <g id="Group-60" transform="translate(45.204532, 47.000000)">
                            <mask id="mask-38" fill="white">
                                <use xlink:href="#path-37"></use>
                            </mask>
                            <g id="Clip-59"></g>
                            <polygon id="Fill-58" fill="#864724" mask="url(#mask-38)" points="-4.09083333 17.1028 28.4091667 17.1028 28.4091667 -3.6972 -4.09083333 -3.6972"></polygon>
                        </g>
                        <g id="Group-63" transform="translate(100.204532, 48.000000)">
                            <mask id="mask-40" fill="white">
                                <use xlink:href="#path-39"></use>
                            </mask>
                            <g id="Clip-62"></g>
                            <polygon id="Fill-61" fill="#E01F26" mask="url(#mask-40)" points="-4.20771429 10.0577143 9.50657143 10.0577143 9.50657143 -3.65657143 -4.20771429 -3.65657143"></polygon>
                        </g>
                        <g id="Group-66" transform="translate(70.204532, 110.000000)">
                            <mask id="mask-42" fill="white">
                                <use xlink:href="#path-41"></use>
                            </mask>
                            <g id="Clip-65"></g>
                            <polygon id="Fill-64" fill="#984E26" mask="url(#mask-42)" points="-4.12802273 85.961102 40.4401591 85.961102 40.4401591 -3.5695102 -4.12802273 -3.5695102"></polygon>
                        </g>
                        <g id="Group-69" transform="translate(75.204532, 70.000000)">
                            <mask id="mask-44" fill="white">
                                <use xlink:href="#path-43"></use>
                            </mask>
                            <g id="Clip-68"></g>
                            <polygon id="Fill-67" fill="#793C1C" mask="url(#mask-44)" points="-4.8 15.7142857 16.8 15.7142857 16.8 -4.71428571 -4.8 -4.71428571"></polygon>
                        </g>
                    </g>
                </g>
                <g id="Group-72" transform="translate(446.000000, 107.000000)">
                    <mask id="mask-46" fill="white">
                        <use xlink:href="#path-45"></use>
                    </mask>
                    <g id="Clip-71"></g>
                    <polygon id="Fill-70" fill="#D197A4" mask="url(#mask-46)" points="-5.05927551 222.28336 129.950929 222.28336 129.950929 -4.43664 -5.05927551 -4.43664"></polygon>
                </g>
                <g id="Group-75" transform="translate(491.000000, 254.000000)">
                    <mask id="mask-48" fill="white">
                        <use xlink:href="#path-47"></use>
                    </mask>
                    <g id="Clip-74"></g>
                    <polygon id="Fill-73" fill="#F9CAD6" mask="url(#mask-48)" points="-5.08750909 124.392606 74.7124909 124.392606 74.7124909 -4.39527273 -5.08750909 -4.39527273"></polygon>
                </g>
                <g id="Group-78" transform="translate(159.000000, 247.000000)">
                    <mask id="mask-50" fill="white">
                        <use xlink:href="#path-49"></use>
                    </mask>
                    <g id="Clip-77"></g>
                    <polygon id="Fill-76" fill="#F9CAD5" mask="url(#mask-50)" points="-19.5189677 138.467947 68.2229677 138.467947 68.2229677 -4.41700885 -19.5189677 -4.41700885"></polygon>
                </g>
                <g id="Group-81" transform="translate(158.000000, 114.000000)">
                    <mask id="mask-52" fill="white">
                        <use xlink:href="#path-51"></use>
                    </mask>
                    <g id="Clip-80"></g>
                    <polygon id="Fill-79" fill="#D197A4" mask="url(#mask-52)" points="-29.2776327 220.344828 105.732571 220.344828 105.732571 -5.17241379 -29.2776327 -5.17241379"></polygon>
                </g>
            </g>
        </g>
    </g>
</svg>