<?xml version="1.0" encoding="UTF-8"?>
<svg width="24px" height="28px" viewBox="0 0 24 28" version="1.1" xmlns="http://www.w3.org/2000/svg" xmlns:xlink="http://www.w3.org/1999/xlink">
    <!-- Generator: Sketch 53.2 (72643) - https://sketchapp.com -->
    <title>Group 3</title>
    
    <defs>
        <polygon id="path-1" points="0 0 24 0 24 28 0 28"></polygon>
    </defs>
    <g id="UI-Aplicativo" stroke="none" strokeWidth="1" fill="none" fillRule="evenodd">
        <g id="Mapa" transform="translate(-307.000000, -763.000000)">
            <g id="Group-5" transform="translate(2.000000, 746.000000)">
                <g id="Group-3" transform="translate(305.000000, 17.000000)">
                    <mask id="mask-2" fill="white">
                        <use xlink:href="#path-1"></use>
                    </mask>
                    <g id="Clip-2"></g>
                    <path d="M17.4912218,13.5624924 C16.2812377,13.5624924 15.2972343,12.5811794 15.2972343,11.3749913 C15.2972343,10.5031627 15.7348251,9.71746696 16.6100067,9.37156834 C16.611707,9.37091209 16.6136268,9.3721699 16.6136268,9.37397459 L16.6136268,11.34721 C16.6136268,11.8189993 16.9762929,12.2268042 17.4489875,12.2490073 C17.9518494,12.2726324 18.3688168,11.8714993 18.3688168,11.3749913 L18.3688168,9.37534178 C18.3688168,9.3734824 18.3707365,9.37222459 18.3724368,9.37288084 C19.2476185,9.71883414 19.6852093,10.5103814 19.6852093,11.3749913 C19.6852093,12.5811794 18.7012059,13.5624924 17.4912218,13.5624924 L17.4912218,13.5624924 Z M6.52128433,13.5624924 C5.31130023,13.5624924 4.32729684,12.5811794 4.32729684,11.3749913 C4.32729684,10.5031627 4.76488764,9.71746696 5.64006925,9.37156834 C5.64176959,9.37091209 5.64368933,9.3721699 5.64368933,9.37397459 L5.64368933,11.34721 C5.64368933,11.8189993 6.00641031,12.2268042 6.47905007,12.2490073 C6.981912,12.2726324 7.39887932,11.8714993 7.39887932,11.3749913 L7.39887932,9.37534178 C7.39887932,9.3734824 7.40079906,9.37222459 7.4024994,9.37288084 C8.27768101,9.71883414 8.71527181,10.5103814 8.71527181,11.3749913 C8.71527181,12.5811794 7.73126843,13.5624924 6.52128433,13.5624924 L6.52128433,13.5624924 Z M7.39887932,6.34373862 C7.39887932,3.79666697 9.4887621,1.72696276 12.0488713,1.75015027 C14.586876,1.77317372 16.6136268,3.87421389 16.6136268,6.40482459 L16.6136268,7.43491888 C16.6136268,7.43634076 16.6124749,7.4374892 16.6110488,7.4374892 L7.40145726,7.4374892 C7.40003117,7.4374892 7.39887932,7.43634076 7.39887932,7.43491888 L7.39887932,6.34373862 Z M18.3688168,7.4374892 L18.3688168,6.41603553 C18.3688168,2.91422901 15.5534372,0.0190712351 12.041302,9.46626507e-05 C8.51709989,-0.0189365973 5.64368933,2.83405709 5.64368933,6.34373862 L5.64368933,7.4374892 L18.3688168,7.4374892 Z M1.38740845,8.59675543 L0.00338629742,26.7603431 C-0.047569062,27.4292263 0.483046812,28 1.15583308,28 L22.8442221,28 C23.5166793,28 24.0471855,27.4297185 23.9966689,26.7611087 L22.6243846,8.59752106 C22.574965,7.94323946 22.0280588,7.4374892 21.3699174,7.4374892 L2.6418208,7.4374892 C1.9840085,7.4374892 1.43726682,7.94280196 1.38740845,8.59675543 L1.38740845,8.59675543 Z" id="Fill-1" fill="#EDEDED" mask="url(#mask-2)"></path>
                </g>
            </g>
        </g>
    </g>
</svg>