<?xml version="1.0" standalone="no"?>
<!DOCTYPE svg PUBLIC "-//W3C//DTD SVG 20010904//EN"
 "http://www.w3.org/TR/2001/REC-SVG-20010904/DTD/svg10.dtd">
<svg version="1.0" xmlns="http://www.w3.org/2000/svg"
 width="700.000000pt" height="700.000000pt" viewBox="0 0 700.000000 700.000000"
 preserveAspectRatio="xMidYMid meet">
<metadata>
Created by potrace 1.11, written by Peter Selinger 2001-2013
</metadata>
<g transform="translate(0.000000,700.000000) scale(0.100000,-0.100000)"
fill="#000000" stroke="none">
<path d="M769 6984 c-387 -70 -686 -372 -754 -761 -23 -129 -23 -5317 0 -5446
34 -193 122 -364 259 -502 124 -124 272 -206 452 -252 65 -17 224 -18 2774
-18 2550 0 2709 1 2774 18 180 46 324 126 450 251 139 138 227 308 261 503 23
129 23 5317 0 5446 -68 393 -369 694 -762 762 -75 13 -428 15 -2732 14 -2200
-1 -2659 -3 -2722 -15z m2919 -1265 c286 -31 562 -129 796 -282 129 -85 216
-158 339 -286 435 -455 615 -1135 463 -1757 -67 -273 -193 -533 -364 -754 -94
-120 -1293 -1330 -1340 -1352 -46 -22 -92 -23 -138 -3 -37 15 -1220 1180
-1328 1307 -324 381 -498 942 -446 1436 27 249 83 441 196 667 112 227 260
420 443 579 387 337 887 499 1379 445z"/>
<path d="M3204 4701 c-61 -37 -110 -153 -120 -285 -15 -187 47 -286 178 -286
60 0 108 28 138 81 23 41 25 54 25 169 -1 103 -5 135 -23 184 -25 70 -62 121
-102 141 -38 20 -59 19 -96 -4z"/>
<path d="M3784 4710 c-33 -13 -80 -75 -105 -137 -20 -50 -23 -76 -24 -193 0
-117 3 -139 20 -169 35 -59 67 -76 145 -76 76 0 110 17 143 73 48 81 42 273
-12 387 -49 104 -103 141 -167 115z"/>
<path d="M2691 4062 c-15 -15 -38 -54 -51 -87 -21 -53 -24 -77 -25 -200 0
-157 13 -203 66 -230 46 -24 112 -19 148 11 94 79 75 410 -29 514 -29 29 -76
26 -109 -8z"/>
<path d="M4241 4055 c-47 -54 -75 -158 -76 -285 0 -174 38 -240 140 -240 63 0
96 22 118 79 50 124 17 373 -60 453 -39 41 -82 38 -122 -7z"/>
<path d="M3397 3990 c-102 -40 -171 -112 -245 -255 -37 -73 -62 -106 -133
-175 -48 -47 -97 -104 -109 -126 -44 -87 -43 -219 1 -306 28 -55 94 -119 154
-148 41 -20 65 -25 135 -25 78 0 92 3 170 40 76 35 93 39 160 39 67 -1 84 -5
155 -40 74 -36 86 -39 165 -39 73 0 93 4 142 28 68 33 121 90 156 166 37 79
37 192 1 271 -25 54 -41 72 -151 177 -39 36 -70 81 -108 152 -64 123 -146 207
-235 240 -73 27 -190 28 -258 1z"/>
</g>
</svg>
