<svg xmlns="http://www.w3.org/2000/svg" xmlns:xlink="http://www.w3.org/1999/xlink" width="1002.06" height="804.69" viewBox="0 0 1002.06 804.69"><defs><clipPath id="a" transform="translate(0 -301.25)"><path d="M655.34,905.15a17.81,17.81,0,0,0,24.73-4.77,17.82,17.82,0,0,0-24.73,4.77" fill="none" clip-rule="evenodd"/></clipPath><clipPath id="b" transform="translate(0 -301.25)"><rect x="118.71" width="739.41" height="950.39" fill="none"/></clipPath><clipPath id="c" transform="translate(0 -301.25)"><path d="M714.55,869.67h0a22.67,22.67,0,0,0,31.1,7.88,22.69,22.69,0,0,0-31.1-7.88" fill="none" clip-rule="evenodd"/></clipPath><clipPath id="e" transform="translate(0 -301.25)"><path d="M748.5,915a16.4,16.4,0,0,0,20.75,10.37A16.39,16.39,0,0,0,748.5,915" fill="none" clip-rule="evenodd"/></clipPath><clipPath id="g" transform="translate(0 -301.25)"><path d="M295.28,808.09h0a25.18,25.18,0,0,0,35-6.77,25.18,25.18,0,0,0-35,6.77" fill="none" clip-rule="evenodd"/></clipPath><clipPath id="i" transform="translate(0 -301.25)"><path d="M290,863.51h0a18.9,18.9,0,0,0,20.82,16.78A18.92,18.92,0,0,0,290,863.51" fill="none" clip-rule="evenodd"/></clipPath><clipPath id="k" transform="translate(0 -301.25)"><path d="M522.28,731.34h0a21.32,21.32,0,0,0,27.21,13,21.34,21.34,0,0,0-27.21-13" fill="none" clip-rule="evenodd"/></clipPath><clipPath id="m" transform="translate(0 -301.25)"><path d="M519.77,697.12h0a14.66,14.66,0,0,0,20.75.08,14.67,14.67,0,0,0-20.75-.08" fill="none" clip-rule="evenodd"/></clipPath><clipPath id="o" transform="translate(0 -301.25)"><path d="M447.55,714.91h0a22,22,0,0,0,31.14,1,22,22,0,0,0-31.14-1" fill="none" clip-rule="evenodd"/></clipPath><clipPath id="q" transform="translate(0 -301.25)"><path d="M397.62,553h0a17.65,17.65,0,0,0,24.63,4,17.65,17.65,0,0,0-24.63-4" fill="none" clip-rule="evenodd"/></clipPath><clipPath id="s" transform="translate(0 -301.25)"><path d="M422.41,557.06a.16.16,0,0,1-.19.14l-24.62-4a.16.16,0,0,1-.14-.19.16.16,0,0,1,.19-.14l24.62,4a.16.16,0,0,1,.14.19" fill="none" clip-rule="evenodd"/></clipPath><clipPath id="u" transform="translate(0 -301.25)"><path d="M443.62,533.32h0a17.43,17.43,0,0,0,24.62-1.54,17.43,17.43,0,0,0-24.62,1.54" fill="none" clip-rule="evenodd"/></clipPath><clipPath id="w" transform="translate(0 -301.25)"><path d="M468.88,564.65h0a19.27,19.27,0,0,0,24.47,12,19.29,19.29,0,0,0-24.47-12" fill="none" clip-rule="evenodd"/></clipPath><clipPath id="y" transform="translate(0 -301.25)"><path d="M715.6,584.89h0a15.57,15.57,0,0,0,15.57-15.57,15.57,15.57,0,0,0-15.57,15.57" fill="none" clip-rule="evenodd"/></clipPath><clipPath id="aa" transform="translate(0 -301.25)"><path d="M735.34,596.89a14.78,14.78,0,0,0,18.15,10.38,14.78,14.78,0,0,0-18.15-10.38" fill="none" clip-rule="evenodd"/></clipPath><clipPath id="ac" transform="translate(0 -301.25)"><path d="M755.31,573h0a15.83,15.83,0,0,0,22-4.08,15.81,15.81,0,0,0-22,4.08" fill="none" clip-rule="evenodd"/></clipPath><clipPath id="ae" transform="translate(0 -301.25)"><path d="M760.33,524.46h0a16,16,0,0,0,20.75-9.08,16,16,0,0,0-20.75,9.08" fill="none" clip-rule="evenodd"/></clipPath><clipPath id="ag" transform="translate(0 -301.25)"><path d="M203.18,523.18h0a13.88,13.88,0,0,0,19.37-3.11,13.87,13.87,0,0,0-19.37,3.11" fill="none" clip-rule="evenodd"/></clipPath><clipPath id="ai" transform="translate(0 -301.25)"><path d="M259.47,527.31h0a17.64,17.64,0,0,0,22,11.68,17.64,17.64,0,0,0-22-11.68" fill="none" clip-rule="evenodd"/></clipPath><clipPath id="ak" transform="translate(0 -301.25)"><path d="M213.17,779.11h0a15.61,15.61,0,0,0,16.45-14.72,15.61,15.61,0,0,0-16.45,14.72" fill="none" clip-rule="evenodd"/></clipPath><clipPath id="am" transform="translate(0 -301.25)"><path d="M229.73,764.29a.14.14,0,0,1,0,.21l-16.45,14.72a.15.15,0,1,1-.2-.22l16.45-14.72a.14.14,0,0,1,.21,0" fill="none" clip-rule="evenodd"/></clipPath><clipPath id="ao" transform="translate(0 -301.25)"><path d="M744.31,651.35h0a27.85,27.85,0,0,0,36.78,14.09,27.85,27.85,0,0,0-36.78-14.09" fill="none" clip-rule="evenodd"/></clipPath><clipPath id="aq" transform="translate(0 -301.25)"><path d="M781.34,665.53a.28.28,0,0,1-.35.16l-36.78-14.1a.26.26,0,1,1,.19-.49l36.78,14.09a.27.27,0,0,1,.16.34" fill="none" clip-rule="evenodd"/></clipPath><clipPath id="as" transform="translate(0 -301.25)"><path d="M267,655.17H166.42c-6.26-4.7-13.33-13.79-16.39-21S149,617,156.16,614c9.48-4,19.76,6,29.89,4.29,6.51-1.06,11.29-6.67,14.49-12.44s5.49-12.17,9.94-17,12.06-7.79,17.72-4.4c10.25,6.15,5.65,26.25,17,29.91,7.62,2.45,14.85-5.51,22.85-5.61,9.1-.12,15.28,10.49,14.08,19.51s-9.27,20-15.16,26.94" fill="none" clip-rule="evenodd"/></clipPath></defs><title>login-illustration</title><rect y="132.3" width="1002.06" height="672.39" fill="#316c7f"/><path d="M0,1105.94S346.5,860.78,1000,845.32l2.06,260.62Z" transform="translate(0 -301.25)" fill="#1d5063"/><path d="M374.89,393.32c7.94,4.15,9.23,13,15.61,17.74,5.94,4.4,14.83,4.48,22,5,9.75.65,19.88.9,28.61,5.28,10.57,5.31,16.73,15.18,20.53,26.55q19.5.86,39,1.84a32.74,32.74,0,0,1,16.48-21.59c17.27-9.48,19-1.25,32.89,5.56,6.29,3.08,14.87,3.8,20.66.11,4.45-2.83,6.37-7.56,7.69-12.07,3.06-10.46,8.62-18.18,21.77-21.18,6.73-1.54,15.23.49,23,.85a19.06,19.06,0,0,0-1.54-3.4,21.3,21.3,0,0,0-16.2-10.14c-4.39-.37-8.79.65-13.2.54-24-.55-1-29.33-11.76-40.68-7.14-7.55-19.93-1.74-27.25,5.63s-15.06,16.89-25.41,16.05c-12.22-1-17.95-15.48-19.93-27.58s-4.51-26.53-15.75-31.41c-8.25-3.58-18.21,0-24.6,6.36s-10,14.86-13.47,23.16c-1.86-9.32-12.2-16-21.47-13.9s-17.37,14.6-15,23.8c-1.46-2.94-6.26-2.38-8.21.26s-1.84,6.23-1.56,9.51.6,6.78-1,9.63c-2.71,4.73-9.65,5.26-14.55,2.9s-8.48-6.74-12.52-10.4-9.28-6.82-14.63-5.83c-6.9,1.28-10.85,9.05-10.78,16.06s3,13.47,4.91,20.13c5-1.38,10.06-1.69,15.7,1.25" transform="translate(0 -301.25)" fill="#40c0c3" fillRule="evenodd"/><path d="M578.41,421.71c-1.32,4.51-3.24,9.24-7.69,12.07-5.79,3.69-14.37,3-20.66-.11-13.93-6.81-15.62-15-32.89-5.56a32.71,32.71,0,0,0-16.48,21.59q215.63,11.1,429.89,39.51a36.31,36.31,0,0,0-19.89-30.52c-10.16-5.28-23.6-7.82-29.2-16.58-10.56-16.51,16.84-36.9,7.37-53.85-5.75-10.29-22.55-13-35.84-10.17s-24.83,9.63-37.72,13.52a62.83,62.83,0,0,1-10.7,2.21c-10.31,1.18-21-.34-27.67-6.59-7-6.58-7.5-16.14-9-24.84s-5.7-18.5-15.79-21.3c-13.22-3.67-25.46,7-33,16.67s-17.92,21-31.72,19.32c-8.1-1-14.17-6.36-20.77-10.36s-16.35-6.61-22.55-2.2c-11.18,7.93,3.54,26.51-7.87,34.21-3.62,2.44-8.21,2.88-13.1,2.65-7.74-.36-16.25-2.39-23-.85C587,403.53,581.47,411.25,578.41,421.71Z" transform="translate(0 -301.25)" fill="#0ba5a3" fillRule="evenodd"/><path d="M955.46,305.89c-7,2.73-5.34,13.2-9.19,19.62s-13.45,7.7-20.47,4.66-12.15-9.12-17.24-14.82-10.75-11.48-18.12-13.51-16.74,1.27-18.7,8.66c-2.19,8.25,4.89,18.84-1.34,24.67-8.41,7.87-24-8.77-32.52-1-2.73,2.36-2.54,6.71-1.22,10.07s3.51,6.4,4.2,9.94-1,8-4.52,8.58c-5.42.91-10.79-7.36-15.09-3.93-2,1.59-1.77,4.73-.71,7s2.79,4.35,3.35,6.84c1.07,4.72-2.41,9.33-6.38,12.11s-8.66,4.6-12.07,8a9.62,9.62,0,0,0-.84,1,61.88,61.88,0,0,0,10.7-2.21c12.89-3.89,24.42-10.68,37.72-13.52s30.09-.12,35.84,10.17c9.47,16.95-17.93,37.34-7.37,53.85,5.6,8.76,19,11.3,29.2,16.58a36.31,36.31,0,0,1,19.89,30.52q34.74,4.6,69.42,9.65V336.18l-31.27-25.64c-3.81-3.13-8.68-6.45-13.27-4.65" transform="translate(0 -301.25)" fill="#40c0c3" fillRule="evenodd"/><path d="M461.68,447.86c-3.8-11.37-10-21.24-20.53-26.55-8.73-4.38-18.86-4.63-28.61-5.28-7.21-.49-16.1-.57-22-5-6.38-4.74-7.67-13.59-15.61-17.74-5.64-2.94-10.72-2.63-15.7-1.25-5.75,1.59-11.38,4.61-17.61,5.76-13.62,2.52-28.84.32-39.05-9-8.93-8.18-14.4-21.69-26.28-24.05-14.32-2.85-27.58,13.07-41.81,9.83-9.73-2.21-15.24-12.44-18.24-22s-5.09-20-12.43-26.8c-10.63-9.8-28.14-7.34-40.27.53s-20.83,19.94-31.33,29.88-24.63,18.17-38.81,15.32c-10.12-2-20.16-9.52-29.76-5.73-13.92,5.5-11.36,28-23.46,36.84-8.44,6.15-20.07,3.06-30.41,1.62a37.69,37.69,0,0,0-9.73,0v43.08q230.72-9.69,461.68.54" transform="translate(0 -301.25)" fill="#0ba5a3" fillRule="evenodd"/><g clip-path="url(#a)"><g clip-path="url(#b)"><rect x="645.48" y="586.21" width="44.44" height="30.61" fill="#3fc0c3"/></g></g><g clip-path="url(#c)"><g clip-path="url(#b)"><rect x="704.69" y="555.36" width="50.82" height="34" fill="#3fc0c3"/></g></g><g clip-path="url(#e)"><g clip-path="url(#b)"><rect x="738.64" y="603.05" width="40.47" height="31.79" fill="#3fc0c3"/></g></g><g clip-path="url(#g)"><g clip-path="url(#b)"><rect x="285.42" y="485.89" width="54.68" height="35.12" fill="#3fc0c3"/></g></g><g clip-path="url(#i)"><g clip-path="url(#b)"><rect x="280.09" y="552.29" width="40.54" height="36.71" fill="#3fc0c3"/></g></g><g clip-path="url(#k)"><g clip-path="url(#b)"><rect x="512.42" y="419.02" width="46.93" height="35.18" fill="#3fc0c3"/></g></g><g clip-path="url(#m)"><g clip-path="url(#b)"><rect x="509.91" y="381.75" width="40.47" height="28.31" fill="#3fc0c3"/></g></g><g clip-path="url(#o)"><g clip-path="url(#b)"><rect x="437.69" y="397.82" width="50.86" height="32.64" fill="#3fc0c3"/></g></g><g clip-path="url(#q)"><g clip-path="url(#b)"><rect x="387.76" y="238.59" width="44.34" height="30.38" fill="#3fc0c3"/></g></g><g clip-path="url(#s)"><g clip-path="url(#b)"><rect x="387.6" y="241.75" width="44.68" height="24.07" fill="#f47e39"/></g></g><g clip-path="url(#u)"><g clip-path="url(#b)"><rect x="433.76" y="216.3" width="44.35" height="29.99" fill="#3fc0c3"/></g></g><g clip-path="url(#w)"><g clip-path="url(#b)"><rect x="459.02" y="252.5" width="44.18" height="33.82" fill="#3fc0c3"/></g></g><g clip-path="url(#y)"><g clip-path="url(#b)"><rect x="705.74" y="258.21" width="35.28" height="35.28" fill="#3fc0c3"/></g></g><g clip-path="url(#aa)"><g clip-path="url(#b)"><rect x="725.48" y="285.26" width="37.88" height="31.14" fill="#3fc0c3"/></g></g><g clip-path="url(#ac)"><g clip-path="url(#b)"><rect x="745.45" y="255.06" width="41.73" height="29.37" fill="#3fc0c3"/></g></g><g clip-path="url(#ae)"><g clip-path="url(#b)"><rect x="750.47" y="203.17" width="40.47" height="31.01" fill="#3fc0c3"/></g></g><g clip-path="url(#ag)"><g clip-path="url(#b)"><rect x="193.32" y="206.32" width="39.09" height="28.09" fill="#3fc0c3"/></g></g><g clip-path="url(#ai)"><g clip-path="url(#b)"><rect x="249.61" y="215.42" width="41.76" height="32.96" fill="#3fc0c3"/></g></g><g clip-path="url(#ak)"><g clip-path="url(#b)"><rect x="203.31" y="453.25" width="36.17" height="34.49" fill="#3fc0c3"/></g></g><g clip-path="url(#am)"><g clip-path="url(#b)"><rect x="203.16" y="453.13" width="36.47" height="34.74" fill="#f47e39"/></g></g><g clip-path="url(#ao)"><g clip-path="url(#b)"><rect x="734.45" y="337.81" width="56.5" height="38.66" fill="#3fc0c3"/></g></g><g clip-path="url(#aq)"><g clip-path="url(#b)"><rect x="734.18" y="339.97" width="57.03" height="34.34" fill="#f47e39"/></g></g><path d="M808.52,773.83H678.73c-7.47-1.62-11-13.69-10.9-21.33a17.3,17.3,0,0,1,13.57-16.27c6.59-1.28,13.74,1.41,20-1.1,10.53-4.26,10.61-18.92,16-28.92a26.28,26.28,0,0,1,44-3.51c7.91,10.37,9,27.2,21.28,31.64,5.34,1.93,11.36.69,16.85,2.14a18,18,0,0,1,12.62,12.94c1.47,6.15,1.1,20.21-3.64,24.41" transform="translate(0 -301.25)" fill="#5698af" fillRule="evenodd"/><path d="M735.66,804.37H597.29c-3.61-5.33-9.91-12.28-10.72-18.66S588.85,772,595,770.1c5-1.49,10.29.91,15.48.62,7.67-.44,13.78-6.65,17.72-13.25s6.58-14,11.58-19.87,13.52-9.75,20.43-6.38,8.94,11.72,10.86,19,5.63,15.63,13.06,16.94c6.9,1.23,12.91-4.29,18.56-8.44s14.58-6.79,18.9-1.27c3.33,4.25,1.48,10.32.4,15.6s0,12.44,5.32,13.47c3.85.76,7.4-2.43,11.31-2.74a8.22,8.22,0,0,1,8.5,7.94c0,4.36-7.11,12.63-11.47,12.63" transform="translate(0 -301.25)" fill="#1d5063" fillRule="evenodd"/><g clip-path="url(#as)"><g clip-path="url(#b)"><rect x="138.78" y="271.85" width="153.39" height="91.93" fill="#5698af"/></g></g><path d="M414.47,672.74H260.67c-7.14-6.67-12.25-16.88-14.89-26.29s1.81-21.52,11.37-23.51c9.92-2.06,19.54,7.22,29.48,5.32,10.94-2.08,14.79-15.39,17.31-26.23s9.15-23.9,20.22-22.72c9.51,1,14.12,11.89,16.81,21.06s7.33,20,16.84,21c7.76.79,14.08-5.64,20.12-10.58s15.63-8.53,21-2.87c4.84,5.08,2.22,13.27.23,20s-1.6,16.26,5.18,18.07c4.89,1.31,9.56-2.61,14.55-3.42,6.7-1.09,13.68,4.62,13.94,11.4s-11.58,18.74-18.37,18.74" transform="translate(0 -301.25)" fill="#1d5063" fillRule="evenodd"/><path d="M540.35,510.9,389.5,508.69c-4.53-.07-8.76-13.31-6-16.9s7.62-4.78,12.13-5.1,9.19-.06,13.39-1.74c8.51-3.38,12.11-13.15,16-21.42s11.42-17,20.39-15.19c7.54,1.57,11.41,9.72,14.44,16.8s7.68,15.07,15.36,15.58,13.83-6.88,21.46-7.23c2.28-.11,6.05.28,7.42,2.3,1.53,2.26,1.35,6.92,2.52,9.6a14.63,14.63,0,0,0,6.42,7.37c3.61,1.84,7.9,1.54,11.84,2.49a19,19,0,0,1,9.36,5.61c2.8,3.05,3.43,7.1,6.1,10" transform="translate(0 -301.25)" fill="#1d5063" fillRule="evenodd"/></svg>